<?xml version="1.0"?>
<svg height="256" viewBox="0 0 256 256" width="256" xmlns="http://www.w3.org/2000/svg">
  <g>
    <circle
       style="fill: #3468d1;"
       cx="128"
       cy="128"
       r="128" />
    <path
       style="fill: #fff; fill-rule: evenodd;"
       d="m 265.727,717.735 a 12.652,12.652 0 1 1 -12.654,12.652 12.654,12.654 0 0 1 12.654,-12.652 z m 30.546,0 a 12.652,12.652 0 1 1 -12.655,12.652 12.654,12.654 0 0 1 12.655,-12.652 z m 0,53.226 a 12.652,12.652 0 1 1 -12.655,12.652 12.653,12.653 0 0 1 12.655,-12.652 z m -30.546,0 a 12.652,12.652 0 1 1 -12.654,12.652 12.653,12.653 0 0 1 12.654,-12.652 z m -15.709,-26.177 a 12.652,12.652 0 1 1 -12.654,12.652 12.654,12.654 0 0 1 12.654,-12.652 z m 61.964,0 a 12.652,12.652 0 1 1 -12.655,12.652 12.653,12.653 0 0 1 12.655,-12.652 z m 14.4,-21.813 a 7.853,7.853 0 1 1 -7.855,7.853 7.853,7.853 0 0 1 7.855,-7.853 z m 0,52.352 a 7.853,7.853 0 1 1 -7.855,7.853 7.853,7.853 0 0 1 7.855,-7.853 z m -90.764,0 a 7.853,7.853 0 1 1 -7.854,7.853 7.854,7.854 0 0 1 7.854,-7.853 z m 0,-52.352 a 7.853,7.853 0 1 1 -7.854,7.853 7.854,7.854 0 0 1 7.854,-7.853 z M 281,696.794 a 7.853,7.853 0 1 1 -7.855,7.853 7.853,7.853 0 0 1 7.855,-7.853 z m 0,104.706 a 7.853,7.853 0 1 1 -7.855,7.853 A 7.853,7.853 0 0 1 281,801.5 Z m 33.6,7.853 a 6.544,6.544 0 1 1 -6.546,6.544 6.544,6.544 0 0 1 6.546,-6.544 z m -67.2,0 a 6.544,6.544 0 1 1 -6.546,6.544 6.544,6.544 0 0 1 6.546,-6.544 z m 0,-117.794 a 6.544,6.544 0 1 1 -6.546,6.544 6.544,6.544 0 0 1 6.546,-6.544 z m 67.2,0 a 6.544,6.544 0 1 1 -6.546,6.544 6.544,6.544 0 0 1 6.546,-6.544 z m 34.036,58.461 a 6.544,6.544 0 1 1 -6.545,6.544 6.545,6.545 0 0 1 6.545,-6.544 z m -135.273,0 a 6.544,6.544 0 1 1 -6.545,6.544 6.544,6.544 0 0 1 6.545,-6.544 z m -4.8,-40.138 a 5.236,5.236 0 1 1 -5.236,5.235 5.236,5.236 0 0 1 5.236,-5.235 z m 0,83.765 a 5.236,5.236 0 1 1 -5.236,5.235 5.236,5.236 0 0 1 5.236,-5.235 z m 144.873,0 a 5.236,5.236 0 1 1 -5.236,5.235 5.236,5.236 0 0 1 5.236,-5.235 z m 0,-83.765 a 5.236,5.236 0 1 1 -5.236,5.235 5.236,5.236 0 0 1 5.236,-5.235 z M 281,668 a 5.236,5.236 0 1 1 -5.237,5.235 A 5.235,5.235 0 0 1 281,668 Z m 0,167.529 a 5.236,5.236 0 1 1 -5.237,5.236 5.236,5.236 0 0 1 5.237,-5.236 z m 46.254,-3.49 a 4.363,4.363 0 1 1 -4.363,4.363 4.363,4.363 0 0 1 4.363,-4.363 z m -92.509,0 a 4.363,4.363 0 1 1 -4.363,4.363 4.363,4.363 0 0 1 4.363,-4.363 z m 0,-158.8 a 4.363,4.363 0 1 1 -4.363,4.363 4.363,4.363 0 0 1 4.363,-4.367 z m 92.509,0 a 4.363,4.363 0 1 1 -4.363,4.363 4.363,4.363 0 0 1 4.363,-4.367 z m 45.382,79.4 a 4.363,4.363 0 1 1 -4.363,4.361 4.363,4.363 0 0 1 4.363,-4.363 z m -183.273,0 A 4.363,4.363 0 1 1 185,757 a 4.363,4.363 0 0 1 4.363,-4.363 z"
       transform="translate(-152,-629)" />
  </g>
</svg>
