<?xml version="1.0" encoding="utf-8"?>
<!-- Generator: Adobe Illustrator 27.8.1, SVG Export Plug-In . SVG Version: 6.00 Build 0)  -->
<svg version="1.1" id="Ebene_1" xmlns="http://www.w3.org/2000/svg" xmlns:xlink="http://www.w3.org/1999/xlink" x="0px" y="0px"
	 viewBox="0 0 170.9 40.4" style="enable-background:new 0 0 170.9 40.4;" xml:space="preserve">
<style type="text/css">
	.st0{fill:#3D3B39;}
	.st1{fill:url(#SVGID_1_);}
	.st2{fill:#FFFFFF;}
	.st3{fill:url(#SVGID_00000067205850146803286030000001497836895272971658_);}
</style>
<g>
	<path class="st0" d="M55.8,24.5h-6.2V8.7h6.2c4.9,0,8.4,3.1,8.4,7.9S60.8,24.5,55.8,24.5z M53,11.7v9.9h2.9c3.1,0,4.9-2.2,4.9-4.9
		c0-2.8-1.7-4.9-4.9-4.9H53z M80.5,24.5h-3.7l-1-2.7h-7.1l-1,2.7h-3.7l6.1-15.8h4.2L80.5,24.5z M74.9,18.9l-2.6-7.2l-2.6,7.2H74.9z
		 M84.9,23.1v5.8h-3V13.1h3v1.4c0.9-1.1,2.1-1.7,3.5-1.7c2.9,0,5.1,2.2,5.1,6s-2.1,6-5.1,6C87.1,24.8,85.9,24.3,84.9,23.1z
		 M90.4,18.8c0-2-1.2-3.3-2.9-3.3c-1,0-2.1,0.6-2.6,1.3v4c0.5,0.7,1.6,1.3,2.6,1.3C89.2,22.1,90.4,20.8,90.4,18.8z M98.8,23.1v5.8
		h-3V13.1h3v1.4c0.9-1.1,2.1-1.7,3.5-1.7c2.9,0,5.1,2.2,5.1,6s-2.1,6-5.1,6C101,24.8,99.7,24.3,98.8,23.1z M104.2,18.8
		c0-2-1.2-3.3-2.9-3.3c-1,0-2.1,0.6-2.6,1.3v4c0.5,0.7,1.6,1.3,2.6,1.3C103.1,22.1,104.2,20.8,104.2,18.8z M114.7,22.3l1.8-2.6
		c1.1,1.2,2.8,2.1,5,2.1c1.8,0,2.7-0.9,2.7-1.8c0-1.2-1.4-1.6-3.2-2c-2.6-0.6-5.9-1.3-5.9-4.8c0-2.6,2.3-4.8,6-4.8
		c2.5,0,4.6,0.8,6.2,2.2l-1.9,2.5c-1.3-1.2-3-1.7-4.5-1.7c-1.5,0-2.3,0.7-2.3,1.6c0,1.1,1.3,1.4,3.1,1.8c2.6,0.6,5.9,1.4,5.9,4.9
		c0,2.9-2.1,5.1-6.3,5.1C118.3,24.8,116.2,23.8,114.7,22.3z M133.5,24.8c-2.1,0-3.2-1.1-3.2-3.1v-6h-1.9v-2.6h1.9V10h3v3.1h2.3v2.6
		h-2.3v5.2c0,0.7,0.4,1.3,1,1.3c0.4,0,0.9-0.2,1-0.3l0.6,2.3C135.5,24.5,134.7,24.8,133.5,24.8z M142.9,24.8c-3.8,0-6-2.7-6-6
		c0-3.2,2.3-6,6-6c3.8,0,6.1,2.7,6.1,6C149,22.1,146.7,24.8,142.9,24.8z M142.9,22.1c1.9,0,2.9-1.5,2.9-3.3c0-1.8-1.1-3.3-2.9-3.3
		c-1.9,0-2.9,1.5-2.9,3.3C140,20.6,141.1,22.1,142.9,22.1z M154.2,24.5h-3V13.1h3v1.6c0.8-1,2.2-1.8,3.6-1.8v2.9
		c-0.2,0-0.5-0.1-0.8-0.1c-1,0-2.3,0.5-2.8,1.3V24.5z M159,18.8c0-3.3,2.4-6,5.9-6c3.4,0,5.7,2.6,5.7,6.3v0.7h-8.5
		c0.2,1.4,1.3,2.7,3.3,2.7c1.1,0,2.3-0.4,3.1-1.1l1.3,1.9c-1.2,1.1-2.9,1.6-4.7,1.6C161.6,24.8,159,22.5,159,18.8z M164.9,15.2
		c-1.9,0-2.7,1.4-2.8,2.5h5.6C167.7,16.7,166.9,15.2,164.9,15.2z"/>
	
		<radialGradient id="SVGID_1_" cx="-375.4267" cy="565.1719" r="0.5875" gradientTransform="matrix(33.989 0 0 -33.5237 12781.0049 18966.7285)" gradientUnits="userSpaceOnUse">
		<stop  offset="0" style="stop-color:#FDC300"/>
		<stop  offset="0.11" style="stop-color:#FDC205"/>
		<stop  offset="0.25" style="stop-color:#FDBF13"/>
		<stop  offset="0.39" style="stop-color:#FDB92B"/>
		<stop  offset="0.54" style="stop-color:#FEB24C"/>
		<stop  offset="0.7" style="stop-color:#FEA977"/>
		<stop  offset="0.86" style="stop-color:#FF9DAA"/>
		<stop  offset="1" style="stop-color:#FF92DE"/>
	</radialGradient>
	<path class="st1" d="M7.1,17.9c-0.2,0.5-0.4,1-0.5,1.6c-0.7,2.3-0.8,4.8-0.3,7.2c0,0.1,0,0.2,0.1,0.4c0.1,0.5,0.2,0.9,0.3,1.3
		c0.1,0.5,0.3,1,0.5,1.5c1.3,3.3,3.7,6,6.8,7.8c0.7,0.4,1.5,0.8,2.3,1.1c2.9,1.1,6.1,1.4,9.2,0.8c3.1-0.6,5.9-2.1,8.2-4.3
		c1.4-1.4,2.6-3,3.4-4.8c-0.1,0.1-0.3,0.3-0.4,0.4c-2.4,2.3-5.4,3.9-8.7,4.6c-0.1,0.1-0.3,0.1-0.5,0.2c-2.3,1-4.9,1.3-7.4,0.9
		c-2.5-0.4-4.8-1.5-6.7-3.2c-0.2-0.2-0.4-0.4-0.6-0.6l-0.1-0.1c-1.8-1.9-3.1-4.3-3.5-6.9c0-0.2-0.1-0.5-0.1-0.7
		c-0.1-0.5-0.1-0.9-0.1-1.4c0-2.6,0.7-5.1,2.2-7.2c0.4-0.5,0.8-1.1,1.2-1.5c0.2-0.2,0.4-0.4,0.6-0.6c2.4-2.3,5.7-3.7,9.1-3.7
		c0.1,0,0.1,0,0.2,0h0.1c0.6,0,1.1,0,1.6,0.1c2.3,0.3,4.5,1.2,6.3,2.6c-0.1-0.3-0.2-0.6-0.3-0.9c-0.1-0.2-0.2-0.4-0.3-0.7
		c-0.5-1.2-1.3-2.4-2.2-3.4l-0.1,0c-0.8-0.3-1.6-0.5-2.4-0.6c-3-0.6-6.2-0.2-9.1,0.9C15.8,9,15.4,9.2,15,9.4c-0.9,0.4-1.7,1-2.5,1.6
		L12.3,11c-0.5,0.4-1,0.8-1.4,1.2c-1,1-1.9,2.1-2.6,3.3c-0.4,0.7-0.8,1.4-1.1,2.2L7.1,17.9L7.1,17.9z M17,5.7c-1,0-2,0.1-2.9,0.3
		c-0.1,0-0.3,0-0.4,0.1c-0.5,0.1-0.9,0.2-1.4,0.3c-0.3,0.1-0.5,0.2-0.8,0.2c-0.3,0.1-0.5,0.2-0.7,0.3c-3.3,1.3-6.1,3.7-7.9,6.7
		c-0.2,0.4-0.4,0.8-0.6,1.2c-0.2,0.3-0.3,0.7-0.4,1c-1.5,3.8-1.5,8,0,11.8c1.5,3.8,4.4,6.9,8.1,8.6c0.1,0,0.2,0.1,0.2,0.1
		C10,36.2,9.8,36,9.7,35.9c-2.3-2.4-4-5.3-4.6-8.6c-0.1-0.1-0.1-0.3-0.2-0.4c-0.1-0.3-0.2-0.5-0.3-0.8c-0.6-1.6-0.8-3.3-0.7-5
		c0.1-1.7,0.5-3.4,1.3-4.9c0.3-0.5,0.5-1,0.9-1.5C6.3,14,6.7,13.5,7.1,13c0.2-0.2,0.5-0.5,0.7-0.7c0.4-0.4,0.9-0.8,1.4-1.2
		c0.8-0.5,1.6-1,2.5-1.4c2.1-1.5,4.4-2.6,7-3.1c0.9-0.2,1.9-0.3,2.8-0.3l-0.2-0.1C19.9,5.9,18.5,5.7,17,5.7L17,5.7z M19.7,33.9
		c0.1,0,0.1,0,0.2,0.1c2.4,0.6,4.9,0.8,7.3,0.3l0.1,0c0.1,0,0.2,0,0.3-0.1c0.4-0.1,0.9-0.2,1.4-0.3s0.9-0.3,1.4-0.5l0.2,0.2
		l-0.1-0.2c2-0.8,3.8-1.9,5.3-3.4c1-1,1.9-2.1,2.6-3.3c0.4-0.7,0.8-1.4,1.1-2.2c1.2-2.9,1.5-6.1,0.9-9.1c-0.6-3.1-2.1-5.9-4.3-8.1
		c-1.4-1.4-3-2.5-4.8-3.3c2,1.9,3.5,4.2,4.5,6.8c0.3,0.7,0.5,1.5,0.6,2.2c0.1,0.1,0.1,0.3,0.2,0.4c0.4,1,0.7,2,0.9,3
		c0.1,0.7,0.2,1.4,0.2,2.1c0,2.6-0.8,5-2.2,7.2c-0.4,0.5-0.8,1.1-1.2,1.5c-0.2,0.2-0.4,0.4-0.6,0.6l-0.1,0.1c-1.1,1.1-2.5,2-3.9,2.6
		c-1.4,1.1-3,1.9-4.7,2.5C23.2,33.4,21.5,33.8,19.7,33.9L19.7,33.9z M13.6,31.6c0.8,0.3,1.6,0.5,2.4,0.6c2.1,0.4,4.2,0.4,6.3-0.1
		c0.7-0.1,1.4-0.3,2.1-0.6c0.2-0.1,0.5-0.2,0.7-0.3c0.4-0.2,0.8-0.3,1.2-0.5c2.8-1.4,5.1-3.5,6.7-6.2c0.2-0.4,0.4-0.8,0.6-1.2
		c0.2-0.3,0.3-0.6,0.4-0.9l0,0c0.2-0.5,0.4-1.1,0.6-1.6c0.7-2.3,0.8-4.8,0.3-7.2v0c0-0.1,0-0.2-0.1-0.3c-0.1-0.4-0.2-0.9-0.3-1.4
		c-0.1-0.3-0.2-0.5-0.3-0.8c-0.1-0.2-0.2-0.5-0.3-0.7c-1.3-3.3-3.7-6-6.8-7.8C26.9,2.4,26.4,2.2,26,2c-0.3-0.1-0.6-0.3-0.9-0.4
		C21.2,0,16.9,0,13.1,1.5c-3.9,1.5-7,4.4-8.8,8c0,0.1-0.1,0.1-0.1,0.2c1.9-2,4.3-3.5,6.9-4.4c0.7-0.3,1.5-0.5,2.2-0.6
		c0.2-0.1,0.3-0.2,0.5-0.2c0.3-0.1,0.5-0.2,0.8-0.3c0.7-0.3,1.5-0.4,2.3-0.6c3.3-0.5,6.6,0.2,9.4,2c0.5,0.3,1.1,0.7,1.5,1.2
		C28,7,28.3,7.2,28.5,7.4c1.1,1.1,2,2.4,2.6,3.9c0.1,0.3,0.2,0.5,0.3,0.8c0.3,0.7,0.5,1.5,0.6,2.2c0,0.2,0.1,0.5,0.1,0.7
		c0.1,0.5,0.1,0.9,0.1,1.4c0,1.9-0.4,3.9-1.3,5.6c-0.3,0.5-0.5,1-0.9,1.5c-1.2,1.8-2.8,3.2-4.7,4.3c-1.9,1-4,1.6-6.2,1.6
		c-0.7,0-1.3,0-1.9-0.1c-1.4-0.2-2.7-0.6-3.9-1.2c-0.8-0.4-1.6-0.9-2.4-1.4C11.4,28.6,12.3,30.2,13.6,31.6L13.6,31.6z M10.5,24.6
		c1,1,2.1,1.8,3.3,2.3c0.3,0.1,0.6,0.3,0.8,0.4c-2-2.1-3.2-4.8-3.5-7.6C10.6,21.3,10.4,23,10.5,24.6L10.5,24.6z M26.6,12.8
		c2,2.1,3.2,4.8,3.5,7.6c0.6-1.6,0.8-3.2,0.7-4.9l0,0C29.6,14.4,28.2,13.4,26.6,12.8L26.6,12.8z"/>
	<g>
		<path class="st2" d="M97.6,28.4h67.9c2.6,0,4.8,2.1,4.8,4.8l0,0c0,2.6-2.1,4.8-4.8,4.8H97.6c-2.6,0-4.8-2.1-4.8-4.8l0,0
			C92.8,30.5,95,28.4,97.6,28.4z"/>
	</g>
	
		<linearGradient id="SVGID_00000115498792547842218180000010759981988775748487_" gradientUnits="userSpaceOnUse" x1="85.5564" y1="68.3976" x2="178.5173" y2="17.7909" gradientTransform="matrix(1 0 0 -1 0 76.3141)">
		<stop  offset="0" style="stop-color:#FF92E1"/>
		<stop  offset="1" style="stop-color:#FDC300"/>
	</linearGradient>
	<path style="fill:url(#SVGID_00000115498792547842218180000010759981988775748487_);" d="M99.1,35.2v-4.6h1v3.8h2v0.8H99.1z
		 M106.8,32.9c0,0.5-0.1,0.9-0.3,1.3c-0.2,0.4-0.4,0.6-0.8,0.8c-0.3,0.2-0.7,0.3-1.1,0.3c-0.4,0-0.8-0.1-1.1-0.3
		c-0.3-0.2-0.6-0.5-0.8-0.8c-0.2-0.4-0.3-0.8-0.3-1.3c0-0.5,0.1-0.9,0.3-1.3c0.2-0.4,0.4-0.6,0.8-0.8c0.3-0.2,0.7-0.3,1.1-0.3
		c0.4,0,0.8,0.1,1.1,0.3c0.3,0.2,0.6,0.5,0.8,0.8C106.7,32,106.8,32.4,106.8,32.9z M105.8,32.9c0-0.3,0-0.6-0.1-0.8
		c-0.1-0.2-0.2-0.4-0.4-0.5c-0.2-0.1-0.4-0.2-0.6-0.2c-0.2,0-0.4,0.1-0.6,0.2c-0.2,0.1-0.3,0.3-0.4,0.5c-0.1,0.2-0.1,0.5-0.1,0.8
		c0,0.3,0,0.6,0.1,0.8c0.1,0.2,0.2,0.4,0.4,0.5c0.2,0.1,0.4,0.2,0.6,0.2c0.2,0,0.4-0.1,0.6-0.2c0.2-0.1,0.3-0.3,0.4-0.5
		C105.7,33.5,105.8,33.2,105.8,32.9z M110.6,32.1c0-0.1-0.1-0.2-0.1-0.3c-0.1-0.1-0.1-0.2-0.2-0.2c-0.1-0.1-0.2-0.1-0.3-0.1
		c-0.1,0-0.2,0-0.3,0c-0.2,0-0.4,0.1-0.6,0.2c-0.2,0.1-0.3,0.3-0.4,0.5c-0.1,0.2-0.1,0.5-0.1,0.8c0,0.3,0,0.6,0.1,0.8
		c0.1,0.2,0.2,0.4,0.4,0.5c0.2,0.1,0.4,0.2,0.6,0.2c0.2,0,0.4,0,0.6-0.1c0.2-0.1,0.3-0.2,0.4-0.3c0.1-0.1,0.1-0.3,0.1-0.5l0.2,0
		h-1.2v-0.7h1.9v0.6c0,0.4-0.1,0.8-0.3,1c-0.2,0.3-0.4,0.5-0.7,0.7c-0.3,0.2-0.6,0.2-1,0.2c-0.4,0-0.8-0.1-1.1-0.3
		c-0.3-0.2-0.6-0.5-0.8-0.8c-0.2-0.4-0.3-0.8-0.3-1.3c0-0.4,0.1-0.7,0.2-1c0.1-0.3,0.3-0.5,0.5-0.7c0.2-0.2,0.4-0.4,0.7-0.5
		c0.3-0.1,0.5-0.2,0.8-0.2c0.3,0,0.5,0,0.7,0.1c0.2,0.1,0.4,0.2,0.6,0.3c0.2,0.1,0.3,0.3,0.4,0.5c0.1,0.2,0.2,0.4,0.2,0.6H110.6z
		 M116.6,32.9c0,0.5-0.1,0.9-0.3,1.3c-0.2,0.4-0.4,0.6-0.8,0.8c-0.3,0.2-0.7,0.3-1.1,0.3c-0.4,0-0.8-0.1-1.1-0.3
		c-0.3-0.2-0.6-0.5-0.8-0.8s-0.3-0.8-0.3-1.3c0-0.5,0.1-0.9,0.3-1.3s0.4-0.6,0.8-0.8c0.3-0.2,0.7-0.3,1.1-0.3c0.4,0,0.8,0.1,1.1,0.3
		c0.3,0.2,0.6,0.5,0.8,0.8C116.5,32,116.6,32.4,116.6,32.9z M115.6,32.9c0-0.3,0-0.6-0.1-0.8c-0.1-0.2-0.2-0.4-0.4-0.5
		c-0.2-0.1-0.4-0.2-0.6-0.2c-0.2,0-0.4,0.1-0.6,0.2c-0.2,0.1-0.3,0.3-0.4,0.5c-0.1,0.2-0.1,0.5-0.1,0.8c0,0.3,0,0.6,0.1,0.8
		c0.1,0.2,0.2,0.4,0.4,0.5c0.2,0.1,0.4,0.2,0.6,0.2c0.2,0,0.4-0.1,0.6-0.2c0.2-0.1,0.3-0.3,0.4-0.5
		C115.5,33.5,115.6,33.2,115.6,32.9z M118.7,35.2v-4.6h1.8c0.3,0,0.6,0.1,0.9,0.2c0.2,0.1,0.4,0.3,0.6,0.6c0.1,0.2,0.2,0.5,0.2,0.8
		c0,0.3-0.1,0.6-0.2,0.8c-0.1,0.2-0.3,0.4-0.6,0.5c-0.2,0.1-0.5,0.2-0.9,0.2h-1.2v-0.8h1c0.2,0,0.3,0,0.5-0.1
		c0.1-0.1,0.2-0.2,0.3-0.3c0.1-0.1,0.1-0.3,0.1-0.4c0-0.2,0-0.3-0.1-0.4c-0.1-0.1-0.2-0.2-0.3-0.3c-0.1-0.1-0.3-0.1-0.5-0.1h-0.7
		v3.8H118.7z M122.8,35.2v-4.6h1v3.8h2v0.8H122.8z M127.3,35.2h-1l1.6-4.6h1.3l1.6,4.6h-1l-1.2-3.6h0L127.3,35.2z M127.3,33.4h2.5
		v0.8h-2.5V33.4z M135.1,32.2h-1c0-0.1-0.1-0.2-0.1-0.3c-0.1-0.1-0.1-0.2-0.2-0.3c-0.1-0.1-0.2-0.1-0.3-0.2c-0.1,0-0.2-0.1-0.4-0.1
		c-0.2,0-0.4,0.1-0.6,0.2c-0.2,0.1-0.3,0.3-0.4,0.5c-0.1,0.2-0.1,0.5-0.1,0.8c0,0.3,0,0.6,0.1,0.8c0.1,0.2,0.2,0.4,0.4,0.5
		c0.2,0.1,0.4,0.2,0.6,0.2c0.1,0,0.3,0,0.4-0.1c0.1,0,0.2-0.1,0.3-0.2c0.1-0.1,0.2-0.1,0.2-0.2c0.1-0.1,0.1-0.2,0.1-0.3l1,0
		c0,0.2-0.1,0.4-0.2,0.6c-0.1,0.2-0.2,0.4-0.4,0.5c-0.2,0.2-0.4,0.3-0.6,0.4c-0.2,0.1-0.5,0.1-0.8,0.1c-0.4,0-0.8-0.1-1.1-0.3
		c-0.3-0.2-0.6-0.5-0.8-0.8c-0.2-0.4-0.3-0.8-0.3-1.3c0-0.5,0.1-0.9,0.3-1.3c0.2-0.4,0.4-0.6,0.8-0.8c0.3-0.2,0.7-0.3,1.1-0.3
		c0.3,0,0.5,0,0.7,0.1c0.2,0.1,0.4,0.2,0.6,0.3c0.2,0.1,0.3,0.3,0.4,0.5C135,31.7,135.1,32,135.1,32.2z M135.8,35.2v-4.6h3.1v0.8
		h-2.1v1.1h2v0.8h-2v1.1h2.1v0.8H135.8z M139.7,35.2v-4.6h1v1.9h2v-1.9h1v4.6h-1v-1.9h-2v1.9H139.7z M148.7,32.9
		c0,0.5-0.1,0.9-0.3,1.3c-0.2,0.4-0.4,0.6-0.8,0.8c-0.3,0.2-0.7,0.3-1.1,0.3c-0.4,0-0.8-0.1-1.1-0.3c-0.3-0.2-0.6-0.5-0.8-0.8
		s-0.3-0.8-0.3-1.3c0-0.5,0.1-0.9,0.3-1.3s0.4-0.6,0.8-0.8c0.3-0.2,0.7-0.3,1.1-0.3c0.4,0,0.8,0.1,1.1,0.3c0.3,0.2,0.6,0.5,0.8,0.8
		C148.6,32,148.7,32.4,148.7,32.9z M147.7,32.9c0-0.3,0-0.6-0.1-0.8c-0.1-0.2-0.2-0.4-0.4-0.5c-0.2-0.1-0.4-0.2-0.6-0.2
		c-0.2,0-0.4,0.1-0.6,0.2c-0.2,0.1-0.3,0.3-0.4,0.5c-0.1,0.2-0.1,0.5-0.1,0.8c0,0.3,0,0.6,0.1,0.8c0.1,0.2,0.2,0.4,0.4,0.5
		c0.2,0.1,0.4,0.2,0.6,0.2c0.2,0,0.4-0.1,0.6-0.2c0.2-0.1,0.3-0.3,0.4-0.5C147.6,33.5,147.7,33.2,147.7,32.9z M149.4,35.2v-4.6h1
		v3.8h2v0.8H149.4z M154.6,35.2H153v-4.6h1.6c0.5,0,0.9,0.1,1.2,0.3c0.3,0.2,0.6,0.4,0.8,0.8c0.2,0.3,0.3,0.8,0.3,1.2
		c0,0.5-0.1,0.9-0.3,1.2c-0.2,0.3-0.4,0.6-0.8,0.8C155.5,35.1,155.1,35.2,154.6,35.2z M154,34.4h0.6c0.3,0,0.5-0.1,0.7-0.2
		c0.2-0.1,0.3-0.3,0.4-0.5c0.1-0.2,0.2-0.5,0.2-0.8c0-0.3-0.1-0.6-0.2-0.8c-0.1-0.2-0.2-0.4-0.4-0.5c-0.2-0.1-0.4-0.2-0.7-0.2H154
		V34.4z M157.6,35.2v-4.6h3.1v0.8h-2.1v1.1h2v0.8h-2v1.1h2.1v0.8H157.6z M161.5,35.2v-4.6h1.8c0.3,0,0.6,0.1,0.9,0.2
		c0.2,0.1,0.4,0.3,0.6,0.5c0.1,0.2,0.2,0.5,0.2,0.8c0,0.3-0.1,0.6-0.2,0.8c-0.1,0.2-0.3,0.4-0.6,0.5c-0.2,0.1-0.6,0.2-0.9,0.2H162
		v-0.8h1.1c0.2,0,0.3,0,0.5-0.1c0.1-0.1,0.2-0.1,0.3-0.2c0.1-0.1,0.1-0.2,0.1-0.4c0-0.2,0-0.3-0.1-0.4c-0.1-0.1-0.2-0.2-0.3-0.2
		c-0.1-0.1-0.3-0.1-0.5-0.1h-0.7v3.8H161.5z M164,33.1l1.1,2.1H164l-1.1-2.1H164z"/>
</g>
</svg>
