<svg width="24" height="23" viewBox="0 0 24 23" fill="none" xmlns="http://www.w3.org/2000/svg">
<path d="M4.03789 10.1617C3.91763 10.4594 3.81379 10.7631 3.72682 11.0715C3.34302 12.4319 3.27768 13.8587 3.53559 15.2468C3.5478 15.3159 3.56149 15.3853 3.57665 15.4536C3.63139 15.7161 3.69871 15.9786 3.77675 16.2354C3.86404 16.5231 3.96798 16.8107 4.08597 17.0902C4.88027 18.9868 6.29355 20.5771 8.10837 21.6165C8.53381 21.8605 8.97843 22.0716 9.43807 22.2476C11.1669 22.9122 13.0566 23.0766 14.8793 22.7208C16.702 22.365 18.38 21.5043 19.711 20.2424C20.5482 19.4489 21.2276 18.5119 21.715 17.4785C21.6319 17.5639 21.5468 17.6478 21.4598 17.7302C20.0515 19.0745 18.2772 19.9993 16.3462 20.3956C16.2589 20.4373 16.1702 20.4758 16.0807 20.5139C14.7156 21.0888 13.2097 21.2712 11.7412 21.0395C10.2728 20.8079 8.90348 20.1718 7.79545 19.2068C7.6692 19.097 7.54591 18.9824 7.42558 18.863L7.37157 18.808C6.28231 17.7077 5.56323 16.3113 5.30989 14.8042C5.28696 14.6693 5.26772 14.5327 5.25182 14.3964C5.22168 14.1247 5.20637 13.8516 5.20595 13.5783C5.19994 12.0915 5.64665 10.6362 6.48979 9.39577C6.70193 9.08218 6.93835 8.78477 7.19699 8.50612C7.30574 8.38853 7.41892 8.2713 7.53913 8.15874C8.96614 6.79491 10.8807 6.02093 12.8816 5.99898C12.913 5.99898 12.9486 5.99898 12.9844 5.99898H13.0669C13.3918 6.00132 13.7163 6.02391 14.0382 6.06658C15.3942 6.24249 16.6775 6.76641 17.7562 7.58446C17.7103 7.41796 17.6574 7.25183 17.5983 7.08821C17.5513 6.95875 17.5014 6.83217 17.4455 6.70703C17.1375 5.99062 16.7044 5.33135 16.1654 4.75835L16.1347 4.73534C15.682 4.58275 15.2179 4.46421 14.7465 4.38077C12.9483 4.05739 11.0926 4.23683 9.39516 4.89824C9.13625 4.99929 8.884 5.1104 8.6458 5.22871C8.11989 5.48763 7.61989 5.79353 7.15224 6.14246L7.11007 6.17303C6.81423 6.39729 6.53145 6.6374 6.26306 6.89223C5.6642 7.46213 5.14479 8.10591 4.71809 8.8071C4.47353 9.20843 4.26096 9.6274 4.08227 10.0603L4.07746 10.1624L4.03789 10.1617ZM9.84049 3.06679C9.26145 3.06707 8.68364 3.11883 8.11428 3.22142C8.04031 3.23364 7.96633 3.24695 7.89458 3.26313C7.62827 3.31599 7.36048 3.38144 7.09491 3.45947C6.93993 3.50335 6.78606 3.55225 6.6333 3.60331C6.48054 3.65438 6.33999 3.7076 6.195 3.76478C4.23912 4.53114 2.60182 5.9095 1.54197 7.68191C1.40696 7.90487 1.27861 8.13968 1.16025 8.37954C1.06668 8.57013 0.978646 8.76431 0.899123 8.9585C-0.0019948 11.1588 -0.010037 13.6097 0.876622 15.8155C1.76328 18.0214 3.47847 19.8175 5.67533 20.8408C5.71971 20.8617 5.76409 20.8818 5.80848 20.9016C5.71971 20.8196 5.6323 20.7357 5.54624 20.6498C4.16275 19.2784 3.21118 17.5512 2.80361 15.6715C2.76662 15.6079 2.72113 15.5108 2.67711 15.4105C2.60684 15.254 2.54322 15.0933 2.48367 14.9297C2.14314 13.9923 1.99627 12.9987 2.05149 12.006C2.10671 11.0133 2.36293 10.041 2.80546 9.14477C2.95586 8.83946 3.12649 8.54397 3.31626 8.26015C3.52975 7.94232 3.7679 7.64082 4.02864 7.35827C4.15921 7.21443 4.29421 7.07922 4.4355 6.94797C4.69965 6.70028 4.98226 6.47191 5.28104 6.26472C5.73899 5.94661 6.23109 5.67773 6.7487 5.46281C7.96064 4.5658 9.3654 3.94661 10.858 3.6515C11.4115 3.5396 11.9735 3.47189 12.5384 3.44905L12.4104 3.41309C11.5747 3.18336 10.7104 3.06683 9.84197 3.06679H9.84049ZM11.4739 19.4603C11.5149 19.4722 11.556 19.4833 11.597 19.4941C12.9955 19.8694 14.4628 19.9344 15.8905 19.6843L15.9275 19.6771C15.9908 19.666 16.0551 19.6548 16.1188 19.6412C16.3814 19.5897 16.6403 19.5261 16.9158 19.4463C17.1914 19.3664 17.4647 19.2762 17.7425 19.169L17.8361 19.2927L17.7788 19.1543C18.9412 18.6989 19.9998 18.025 20.8939 17.1711C21.4935 16.6003 22.0139 15.9559 22.4418 15.254C22.6894 14.8461 22.9042 14.4201 23.0843 13.98C23.7794 12.2965 23.9559 10.4527 23.592 8.67346C23.2282 6.8942 22.3398 5.25626 21.0351 3.95932C20.2216 3.149 19.2618 2.49081 18.2037 2.01747C19.389 3.11796 20.2895 4.47553 20.8317 5.9792C20.9831 6.39755 21.1066 6.82491 21.2016 7.25866C21.236 7.31979 21.2811 7.41581 21.3233 7.51038C21.5693 8.07 21.7449 8.65643 21.8463 9.25697C21.9169 9.66685 21.9531 10.0816 21.9547 10.4972C21.9581 11.9802 21.5115 13.4312 20.6708 14.6686C20.4592 14.9824 20.2228 15.2798 19.9636 15.5579C19.8549 15.6758 19.7417 15.7931 19.6215 15.9056L19.5664 15.9563C18.8931 16.5876 18.1074 17.0946 17.2476 17.4526C16.4047 18.0682 15.469 18.5534 14.4736 18.891C13.5089 19.2223 12.4995 19.4142 11.4776 19.4606L11.4739 19.4603ZM7.84908 18.1657C8.30294 18.3216 8.76869 18.4425 9.24203 18.5275C10.4679 18.7533 11.7276 18.7418 12.9489 18.4937C13.3741 18.4075 13.793 18.2941 14.2028 18.1542C14.3471 18.1053 14.4898 18.0521 14.6293 17.9967C14.8745 17.9007 15.1134 17.795 15.3409 17.6828C16.9902 16.8786 18.3638 15.6262 19.2953 14.0778C19.4288 13.8581 19.5571 13.6232 19.6773 13.3784C19.7672 13.1968 19.8493 13.0126 19.9263 12.8274L19.9374 12.7987C20.0663 12.4892 20.1775 12.173 20.2702 11.8515C20.6671 10.4939 20.735 9.06534 20.4685 7.67796V7.67364C20.4578 7.60639 20.4437 7.54023 20.4289 7.47442C20.376 7.21731 20.3076 6.95408 20.2259 6.68797C20.18 6.5373 20.1308 6.38771 20.0779 6.23811C20.028 6.1011 19.9758 5.96589 19.9192 5.8332C19.1368 3.93238 17.7264 2.33845 15.9102 1.30223C15.6657 1.16162 15.4145 1.03181 15.1645 0.916375C14.9795 0.83043 14.7946 0.749878 14.6052 0.676879C12.3394 -0.210555 9.81104 -0.225903 7.534 0.633951C5.25696 1.4938 3.40211 3.16434 2.34645 5.30603C2.32684 5.3463 2.30724 5.38622 2.288 5.42649C3.42106 4.27185 4.81924 3.39446 6.3681 2.86613C6.79525 2.72011 7.23131 2.60001 7.67376 2.50653C7.76621 2.45894 7.86115 2.41609 7.9582 2.37815C8.11059 2.31486 8.26741 2.25589 8.42646 2.20087C8.86063 2.05287 9.30712 1.94158 9.76097 1.86824C11.6935 1.56382 13.6731 1.97688 15.3069 3.02543C15.6275 3.22893 15.9314 3.45641 16.2157 3.7058C16.3573 3.82771 16.4949 3.955 16.6273 4.0895C17.2763 4.74496 17.7973 5.50968 18.1649 6.34635C18.2341 6.50386 18.2977 6.6628 18.3569 6.82606C18.5091 7.24466 18.6232 7.67544 18.6979 8.11343C18.7223 8.24936 18.7412 8.38781 18.7571 8.52626C18.7878 8.79818 18.8033 9.07151 18.8037 9.34507C18.8037 10.4759 18.5411 11.5922 18.0355 12.6106C17.8859 12.9158 17.715 13.2106 17.5239 13.4931C16.8235 14.529 15.8727 15.3823 14.7546 15.9784C13.6365 16.5744 12.3853 16.895 11.1103 16.9122C10.7257 16.9174 10.3413 16.8942 9.96033 16.8428C9.15873 16.7353 8.3792 16.5072 7.64972 16.1667C7.15395 15.9358 6.68426 15.6554 6.24826 15.3299C6.5387 16.3871 7.08938 17.3598 7.85278 18.1639L7.84908 18.1657ZM6.02856 14.1022C6.59689 14.665 7.26241 15.1264 7.99481 15.4655C8.15756 15.5415 8.32277 15.611 8.49045 15.674C7.31764 14.4591 6.59242 12.9002 6.42839 11.2416C6.08804 12.1562 5.95272 13.1309 6.03152 14.1004L6.02856 14.1022ZM15.5044 7.23385C16.6721 8.44785 17.3995 9.99974 17.5757 11.653C17.9156 10.747 18.0519 9.78078 17.9752 8.81933L17.9726 8.81681C17.2764 8.12415 16.4358 7.5843 15.5074 7.23349L15.5044 7.23385Z" fill="url(#paint0_radial_184_54961)"/>
<defs>
<radialGradient id="paint0_radial_184_54961" cx="0" cy="0" r="1" gradientUnits="userSpaceOnUse" gradientTransform="translate(11.9983 11.4513) scale(11.7805 11.4533)">
<stop stop-color="#FDC300"/>
<stop offset="0.11" stop-color="#FDC205"/>
<stop offset="0.25" stop-color="#FDBF13"/>
<stop offset="0.39" stop-color="#FDB92B"/>
<stop offset="0.54" stop-color="#FEB24C"/>
<stop offset="0.7" stop-color="#FEA977"/>
<stop offset="0.86" stop-color="#FF9DAA"/>
<stop offset="1" stop-color="#FF92DE"/>
</radialGradient>
</defs>
</svg>
