<?xml version="1.0" encoding="utf-8"?>
<svg viewBox="0 0 1024 1024" xmlns="http://www.w3.org/2000/svg">
  <defs>
    <filter id="shadow">
      <feGaussianBlur in="SourceAlpha" stdDeviation="10"/>
      <feOffset dx="0" dy="10" result="offsetblur"/>
      <feFlood flood-color="#000000" flood-opacity="0.3"/>
      <feComposite in2="offsetblur" operator="in"/>
      <feMerge>
	<feMergeNode/>
	<feMergeNode in="SourceGraphic"/>
      </feMerge>
    </filter>
    <filter id="shadow2">
      <feGaussianBlur in="SourceAlpha" stdDeviation="7"/>
      <feOffset dx="0" dy="10" result="offsetblur"/>
      <feFlood flood-color="#000000" flood-opacity="0.5"/>
      <feComposite in2="offsetblur" operator="in"/>
      <feMerge>
	<feMergeNode/>
	<feMergeNode in="SourceGraphic"/>
      </feMerge>
    </filter>
    <clipPath id="clip-0">
      <path style="stroke-width: 3px; fill: rgb(255, 255, 255);" d="M 100 724 L 100 300 C 100 185.001 170 99.995 300.026 100 L 724 99.995 C 854 100 924 185.001 924 300 L 924 724 C 924 839.001 854 923.995 724 924 L 300.026 924 C 170 924 100 839.001 100 724 Z"/>
    </clipPath>
  </defs>
  <g style="filter: url(#shadow);">
    <g style="clip-path: url(#clip-0);">
      <path style="stroke-width: 3px; fill: rgb(255, 255, 255);" d="M 100 724 L 100 300 C 100 185.001 170 99.995 300.026 100 L 724 99.995 C 854 100 924 185.001 924 300 L 924 724 C 924 839.001 854 923.995 724 924 L 300.026 924 C 170 924 100 839.001 100 724 Z"/>
    </g>
    <g style="filter: url(#shadow2);">
      <g transform="translate(154, 154) scale(2.8)">
        <path
            style="fill: #3468d1;"
            d="M 128 0 A 128 128 0 0 0 0 128 A 128 128 0 0 0 128 256 A 128 128 0 0 0 256 128 A 128 128 0 0 0 128 0 z M 129 39 A 5.236 5.236 0 1 1 123.76367 44.234375 A 5.235 5.235 0 0 1 129 39 z M 82.744141 44.234375 L 82.744141 44.238281 A 4.363 4.363 0 1 1 78.382812 48.601562 A 4.363 4.363 0 0 1 82.744141 44.234375 z M 175.25391 44.234375 L 175.25391 44.238281 A 4.363 4.363 0 1 1 170.89062 48.601562 A 4.363 4.363 0 0 1 175.25391 44.234375 z M 95.400391 62.558594 A 6.544 6.544 0 1 1 88.853516 69.103516 A 6.544 6.544 0 0 1 95.400391 62.558594 z M 162.59961 62.558594 A 6.544 6.544 0 1 1 156.05469 69.103516 A 6.544 6.544 0 0 1 162.59961 62.558594 z M 129 67.794922 A 7.853 7.853 0 1 1 121.14453 75.646484 A 7.853 7.853 0 0 1 129 67.794922 z M 56.5625 80.882812 A 5.236 5.236 0 1 1 51.326172 86.117188 A 5.236 5.236 0 0 1 56.5625 80.882812 z M 201.43555 80.882812 A 5.236 5.236 0 1 1 196.19922 86.117188 A 5.236 5.236 0 0 1 201.43555 80.882812 z M 113.72656 88.734375 A 12.652 12.652 0 1 1 101.07227 101.38672 A 12.654 12.654 0 0 1 113.72656 88.734375 z M 144.27344 88.734375 A 12.652 12.652 0 1 1 131.61719 101.38672 A 12.654 12.654 0 0 1 144.27344 88.734375 z M 83.617188 93.970703 A 7.853 7.853 0 1 1 75.763672 101.82422 A 7.854 7.854 0 0 1 83.617188 93.970703 z M 174.38281 93.970703 A 7.853 7.853 0 1 1 166.52734 101.82422 A 7.853 7.853 0 0 1 174.38281 93.970703 z M 98.017578 115.7832 A 12.652 12.652 0 1 1 85.363281 128.43555 A 12.654 12.654 0 0 1 98.017578 115.7832 z M 159.98242 115.7832 A 12.652 12.652 0 1 1 147.32617 128.43555 A 12.653 12.653 0 0 1 159.98242 115.7832 z M 61.363281 121.01953 A 6.544 6.544 0 1 1 54.818359 127.56445 A 6.544 6.544 0 0 1 61.363281 121.01953 z M 196.63672 121.01953 A 6.544 6.544 0 1 1 190.0918 127.56445 A 6.545 6.545 0 0 1 196.63672 121.01953 z M 37.363281 123.63672 L 37.363281 123.63867 A 4.363 4.363 0 1 1 33 128 A 4.363 4.363 0 0 1 37.363281 123.63672 z M 220.63672 123.63672 L 220.63672 123.63867 A 4.363 4.363 0 1 1 216.27344 128 A 4.363 4.363 0 0 1 220.63672 123.63672 z M 113.72656 141.96094 A 12.652 12.652 0 1 1 101.07227 154.61328 A 12.653 12.653 0 0 1 113.72656 141.96094 z M 144.27344 141.96094 A 12.652 12.652 0 1 1 131.61719 154.61328 A 12.653 12.653 0 0 1 144.27344 141.96094 z M 83.617188 146.32227 A 7.853 7.853 0 1 1 75.763672 154.17578 A 7.854 7.854 0 0 1 83.617188 146.32227 z M 174.38281 146.32227 A 7.853 7.853 0 1 1 166.52734 154.17578 A 7.853 7.853 0 0 1 174.38281 146.32227 z M 56.5625 164.64648 A 5.236 5.236 0 1 1 51.326172 169.88281 A 5.236 5.236 0 0 1 56.5625 164.64648 z M 201.43555 164.64648 A 5.236 5.236 0 1 1 196.19922 169.88281 A 5.236 5.236 0 0 1 201.43555 164.64648 z M 129 172.5 A 7.853 7.853 0 1 1 121.14453 180.35352 A 7.853 7.853 0 0 1 129 172.5 z M 95.400391 180.35352 A 6.544 6.544 0 1 1 88.853516 186.89648 A 6.544 6.544 0 0 1 95.400391 180.35352 z M 162.59961 180.35352 A 6.544 6.544 0 1 1 156.05469 186.89648 A 6.544 6.544 0 0 1 162.59961 180.35352 z M 82.744141 203.03906 A 4.363 4.363 0 1 1 78.382812 207.40234 A 4.363 4.363 0 0 1 82.744141 203.03906 z M 175.25391 203.03906 A 4.363 4.363 0 1 1 170.89062 207.40234 A 4.363 4.363 0 0 1 175.25391 203.03906 z M 129 206.5293 A 5.236 5.236 0 1 1 123.76367 211.76562 A 5.236 5.236 0 0 1 129 206.5293 z " />
      </g>
    </g>
  </g>
</svg>
