<svg width="23" height="26" viewBox="0 0 23 26" fill="none" xmlns="http://www.w3.org/2000/svg">
<path fill-rule="evenodd" clip-rule="evenodd" d="M13 3.5C7.7533 3.5 3.5 7.7533 3.5 13C3.5 18.2467 7.7533 22.5 13 22.5C13.8284 22.5 14.5 23.1716 14.5 24C14.5 24.8284 13.8284 25.5 13 25.5C6.09644 25.5 0.5 19.9035 0.5 13C0.5 6.09644 6.09644 0.5 13 0.5C16.5818 0.5 19.8137 2.00841 22.0907 4.42041C22.6594 5.0228 22.6321 5.97216 22.0297 6.54085C21.4273 7.10954 20.478 7.08223 19.9093 6.47983C18.1753 4.64315 15.7224 3.5 13 3.5Z" fill="currentColor"/>
</svg>
