<svg width="18" height="20" viewBox="0 0 18 20" fill="none" xmlns="http://www.w3.org/2000/svg">
<path d="M16.9975 5.07125C17.0368 4.52037 16.6221 4.04189 16.0712 4.00254C15.5204 3.96319 15.0419 4.37787 15.0025 4.92875L16.9975 5.07125ZM15.1327 17.1425L14.1352 17.0712L15.1327 17.1425ZM2.86732 17.1425L3.86478 17.0712L2.86732 17.1425ZM2.99746 4.92875C2.95811 4.37787 2.47963 3.96319 1.92875 4.00254C1.37787 4.04189 0.963193 4.52037 1.00254 5.07125L2.99746 4.92875ZM8 9C8 8.44772 7.55228 8 7 8C6.44772 8 6 8.44772 6 9H8ZM6 15C6 15.5523 6.44772 16 7 16C7.55228 16 8 15.5523 8 15H6ZM12 9C12 8.44772 11.5523 8 11 8C10.4477 8 10 8.44772 10 9H12ZM10 15C10 15.5523 10.4477 16 11 16C11.5523 16 12 15.5523 12 15H10ZM11 5C11 5.55228 11.4477 6 12 6C12.5523 6 13 5.55228 13 5H11ZM5 5C5 5.55228 5.44772 6 6 6C6.55228 6 7 5.55228 7 5H5ZM1 4C0.447715 4 0 4.44772 0 5C0 5.55228 0.447715 6 1 6V4ZM17 6C17.5523 6 18 5.55228 18 5C18 4.44772 17.5523 4 17 4V6ZM15.0025 4.92875L14.1352 17.0712L16.1301 17.2137L16.9975 5.07125L15.0025 4.92875ZM13.1378 18H4.86224V20H13.1378V18ZM3.86478 17.0712L2.99746 4.92875L1.00254 5.07125L1.86986 17.2137L3.86478 17.0712ZM4.86224 18C4.3376 18 3.90216 17.5946 3.86478 17.0712L1.86986 17.2137C1.982 18.7837 3.28832 20 4.86224 20V18ZM14.1352 17.0712C14.0978 17.5946 13.6624 18 13.1378 18V20C14.7117 20 16.018 18.7837 16.1301 17.2137L14.1352 17.0712ZM6 9V15H8V9H6ZM10 9V15H12V9H10ZM7 2H11V0H7V2ZM11 2V5H13V2H11ZM7 5V2H5V5H7ZM11 2H13C13 0.895431 12.1046 0 11 0V2ZM7 0C5.89543 0 5 0.895431 5 2H7V0ZM1 6H17V4H1V6Z" fill="currentColor"/>
</svg>
