<svg width="20" height="20" viewBox="0 0 20 20" fill="none" xmlns="http://www.w3.org/2000/svg">
<path d="M1 19H0C0 19.5523 0.447715 20 1 20L1 19ZM13 19V20C13.5523 20 14 19.5523 14 19H13ZM17 7C17 6.44772 16.5523 6 16 6C15.4477 6 15 6.44772 15 7H17ZM15 13C15 13.5523 15.4477 14 16 14C16.5523 14 17 13.5523 17 13H15ZM19 11C19.5523 11 20 10.5523 20 10C20 9.44771 19.5523 9 19 9V11ZM13 9C12.4477 9 12 9.44771 12 10C12 10.5523 12.4477 11 13 11V9ZM10 5C10 6.65685 8.65685 8 7 8V10C9.76142 10 12 7.76142 12 5H10ZM7 8C5.34315 8 4 6.65685 4 5H2C2 7.76142 4.23858 10 7 10V8ZM4 5C4 3.34315 5.34315 2 7 2V0C4.23858 0 2 2.23858 2 5H4ZM7 2C8.65685 2 10 3.34315 10 5H12C12 2.23858 9.76142 0 7 0V2ZM2 18C2 15.2386 4.23858 13 7 13V11C3.13401 11 0 14.134 0 18H2ZM7 13C9.76142 13 12 15.2386 12 18H14C14 14.134 10.866 11 7 11V13ZM0 18V19H2V18H0ZM1 20H13V18H1V20ZM14 19V18H12V19H14ZM15 7V10H17V7H15ZM15 10V13H17V10H15ZM19 9H16V11H19V9ZM16 9H13V11H16V9Z" fill="currentColor"/>
</svg>
