<svg width="6" height="4" viewBox="0 0 6 4" fill="none" xmlns="http://www.w3.org/2000/svg">
<path d="M5.25586 -6.50548e-08C5.35938 -5.60052e-08 5.45606 0.0174746 5.5459 0.0524244C5.63574 0.0891218 5.71484 0.137178 5.7832 0.196592C5.84961 0.257754 5.90234 0.328528 5.94141 0.408912C5.98047 0.491044 6 0.578418 6 0.671035C6 0.74443 5.98926 0.811708 5.96777 0.87287C5.94434 0.934032 5.91016 0.994321 5.86523 1.05374L3.91406 3.59371C3.86328 3.66011 3.80371 3.71865 3.73535 3.76933C3.66699 3.82001 3.59375 3.86195 3.51563 3.89515C3.43555 3.9301 3.35156 3.95631 3.26367 3.97379C3.17578 3.99126 3.08789 4 3 4C2.91211 4 2.82422 3.99126 2.73633 3.97379C2.64844 3.95631 2.56543 3.9301 2.4873 3.89515C2.40723 3.86195 2.33301 3.82001 2.26465 3.76933C2.19629 3.71865 2.13672 3.66011 2.08594 3.59371L0.134766 1.05373C0.089844 0.99432 0.0566409 0.934032 0.0351565 0.87287C0.011719 0.811707 2.84611e-07 0.744429 2.91027e-07 0.671035C2.99124e-07 0.578418 0.0195316 0.491044 0.0585941 0.408912C0.0976566 0.328527 0.150391 0.257754 0.216797 0.196592C0.283203 0.137177 0.362305 0.0891213 0.454102 0.0524239C0.543946 0.0174742 0.639649 -4.68617e-07 0.741211 -4.59738e-07L5.25586 -6.50548e-08Z" fill="currentColor"/>
</svg>
