<svg width="23" height="19" viewBox="0 0 23 19" fill="none" xmlns="http://www.w3.org/2000/svg">
<path d="M22.9999 3.01696C22.1541 3.37777 21.2455 3.62156 20.2903 3.73176C21.2759 3.16401 22.0133 2.27045 22.3648 1.2178C21.4388 1.7473 20.4254 2.12001 19.3685 2.31973C18.6578 1.5892 17.7165 1.105 16.6906 0.942288C15.6648 0.779581 14.6118 0.947474 13.6953 1.4199C12.7787 1.89233 12.0498 2.64286 11.6217 3.55496C11.1936 4.46707 11.0903 5.48972 11.3278 6.46415C9.45147 6.37346 7.61595 5.90397 5.94034 5.08616C4.26472 4.26835 2.78645 3.12049 1.60147 1.71708C1.19629 2.38994 0.963311 3.17006 0.963311 4.0009C0.962858 4.74884 1.15418 5.48533 1.52031 6.14501C1.88643 6.8047 2.41604 7.36719 3.06213 7.78257C2.31283 7.75961 1.58007 7.5647 0.924819 7.21405V7.27256C0.924743 8.32158 1.30167 9.33832 1.99163 10.1503C2.6816 10.9622 3.64212 11.5193 4.71019 11.7271C4.01509 11.9082 3.28633 11.9349 2.57896 11.8051C2.88031 12.7077 3.46731 13.497 4.25778 14.0625C5.04825 14.628 6.00263 14.9414 6.98729 14.9588C5.31577 16.222 3.25144 16.9072 1.12639 16.9042C0.749965 16.9043 0.373854 16.8831 0 16.8408C2.15704 18.176 4.66799 18.8846 7.23243 18.8818C15.9134 18.8818 20.659 11.9601 20.659 5.95707C20.659 5.76204 20.6539 5.56506 20.6448 5.37002C21.5679 4.72737 22.3647 3.93156 22.9979 3.01989L22.9999 3.01696Z" fill="currentColor"/>
</svg>
