<svg width="452" height="254" viewBox="0 0 452 254" fill="none" xmlns="http://www.w3.org/2000/svg">
<path d="M131.56 127C131.549 116.997 133.041 107.049 135.986 97.4881C138.83 87.9419 142.73 78.742 147.613 70.0587C152.352 61.6649 159.061 54.5468 167.163 49.3165C175.07 44.3384 184.28 41.0197 193.108 37.9996C203.698 34.4398 214.797 32.624 225.971 32.6232C235.921 32.6776 245.816 34.1129 255.371 36.8878C264.573 39.5013 274.148 42.5795 282.686 46.927C291.27 51.2792 298.444 57.9736 303.374 66.2338C308.498 74.7381 311.903 84.5616 315.001 93.9619C318.546 104.607 320.374 115.748 320.416 126.967C320.421 138.137 318.575 149.231 314.951 159.797C311.845 168.849 308.224 178.167 303.017 186.231C297.799 194.299 290.719 200.998 282.37 205.762C273.839 210.502 264.802 214.27 255.429 216.996C245.886 219.903 235.964 221.382 225.988 221.385C214.846 221.508 203.778 219.573 193.341 215.677C175.509 208.906 160.062 197.052 148.917 181.585C137.596 165.633 131.53 146.554 131.56 127V127Z" stroke="#FF92DE" stroke-width="0.06" stroke-miterlimit="10"/>
<path d="M132.365 127C132.334 117.146 133.758 107.341 136.592 97.9029C139.438 88.3439 143.337 79.1304 148.22 70.432C152.845 62.174 159.409 55.1614 167.346 49.9969C175.194 45.0187 184.396 41.7 193.175 38.7214C203.753 35.2069 214.831 33.4277 225.979 33.4529C235.808 33.4946 245.586 34.865 255.047 37.5267C264.299 40.107 273.982 43.152 282.57 47.4829C290.94 51.7253 297.939 58.2458 302.759 66.2919C307.85 74.7132 311.205 84.8271 314.27 93.8209C317.859 104.502 319.672 115.7 319.635 126.967C319.663 138.168 317.831 149.296 314.212 159.897C311.122 168.841 307.526 178.092 302.36 186.065C297.251 193.902 290.344 200.407 282.212 205.04C273.841 209.861 264.357 213.503 255.122 216.291C245.666 219.101 235.852 220.523 225.988 220.514C215.008 220.514 203.78 218.896 193.457 214.839C175.84 208.05 160.585 196.282 149.557 180.971C138.376 165.19 132.37 146.334 132.365 127Z" stroke="#FF93DB" stroke-width="0.06" stroke-miterlimit="10"/>
<path d="M133.121 126.983C133.084 117.102 134.506 107.27 137.34 97.8034C140.177 88.3139 144.051 79.1654 148.892 70.5233C153.47 62.3593 159.984 55.4422 167.861 50.3785C175.618 45.4917 184.737 42.1895 193.407 39.2856C203.892 35.855 214.863 34.1376 225.896 34.1997C235.719 34.2226 245.495 35.5563 254.964 38.1655C264.099 40.6546 273.708 43.6664 282.212 47.9227C290.603 52.0647 297.589 58.5795 302.302 66.657C307.235 75.1529 310.441 85.0345 313.738 94.2606C317.475 104.731 318.896 116.048 318.896 127C318.952 138.041 317.187 149.015 313.672 159.482C310.607 168.418 307.028 177.735 301.887 185.667C296.815 193.494 289.922 199.979 281.797 204.567C273.318 209.232 264.346 212.941 255.047 215.627C245.609 218.403 235.818 219.801 225.979 219.775C215.183 219.775 203.979 218.249 193.781 214.183C176.481 207.289 161.192 195.881 150.362 180.689C139.188 165.002 133.164 146.237 133.121 126.983V126.983Z" stroke="#FF93D9" stroke-width="0.06" stroke-miterlimit="10"/>
<path d="M133.835 126.942C133.789 117.209 135.162 107.522 137.913 98.185C140.749 88.7125 144.609 79.5765 149.424 70.9381C153.955 62.777 160.452 55.8732 168.326 50.8514C172.225 48.5282 176.318 46.5461 180.559 44.9275C184.936 43.1519 189.296 41.3266 193.781 39.8332C204.134 36.4876 214.957 34.8237 225.838 34.9049C235.534 34.9233 245.186 36.2091 254.548 38.7297C263.857 41.1376 272.941 44.3438 281.697 48.3126C290.164 52.378 297.2 58.9093 301.879 67.0469C304.284 71.3293 306.331 75.8027 307.999 80.4214C309.81 85.076 311.629 89.7305 313.165 94.5261C316.512 105.038 318.213 116.003 318.206 127.033C318.277 137.965 316.551 148.835 313.099 159.208C310.059 168.053 306.455 177.279 301.472 185.186C296.412 193.057 289.482 199.555 281.299 204.103C272.864 208.699 263.953 212.363 254.723 215.03C245.373 217.728 235.686 219.077 225.954 219.037C215.39 219.037 204.278 217.585 194.246 213.561C177.054 206.658 161.748 195.242 150.993 180.116C139.919 164.585 133.925 146.011 133.835 126.942V126.942Z" stroke="#FF94D6" stroke-width="0.06" stroke-miterlimit="10"/>
<path d="M134.541 126.942C134.486 117.226 135.857 107.554 138.611 98.2348C141.438 88.9003 145.244 79.8899 149.964 71.353C154.452 63.2047 160.924 56.3189 168.783 51.3326C172.687 49.0463 176.773 47.0844 180.999 45.4668C185.227 43.7244 189.437 41.9572 193.772 40.4887C204.088 37.1453 214.877 35.4922 225.722 35.5935C235.269 35.604 244.775 36.8364 254.009 39.2607C258.784 40.5218 263.543 41.9904 268.21 43.6166C272.668 45.0761 277.038 46.7909 281.299 48.7523C289.605 52.7584 296.54 59.1293 301.231 67.0635C303.634 71.3381 305.681 75.8031 307.352 80.4131C309.179 85.0843 311.006 89.7554 312.559 94.5178C315.905 105.026 317.6 115.989 317.583 127.017C317.583 137.67 316.255 148.705 312.468 159.167C309.146 168.293 305.824 177.221 300.758 185.103C295.766 192.816 288.941 199.175 280.892 203.613C272.437 208.196 263.51 211.848 254.266 214.507C245.041 217.137 235.49 218.45 225.896 218.406C215.424 218.406 204.303 216.963 194.337 212.864C177.395 205.903 162.23 194.57 151.608 179.602C140.679 164.178 134.466 145.46 134.541 126.942Z" stroke="#FF94D4" stroke-width="0.06" stroke-miterlimit="10"/>
<path d="M135.147 126.942C135.086 117.317 136.434 107.735 139.15 98.5003C142.024 89.0955 145.879 80.0186 150.653 71.4194C155.027 63.479 161.33 56.7655 168.982 51.8968C172.889 49.6073 176.974 47.6373 181.199 46.0061C185.418 44.2389 189.628 42.455 193.963 40.9865C204.169 37.6821 214.844 36.0542 225.572 36.166C235.116 36.1796 244.619 37.4091 253.851 39.8249C258.659 41.0943 263.435 42.4882 268.127 44.1227C272.598 45.6025 276.979 47.3395 281.249 49.3248C289.398 53.2803 296.186 59.5675 300.749 67.3871C303.128 71.6714 305.16 76.1382 306.829 80.745C308.681 85.4327 310.516 90.1288 312.069 94.9161C315.344 105.304 317 116.134 316.977 127.025C317.072 137.8 315.388 148.516 311.994 158.744C310.408 163.307 308.506 167.754 306.571 172.185C304.803 176.51 302.698 180.691 300.276 184.688C295.409 192.29 288.724 198.563 280.826 202.941C272.349 207.533 263.399 211.194 254.133 213.86C244.952 216.484 235.446 217.803 225.896 217.776C215.507 217.776 204.37 216.324 194.47 212.151C177.794 205.132 162.753 193.898 152.272 179.054C141.418 163.763 135.089 145.195 135.147 126.942Z" stroke="#FF95D1" stroke-width="0.06" stroke-miterlimit="10"/>
<path d="M135.737 126.876C135.675 117.264 137.038 107.696 139.782 98.4837C142.665 89.2216 146.489 80.2781 151.193 71.7927C155.523 63.8549 161.812 57.1547 169.464 52.3283C173.325 49.9388 177.486 48.2628 181.647 46.5205C185.808 44.7781 189.778 43.0441 193.955 41.6004C204.046 38.1158 215.066 36.7634 225.423 36.7634C234.967 36.7704 244.472 37.9859 253.71 40.3808C262.845 42.7786 272.363 45.6576 280.884 49.7397C289.026 53.6414 295.799 59.9079 300.317 67.7189C302.809 71.9669 304.545 76.5385 306.363 81.0935C308.182 85.6484 309.984 90.22 311.512 94.9243C314.808 105.308 316.475 116.14 316.454 127.033C316.547 137.718 314.863 148.344 311.471 158.478C309.86 163.083 307.933 167.555 305.956 172.002C304.21 176.21 302.156 180.284 299.811 184.19C294.957 191.821 288.248 198.101 280.311 202.443C271.897 206.986 263.028 210.632 253.851 213.32C244.743 215.924 235.311 217.223 225.838 217.179C215.656 217.179 204.635 215.76 194.918 211.603C178.491 204.584 163.501 193.391 153.111 178.814C142.248 163.597 135.687 145.087 135.737 126.876Z" stroke="#FF95CF" stroke-width="0.06" stroke-miterlimit="10"/>
<path d="M136.294 126.834C136.265 117.368 137.634 107.949 140.355 98.882C143.248 89.6272 147.057 80.6833 151.724 72.1827C156.006 64.255 162.265 57.5672 169.896 52.768C173.641 50.4698 177.677 48.8519 181.689 47.1013C185.7 45.3506 189.994 43.4921 194.246 42.007C204.162 38.5638 215.008 37.2612 225.19 37.2612C234.608 37.2579 243.989 38.437 253.112 40.7708C262.297 43.1437 271.864 46.0559 280.46 50.113C288.596 53.9644 295.351 60.2205 299.811 68.0342C302.211 72.1827 303.897 76.6215 305.674 81.0437C307.576 85.7563 309.453 90.4855 311.031 95.3143C314.285 105.572 315.93 116.272 315.906 127.033C315.992 137.707 314.283 148.32 310.848 158.428C309.262 162.901 307.36 167.256 305.408 171.587C303.652 175.79 301.61 179.868 299.296 183.792C294.486 191.402 287.8 197.65 279.879 201.937C271.556 206.41 262.799 210.024 253.743 212.723C244.65 215.346 235.228 216.659 225.763 216.623C215.648 216.664 204.644 215.154 195.035 210.923C178.873 203.821 164.024 192.67 153.751 178.266C142.996 163.191 136.202 144.847 136.294 126.834Z" stroke="#FF96CC" stroke-width="0.06" stroke-miterlimit="10"/>
<path d="M136.817 126.784C136.818 117.343 138.235 107.954 141.019 98.9317C143.92 89.7949 147.685 80.9548 152.264 72.5311C156.496 64.6171 162.734 57.9512 170.352 53.1995C174.073 50.9344 178.117 49.3248 182.087 47.5576C186.057 45.7904 190.077 44.0065 194.196 42.5795C204.046 39.0948 214.875 37.7756 224.924 37.7756C234.362 37.7817 243.762 38.9691 252.904 41.3101C262.04 43.683 271.482 46.5786 280.045 50.5528C288.181 54.3321 294.933 60.5572 299.354 68.3578C301.737 72.5062 303.407 76.9782 305.167 81.3922C307.044 85.9803 308.888 90.5934 310.449 95.306C313.754 105.558 315.435 116.263 315.432 127.033C315.516 137.699 313.772 148.301 310.275 158.379C308.697 162.726 306.828 166.958 304.91 171.164C303.089 175.477 300.98 179.662 298.598 183.692C293.84 191.162 287.239 197.285 279.43 201.473C271.103 205.932 262.35 209.548 253.303 212.267C244.344 214.849 235.062 216.142 225.738 216.108C215.814 216.108 204.976 214.631 195.483 210.408C187.341 206.697 179.655 202.059 172.578 196.586C165.608 191.238 159.477 184.878 154.39 177.719C143.726 162.759 136.742 144.664 136.817 126.784Z" stroke="#FF97C9" stroke-width="0.06" stroke-miterlimit="10"/>
<path d="M137.298 126.734C137.362 117.383 138.834 108.094 141.667 99.1806C144.584 89.9968 148.36 81.1076 152.945 72.6307C157.13 64.8201 163.311 58.256 170.859 53.606C174.488 51.4239 178.425 49.8475 182.262 48.0969C186.232 46.2799 190.218 44.4877 194.329 43.0026C204.037 39.5013 214.759 38.1904 224.692 38.1904C234.096 38.2026 243.462 39.3871 252.572 41.7166C261.707 44.0978 271.15 47.01 279.754 50.9593C287.818 54.6809 294.502 60.8473 298.856 68.5818C301.214 72.7303 302.875 77.1774 304.669 81.5581C306.563 86.138 308.415 90.7344 309.993 95.4387C313.3 105.622 314.981 116.261 314.976 126.967C315.051 137.49 313.312 147.947 309.835 157.881C308.174 162.369 306.239 166.725 304.229 171.048C302.475 175.106 300.487 179.059 298.274 182.888C293.647 190.395 287.137 196.564 279.389 200.784C271.037 205.296 262.257 208.968 253.178 211.744C244.231 214.362 234.953 215.681 225.63 215.66C215.756 215.66 204.926 214.1 195.541 209.786C187.586 206.023 180.067 201.402 173.118 196.005C166.175 190.677 160.069 184.339 155.005 177.204C144.449 162.311 137.224 144.506 137.298 126.734Z" stroke="#FF97C7" stroke-width="0.06" stroke-miterlimit="10"/>
<path d="M137.755 126.676C137.863 108.689 144.557 89.2991 153.485 73.0123C157.561 65.3158 163.604 58.8348 171 54.2283C174.704 51.9881 178.74 50.3619 182.627 48.5283C186.514 46.6947 190.5 44.8694 194.578 43.3843C204.096 39.9079 214.643 38.6053 224.385 38.597C233.679 38.6146 242.934 39.7822 251.941 42.0734C261.322 44.3934 270.49 47.502 279.347 51.3658C287.3 54.9636 293.908 60.9844 298.225 68.5652C300.658 72.7966 302.377 77.4097 304.271 81.8983C306.164 86.3869 307.966 90.8506 309.536 95.4305C312.919 105.613 314.652 116.271 314.668 127C314.727 137.381 312.988 147.694 309.528 157.483C307.867 161.971 305.89 166.335 303.839 170.658C302.006 174.824 299.943 178.884 297.66 182.821C293.054 190.16 286.606 196.167 278.957 200.245C270.694 204.696 262.026 208.352 253.07 211.163C244.135 213.831 234.857 215.178 225.531 215.162C215.706 215.204 204.909 213.503 195.633 209.097C187.739 205.234 180.275 200.548 173.367 195.117C166.568 189.864 160.587 183.631 155.619 176.624C145.163 161.863 137.68 144.365 137.755 126.676Z" stroke="#FF98C4" stroke-width="0.06" stroke-miterlimit="10"/>
<path d="M138.179 126.618C138.262 108.681 145.196 89.6144 154.016 73.3774C158.047 65.6924 164.07 59.2306 171.457 54.668C175.136 52.4527 179.147 50.8017 183.017 48.9432C186.888 47.0847 190.583 45.3506 194.503 43.8738C203.929 40.3227 214.435 38.9786 224.094 38.9786C233.419 39.006 242.704 40.1962 251.733 42.5214C261.173 44.872 270.397 48.0166 279.306 51.9217C287.226 55.5381 293.769 61.6068 297.967 69.229C300.218 73.253 301.87 77.6171 303.689 81.8568C305.658 86.4533 307.568 91.0829 309.195 95.8121C312.572 105.865 314.308 116.396 314.336 127C314.382 137.318 312.608 147.564 309.096 157.267C307.435 161.739 305.417 166.078 303.34 170.368C301.487 174.499 299.419 178.531 297.145 182.448C292.603 189.733 286.214 195.69 278.625 199.714C270.956 203.917 262.909 207.392 254.59 210.093C245.163 213.076 235.344 214.644 225.456 214.748C215.789 214.789 205.167 213.088 196.065 208.641C188.331 204.741 181.006 200.08 174.198 194.727C167.401 189.531 161.421 183.348 156.458 176.383C145.977 161.656 138.096 144.365 138.179 126.618Z" stroke="#FF98C2" stroke-width="0.06" stroke-miterlimit="10"/>
<path d="M138.577 126.552C138.66 108.581 145.886 89.6226 154.747 73.394C158.733 65.8834 164.665 59.5797 171.922 55.1409C175.476 53.0169 179.347 51.3907 183.059 49.5488C186.771 47.7069 190.533 45.8899 194.42 44.3882C203.747 40.7791 214.153 39.3686 223.778 39.3603C233.086 39.3981 242.352 40.6022 251.359 42.9445C260.813 45.339 270.055 48.5052 278.99 52.4112C286.856 55.9544 293.347 61.9677 297.477 69.536C299.711 73.5516 301.389 77.8909 303.224 82.1057C305.217 86.6856 307.144 91.2986 308.797 96.0195C312.225 106.006 313.997 116.484 314.045 127.041C314.066 137.36 312.229 147.598 308.622 157.267C306.961 161.606 304.976 165.821 302.917 169.986C300.857 174.151 299.038 178.216 296.671 182.066C292.161 189.323 285.79 195.241 278.218 199.208C270.57 203.345 262.568 206.794 254.308 209.512C244.958 212.571 235.201 214.205 225.365 214.358C215.855 214.399 205.433 212.607 196.496 208.201C188.731 204.36 181.323 199.158 174.472 193.889C167.819 188.762 161.964 182.678 157.097 175.835C146.675 161.2 138.494 144.233 138.577 126.552Z" stroke="#FF99BF" stroke-width="0.06" stroke-miterlimit="10"/>
<path d="M138.943 126.477C139.026 108.531 146.525 90.0541 155.237 73.8503C159.183 66.282 165.129 59.9378 172.429 55.506C175.892 53.465 179.629 51.8388 183.225 50.0052C186.821 48.1716 190.7 46.2716 194.52 44.7284C203.655 41.086 213.954 39.6424 223.446 39.6341C232.794 39.69 242.097 40.9249 251.135 43.3096C260.528 45.7459 269.716 48.9111 278.616 52.7763C286.371 56.1976 292.789 62.0644 296.887 69.4779C299.204 73.6263 300.965 78.09 302.884 82.4127C304.918 87.0009 306.87 91.6305 308.548 96.3597C311.978 106.215 313.762 116.566 313.83 127C313.824 137.317 311.921 147.546 308.215 157.176C306.496 161.515 304.478 165.721 302.402 169.886C300.425 173.803 298.565 177.86 296.273 181.61C291.871 188.756 285.638 194.597 278.218 198.527C262.139 207.106 243.071 213.918 225.348 213.993C215.872 214.034 205.491 212.117 196.663 207.596C189.047 203.704 181.88 198.469 175.111 193.267C168.485 188.164 162.652 182.108 157.803 175.296C147.372 160.735 138.86 144.141 138.943 126.477Z" stroke="#FF99BC" stroke-width="0.06" stroke-miterlimit="10"/>
<path d="M139.283 126.403C139.366 108.457 147.14 90.386 155.777 74.2237C159.618 66.7746 165.429 60.5191 172.578 56.1365C176.116 54.0374 179.911 52.3117 183.557 50.3868C187.203 48.4619 190.899 46.5951 194.728 45.0353C203.689 41.4013 213.746 39.9245 223.056 39.9245C232.396 39.9876 241.69 41.2422 250.712 43.6581C260.126 46.1532 269.34 49.351 278.276 53.2243C285.958 56.5881 292.307 62.4002 296.331 69.7517C298.631 73.9001 300.434 78.3223 302.377 82.6284C304.437 87.1917 306.422 91.8047 308.116 96.5256C311.613 106.31 313.444 116.611 313.531 127C313.5 137.259 311.545 147.421 307.767 156.96C306.031 161.274 303.988 165.456 301.854 169.596C299.844 173.479 297.942 177.495 295.667 181.212C291.326 188.301 285.148 194.086 277.786 197.955C261.716 206.492 242.905 213.553 225.165 213.627C215.698 213.669 205.399 211.603 196.663 206.99C189.188 203.049 182.27 197.764 175.584 192.628C169.103 187.614 163.373 181.699 158.568 175.064C148.435 161.15 139.209 144.141 139.283 126.403Z" stroke="#FF9ABA" stroke-width="0.06" stroke-miterlimit="10"/>
<path d="M139.607 126.32C139.682 108.432 147.688 90.6432 156.317 74.6053C160.287 67.2045 165.768 60.8657 173.043 56.5846C176.465 54.5684 180.086 52.8344 183.574 50.9261C187.062 49.0178 190.816 47.0598 194.603 45.4668C203.525 41.8901 213.061 40.0946 222.674 40.1817C232.003 40.2639 241.283 41.5381 250.288 43.9733C259.733 46.5337 268.979 49.778 277.952 53.6807C285.573 56.9804 291.868 62.7346 295.833 70.0255C298.117 74.1739 299.985 78.5629 301.937 82.8441C304.038 87.3908 306.04 91.9707 307.75 96.6833C311.311 106.401 313.19 116.653 313.306 127C313.261 137.122 311.288 147.143 307.493 156.529C303.986 165.044 299.806 173.267 294.994 181.12C290.619 188.153 284.412 193.866 277.038 197.648C261.06 206.028 242.73 213.271 225.057 213.337C215.319 213.412 205.711 211.096 197.078 206.592C189.52 202.51 182.627 197.025 175.85 191.782C169.419 186.769 163.741 180.859 158.991 174.234C153.776 167.016 149.116 159.864 145.446 151.708C141.883 143.776 139.566 134.617 139.607 126.32Z" stroke="#FF9BB7" stroke-width="0.06" stroke-miterlimit="10"/>
<path d="M139.898 126.245C139.981 108.307 148.294 90.5685 157.048 74.6385C161.001 67.4286 166.341 61.2225 173.5 57.0326C180.269 53.075 187.286 49.2252 194.47 45.8816C203.116 41.8659 213.065 40.4223 222.267 40.414C231.504 40.5113 240.689 41.794 249.599 44.2305C259.137 46.8429 268.474 50.1398 277.537 54.0955C285.202 57.2653 291.51 63.0237 295.359 70.3656C299.864 78.897 303.871 87.6815 307.36 96.675C311.047 106.369 313.014 116.631 313.174 127C313.085 137.127 311.023 147.139 307.103 156.479C303.531 164.724 299.391 172.711 294.712 180.382C290.43 187.431 284.294 193.171 276.972 196.976C261.035 205.472 242.706 212.989 224.974 213.055C215.269 213.102 205.71 210.696 197.186 206.061C189.869 201.962 183.358 196.494 176.722 191.417C170.306 186.432 164.628 180.566 159.855 173.993C149.366 159.806 139.823 143.868 139.898 126.245Z" stroke="#FF9BB5" stroke-width="0.06" stroke-miterlimit="10"/>
<path d="M140.18 126.154C140.247 108.457 148.61 90.9999 157.372 75.3853C161.474 68.0674 166.615 61.7452 173.982 57.4889C180.759 53.5728 187.527 49.3414 194.678 46.1471C203.258 42.4595 212.511 40.5893 221.852 40.6546C231.081 40.7618 240.258 42.067 249.15 44.5375C258.723 47.1926 268.091 50.5367 277.18 54.5435C284.717 57.7618 290.939 63.4392 294.828 70.6477C299.454 79.1052 303.524 87.8548 307.011 96.8409C310.757 106.465 312.764 116.676 312.941 127C312.826 137.072 310.703 147.02 306.696 156.263C303.032 164.452 298.84 172.395 294.147 180.042C289.891 187.006 283.808 192.673 276.557 196.428C260.777 204.999 242.506 212.715 224.808 212.773C215.264 212.793 205.876 210.352 197.551 205.687C190.143 201.448 183.69 195.731 176.955 190.571C170.706 185.606 165.146 179.833 160.42 173.404C149.88 159.549 140.105 143.652 140.18 126.154Z" stroke="#FF9CB2" stroke-width="0.06" stroke-miterlimit="10"/>
<path d="M140.438 126.112C140.504 108.423 149.125 90.9999 158.036 75.5512C162.122 68.474 167.014 62.2762 174.181 58.1278C180.949 54.1868 187.569 49.7729 194.694 46.5122C203.093 42.7358 212.202 40.7953 221.411 40.8205C230.641 40.9506 239.813 42.2895 248.693 44.803C258.301 47.5003 267.697 50.9002 276.806 54.975C284.298 58.1508 290.484 63.7809 294.346 70.9381C299.003 79.3709 303.141 88.0794 306.737 97.0152C310.441 106.482 312.833 117.16 312.841 127C312.698 136.939 310.543 146.747 306.505 155.832C302.842 164.128 298.141 172.085 293.457 179.892C289.238 186.928 283.234 192.014 276.117 195.963C260.503 204.617 242.332 212.483 224.692 212.557C215.184 212.516 205.857 209.959 197.659 205.148C190.392 200.842 184.205 195.076 177.536 189.948C171.15 185.028 165.976 179.162 161.034 172.857C150.404 159.3 140.355 143.453 140.438 126.112Z" stroke="#FF9CB0" stroke-width="0.06" stroke-miterlimit="10"/>
<path d="M140.67 125.979C140.737 108.407 149.532 91.1327 158.543 75.9079C162.695 68.8722 167.445 62.7242 174.646 58.5592C181.29 54.7095 187.585 50.1711 194.578 46.8358C202.852 42.967 211.878 40.9697 221.013 40.9865C230.24 41.1543 239.403 42.5493 248.262 45.1349C257.906 47.8615 267.331 51.3089 276.457 55.4479C284.006 58.8496 289.928 63.9273 293.898 71.2783C298.44 79.7328 302.942 88.3035 306.505 97.2226C310.267 106.623 312.783 117.218 312.791 127.041C312.791 136.541 310.3 146.73 306.264 155.649C302.518 163.946 297.668 171.728 292.976 179.527C288.765 186.547 282.835 191.475 275.784 195.466C260.337 204.219 242.207 212.275 224.617 212.325C215.133 212.264 205.846 209.616 197.759 204.667C190.633 200.294 184.678 194.47 178.117 189.367C171.855 184.497 166.798 178.806 161.865 172.641C151.076 159.159 140.612 143.411 140.67 125.979Z" stroke="#FF9DAD" stroke-width="0.06" stroke-miterlimit="10"/>
<path d="M140.894 125.88C140.961 108.282 150.03 91.0331 159.24 75.966C163.459 69.0464 168.052 63.2138 175.119 59.0238C181.705 55.1243 187.809 50.4449 194.694 47.0515C202.742 43.1546 211.571 41.1347 220.514 41.1441C229.434 41.1441 238.96 42.8699 247.747 45.3589C257.415 48.1196 266.856 51.623 275.984 55.8379C283.516 59.2894 289.321 64.1928 293.291 71.5438C297.859 79.99 302.493 88.4528 306.139 97.3553C309.943 106.673 312.592 117.185 312.6 127C312.6 136.475 309.959 146.564 305.882 155.384C302.053 163.68 297.078 171.314 292.361 179.096C288.184 186.082 282.37 190.828 275.344 194.918C260.071 203.771 242 212.018 224.434 212.068C215.035 211.967 205.852 209.24 197.925 204.194C190.874 199.739 185.06 193.831 178.574 188.671C172.404 183.759 167.404 178.183 162.429 172.077C151.624 158.901 140.836 143.262 140.894 125.88Z" stroke="#FF9DAA" stroke-width="0.06" stroke-miterlimit="10"/>
<path d="M141.11 125.789C141.16 108.291 150.462 91.1576 159.722 76.3809C161.881 72.946 163.957 69.5111 166.731 66.5242C169.346 63.784 172.328 61.419 175.593 59.4968C181.979 55.5723 187.834 50.8514 194.52 47.4165C202.439 43.3923 211.198 41.2916 220.083 41.2852C229.027 41.2852 238.528 43.0939 247.29 45.6078C256.986 48.4092 266.447 51.9684 275.585 56.2527C283.126 59.7706 288.757 64.5495 292.801 71.8674C297.444 80.2804 302.178 88.6602 305.89 97.5378C309.752 106.772 312.534 117.193 312.534 127C312.534 136.516 309.702 146.547 305.533 155.325C301.654 163.49 296.622 170.982 291.863 178.64C287.528 185.634 281.897 190.305 274.862 194.462C259.772 203.397 241.792 211.819 224.285 211.885C215.038 211.748 206.021 208.982 198.29 203.912C191.273 199.373 185.501 193.4 179.106 188.09C176.113 185.699 173.257 183.142 170.552 180.432C167.761 177.536 165.303 174.367 162.72 171.305C151.982 158.404 141.052 142.938 141.11 125.789Z" stroke="#FF9EA8" stroke-width="0.06" stroke-miterlimit="10"/>
<path d="M141.301 125.689C141.351 108.266 150.844 91.3152 160.195 76.7957C162.388 73.394 164.481 69.9425 167.238 66.9556C169.876 64.2598 172.842 61.9046 176.066 59.9448C182.312 55.8793 188.059 51.1086 194.678 47.6074C202.359 43.5601 210.908 41.4334 219.593 41.4096C228.554 41.4096 238.022 43.3013 246.775 45.8484C256.513 48.6802 266.008 52.287 275.17 56.6343C278.772 58.1839 282.129 60.2493 285.136 62.7657C288.032 65.4931 290.464 68.6737 292.336 72.1826C297.095 80.4795 301.887 88.851 305.666 97.6955C309.586 106.822 312.509 117.176 312.517 126.975C312.517 136.475 309.536 146.398 305.317 155.077C301.364 163.191 296.281 170.633 291.398 178.208C289.422 181.431 287.048 184.391 284.33 187.019C281.299 189.658 278.004 191.976 274.497 193.939C259.548 202.974 241.676 211.611 224.202 211.645C215.316 211.645 206.255 208.55 198.722 203.572C191.746 198.95 185.982 192.927 179.695 187.467C176.805 184.978 173.882 182.564 171.199 179.801C168.517 177.038 166.084 173.927 163.542 170.965C152.613 158.287 141.26 142.913 141.301 125.689Z" stroke="#FE9FA5" stroke-width="0.06" stroke-miterlimit="10"/>
<path d="M141.492 125.59C141.492 108.299 151.218 91.4728 160.652 77.2188C162.886 73.8503 165.004 70.3822 167.761 67.4037C170.304 64.8083 173.139 62.5144 176.207 60.5671C182.328 56.4186 187.959 51.5235 194.478 47.9226C202.01 43.7556 210.468 41.542 219.078 41.4843C228.064 41.4843 237.507 43.4672 246.235 46.0476C256.005 48.9427 265.522 52.6333 274.688 57.0824C278.226 58.7915 281.681 60.5836 284.654 63.222C287.52 65.9447 289.943 69.0965 291.838 72.5643C296.721 80.8114 301.563 89.1082 305.417 97.9029C309.386 106.98 312.451 117.21 312.459 127C312.459 136.483 309.328 146.29 305.051 154.869C301.023 162.934 295.916 170.334 290.883 177.81C288.891 180.989 286.53 183.922 283.849 186.547C280.821 189.171 277.544 191.494 274.065 193.483C259.324 202.609 241.501 211.462 224.044 211.487C215.15 211.487 206.188 208.168 198.772 203.115C191.862 198.37 186.157 192.263 179.953 186.688C177.204 184.199 174.347 181.917 171.772 179.22C169.057 176.408 166.615 173.346 164.041 170.409C153.095 157.964 141.451 142.706 141.492 125.59Z" stroke="#FE9FA3" stroke-width="0.06" stroke-miterlimit="10"/>
<path d="M141.667 125.49C141.667 108.299 151.583 91.6305 161.101 77.6503C163.376 74.3315 165.527 70.8303 168.276 67.8517C170.768 65.1469 173.699 63.1723 176.656 61.0317C182.544 56.7754 187.984 51.9051 194.296 48.2877C201.678 44.0047 210.051 41.7171 218.588 41.6502C227.599 41.6502 237 43.7161 245.72 46.3296C255.509 49.2598 265.037 52.998 274.206 57.5055C277.728 59.2479 281.224 61.0483 284.172 63.6784C287.121 66.3085 289.272 69.5691 291.34 72.9543C296.323 81.1184 301.248 89.3737 305.159 98.1186C309.187 107.112 312.393 117.201 312.401 127.025C312.401 136.55 309.079 146.298 304.702 154.819C300.625 162.759 295.476 170.044 290.401 177.362C288.374 180.518 286.007 183.442 283.342 186.082C280.406 188.628 277.242 190.899 273.891 192.869C259.249 202.153 241.427 211.321 223.895 211.338C215.042 211.338 206.238 207.886 198.98 202.75C192.153 197.938 186.522 191.782 180.443 186.157C177.76 183.668 174.92 181.378 172.37 178.689C169.663 175.885 167.196 172.882 164.597 169.953C153.643 157.682 141.634 142.598 141.667 125.49Z" stroke="#FEA0A0" stroke-width="0.06" stroke-miterlimit="10"/>
<path d="M141.841 125.39C141.841 108.183 152.065 91.6139 161.723 77.8162C163.974 74.597 166.125 71.1787 168.799 68.3163C171.291 65.6198 174.247 63.6452 177.146 61.4299C182.826 57.0824 188.108 52.2204 194.279 48.5283C201.461 44.1672 209.685 41.8146 218.09 41.7166C227.125 41.7166 236.485 43.8738 245.189 46.5205C255.003 49.4969 264.546 53.2994 273.716 57.8872C277.221 59.6461 280.751 61.4714 283.682 64.0932C286.614 66.715 288.732 69.984 290.85 73.3027C295.966 81.3756 300.924 89.5895 304.91 98.2846C308.988 107.195 312.335 117.226 312.343 127C312.343 136.508 308.872 146.141 304.437 154.562C300.284 162.444 295.077 169.679 289.895 176.906C287.84 180.016 285.475 182.91 282.835 185.543C279.903 188.084 276.758 190.368 273.434 192.371C265.67 197.532 257.433 201.947 248.835 205.555C240.937 208.757 232.225 211.138 223.729 211.138C214.859 211.138 206.18 207.48 199.013 202.261C192.369 197.399 186.854 191.259 180.95 185.559C178.317 183.02 175.477 180.722 172.927 178.092C170.211 175.271 167.695 172.284 165.054 169.372C154.066 157.358 141.816 142.432 141.841 125.39Z" stroke="#FEA09D" stroke-width="0.06" stroke-miterlimit="10"/>
<path d="M142.016 125.283C142.016 117.351 144.299 109.626 147.671 102.226C151.566 93.6466 156.94 85.5074 162.164 78.256C164.36 74.9544 166.756 71.7901 169.339 68.7809C171.831 66.1094 174.771 64.1181 177.586 61.8448C183.125 57.3645 188.299 52.4361 194.387 48.6777C201.338 44.2912 209.37 41.9134 217.591 41.8079C226.652 41.8079 235.978 44.048 244.657 46.7362C254.499 49.7548 264.06 53.619 273.235 58.2854C276.739 60.0775 280.302 61.9277 283.259 64.5578C286.215 67.1879 288.283 70.432 290.434 73.6844C295.782 81.6001 300.561 89.8845 304.736 98.4754C308.888 107.303 312.36 117.226 312.368 126.992C312.368 136.483 308.739 146 304.254 154.313C300.027 162.145 294.761 169.322 289.471 176.458C287.245 179.444 285.136 182.473 282.387 185.02C279.459 187.559 276.332 189.859 273.035 191.898C265.329 197.119 257.139 201.59 248.577 205.248C240.746 208.492 232.1 210.972 223.662 210.972C214.9 210.972 206.438 207.214 199.453 202.012C192.809 197.034 187.378 190.853 181.547 185.028C178.965 182.448 176.133 180.133 173.591 177.503C171.05 174.873 168.467 171.869 165.868 169.09C154.697 157.225 142.016 142.399 142.016 125.283Z" stroke="#FEA19B" stroke-width="0.06" stroke-miterlimit="10"/>
<path d="M142.165 125.183C142.165 117.301 144.515 109.635 147.937 102.309C151.89 93.8292 157.313 85.8227 162.57 78.7123C164.832 75.4359 167.269 72.284 169.871 69.2705C172.312 66.6238 175.277 64.5993 178.001 62.2762C183.308 57.7378 188.299 52.8095 194.196 49.0012C200.983 44.4881 208.924 42.0173 217.076 41.8825C226.162 41.8825 235.439 44.214 244.101 46.9353C253.95 50.0091 263.512 53.9345 272.678 58.6671C276.175 60.4924 279.771 62.3841 282.736 65.0225C285.7 67.6609 287.768 70.8801 289.944 74.0909C295.399 81.9317 300.26 90.1685 304.486 98.7326C308.639 107.469 312.31 117.284 312.31 127.041C312.31 136.442 308.597 145.767 304.104 153.923C299.794 161.756 294.446 168.932 289.014 176.01C286.747 178.955 284.596 182.016 281.847 184.555C278.8 187.197 275.557 189.604 272.147 191.757C264.55 196.981 256.462 201.452 247.996 205.107C240.305 208.334 231.826 210.914 223.463 210.865C214.734 210.865 206.438 206.949 199.594 201.738C193.05 196.71 187.693 190.463 181.979 184.564C179.446 181.958 176.656 179.585 174.131 177.005C171.606 174.425 168.957 171.421 166.324 168.667C155.187 156.927 142.157 142.258 142.165 125.183Z" stroke="#FEA198" stroke-width="0.06" stroke-miterlimit="10"/>
<path d="M142.323 125.083C142.323 117.259 144.731 109.693 148.186 102.466C152.206 94.0615 157.687 86.1463 162.977 79.1603C165.378 75.9992 167.728 72.6971 170.452 69.7683C172.869 67.1382 175.8 65.0723 178.45 62.6828C183.541 58.078 188.299 53.1829 194.005 49.3331C200.649 44.8279 208.472 41.9821 216.57 41.9738C225.705 41.9738 234.907 44.3965 243.536 47.151C253.404 50.2647 262.974 54.2548 272.13 59.0736C275.635 60.9321 279.264 62.8653 282.237 65.512C285.211 68.1587 287.287 71.3613 289.496 74.5141C295.051 82.2454 299.994 90.3984 304.279 98.8985C308.523 107.544 312.293 117.251 312.293 127C312.293 136.384 308.431 145.585 303.888 153.641C299.503 161.415 294.089 168.534 288.557 175.512C286.257 178.407 284.064 181.461 281.34 183.975C278.299 186.629 275.074 189.066 271.69 191.267C264.154 196.551 256.115 201.078 247.688 204.783C240.065 208.044 231.668 210.682 223.313 210.674C214.576 210.674 206.388 206.525 199.661 201.207C193.282 196.146 188.034 189.915 182.494 184.008C180.003 181.344 177.254 178.972 174.729 176.35C172.063 173.587 169.455 170.774 166.773 168.053C155.619 156.578 142.323 142.092 142.323 125.083Z" stroke="#FEA296" stroke-width="0.06" stroke-miterlimit="10"/>
<path d="M142.481 124.976C142.481 116.861 145.396 108.822 148.992 101.636C152.987 93.6549 158.127 86.3122 163.642 79.2931C166.009 76.2481 168.359 73.1119 170.967 70.2744C173.292 67.7853 176.083 65.6862 178.574 63.3216C183.615 58.5509 188.366 53.4567 194.088 49.4742C200.558 44.969 208.123 42.0651 216.063 42.007C225.257 42.007 234.55 44.5624 243.237 47.3916C253.048 50.5574 262.554 54.5976 271.64 59.4636C275.22 61.3967 278.94 63.4378 281.963 66.184C284.721 68.6731 286.847 71.8508 289.023 74.8459C294.725 82.5502 299.786 90.7084 304.154 99.2387C308.406 107.743 312.277 117.334 312.277 126.959C312.277 136.268 308.265 145.402 303.673 153.351C299.221 161.067 293.748 168.128 288.109 175.006C285.767 177.86 283.533 180.888 280.817 183.394C277.781 186.061 274.574 188.528 271.217 190.778C263.743 196.123 255.753 200.706 247.365 204.459C239.815 207.778 231.494 210.491 223.172 210.475C214.56 210.475 206.562 206.268 200.018 200.958C193.664 195.814 188.482 189.509 183.017 183.485C177.976 177.943 172.487 172.699 167.238 167.406C156.051 156.23 142.481 141.918 142.481 124.976Z" stroke="#FEA393" stroke-width="0.06" stroke-miterlimit="10"/>
<path d="M142.647 124.876C142.597 116.919 145.603 109.012 149.175 101.993C153.227 94.02 158.46 86.7188 164.032 79.7577C166.466 76.7293 168.907 73.6595 171.507 70.7971C173.816 68.308 176.54 66.1426 178.981 63.7199C183.865 58.833 188.515 53.6558 194.163 49.6152C200.416 45.1266 207.808 42.148 215.548 42.148C224.684 42.148 234.002 44.7947 242.656 47.6572C252.475 50.8688 261.979 54.9707 271.051 59.9116C274.647 61.8863 278.376 63.9937 281.432 66.7648C284.172 69.2539 286.365 72.3984 288.582 75.3521C294.388 82.9509 299.534 91.0309 303.963 99.5042C308.265 107.909 312.268 117.475 312.268 127C312.268 136.201 308.116 145.303 303.473 153.143C298.947 160.801 293.416 167.804 287.694 174.582C285.406 177.497 282.94 180.268 280.311 182.879C277.283 185.561 274.093 188.055 270.76 190.347C263.353 195.752 255.414 200.389 247.066 204.186C239.591 207.504 231.286 210.35 223.056 210.325C214.552 210.325 206.654 205.969 200.234 200.635C193.972 195.424 188.873 189.077 183.516 182.987C178.533 177.362 173.051 172.201 167.736 166.908C156.516 155.915 142.747 141.636 142.647 124.876Z" stroke="#FEA391" stroke-width="0.06" stroke-miterlimit="10"/>
<path d="M142.846 124.776C142.846 116.87 145.919 109.012 149.573 101.993C153.766 94.2499 158.747 86.9597 164.439 80.2389C166.931 77.2106 169.422 74.2071 172.113 71.3281C174.43 68.839 177.054 66.6072 179.405 64.1181C184.072 59.1898 188.54 54.0208 193.997 49.9222C200.084 45.3506 207.409 42.2144 215.066 42.2144C224.202 42.2144 233.479 44.9441 242.099 47.848C251.922 51.115 261.422 55.2811 270.477 60.2933C274.206 62.2343 277.707 64.5829 280.917 67.2958C283.666 69.7849 285.9 72.8796 288.175 75.7918C294.067 83.301 299.286 91.3135 303.772 99.7365C308.124 108.033 312.252 117.583 312.252 127.008C312.252 136.035 308.024 145.021 303.39 152.729C298.659 160.305 293.274 167.454 287.295 174.093C284.93 176.989 282.413 179.759 279.754 182.39C276.811 185.045 273.725 187.537 270.511 189.857C263.141 195.357 255.223 200.083 246.883 203.962C239.408 207.355 231.103 210.309 222.898 210.284C214.452 210.284 206.595 205.729 200.292 200.328C193.988 194.926 189.064 188.571 183.773 182.398C178.931 176.74 173.458 171.612 168.11 166.468C161.873 160.428 155.652 154.239 150.811 147.004C146.459 140.433 142.788 132.634 142.846 124.776Z" stroke="#FEA48E" stroke-width="0.06" stroke-miterlimit="10"/>
<path d="M142.971 124.669C142.971 116.811 146.168 108.905 149.897 101.993C154.117 94.4065 159.113 87.2774 164.805 80.7201C169.563 75.0783 174.87 70.0006 179.754 64.5081C184.197 59.53 188.491 54.3859 193.756 50.2458C199.694 45.5829 206.936 42.3057 214.518 42.3057C223.579 42.3057 232.881 45.1183 241.468 48.0554C251.291 51.3674 260.78 55.5924 269.813 60.6749C273.562 62.6812 277.084 65.0845 280.319 67.8434C283.004 70.4437 285.473 73.2573 287.702 76.2564C293.685 83.6614 298.981 91.5956 303.523 99.9605C307.916 108.183 312.177 117.674 312.177 127C312.177 135.927 307.809 144.863 303.141 152.438C298.474 160.013 292.627 166.825 286.822 173.579C281.803 179.443 276.146 184.73 269.954 189.343C262.655 194.899 254.794 199.679 246.501 203.605C239.126 207.031 230.829 210.076 222.707 210.052C214.311 210.052 206.512 205.289 200.284 199.797C194.246 194.453 189.338 188.048 184.213 181.867C179.397 176.059 173.882 170.99 168.434 165.804C162.122 159.789 155.877 153.616 150.952 146.381C146.708 140.051 142.954 132.36 142.971 124.669Z" stroke="#FEA48B" stroke-width="0.06" stroke-miterlimit="10"/>
<path d="M143.145 124.569C143.145 116.894 146.367 109.153 150.063 102.367C154.332 94.7983 159.396 87.7059 165.17 81.2096C170.012 75.6176 175.402 70.5233 180.219 64.898C184.521 59.8203 188.706 54.585 193.905 50.3702C199.636 45.724 206.703 42.4052 214.095 42.4052C223.097 42.4052 232.407 45.2925 240.945 48.2628C250.769 51.6218 260.25 55.9115 269.257 61.0732C273.026 63.1369 276.564 65.5955 279.812 68.4076C282.524 70.9889 285.047 73.7617 287.362 76.7044C293.436 84.0046 298.808 91.8605 303.407 100.168C307.833 108.282 312.218 117.741 312.218 126.967C312.218 135.795 307.725 144.681 303.008 152.148C298.154 159.61 292.622 166.609 286.481 173.056C281.288 178.798 275.614 184.089 269.522 188.87C262.3 194.477 254.505 199.308 246.268 203.281C238.902 206.766 230.638 209.91 222.574 209.91C214.269 209.869 206.579 205.007 200.508 199.498C194.561 194.097 189.711 187.658 184.728 181.419C179.961 175.503 174.463 170.492 168.949 165.315C162.587 159.374 156.367 153.16 151.392 145.992C147.057 139.719 143.128 132.177 143.145 124.569Z" stroke="#FEA589" stroke-width="0.06" stroke-miterlimit="10"/>
<path d="M143.319 124.453C143.319 116.82 146.641 109.087 150.437 102.358C154.791 94.8254 159.951 87.7872 165.826 81.3673C170.61 76.0075 175.842 71.1373 180.351 65.5369C184.504 60.3513 188.582 55.0165 193.681 50.6855C199.262 45.9563 206.238 42.4965 213.563 42.4882C222.508 42.4882 231.834 45.4585 240.314 48.4619C250.121 51.8756 259.577 56.2238 268.551 61.4465C275.524 65.6102 281.727 70.9429 286.888 77.2105C293.047 84.4091 298.491 92.1895 303.141 100.442C307.617 108.465 312.119 117.865 312.119 126.992C312.119 135.72 307.493 144.548 302.751 151.882C297.84 159.291 292.24 166.219 286.024 172.575C280.728 178.276 275.024 183.586 268.958 188.463C261.789 194.128 254.035 199.012 245.828 203.032C238.603 206.517 230.373 209.736 222.425 209.67C214.311 209.628 206.745 204.692 200.832 199.249C194.918 193.806 190.185 187.302 185.243 180.971C180.567 174.997 175.186 170.094 169.605 164.983C163.16 159.076 156.857 152.903 151.774 145.751C147.389 139.578 143.311 132.036 143.319 124.453Z" stroke="#FEA586" stroke-width="0.06" stroke-miterlimit="10"/>
<path d="M143.511 124.37C143.511 116.903 146.833 109.328 150.603 102.757C155.002 95.2434 160.231 88.2469 166.191 81.8983C171.091 76.5385 176.332 71.7346 180.742 65.9351C184.761 60.65 188.723 55.2322 193.747 50.8348C199.129 46.1222 205.939 42.6293 213.073 42.621C221.968 42.621 231.261 45.6659 239.716 48.6943C249.518 52.1566 258.958 56.5665 267.903 61.8614C282.902 70.8635 294.388 85.6733 302.958 100.699C307.468 108.614 312.094 117.981 312.094 127C312.094 135.687 307.31 144.515 302.477 151.799C297.463 159.17 291.748 166.039 285.41 172.309C280.05 177.897 274.362 183.161 268.376 188.073C261.354 193.727 253.745 198.611 245.679 202.642C238.487 206.185 230.256 209.521 222.342 209.479C214.269 209.438 206.761 204.343 200.965 198.818C195.168 193.292 190.55 186.854 185.758 180.565C183.652 177.619 181.317 174.845 178.774 172.268C175.942 169.538 172.91 167.016 169.987 164.386C163.467 158.511 157.089 152.355 151.957 145.203C147.597 139.188 143.502 131.771 143.511 124.37Z" stroke="#FEA684" stroke-width="0.06" stroke-miterlimit="10"/>
<path d="M143.677 124.279C143.677 116.861 147.156 109.278 150.952 102.773C155.358 95.4238 160.578 88.5938 166.515 82.4127C169.181 79.5669 172.071 76.9699 174.82 74.1822C177.12 71.7239 179.232 69.0975 181.141 66.3251C184.953 61.0151 188.74 55.6138 193.598 51.175C198.83 46.3794 205.557 42.7537 212.625 42.7454C221.453 42.7454 230.738 45.865 239.134 48.9266C248.913 52.424 258.321 56.879 267.222 62.2264C282.171 71.353 294.006 85.9139 302.751 100.923C307.294 108.73 312.019 118.048 312.011 126.967C312.011 135.554 307.111 144.324 302.252 151.492C297.178 158.799 291.394 165.588 284.986 171.762C279.455 177.204 273.849 182.747 267.82 187.65C260.874 193.352 253.327 198.282 245.313 202.352C238.213 205.911 230.024 209.33 222.184 209.288C214.344 209.247 206.803 204.028 201.139 198.502C195.475 192.977 190.882 186.464 186.19 180.108C184.103 177.142 181.784 174.345 179.255 171.745C176.448 168.982 173.334 166.518 170.394 163.904C163.841 158.097 157.43 151.998 152.247 144.921C147.896 138.956 143.677 131.596 143.677 124.279Z" stroke="#FEA781" stroke-width="0.06" stroke-miterlimit="10"/>
<path d="M143.926 124.179C143.926 116.811 147.514 109.245 151.4 102.798C155.814 95.6258 161.024 88.9739 166.931 82.9686C169.638 80.1559 172.603 77.6005 175.294 74.7713C177.592 72.2692 179.681 69.5831 181.539 66.7399C185.152 61.4299 188.765 56.0287 193.432 51.565C198.523 46.6947 205.142 42.9362 212.16 42.9196C220.922 42.9196 230.19 46.1056 238.528 49.1921C248.3 52.7474 257.69 57.2725 266.558 62.6994C281.507 71.9752 293.64 86.2624 302.56 101.255C307.144 108.954 311.961 118.214 311.953 127.033C311.953 135.521 306.97 144.224 302.053 151.285C296.927 158.526 291.084 165.234 284.613 171.305C278.965 176.706 273.326 182.299 267.297 187.293C260.43 193.028 252.952 197.989 244.998 202.087C237.98 205.671 229.833 209.164 222.084 209.114C214.336 209.064 207.019 203.829 201.513 198.328C195.874 192.728 191.339 186.165 186.73 179.727C184.639 176.685 182.303 173.818 179.745 171.156C176.938 168.343 173.766 165.887 170.768 163.274C164.256 157.591 157.878 151.608 152.679 144.664C148.244 138.806 143.917 131.464 143.926 124.179Z" stroke="#FEA77E" stroke-width="0.06" stroke-miterlimit="10"/>
<path d="M144.15 124.088C144.15 116.894 147.738 109.477 151.541 103.188C156.001 96.0309 161.273 89.4131 167.255 83.4664C170.012 80.6703 173.018 78.1398 175.692 75.2691C177.996 72.7329 180.067 69.995 181.88 67.0884C185.351 61.6871 188.864 56.2112 193.465 51.6728C198.365 46.8358 204.81 43.0607 211.661 43.0441C220.365 43.0441 229.6 46.2882 237.88 49.4078C247.632 53 256.993 57.573 265.818 63.0561C280.767 72.473 293.225 86.4864 302.311 101.479C306.92 109.07 311.836 118.263 311.828 126.983C311.828 135.43 306.654 144.108 301.704 151.094C296.577 158.2 290.733 164.761 284.264 170.675C278.45 176.084 272.753 181.751 266.682 186.87C259.857 192.692 252.396 197.727 244.441 201.879C237.565 205.43 229.55 208.923 221.968 208.873C214.211 208.815 207.019 203.414 201.596 197.897C196.173 192.379 191.696 185.775 187.228 179.37C185.14 176.263 182.783 173.345 180.185 170.65C177.362 167.787 174.164 165.323 171.116 162.701C164.638 157.142 158.302 151.277 153.103 144.448C148.61 138.665 144.142 131.348 144.15 124.088Z" stroke="#FEA87C" stroke-width="0.06" stroke-miterlimit="10"/>
<path d="M144.391 123.997C144.391 116.928 148.004 109.61 151.807 103.454C156.351 96.2874 161.734 89.6889 167.844 83.7983C173.06 78.6708 178.284 74.066 182.121 67.7521C185.443 62.2264 188.897 56.6095 193.449 51.9881C198.191 47.1427 204.511 43.2847 211.23 43.2847C219.867 43.2847 229.052 46.6034 237.291 49.7314C247.011 53.3795 256.331 58.014 265.104 63.5622C279.995 73.1202 292.785 86.8515 302.078 101.844C306.721 109.311 311.72 118.438 311.712 127.066C311.712 135.421 306.446 144.025 301.472 150.895C296.278 157.932 290.363 164.408 283.824 170.218C277.869 175.603 272.155 181.295 266.076 186.53C259.324 192.372 251.933 197.432 244.043 201.614C237.257 205.173 229.301 208.732 221.802 208.674C214.136 208.616 207.036 203.132 201.745 197.606C196.455 192.081 192.003 185.435 187.627 178.996C183.117 172.359 177.553 167.381 171.457 162.228C164.954 156.728 158.601 150.92 153.36 144.183C148.925 138.425 144.391 131.173 144.391 123.997Z" stroke="#FEA879" stroke-width="0.06" stroke-miterlimit="10"/>
<path d="M144.657 123.905C144.657 116.87 148.369 109.585 152.222 103.487C156.761 96.4818 162.126 90.0471 168.201 84.321C173.458 79.2599 178.832 74.5224 182.503 68.1089C185.675 62.5832 188.939 56.9994 193.299 52.3449C197.892 47.4248 204.096 43.4423 210.798 43.4506C219.36 43.4506 228.504 46.7694 236.676 49.972C246.363 53.6389 255.643 58.3019 264.365 63.8858C279.415 73.8192 292.187 86.8269 301.837 102.051C306.496 109.419 311.579 118.463 311.571 126.992C311.571 135.181 306.297 143.643 301.355 150.356C296.096 157.375 290.099 163.811 283.467 169.555C277.454 174.856 271.748 180.515 265.735 185.825C259.049 191.77 251.697 196.923 243.827 201.182C237.091 204.791 229.143 208.442 221.677 208.384C214.053 208.326 207.011 202.684 201.828 197.125C196.646 191.566 192.352 185.012 188.133 178.606C183.69 171.869 177.951 166.734 171.797 161.614C165.245 156.147 158.842 150.364 153.526 143.627C149.166 138.043 144.648 130.924 144.657 123.905Z" stroke="#FEA977" stroke-width="0.06" stroke-miterlimit="10"/>
<path d="M144.931 123.822C144.931 116.828 148.734 109.56 152.646 103.536C157.192 96.6994 162.546 90.4344 168.592 84.8769C173.865 79.8987 179.438 74.9206 182.926 68.5072C185.957 62.8902 189.122 57.2234 193.432 52.4776C197.742 47.7318 203.913 43.6249 210.424 43.6332C218.92 43.6332 228.022 47.0266 236.12 50.2209C245.771 53.9408 255.002 58.6686 263.659 64.3255C278.768 74.2877 291.687 87.2198 301.63 102.333C306.305 109.577 311.454 118.545 311.446 126.975C311.446 135.073 306.098 143.444 301.148 150.049C295.836 156.991 289.788 163.339 283.109 168.982C276.964 174.259 271.208 179.959 265.195 185.368C258.594 191.349 251.317 196.539 243.511 200.834C236.867 204.459 228.986 208.152 221.602 208.093C214.219 208.035 207.243 202.41 202.202 196.918C196.895 191.11 192.701 184.472 188.449 177.918C184.197 171.363 178.483 166.161 172.487 161.283C165.843 155.856 159.39 150.107 154.025 143.411C149.557 137.902 144.931 130.817 144.931 123.822Z" stroke="#FEA974" stroke-width="0.06" stroke-miterlimit="10"/>
<path d="M145.238 123.739C145.238 116.911 149 109.817 152.845 103.951C157.497 97.0208 163.002 90.7017 169.231 85.1423C174.496 80.3551 179.737 75.1861 183.267 68.8971C186.381 63.3797 189.08 57.7295 193.233 52.8925C197.385 48.0554 203.473 43.8655 209.984 43.8738C218.405 43.8738 227.424 47.3087 235.472 50.5113C245.088 54.2845 254.275 59.0683 262.878 64.7819C277.769 74.8294 291.431 87.6148 301.331 102.649C306.031 109.776 311.238 118.653 311.23 126.992C311.23 135.056 305.749 143.395 300.749 149.899C295.475 156.777 289.255 162.726 282.736 168.393C276.523 173.786 270.569 179.461 264.506 184.987C257.951 191.025 250.702 196.266 242.913 200.601C236.385 204.194 228.678 207.82 221.461 207.786C214.244 207.753 207.417 202.128 202.509 196.718C197.202 190.861 193.291 184.099 188.906 177.569C184.521 171.04 178.832 165.614 172.744 160.718C166.1 155.334 159.556 149.609 154.157 142.922C149.814 137.52 145.238 130.576 145.238 123.739Z" stroke="#FEAA72" stroke-width="0.06" stroke-miterlimit="10"/>
<path d="M145.554 123.665C145.554 116.903 149.407 109.809 153.302 104.018C157.94 97.2601 163.412 91.1134 169.588 85.7231C175.043 80.9642 179.747 75.4089 183.541 69.2456C186.863 63.7945 189.171 58.0033 193.324 53.0833C197.476 48.1633 203.24 44.131 209.569 44.131C217.915 44.131 226.901 47.6157 234.841 50.8431C244.406 54.6545 253.534 59.4834 262.065 65.2465C276.989 75.5014 290.924 87.9467 301.032 102.964C305.741 109.975 310.998 118.728 310.998 127.025C310.998 134.998 305.458 143.237 300.45 149.634C295.11 156.454 288.823 162.162 282.354 167.887C276.15 173.404 269.963 178.938 263.892 184.597C257.415 190.657 250.235 195.922 242.506 200.278C236.07 203.87 228.462 207.513 221.304 207.496C214.145 207.48 207.335 201.688 202.551 196.279C197.377 190.471 193.739 183.659 189.263 177.312C184.714 170.843 179.264 165.057 173.076 160.129C166.432 154.869 160.004 149.26 154.623 142.706C150.204 137.338 145.595 130.468 145.554 123.665Z" stroke="#FEAA6F" stroke-width="0.06" stroke-miterlimit="10"/>
<path d="M145.902 123.623C145.902 116.894 149.831 109.842 153.767 104.117C158.352 97.4798 163.974 91.7549 169.937 86.3371C175.386 81.4901 180.08 75.8581 183.865 69.6272C187.045 64.2509 189.288 58.4845 193.257 53.5645C197.227 48.6445 202.933 44.438 209.236 44.438C217.433 44.438 226.253 47.8895 234.035 51.0755C243.594 54.9637 252.714 59.8529 261.242 65.6613C276.191 75.8997 290.31 88.1541 300.641 103.147C305.392 110.058 310.765 118.803 310.748 127C310.748 134.816 305.242 142.897 300.292 149.136C294.902 155.923 288.508 161.581 282.021 167.29C275.701 172.865 269.398 178.474 263.202 184.182C256.851 190.171 249.838 195.418 242.299 199.822C235.92 203.464 228.305 207.206 221.212 207.156C214.12 207.106 207.476 201.348 202.767 195.922C197.684 190.064 194.113 183.278 189.67 176.972C185.07 170.483 179.614 164.645 173.45 159.615C166.914 154.255 160.403 148.92 154.971 142.399C150.578 137.106 145.936 130.319 145.902 123.623Z" stroke="#FEAB6C" stroke-width="0.06" stroke-miterlimit="10"/>
<path d="M146.276 123.524C146.276 116.953 150.138 110.074 154.008 104.516C158.642 97.878 164.389 92.427 170.244 86.8764C175.561 82.0074 180.173 76.4225 183.948 70.2827C187.145 64.8897 189.304 59.0238 193.174 54.0208C197.045 49.0178 202.642 44.7366 208.896 44.7449C217.01 44.7449 225.755 48.2296 233.445 51.4405C242.92 55.397 251.966 60.3064 260.445 66.0928C275.394 76.2979 289.861 88.5524 300.309 103.47C305.068 110.257 310.474 118.894 310.466 127C310.466 134.733 304.91 142.706 299.969 148.821C294.554 155.525 288.109 161.117 281.656 166.775C275.203 172.434 268.941 178.084 262.621 183.775C256.151 189.583 249.499 195.059 241.942 199.432C235.663 203.066 228.13 206.841 221.121 206.783C214.111 206.724 207.492 200.875 202.85 195.424C197.917 189.616 194.412 182.888 190.044 176.69C185.355 170.148 179.858 164.224 173.683 159.059C167.346 153.658 160.843 148.588 155.412 142.192C151.027 136.973 146.309 130.261 146.276 123.524Z" stroke="#FEAC6A" stroke-width="0.06" stroke-miterlimit="10"/>
<path d="M146.675 123.457C146.675 116.919 150.603 110.091 154.506 104.598C159.199 98.0025 165.07 92.7257 170.842 87.1253C176.029 82.2604 180.528 76.7112 184.213 70.6311C187.378 65.2216 189.504 59.2893 193.299 54.2449C196.995 49.3248 202.435 45.1183 208.564 45.1183C216.603 45.1183 225.265 48.6279 232.864 51.8388C242.262 55.8553 251.239 60.7911 259.664 66.574C274.696 76.7957 289.355 88.9755 299.985 103.827C304.736 110.464 310.175 119.01 310.167 127.058C310.167 134.758 304.511 142.673 299.537 148.705C294.039 155.342 287.503 160.901 281.025 166.551C274.547 172.201 268.31 177.802 261.99 183.468C255.67 189.135 249.117 194.644 241.717 199.008C235.497 202.667 228.022 206.476 221.038 206.476C214.053 206.476 207.75 200.668 203.215 195.275C198.324 189.467 194.827 182.68 190.45 176.474C185.711 169.866 180.174 163.866 173.965 158.611C167.661 153.177 161.125 148.149 155.694 141.777C151.35 136.599 146.708 130.012 146.675 123.457Z" stroke="#FEAC67" stroke-width="0.06" stroke-miterlimit="10"/>
<path d="M147.107 123.391C147.107 116.961 151.01 110.274 154.88 104.914C159.547 98.4422 165.402 93.2982 171.058 87.731C176.283 82.773 180.807 77.1261 184.504 70.9464C187.61 65.5784 189.67 59.6627 193.341 54.6182C196.912 49.7148 202.194 45.4917 208.29 45.4917C216.304 45.4917 224.9 49.051 232.465 52.2951C241.841 56.4037 250.8 61.4049 259.216 67.2294C274.165 77.4014 288.848 89.3654 299.545 104.034C304.337 110.597 309.851 119.052 309.843 127.025C309.843 134.699 304.104 142.548 299.097 148.481C293.615 154.977 287.096 160.428 280.693 165.979C274.289 171.529 267.795 177.337 261.383 183.062C254.972 188.787 248.552 194.279 241.177 198.668C235.115 202.269 227.806 206.036 220.98 205.986C214.003 205.936 207.75 200.062 203.348 194.694C198.515 188.787 195.043 181.992 190.608 175.794C185.963 169.359 180.578 163.492 174.563 158.312C168.301 152.836 161.698 147.842 156.225 141.519C151.84 136.467 147.14 129.929 147.107 123.391Z" stroke="#FEAD65" stroke-width="0.06" stroke-miterlimit="10"/>
<path d="M147.572 123.333C147.572 116.928 151.517 110.298 155.42 105.013C160.046 98.7492 165.843 93.7213 171.341 88.2703C176.555 83.2598 181.07 77.5694 184.761 71.353C187.784 66.0596 189.803 60.202 193.307 55.1824C196.812 50.1628 201.928 45.9148 207.982 45.9231C215.83 45.9231 224.268 49.441 231.635 52.6353C240.866 56.7335 249.693 61.6833 258.003 67.4203C273.168 77.7001 288.3 89.7305 299.263 104.549C303.988 110.946 309.445 119.201 309.436 127.025C309.436 134.55 303.764 142.225 298.831 147.991C293.3 154.463 286.73 159.905 280.302 165.414C273.874 170.924 267.421 176.723 261.06 182.382C254.698 188.04 248.253 193.674 240.912 198.146C234.924 201.771 227.673 205.613 220.872 205.538C214.07 205.463 207.941 199.73 203.655 194.437C198.855 188.521 195.35 181.701 190.932 175.495C186.246 169.008 180.832 163.079 174.795 157.823C168.592 152.289 161.948 147.294 156.466 140.997C152.206 136.068 147.597 129.73 147.572 123.333Z" stroke="#FEAD62" stroke-width="0.06" stroke-miterlimit="10"/>
<path d="M148.062 123.283C148.062 117.035 151.915 110.597 155.735 105.47C160.353 99.2553 166.191 94.2523 171.631 88.793C176.741 83.8117 181.175 78.1827 184.82 72.0499C187.926 66.6487 189.952 60.6251 193.465 55.4562C196.787 50.5942 201.77 46.3297 207.733 46.3297C215.498 46.3297 223.828 49.8475 231.078 53.0418C240.241 57.1868 249.011 62.1491 257.281 67.8683C272.462 78.1564 287.744 90.1122 298.806 104.856C303.523 111.112 308.979 119.234 308.971 126.975C308.971 134.442 303.232 142.067 298.274 147.717C292.751 154.031 286.224 159.391 279.887 164.842C273.343 170.476 266.873 176.192 260.42 181.925C253.967 187.658 247.622 193.242 240.305 197.689C234.492 201.249 227.408 204.982 220.764 204.941C213.945 204.891 207.924 199.058 203.73 193.773C199.063 187.899 195.591 181.178 191.231 175.072C186.503 168.543 181.067 162.558 175.02 157.225C168.932 151.791 162.388 146.879 156.965 140.731C152.737 135.969 148.095 129.663 148.062 123.283Z" stroke="#FEAE60" stroke-width="0.06" stroke-miterlimit="10"/>
<path d="M148.585 123.242C148.585 117.011 152.48 110.639 156.317 105.586C160.984 99.4544 166.864 94.4846 172.229 88.9921C177.194 84.0457 181.506 78.4861 185.06 72.4482C188.108 67.1133 190.11 61.1893 193.457 56.0453C196.654 51.1418 201.562 46.8192 207.501 46.8358C215.233 46.8358 223.504 50.3951 230.68 53.6143C239.831 57.8392 248.593 62.8587 256.866 68.615C271.914 78.8284 287.146 90.61 298.316 105.121C303.041 111.269 308.556 119.309 308.548 127.008C308.548 134.368 302.908 141.768 298.025 147.286C292.461 153.583 285.892 158.901 279.538 164.394C272.894 170.061 266.4 175.81 259.872 181.577C253.577 187.136 247.273 192.753 240.114 197.2C234.359 200.776 227.358 204.534 220.739 204.501C213.929 204.459 208.007 198.56 203.896 193.284C199.353 187.476 195.898 180.838 191.605 174.84C186.847 168.262 181.392 162.218 175.335 156.811C169.381 151.443 162.944 146.589 157.571 140.599C153.302 135.853 148.66 129.597 148.585 123.242Z" stroke="#FEAE5D" stroke-width="0.06" stroke-miterlimit="10"/>
<path d="M149.15 123.2C149.15 117.118 152.928 110.954 156.682 106.059C161.341 99.9771 167.221 95.0073 172.528 89.5148C177.472 84.5259 181.767 78.9339 185.31 72.8713C188.299 67.6194 190.293 61.8033 193.482 56.6758C196.555 51.7475 201.363 47.3585 207.301 47.375C215.008 47.375 223.197 50.9759 230.298 54.2117C239.299 58.4422 247.928 63.4212 256.093 69.0962C271.233 79.3594 286.523 91.2654 297.975 105.644C302.693 111.576 308.049 119.442 308.041 127C308.041 134.343 302.344 141.652 297.452 147.07C291.913 153.218 285.41 158.495 279.131 163.871C272.487 169.574 265.877 175.329 259.299 181.137C253.095 186.596 246.891 192.163 239.882 196.594C234.201 200.178 227.283 203.962 220.681 203.928C214.078 203.895 208.223 198.121 204.237 192.96C199.719 187.152 196.239 180.515 191.929 174.499C187.141 167.899 181.671 161.82 175.609 156.363C169.705 150.97 163.26 146.108 157.903 140.134C153.734 135.488 149.175 129.431 149.15 123.2Z" stroke="#FEAF5A" stroke-width="0.06" stroke-miterlimit="10"/>
<path d="M149.756 123.159C149.756 117.052 153.609 110.904 157.421 106.067C161.989 100.259 167.678 95.4305 172.769 90.1039C177.726 85.0364 182.033 79.3733 185.592 73.2447C188.54 68.0342 190.517 62.2928 193.615 57.1736C196.571 52.2868 201.247 47.9309 207.127 47.9475C214.659 47.9475 222.641 51.4737 229.55 54.6514C238.541 58.9204 247.168 63.9151 255.346 69.5857C263.468 75.0105 271.284 80.8798 278.758 87.1668C285.552 92.7932 291.79 99.0584 297.386 105.876C302.053 111.742 307.509 119.458 307.501 126.983C307.501 134.31 301.762 141.519 296.862 146.838C291.331 152.845 284.912 158.055 278.716 163.349C272.014 169.073 265.37 174.873 258.784 180.681C252.572 186.123 246.326 191.707 239.375 196.146C233.852 199.664 227.134 203.348 220.681 203.314C214.037 203.314 208.339 197.507 204.419 192.321C199.943 186.414 196.413 179.818 192.062 173.803C187.39 167.43 182.105 161.531 176.282 156.188C170.41 150.754 163.966 145.867 158.567 139.935C154.349 135.372 149.772 129.373 149.756 123.159Z" stroke="#FEB058" stroke-width="0.06" stroke-miterlimit="10"/>
<path d="M150.395 123.134C150.395 117.168 154.116 111.236 157.828 106.54C162.388 100.782 168.052 95.9366 173.085 90.6017C178.013 85.4998 182.3 79.8159 185.849 73.6761C188.798 68.4574 190.832 62.7574 193.839 57.5802C196.638 52.768 201.247 48.5366 206.986 48.5532C214.46 48.5532 222.375 52.1043 229.193 55.2986C238.158 59.6407 246.766 64.6814 254.939 70.3739C269.946 80.5293 285.177 92.037 296.705 106.142C301.389 111.875 306.862 119.508 306.862 126.992C306.862 134.168 301.256 141.213 296.439 146.348C290.75 152.422 284.231 157.732 277.91 163.125C271.388 168.689 264.905 174.298 258.46 179.951C252.24 185.385 246.003 191.002 239.06 195.499C233.62 199.025 226.992 202.709 220.556 202.684C213.987 202.684 208.373 196.959 204.594 191.84C200.234 185.933 196.654 179.469 192.336 173.52C187.612 167.084 182.284 161.114 176.423 155.691C170.651 150.298 164.29 145.427 158.983 139.586C154.897 135.106 150.412 129.257 150.395 123.134Z" stroke="#FEB055" stroke-width="0.06" stroke-miterlimit="10"/>
<path d="M151.068 123.109C151.068 115.135 157.23 107.843 162.571 102.25C168.999 95.5051 175.859 89.1829 181.348 81.5913C186.124 74.9538 189.271 67.636 192.909 60.3845C195.749 54.7261 200.093 49.217 206.869 49.2253C214.153 49.2253 221.885 52.6767 228.462 55.813C237.283 60.1309 245.772 65.0949 253.859 70.6643C269.082 80.9275 284.455 92.51 296.273 106.698C300.882 112.24 306.239 119.666 306.239 127C306.239 134.119 300.708 140.947 295.907 145.975C290.202 151.94 283.815 157.234 277.545 162.569C270.951 168.186 264.415 173.861 257.871 179.536C251.7 184.904 245.504 190.413 238.669 194.935C233.396 198.428 226.868 202.028 220.556 202.004C214.062 202.004 208.68 196.445 205.017 191.417C200.691 185.476 197.011 179.096 192.685 173.164C187.944 166.719 182.617 160.725 176.772 155.259C171.125 149.933 164.996 145.062 159.656 139.412C155.545 135.056 151.101 129.199 151.068 123.109Z" stroke="#FEB153" stroke-width="0.06" stroke-miterlimit="10"/>
<path d="M151.799 123.092C151.749 115.003 158.161 107.926 163.492 102.3C169.729 95.7125 176.324 89.4733 181.63 82.0808C186.273 75.5927 189.429 68.4408 192.975 61.3387C195.832 55.6304 199.835 49.9139 206.786 49.9305C214.128 49.9305 221.735 53.4732 228.338 56.6592C237.047 60.9819 245.439 65.9143 253.452 71.4193C268.584 81.6079 283.848 93.0741 295.65 107.096C300.218 112.53 305.558 119.682 305.541 127.008C305.525 134.334 299.944 140.764 295.143 145.759C289.521 151.608 283.242 156.827 277.072 162.079C270.461 167.71 263.88 173.371 257.331 179.063C251.235 184.331 245.122 189.666 238.437 194.18C233.221 197.697 226.876 201.315 220.531 201.298C213.945 201.298 208.863 195.698 205.183 190.678C200.923 184.871 197.26 178.623 193 172.79C188.332 166.465 183.116 160.563 177.412 155.151C171.723 149.7 165.577 144.681 160.154 138.956C156.134 134.666 151.824 129.116 151.799 123.092Z" stroke="#FEB150" stroke-width="0.06" stroke-miterlimit="10"/>
<path d="M152.563 123.084C152.563 115.293 158.642 108.564 163.692 103.171C169.937 96.4593 176.581 90.1122 181.963 82.6118C186.58 76.132 189.753 68.9801 193.332 61.9194C196.148 56.3688 199.926 50.7187 206.786 50.7353C213.987 50.7353 221.362 54.2366 227.748 57.3728C236.431 61.6869 244.8 66.6023 252.796 72.0831C267.812 82.1389 283.035 93.4724 294.828 107.361C299.379 112.713 304.794 119.69 304.794 127C304.794 134.135 299.213 140.482 294.496 145.386C288.84 151.268 282.528 156.512 276.316 161.797C269.882 167.29 263.463 172.801 257.057 178.333C250.919 183.609 244.765 188.961 238.038 193.491C232.914 196.943 226.818 200.535 220.531 200.527C213.962 200.527 209.12 194.968 205.474 190.048C201.239 184.323 197.584 178.192 193.374 172.45C188.671 166.085 183.436 160.128 177.727 154.645C172.238 149.335 166.349 144.423 161.117 138.881C157.006 134.583 152.588 129.215 152.563 123.084Z" stroke="#FEB24D" stroke-width="0.06" stroke-miterlimit="10"/>
<path d="M153.377 123.084C153.377 115.326 159.705 108.539 164.655 103.171C170.701 96.6169 177.063 90.3694 182.228 83.0764C186.78 76.6381 189.952 69.5692 193.532 62.5998C196.289 57.2317 199.993 51.4903 206.728 51.5069C213.796 51.5069 221.029 54.9999 227.266 58.0365C235.962 62.3784 244.347 67.3129 252.364 72.8049C267.313 82.8441 282.37 94.0449 294.138 107.76C298.598 112.962 303.996 119.798 303.98 127C303.98 133.961 298.465 140.159 293.914 144.905C288.283 150.779 281.996 156.022 275.801 161.291C269.356 166.783 262.925 172.29 256.508 177.81C250.388 183.054 244.234 188.364 237.523 192.86C232.54 196.179 226.644 199.714 220.515 199.714C214.012 199.714 209.22 194.047 205.632 189.235C201.38 183.527 197.684 177.428 193.44 171.712C188.78 165.485 183.635 159.637 178.051 154.222C172.62 148.92 166.789 143.992 161.615 138.458C157.745 134.26 153.402 129.033 153.377 123.084Z" stroke="#FEB24B" stroke-width="0.06" stroke-miterlimit="10"/>
<path d="M154.232 123.084C154.232 115.725 160.32 109.07 165.029 103.843C171.025 97.206 177.362 90.917 182.519 83.5825C187.004 77.2106 190.185 70.2329 193.764 63.3465C196.521 58.078 200.209 52.3615 206.795 52.3698C213.746 52.3698 220.913 55.9042 227.117 58.9326C235.626 63.2061 243.836 68.0487 251.692 73.4272C266.641 83.3834 281.714 94.5842 293.482 108.274C297.834 113.327 303.149 120.022 303.116 127C303.083 133.978 297.469 140.109 292.918 144.83C287.436 150.513 281.349 155.616 275.336 160.735C268.858 166.266 262.38 171.797 255.902 177.329C249.948 182.406 243.968 187.526 237.465 191.898C232.532 195.217 226.586 198.859 220.523 198.851C214.211 198.851 209.444 193.242 205.906 188.546C201.679 182.954 197.991 176.972 193.806 171.347C189.2 165.209 184.14 159.426 178.666 154.048C173.259 148.696 167.462 143.71 162.313 138.109C158.543 134.011 154.249 128.825 154.232 123.084Z" stroke="#FEB348" stroke-width="0.06" stroke-miterlimit="10"/>
<path d="M155.138 123.092C155.138 115.832 161.341 109.129 166.059 103.868C171.872 97.4217 177.902 91.2322 182.885 84.1135C187.295 77.7996 190.484 70.9049 194.063 64.1264C196.771 59.0155 200.458 53.2824 206.811 53.2824C213.572 53.2824 220.656 56.7837 226.743 59.7457C235.118 63.9578 243.203 68.7224 250.944 74.008C265.735 83.8978 280.709 94.8994 292.469 108.382C296.821 113.36 302.277 120.064 302.219 127C302.153 133.754 296.63 139.852 292.17 144.481C286.672 150.198 280.543 155.325 274.539 160.461C268.255 165.832 261.962 171.195 255.661 176.549C249.673 181.626 243.669 186.746 237.133 191.118C232.299 194.362 226.453 197.955 220.564 197.946C214.435 197.946 209.701 192.404 206.205 187.833C202.053 182.357 198.34 176.499 194.204 170.973C189.568 164.808 184.491 158.985 179.014 153.55C173.824 148.364 168.284 143.494 163.318 138.076C159.548 133.986 155.146 128.759 155.138 123.092Z" stroke="#FEB446" stroke-width="0.06" stroke-miterlimit="10"/>
<path d="M156.084 123.117C156.084 116.206 162.006 109.66 166.507 104.549C172.229 98.0274 178.259 91.7881 183.233 84.6362C187.577 78.397 190.766 71.6019 194.354 64.9312C197.036 59.9531 200.724 54.2366 206.894 54.2366C213.472 54.2366 220.432 57.688 226.345 60.5919C234.737 64.8053 242.838 69.5727 250.595 74.8625C265.196 84.6279 279.978 95.4719 291.605 108.747C295.883 113.634 301.297 120.221 301.214 127C301.14 133.637 295.708 139.595 291.348 144.141C285.941 149.775 279.945 154.836 274.015 159.905C267.693 165.298 261.367 170.677 255.038 176.043C249.134 181.021 243.204 186.04 236.767 190.322C232.025 193.474 226.287 197.017 220.564 197.009C214.61 197.009 209.909 191.55 206.446 187.102C202.202 181.626 198.473 175.777 194.304 170.252C189.796 164.315 184.896 158.685 179.637 153.401C174.472 148.174 168.957 143.262 164.032 137.794C160.411 133.762 156.084 128.601 156.084 123.117Z" stroke="#FEB443" stroke-width="0.06" stroke-miterlimit="10"/>
<path d="M157.081 123.142C157.081 116.305 163.077 109.718 167.545 104.565C173.051 98.2265 178.807 92.12 183.599 85.1921C187.876 79.0276 191.073 72.332 194.653 65.7775C197.327 60.9072 201.014 55.2571 207.019 55.2488C213.464 55.2488 220.307 58.692 226.17 61.5627C234.337 65.6642 242.224 70.2983 249.781 75.435C264.315 85.1092 279.023 95.8536 290.617 109.012C294.853 113.816 300.284 120.329 300.193 127C300.11 133.438 294.77 139.337 290.501 143.809C285.094 149.253 279.417 154.423 273.492 159.3C267.269 164.615 261.029 169.911 254.773 175.188C248.851 180.166 242.897 185.144 236.444 189.434C231.784 192.512 226.154 195.98 220.598 195.98C214.784 195.98 210.15 190.62 206.728 186.289C202.518 180.946 198.814 175.221 194.703 169.803C190.164 163.858 185.257 158.203 180.011 152.87C174.97 147.726 169.613 142.864 164.821 137.471C161.292 133.53 157.073 128.419 157.081 123.142Z" stroke="#FEB541" stroke-width="0.06" stroke-miterlimit="10"/>
<path d="M158.111 123.167C158.111 116.67 163.8 110.249 168.077 105.246C173.525 98.8405 179.239 92.6925 184.022 85.7563C188.225 79.6747 191.414 73.0787 195.01 66.6735C197.659 61.9194 201.363 56.344 207.202 56.3274C213.472 56.3274 220.207 59.7042 225.913 62.5002C234.054 66.5946 241.918 71.2146 249.458 76.3311C263.858 85.9223 278.484 96.5671 289.944 109.643C294.014 114.289 299.221 120.587 299.121 126.992C299.022 133.397 293.79 139.08 289.621 143.469C284.328 148.844 278.765 153.944 272.952 158.752C266.724 164.095 260.451 169.4 254.133 174.665C248.485 179.568 242.565 184.15 236.402 188.388C231.768 191.467 226.129 194.984 220.623 194.976C215.116 194.968 210.374 189.733 206.994 185.518C202.842 180.307 199.129 174.732 195.085 169.414C190.523 163.464 185.611 157.79 180.376 152.422C175.46 147.352 170.261 142.548 165.61 137.23C162.213 133.322 158.094 128.278 158.111 123.167Z" stroke="#FEB53E" stroke-width="0.06" stroke-miterlimit="10"/>
<path d="M159.182 123.208C159.232 116.72 164.912 110.298 169.148 105.262C174.364 99.0479 179.812 93.0327 184.413 86.3288C188.565 80.3302 191.721 73.8835 195.325 67.5447C197.975 62.9068 201.67 57.4225 207.368 57.3977C213.596 57.3977 220.315 60.8077 225.996 63.612C233.855 67.5901 241.456 72.06 248.751 76.9948C262.97 86.4367 277.379 96.9073 288.748 109.743C292.843 114.372 298.083 120.628 298 127C297.917 133.123 292.785 138.831 288.707 143.154C278.151 154.338 265.719 163.996 253.909 173.852C248.244 178.732 242.31 183.291 236.136 187.509C231.593 190.496 226.071 193.914 220.697 193.922C214.236 193.922 209.07 187.061 205.341 182.24C200.043 175.321 195.126 168.136 189.479 161.498C183.549 154.529 176.971 148.223 170.66 141.586C166 136.674 159.124 129.995 159.182 123.208Z" stroke="#FEB63B" stroke-width="0.06" stroke-miterlimit="10"/>
<path d="M160.287 123.25C160.336 117.069 165.677 110.805 169.688 105.951C174.829 99.6701 180.235 93.63 184.828 86.9179C188.872 81.0105 192.053 74.6385 195.624 68.4657C198.265 63.9439 201.961 58.5592 207.517 58.5094C213.572 58.5094 220.149 61.8282 225.697 64.5744C233.542 68.5303 241.127 72.9837 248.403 77.9075C262.438 87.2166 276.557 97.4964 287.76 110.108C291.772 114.629 296.896 120.769 296.838 127C296.746 133.032 291.664 138.682 287.644 142.947C277.221 154.039 264.93 163.614 253.228 173.296C247.722 178.007 241.957 182.409 235.962 186.48C231.477 189.417 226.037 192.794 220.755 192.802C214.56 192.802 209.477 186.323 205.806 181.676C200.433 174.831 195.492 167.671 189.852 161.025C183.931 154.056 177.395 147.684 171.15 141.013C166.715 136.234 160.229 129.746 160.287 123.25Z" stroke="#FEB639" stroke-width="0.06" stroke-miterlimit="10"/>
<path d="M161.424 123.3C161.483 117.152 166.839 110.854 170.809 105.967C175.726 99.8859 180.866 93.9951 185.276 87.5236C189.255 81.7158 192.419 75.4516 196.031 69.4198C198.672 65.0059 202.368 59.7374 207.8 59.7125C213.729 59.7125 220.207 63.0312 225.664 65.6862C233.262 69.5163 240.61 73.8226 247.664 78.5795C261.516 87.7061 275.535 97.8946 286.622 110.34C290.592 114.795 295.758 120.869 295.625 127C295.542 132.882 290.576 138.441 286.672 142.631C276.49 153.533 264.465 162.942 252.962 172.409C247.454 177.107 241.681 181.487 235.671 185.526C231.294 188.339 225.954 191.657 220.822 191.657C214.668 191.657 209.51 185.103 205.873 180.515C200.624 173.877 195.774 166.999 190.309 160.552C184.587 153.807 178.309 147.576 172.312 141.08C167.902 136.309 161.366 129.738 161.424 123.3Z" stroke="#FDB736" stroke-width="0.06" stroke-miterlimit="10"/>
<path d="M162.604 123.349C162.662 117.484 167.661 111.435 171.424 106.656C176.257 100.525 181.39 94.6091 185.75 88.1375C189.645 82.421 192.809 76.2896 196.422 70.3988C199.054 66.0928 202.758 60.957 208.049 60.9321C213.746 60.9321 219.975 64.0517 225.232 66.6238C232.853 70.4348 240.218 74.7361 247.282 79.5005C260.935 88.5192 274.804 98.5335 285.7 110.854C289.529 115.185 294.462 121.059 294.371 127C294.28 132.75 289.471 138.184 285.651 142.308C275.635 153.094 263.734 162.461 252.348 171.786C246.946 176.36 241.283 180.618 235.389 184.539C231.095 187.302 225.888 190.479 220.888 190.479C214.967 190.479 209.951 184.323 206.371 179.917C201.056 173.379 196.189 166.501 190.741 160.071C185.036 153.334 178.798 147.095 172.885 140.549C168.666 135.878 162.546 129.539 162.604 123.349Z" stroke="#FDB834" stroke-width="0.06" stroke-miterlimit="10"/>
<path d="M163.808 123.407C163.866 117.558 168.857 111.485 172.586 106.681C177.196 100.74 182.021 94.999 186.248 88.7764C190.068 83.1511 193.208 77.1608 196.82 71.4028C199.47 67.2045 203.149 62.2264 208.339 62.1767C214.003 62.1767 220.224 65.3129 225.439 67.8766C232.765 71.5488 239.852 75.6778 246.659 80.2389C260.179 89.1331 273.891 99.0313 284.662 111.203C288.408 115.442 293.208 121.159 293.133 126.967C293.05 133.463 287.029 139.595 282.669 144.067C276.158 150.704 268.966 156.753 261.849 162.751C254.731 168.75 247.473 174.898 239.824 180.349C234.459 184.174 227.574 189.251 221.021 189.243C215.158 189.243 210.15 183.153 206.579 178.822C201.355 172.483 196.555 165.813 191.239 159.54C185.6 152.903 179.471 146.664 173.683 140.134C169.588 135.596 163.75 129.431 163.808 123.407Z" stroke="#FDB831" stroke-width="0.06" stroke-miterlimit="10"/>
<path d="M165.054 123.474C165.103 117.89 169.738 112.032 173.251 107.378C177.769 101.396 182.561 95.6379 186.771 89.4235C190.509 83.9061 193.639 78.0319 197.244 72.4399C199.893 68.3412 203.581 63.4876 208.655 63.4627C214.203 63.4627 220.282 66.5325 225.431 69.0547C232.623 72.6586 239.58 76.7127 246.26 81.193C259.465 89.8882 272.836 99.554 283.392 111.443C287.079 115.592 291.855 121.267 291.771 127C291.672 133.48 285.642 139.603 281.299 144.058C275.004 150.513 268.061 156.354 261.176 162.162C254.291 167.97 247.248 173.886 239.84 179.146C234.492 182.954 227.599 188.048 221.063 188.032C215.324 188.032 210.382 182.141 206.82 177.918C201.637 171.745 196.854 165.224 191.68 159.067C186.24 152.637 180.376 146.622 174.829 140.258C170.801 135.654 164.987 129.431 165.054 123.474Z" stroke="#FDB92E" stroke-width="0.06" stroke-miterlimit="10"/>
<path d="M166.316 123.54C166.374 117.956 170.975 112.091 174.455 107.403C178.749 101.595 183.275 96.0444 187.311 90.079C190.974 84.6777 194.088 78.928 197.692 73.4853C200.333 69.4945 204.012 64.8067 208.979 64.7736C214.311 64.7736 220.141 67.6692 225.074 70.067C232.273 73.637 239.234 77.6694 245.911 82.1389C258.801 90.6183 271.848 100.06 282.138 111.643C285.784 115.741 290.492 121.325 290.443 126.975C290.351 133.256 284.588 139.221 280.385 143.569C274.215 149.982 267.371 155.765 260.57 161.498C253.768 167.231 246.792 173.048 239.45 178.208C234.226 181.875 227.524 186.746 221.179 186.729C215.565 186.729 210.665 181.037 207.135 176.922C201.994 170.915 197.294 164.552 192.186 158.511C186.771 152.115 180.966 146.066 175.518 139.686C171.681 135.239 166.258 129.248 166.316 123.54Z" stroke="#FDB92C" stroke-width="0.06" stroke-miterlimit="10"/>
<path d="M167.612 123.623C167.67 118.239 171.988 112.539 175.302 107.967C179.455 102.217 183.906 96.6667 187.884 90.7759C191.489 85.4327 194.603 79.766 198.249 74.4477C200.882 70.6063 204.527 66.1508 209.336 66.1508C214.552 66.1508 220.265 68.9801 225.116 71.3198C232.05 74.7565 238.755 78.6364 245.189 82.9354C257.987 91.3152 270.934 100.674 281.124 112.207C284.629 116.189 289.114 121.574 289.031 127.033C288.939 133.131 283.458 138.914 279.405 143.171C273.351 149.534 266.616 155.259 259.905 160.918C253.195 166.576 246.285 172.301 239.001 177.345C233.911 180.88 227.433 185.518 221.27 185.501C215.714 185.501 210.831 179.909 207.301 175.852C202.26 170.044 197.651 163.913 192.693 158.047C187.535 151.94 182.046 146.116 176.913 140.009C173.035 135.446 167.554 129.373 167.612 123.623Z" stroke="#FDBA29" stroke-width="0.06" stroke-miterlimit="10"/>
<path d="M168.932 123.681C168.982 118.413 173.085 112.829 176.299 108.324C180.31 102.665 184.604 97.206 188.474 91.4563C191.937 86.3205 194.985 80.9027 198.523 75.825C201.197 71.9918 204.876 67.5281 209.701 67.5281C214.826 67.5281 220.407 70.2827 225.149 72.5726C231.949 75.9312 238.524 79.7281 244.832 83.9393C257.289 92.0868 269.913 101.205 279.804 112.431C283.259 116.347 287.677 121.649 287.594 127.025C287.503 133.098 282.021 138.881 277.985 143.129C272.054 149.177 265.79 154.891 259.224 160.246C252.696 165.738 246.077 171.189 239.06 176.01C233.985 179.527 227.499 184.157 221.362 184.14C216.03 184.14 211.288 178.947 207.841 175.089C202.742 169.405 198.133 163.29 193.208 157.458C188.075 151.384 182.644 145.568 177.578 139.429C173.948 135.048 168.874 129.215 168.932 123.681Z" stroke="#FDBA27" stroke-width="0.06" stroke-miterlimit="10"/>
<path d="M170.253 123.764C170.311 118.612 174.206 113.161 177.295 108.697C181.149 103.138 185.285 97.7702 189.064 92.1615C192.518 87.0506 195.583 81.6577 199.204 76.663C201.845 73.0289 205.449 68.9303 210.067 68.9054C216.827 68.9054 224.318 73.2032 230.389 76.4804C239.084 81.2429 247.439 86.5987 255.396 92.51C262.87 98.0191 270.27 103.91 276.673 110.688C280.684 114.936 286.207 120.918 286.116 127C286.033 132.891 280.834 138.491 276.98 142.64C271.177 148.634 265.023 154.28 258.552 159.549C252.172 165.048 245.52 170.224 238.62 175.055C233.637 178.432 227.408 182.813 221.453 182.805C216.179 182.805 211.487 177.719 208.007 173.927C203.024 168.451 198.515 162.56 193.739 156.91C188.681 150.928 183.358 145.162 178.433 139.064C174.987 134.774 170.253 129.099 170.253 123.764Z" stroke="#FDBB24" stroke-width="0.06" stroke-miterlimit="10"/>
<path d="M171.64 123.847C171.698 118.803 175.393 113.468 178.358 109.087C182.054 103.619 186.049 98.3592 189.736 92.8833C193.058 87.9882 196.031 82.8524 199.536 78.0983C202.21 74.4643 205.856 70.3573 210.499 70.3325C217.035 70.3325 224.244 74.4145 230.099 77.559C238.663 82.2269 246.886 87.4947 254.706 93.3231C261.99 98.6662 269.124 104.383 275.344 110.962C279.297 115.111 284.745 121.035 284.671 127.041C284.588 132.741 279.688 138.168 275.926 142.208C270.257 148.147 264.221 153.725 257.854 158.91C251.584 164.318 245.031 169.389 238.221 174.101C233.404 177.337 227.35 181.485 221.611 181.477C216.437 181.477 211.794 176.607 208.373 172.923C203.448 167.63 199.005 161.897 194.345 156.379C189.504 150.646 184.446 145.071 179.762 139.205C176.299 134.857 171.573 129.19 171.64 123.847Z" stroke="#FDBC22" stroke-width="0.06" stroke-miterlimit="10"/>
<path d="M173.026 123.93C173.085 118.952 176.573 113.791 179.421 109.477C182.959 104.109 186.813 98.9483 190.401 93.6217C193.723 88.7515 196.696 83.6655 200.283 78.9861C202.916 75.5512 206.479 71.801 210.914 71.7761C217.467 71.7761 224.717 75.9246 230.564 79.0691C238.709 83.5169 246.535 88.5265 253.984 94.0615C261.144 99.1605 267.834 104.889 273.974 111.178C277.861 115.285 283.242 121.134 283.167 127.033C283.093 132.658 278.268 138.018 274.597 142.026C269.133 147.783 263.308 153.187 257.156 158.204C250.99 163.526 244.527 168.492 237.797 173.081C233.13 176.142 227.283 180.042 221.744 180.042C216.761 180.042 212.201 175.47 208.838 171.944C203.929 166.792 199.528 161.158 194.943 155.74C190.185 150.107 185.227 144.598 180.692 138.773C177.387 134.583 172.968 129.107 173.026 123.93Z" stroke="#FDBC1F" stroke-width="0.06" stroke-miterlimit="10"/>
<path d="M174.405 124.021C174.455 119.193 177.727 114.107 180.484 109.867C183.873 104.615 187.577 99.5623 191.073 94.3768C194.204 89.7222 197.136 84.8769 200.591 80.4463C203.265 77.028 206.853 73.2695 211.329 73.2447C217.724 73.2447 224.75 77.2271 230.431 80.2887C238.385 84.6037 246.028 89.4693 253.303 94.8497C260.275 99.8069 266.785 105.383 272.753 111.51C276.557 115.542 281.747 121.209 281.681 127C281.615 132.551 276.897 137.852 273.285 141.81C268.033 147.387 262.42 152.614 256.484 157.458C250.625 162.505 244.483 167.214 238.088 171.562C233.396 174.682 227.499 178.64 221.877 178.631C216.852 178.631 212.309 174.093 208.921 170.583C204.195 165.68 199.943 160.337 195.558 155.143C190.924 149.65 186.14 144.266 181.772 138.549C178.558 134.409 174.405 129.091 174.405 124.021Z" stroke="#FDBD1C" stroke-width="0.06" stroke-miterlimit="10"/>
<path d="M175.85 124.113C175.9 119.325 179.064 114.306 181.722 110.091C184.928 105.013 188.449 100.135 191.812 95.1566C194.902 90.5851 197.817 85.831 201.288 81.5332C203.938 78.2642 207.476 74.7713 211.794 74.7547C217.973 74.7547 224.7 78.5049 230.198 81.4419C237.974 85.6442 245.437 90.3995 252.53 95.671C259.37 100.517 265.745 105.986 271.574 112.008C275.228 115.932 280.153 121.375 280.095 126.942C280.037 132.244 275.685 137.296 272.271 141.121C267.131 146.693 261.6 151.892 255.719 156.678C249.922 161.686 243.82 166.33 237.448 170.583C232.931 173.52 227.333 177.171 221.951 177.154C217.085 177.154 212.675 172.923 209.344 169.563C204.652 164.809 200.433 159.607 196.131 154.479C191.671 149.194 187.087 143.975 182.926 138.441C179.845 134.409 175.8 129.132 175.85 124.113Z" stroke="#FDBD1A" stroke-width="0.06" stroke-miterlimit="10"/>
<path d="M177.287 124.204C177.287 119.657 180.169 114.895 182.627 110.854C185.741 105.752 189.213 100.898 192.552 95.92C195.558 91.4729 198.44 86.8681 201.878 82.7363C204.519 79.5669 208.016 76.2481 212.259 76.2315C218.206 76.2315 224.642 79.7743 229.932 82.5703C237.557 86.6555 244.868 91.2978 251.808 96.4593C258.507 101.212 264.736 106.594 270.411 112.53C273.924 116.339 278.583 121.582 278.525 126.992C278.475 132.219 274.231 137.205 270.884 140.98C265.947 146.358 260.627 151.372 254.964 155.981C249.28 160.888 243.283 165.42 237.008 169.546C232.64 172.342 227.258 175.761 222.059 175.752C217.359 175.752 213.065 171.811 209.809 168.609C205.142 164.012 200.973 158.893 196.746 153.89C192.369 148.705 187.909 143.561 183.889 138.126C180.983 134.11 177.262 129.058 177.287 124.204Z" stroke="#FDBE17" stroke-width="0.06" stroke-miterlimit="10"/>
<path d="M178.74 124.304C178.74 119.732 181.556 114.961 183.989 110.912C186.904 106.059 190.151 101.404 193.324 96.7165C196.239 92.4021 199.079 87.9467 202.459 83.9808C205.092 80.911 208.555 77.7747 212.7 77.7664C218.513 77.7664 224.709 81.1433 229.841 83.8397C237.238 87.786 244.329 92.2817 251.052 97.289C257.553 101.905 263.592 107.14 269.082 112.92C272.496 116.629 276.972 121.723 276.922 127.025C276.872 132.327 272.77 137.089 269.448 140.823C264.735 146.015 259.641 150.849 254.208 155.284C248.742 160.004 242.965 164.353 236.917 168.302C232.607 171.04 227.316 174.358 222.192 174.35C217.475 174.35 213.181 170.442 209.901 167.248C205.433 162.901 201.43 158.055 197.443 153.301C193.199 148.273 188.897 143.254 185.052 137.91C182.22 133.961 178.715 129.049 178.74 124.304Z" stroke="#FDBE15" stroke-width="0.06" stroke-miterlimit="10"/>
<path d="M180.219 124.395C180.219 120.056 182.71 115.559 184.961 111.684C187.776 106.822 190.974 102.176 194.096 97.5296C196.825 93.2456 199.827 89.1412 203.082 85.2419C205.723 82.255 209.128 79.3263 213.19 79.3014C218.729 79.3014 224.675 82.4625 229.609 85.0262C236.839 88.853 243.763 93.2301 250.321 98.1186C256.569 102.559 262.37 107.594 267.645 113.153C270.967 116.803 275.369 121.806 275.336 127C275.294 131.978 271.441 136.682 268.31 140.275C263.744 145.39 258.782 150.136 253.469 154.471C248.222 158.992 242.672 163.15 236.859 166.916C232.598 169.604 227.416 172.815 222.35 172.807C217.799 172.807 213.638 169.19 210.441 166.169C206.088 161.898 201.976 157.389 198.124 152.662C194.055 147.85 189.952 143.013 186.306 137.861C183.541 133.92 180.219 129.107 180.219 124.395Z" stroke="#FDBF12" stroke-width="0.06" stroke-miterlimit="10"/>
<path d="M181.68 124.494C181.68 120.188 184.056 115.766 186.223 111.933C188.881 107.262 191.904 102.806 194.919 98.3509C197.545 94.254 200.45 90.3425 203.614 86.6441C206.263 83.7153 209.652 80.8363 213.688 80.8363C219.128 80.8363 224.933 83.9061 229.758 86.4118C236.688 90.0737 243.324 94.265 249.607 98.9483C255.596 103.215 261.159 108.049 266.217 113.385C269.539 116.977 273.783 121.873 273.75 126.992C273.75 131.762 270.137 136.292 267.155 139.802C262.743 144.843 257.915 149.506 252.721 153.741C247.592 158.169 242.15 162.22 236.435 165.862C232.283 168.418 227.366 171.372 222.499 171.38C217.998 171.38 213.871 167.879 210.69 164.908C206.484 160.827 202.521 156.502 198.822 151.957C194.844 147.253 190.857 142.49 187.344 137.413C184.745 133.646 181.655 129.033 181.68 124.494Z" stroke="#FDC00F" stroke-width="0.06" stroke-miterlimit="10"/>
<path d="M183.159 124.594C183.159 120.396 185.351 116.106 187.427 112.364C189.919 107.818 192.834 103.478 195.732 99.1889C198.299 95.229 201.164 91.4706 204.303 87.9467C206.936 85.1175 210.274 82.4376 214.228 82.421C219.501 82.421 225.082 85.3332 229.758 87.7476C236.45 91.2639 242.854 95.3032 248.909 99.8278C254.69 103.946 260.05 108.624 264.913 113.791C268.111 117.301 272.188 122.038 272.163 127.017C272.163 131.713 268.659 136.143 265.744 139.628C261.539 144.458 256.936 148.926 251.982 152.986C246.976 157.307 241.648 161.243 236.045 164.759C232.083 167.173 227.358 169.903 222.682 169.911C218.289 169.911 214.261 166.593 211.122 163.747C207.013 159.848 203.157 155.691 199.578 151.302C195.657 146.8 191.981 142.091 188.565 137.197C186.032 133.488 183.15 129.024 183.159 124.594Z" stroke="#FDC00D" stroke-width="0.06" stroke-miterlimit="10"/>
<path d="M184.654 124.702C184.654 120.553 186.672 116.405 188.64 112.796C191.073 108.406 193.734 104.147 196.613 100.035C200.699 94.0449 206.529 84.0057 214.684 83.9642C219.859 83.9642 225.298 86.7851 229.858 89.1414C236.243 92.4945 242.353 96.348 248.129 100.666C253.748 104.68 258.948 109.25 263.651 114.306C266.69 117.691 270.502 122.221 270.486 127C270.486 131.563 267.164 135.886 264.365 139.263C260.344 143.946 255.92 148.269 251.143 152.181C246.314 156.359 241.16 160.146 235.729 163.506C231.884 165.821 227.308 168.393 222.774 168.401C218.555 168.401 214.668 165.381 211.612 162.668C207.552 158.914 203.761 154.88 200.267 150.596C196.524 146.301 193.033 141.794 189.811 137.097C187.394 133.455 184.645 129.083 184.654 124.702Z" stroke="#FDC10A" stroke-width="0.06" stroke-miterlimit="10"/>
<path d="M186.148 124.801C186.148 120.869 187.951 116.928 189.769 113.426C192.087 109.095 194.667 104.909 197.493 100.89C201.504 95.0322 207.227 85.5489 215.183 85.5323C220.166 85.5323 225.406 88.1956 229.824 90.5104C235.971 93.7177 241.848 97.4163 247.398 101.57C252.804 105.439 257.799 109.851 262.305 114.737C265.237 118.014 268.875 122.412 268.858 127.041C268.858 131.538 265.661 135.77 262.912 139.097C259.103 143.573 254.9 147.699 250.354 151.426C245.75 155.41 240.831 159.017 235.646 162.212C231.859 164.477 227.383 166.966 222.923 166.966C218.771 166.966 214.934 164.062 211.886 161.39C207.986 157.85 204.355 154.026 201.023 149.949C197.371 145.767 193.993 141.355 190.907 136.74C188.632 133.173 186.14 129.008 186.148 124.801Z" stroke="#FDC108" stroke-width="0.06" stroke-miterlimit="10"/>
<path d="M187.643 124.901C187.643 121.084 189.304 117.276 191.015 113.866C193.204 109.673 195.667 105.629 198.39 101.761C202.31 96.0444 207.924 87.117 215.689 87.1087C220.465 87.1087 225.39 89.5978 229.6 91.7052C235.578 94.7868 241.284 98.3672 246.659 102.408C251.909 106.16 256.745 110.46 261.084 115.235C263.858 118.396 267.23 122.578 267.222 127C267.222 131.289 264.29 135.338 261.699 138.541C258.034 142.924 253.966 146.955 249.549 150.58C245.174 154.364 240.494 157.78 235.555 160.793C231.834 163.008 227.458 165.406 223.097 165.406C219.103 165.406 215.44 162.768 212.475 160.245C208.626 156.851 205.06 153.15 201.812 149.177C198.255 145.105 194.988 140.789 192.037 136.259C189.886 132.882 187.643 128.933 187.643 124.901Z" stroke="#FDC205" stroke-width="0.06" stroke-miterlimit="10"/>
<path d="M189.146 125.009C189.146 117.044 194.96 108.963 199.304 102.607C203.116 97.0732 208.613 88.627 216.196 88.6519C220.822 88.6519 225.514 90.9584 229.567 93.0078C235.302 95.948 240.773 99.3762 245.92 103.254C250.842 106.797 255.382 110.843 259.465 115.326C262.231 118.454 265.594 122.603 265.577 126.992C265.577 131.206 262.762 135.148 260.221 138.317C256.766 142.485 252.923 146.316 248.743 149.758C244.494 153.44 239.931 156.744 235.106 159.632C231.552 161.706 227.399 163.896 223.214 163.888C219.319 163.888 215.781 161.399 212.874 159.026C209.138 155.805 205.689 152.266 202.567 148.447C199.148 144.541 196.03 140.381 193.241 136.002C191.214 132.75 189.163 128.933 189.146 125.009Z" stroke="#FDC203" stroke-width="0.06" stroke-miterlimit="10"/>
<path d="M190.65 125.108C190.608 117.384 196.007 109.626 200.234 103.536C203.971 98.1435 209.319 90.2615 216.711 90.2615C221.096 90.2615 225.506 92.3772 229.351 94.2938C234.911 97.1087 240.208 100.413 245.18 104.167C249.94 107.593 254.317 111.521 258.236 115.882C260.844 118.877 263.95 122.818 263.933 127C263.933 131.007 261.375 134.758 258.95 137.786C255.645 141.861 251.939 145.593 247.888 148.929C243.762 152.506 239.314 155.695 234.6 158.453C231.203 160.395 227.283 162.378 223.297 162.378C219.46 162.378 215.972 160.021 213.098 157.665C209.547 154.641 206.271 151.309 203.307 147.709C200.068 144.006 197.127 140.052 194.512 135.886C192.61 132.675 190.666 128.975 190.65 125.108Z" stroke="#FDC300" stroke-width="0.06" stroke-miterlimit="10"/>
</svg>
