<svg width="120" height="40" viewBox="0 0 120 40" fill="none" xmlns="http://www.w3.org/2000/svg">
<path d="M50.0056 6.5H54.2132V32.8342H50.0056V6.5Z" fill="white"/>
<path d="M77.955 14.25V32.8346H74.1929L74.1551 30.3532C72.7256 32.1581 70.2442 33.2478 67.3819 33.2478C61.9261 33.2478 58.1641 29.256 58.1641 23.538C58.1641 17.8199 61.9261 13.8281 67.3819 13.8281C70.2787 13.8281 72.7224 14.9189 74.1529 16.7249L74.1907 14.2435L77.955 14.25ZM73.7473 23.538C73.7473 20.078 71.4148 17.67 68.067 17.67C64.7193 17.67 62.3814 20.0856 62.3814 23.538C62.3814 26.9904 64.7139 29.407 68.0616 29.407C71.4094 29.407 73.7473 27.0033 73.7473 23.538Z" fill="white"/>
<path d="M81.434 23.538C81.434 17.7822 85.426 13.8281 91.328 13.8281C94.037 13.8281 96.369 14.7689 98.363 16.6871L95.805 19.4383C94.677 18.3098 93.059 17.6711 91.403 17.6711C88.018 17.6711 85.647 20.0791 85.647 23.539C85.647 27.0378 87.981 29.4081 91.403 29.4081C93.209 29.4081 94.865 28.7306 95.994 27.4899L98.589 30.3111C96.52 32.3049 94.224 33.2456 91.361 33.2456C85.346 33.2478 81.434 29.4113 81.434 23.538Z" fill="white"/>
<path d="M119.935 25.1222H105.076C105.414 27.8313 107.671 29.5607 110.945 29.5607C113.051 29.5607 115.152 28.8055 116.286 27.6425L118.844 30.1239C117.001 32.1187 114.029 33.3605 110.831 33.3605C104.699 33.3605 100.749 29.4863 100.749 23.5428C100.749 17.787 104.623 13.875 110.379 13.875C116.926 13.8739 120.538 18.1624 119.935 25.1222ZM105.113 21.8489H115.911C115.609 19.2154 113.578 17.5227 110.493 17.5227C107.558 17.5227 105.64 19.1021 105.113 21.8489Z" fill="white"/>
<path d="M6.4852 17.7475C6.2806 18.2674 6.1042 18.7981 5.9568 19.337C5.3054 21.7128 5.1951 24.2044 5.6339 26.6284C5.6544 26.7489 5.6781 26.8695 5.7039 26.9889C5.7965 27.4474 5.9105 27.9059 6.044 28.3547C6.1914 28.854 6.3668 29.3566 6.5681 29.8474C7.9168 33.1594 10.3164 35.9364 13.3978 37.7511C14.1186 38.1769 14.8718 38.5453 15.6503 38.8532C18.5855 40.0142 21.794 40.3013 24.8887 39.6797C27.9834 39.0581 30.8322 37.5545 33.0915 35.3501C34.513 33.9641 35.6666 32.3278 36.4945 30.5232C36.3535 30.6718 36.2082 30.8192 36.064 30.9634C33.6727 33.3106 30.6605 34.9255 27.3821 35.618C27.2336 35.6912 27.0829 35.758 26.9312 35.8247C24.6133 36.8303 22.0555 37.1498 19.5615 36.7451C17.0674 36.3405 14.7419 35.2289 12.8607 33.542C12.6455 33.3505 12.4363 33.1503 12.2333 32.9415L12.1418 32.8457C10.2912 30.9238 9.07 28.4837 8.6409 25.8503C8.6021 25.6143 8.5695 25.3768 8.543 25.1379C8.4915 24.6635 8.4653 24.1868 8.4644 23.7097C8.4542 21.1131 9.2129 18.5716 10.6448 16.4054C11.0047 15.858 11.4059 15.3388 11.8448 14.8524C12.0299 14.6469 12.2236 14.4424 12.4259 14.2455C14.8493 11.8653 18.0998 10.5154 21.4963 10.4787C21.549 10.4787 21.6104 10.4787 21.6706 10.4787H21.8106C24.6974 10.5015 27.4963 11.4747 29.7746 13.2478C29.6956 12.9558 29.6063 12.6667 29.5066 12.3804C29.4259 12.1544 29.3408 11.9337 29.2472 11.7153C28.7243 10.4631 27.9888 9.3107 27.0733 8.309L27.0205 8.2692C26.2523 8.0024 25.4647 7.7951 24.6647 7.6493C22.5941 7.2684 20.4697 7.2877 18.4065 7.7064C17.44 7.9012 16.4936 8.1847 15.5793 8.5533C15.1391 8.7298 14.7108 8.9236 14.3061 9.1302C13.4136 9.5826 12.5648 10.1165 11.7705 10.7252L11.6995 10.779C11.1971 11.1715 10.7171 11.5919 10.2617 12.0381C9.2445 13.0324 8.3624 14.1558 7.6379 15.3798C7.224 16.0807 6.8642 16.8121 6.5616 17.5677L6.553 17.7464L6.4852 17.7475ZM16.3369 5.3581C15.3536 5.3572 14.3723 5.4466 13.4053 5.625C13.2783 5.6454 13.1556 5.6691 13.0329 5.6971C12.5809 5.7896 12.1257 5.9048 11.6747 6.0404C11.4122 6.1168 11.1506 6.2018 10.8913 6.2922C10.6319 6.3826 10.393 6.4752 10.1465 6.5753C6.8259 7.9134 4.0462 10.3204 2.2471 13.4157C2.0179 13.8053 1.7994 14.2153 1.6014 14.634C1.4421 14.9665 1.2925 15.3055 1.158 15.6445C-0.372502 19.487 -0.386302 23.7673 1.1191 27.6195C2.6246 31.4718 5.537 34.6085 9.2672 36.3951L9.4933 36.5027C9.3426 36.3596 9.193 36.2132 9.0477 36.0647C6.6985 33.6699 5.0828 30.6535 4.3909 27.371C4.3296 27.2634 4.251 27.0901 4.1757 26.9158C4.0562 26.6413 3.9486 26.3615 3.8474 26.0752C3.2687 24.4385 3.019 22.7036 3.1126 20.9701C3.2063 19.2366 3.6414 17.5387 4.3931 15.9739C4.6487 15.4406 4.9385 14.9244 5.2605 14.4284C5.6231 13.8736 6.0275 13.3472 6.4702 12.8539C6.6919 12.6053 6.9211 12.3664 7.1622 12.1372C7.6109 11.704 8.0911 11.3047 8.5989 10.9426C9.3747 10.3873 10.2087 9.9181 11.0861 9.5435C13.1427 7.9761 15.5272 6.8941 18.061 6.3783C19.0008 6.1828 19.955 6.0648 20.9141 6.0253L20.6988 5.9629C19.2796 5.5617 17.8118 5.3582 16.3369 5.3581ZM19.1093 33.9854L19.3245 34.0446C21.6984 34.6992 24.1891 34.8125 26.6126 34.3761L26.6794 34.3643C26.787 34.3438 26.8946 34.3244 27.0022 34.3008C27.4478 34.2114 27.888 34.0995 28.355 33.9607C28.8221 33.8218 29.287 33.6636 29.7541 33.4764L29.9134 33.6916L29.8165 33.4506C31.7897 32.6553 33.5866 31.4784 35.104 29.9873C36.1223 28.9904 37.0062 27.8648 37.7332 26.6392C38.1531 25.9267 38.5176 25.183 38.8234 24.4146C40.0038 21.4751 40.3036 18.2556 39.6862 15.1486C39.0688 12.0416 37.5608 9.1813 35.3461 6.9164C33.965 5.5005 32.3354 4.3503 30.5387 3.5231C32.5511 5.4446 34.0801 7.8152 35.0007 10.441C35.2579 11.1716 35.4682 11.9179 35.6303 12.6753C35.6884 12.7829 35.7648 12.9508 35.8369 13.1176C36.2549 14.0962 36.553 15.1217 36.7248 16.1719C36.842 16.8874 36.901 17.6112 36.9013 18.3362C36.9063 20.9255 36.1483 23.4589 34.7219 25.62C34.3621 26.1674 33.9606 26.6863 33.5209 27.1719C33.3358 27.3785 33.142 27.583 32.9397 27.78L32.8461 27.8682C31.7034 28.9706 30.3698 29.856 28.9104 30.4813C27.4785 31.5567 25.8892 32.4047 24.1987 32.9953C23.4641 33.2544 22.7135 33.4654 21.9515 33.627C21.0153 33.8232 20.0648 33.9434 19.1093 33.9865V33.9854ZM12.9576 31.7254C13.7293 31.9969 14.5209 32.2081 15.3253 32.3571C17.4067 32.7514 19.5454 32.7312 21.619 32.2979C22.3408 32.1472 23.0519 31.9491 23.7477 31.7049C23.9931 31.6188 24.2353 31.5263 24.472 31.4305C24.8885 31.2626 25.2943 31.0775 25.6806 30.8816C28.4808 29.4772 30.813 27.2901 32.3941 24.5858C32.6212 24.2026 32.8386 23.7926 33.0398 23.3653C33.1926 23.0425 33.3315 22.7261 33.4628 22.4032L33.4811 22.3526C34.6206 19.5169 34.9322 16.4161 34.3797 13.4103V13.4028C34.3614 13.2855 34.3377 13.1703 34.3119 13.0541C34.2215 12.6064 34.1063 12.1458 33.9675 11.6819C33.8889 11.4182 33.8061 11.1567 33.7135 10.8952C33.6285 10.6563 33.5402 10.4206 33.4445 10.1881C32.1171 6.8696 29.7244 4.0863 26.6428 2.2758C26.2274 2.0293 25.8012 1.8033 25.3771 1.601C25.064 1.4514 24.7486 1.3104 24.4279 1.1834C20.5806 -0.367599 16.287 -0.394998 12.4201 1.1068C8.5533 2.6086 5.4037 5.5268 3.6117 9.268C3.5784 9.3379 3.545 9.4079 3.5127 9.4832C5.4359 7.4669 7.8091 5.9345 10.4382 5.0115C11.1636 4.7574 11.904 4.5482 12.6552 4.3852C12.7746 4.3195 12.9544 4.2377 13.1373 4.1613C13.3967 4.0537 13.6625 3.9461 13.9326 3.8524C14.6697 3.5939 15.4276 3.3994 16.1981 3.2713C19.4793 2.7402 22.8403 3.4611 25.615 5.2913C26.1586 5.646 26.6741 6.0417 27.1572 6.4752C27.3983 6.6904 27.6315 6.9139 27.8567 7.1457C28.9576 8.291 29.8418 9.6262 30.4666 11.0868C30.5839 11.3623 30.6926 11.6399 30.7894 11.9251C31.0482 12.6557 31.2419 13.4077 31.3684 14.1723C31.4104 14.4101 31.4416 14.6523 31.4685 14.8933C31.7397 17.3389 31.3152 19.8114 30.2438 22.0265C29.7015 23.1592 29.0022 24.2099 28.1667 25.1475C26.943 26.5076 25.4515 27.6001 23.7856 28.3565C22.1197 29.1129 20.3155 29.5167 18.4861 29.5428C17.8332 29.5517 17.1806 29.5111 16.5339 29.4212C15.1727 29.2327 13.8492 28.8333 12.6111 28.2374C11.7693 27.8341 10.9718 27.3443 10.2315 26.7759C10.724 28.6228 11.6589 30.322 12.9554 31.7265L12.9576 31.7254ZM9.8667 24.6223C10.8312 25.6047 11.9603 26.4104 13.203 27.0029C13.4799 27.1357 13.7605 27.2573 14.0446 27.3678C12.0524 25.2471 10.8193 22.5258 10.5383 19.6298C9.9607 21.2281 9.7317 22.9315 9.8667 24.6256V24.6223ZM25.9551 12.6344C27.9374 14.7543 29.1715 17.4648 29.4689 20.3519C30.0464 18.7692 30.2776 17.081 30.1469 15.4013V15.3959C28.9627 14.1869 27.5334 13.2453 25.9551 12.6344Z" fill="url(#paint0_radial_1033_2)"/>
<path d="M32.2581 13.1484H8.172C4.37133 13.1484 1.29028 16.2295 1.29028 20.0301C1.29028 23.8308 4.37133 26.9118 8.172 26.9118H32.2581C36.0587 26.9118 39.1398 23.8308 39.1398 20.0301C39.1398 16.2295 36.0587 13.1484 32.2581 13.1484Z" fill="white"/>
<path d="M7.62915 24V16.7273H10.541C11.076 16.7273 11.5224 16.8066 11.8799 16.9652C12.2374 17.1238 12.5061 17.344 12.686 17.6257C12.8659 17.9051 12.9558 18.227 12.9558 18.5916C12.9558 18.8757 12.8991 19.1255 12.7854 19.3409C12.6718 19.554 12.5155 19.7292 12.3167 19.8665C12.1202 20.0014 11.8952 20.0973 11.6419 20.1541V20.2251C11.9188 20.237 12.1782 20.3151 12.4197 20.4595C12.6635 20.6039 12.8611 20.8063 13.0126 21.0668C13.1641 21.3248 13.24 21.6326 13.24 21.9901C13.24 22.3759 13.1441 22.7204 12.9523 23.0234C12.7629 23.3241 12.4823 23.562 12.1106 23.7372C11.7389 23.9124 11.2809 24 10.7364 24H7.62915ZM9.16675 22.7429H10.4203C10.8488 22.7429 11.1613 22.6612 11.3578 22.4979C11.5543 22.3321 11.6525 22.112 11.6525 21.8374C11.6525 21.6361 11.6041 21.4586 11.507 21.3047C11.4099 21.1508 11.2714 21.0301 11.0914 20.9425C10.9139 20.8549 10.702 20.8111 10.4558 20.8111H9.16675V22.7429ZM9.16675 19.7706H10.3067C10.5174 19.7706 10.7045 19.7339 10.8678 19.6605C11.0335 19.5848 11.1637 19.4782 11.2584 19.3409C11.3555 19.2036 11.4039 19.0391 11.4039 18.8473C11.4039 18.5845 11.3105 18.3726 11.1235 18.2116C10.9388 18.0507 10.6759 17.9702 10.335 17.9702H9.16675V19.7706ZM14.2405 24V16.7273H19.1411V17.995H15.778V19.728H18.8889V20.9957H15.778V22.7322H19.1553V24H14.2405ZM20.0866 17.995V16.7273H26.0596V17.995H23.833V24H22.313V17.995H20.0866ZM27.4081 24H25.7603L28.271 16.7273H30.2526L32.7597 24H31.1119L29.2901 18.3892H29.2333L27.4081 24ZM27.305 21.1413H31.1972V22.3416H27.305V21.1413Z" fill="url(#paint1_linear_1033_2)"/>
<defs>
<radialGradient id="paint0_radial_1033_2" cx="0" cy="0" r="1" gradientUnits="userSpaceOnUse" gradientTransform="translate(19.9971 20) scale(20.0015)">
<stop stop-color="#FDC300"/>
<stop offset="0.11" stop-color="#FDC205"/>
<stop offset="0.25" stop-color="#FDBF13"/>
<stop offset="0.39" stop-color="#FDB92B"/>
<stop offset="0.54" stop-color="#FEB24C"/>
<stop offset="0.7" stop-color="#FEA977"/>
<stop offset="0.86" stop-color="#FF9DAA"/>
<stop offset="1" stop-color="#FF92DE"/>
</radialGradient>
<linearGradient id="paint1_linear_1033_2" x1="-5.95325" y1="7.70639" x2="48.6991" y2="16.2161" gradientUnits="userSpaceOnUse">
<stop stop-color="#FF92DE"/>
<stop offset="1" stop-color="#FDC300"/>
</linearGradient>
</defs>
</svg>
