<svg width="24" height="24" viewBox="0 0 24 24" fill="none" xmlns="http://www.w3.org/2000/svg">
<path d="M21.25 12C21.25 16.9706 17.2206 21 12.25 21M21.25 12C21.25 7.02944 17.2206 3 12.25 3M21.25 12H3.25M12.25 21C7.27944 21 3.25 16.9706 3.25 12M12.25 21C13.9069 21 15.25 16.9706 15.25 12C15.25 7.02944 13.9069 3 12.25 3M12.25 21C10.5931 21 9.25 16.9706 9.25 12C9.25 7.02944 10.5931 3 12.25 3M3.25 12C3.25 7.02944 7.27944 3 12.25 3" stroke="currentColor" stroke-width="2" stroke-linecap="round" stroke-linejoin="round"/>
</svg>
