<svg width="24" height="24" viewBox="0 0 24 24" fill="none" xmlns="http://www.w3.org/2000/svg">
<path d="M3.25 12L5.25 10M5.25 10L12.25 3L19.25 10M5.25 10V20C5.25 20.5523 5.69772 21 6.25 21H9.25M19.25 10L21.25 12M19.25 10V20C19.25 20.5523 18.8023 21 18.25 21H15.25M9.25 21C9.80228 21 10.25 20.5523 10.25 20V16C10.25 15.4477 10.6977 15 11.25 15H13.25C13.8023 15 14.25 15.4477 14.25 16V20C14.25 20.5523 14.6977 21 15.25 21M9.25 21H15.25" stroke="currentColor" stroke-width="2" stroke-linecap="round" stroke-linejoin="round"/>
</svg>
