<svg width="46" height="45" viewBox="0 0 46 45" fill="none" xmlns="http://www.w3.org/2000/svg">
<path d="M7.44025 19.9649C7.21052 20.5497 7.01222 21.1464 6.84608 21.7523C6.113 24.4252 5.98818 27.2283 6.48085 29.9557C6.50416 30.0913 6.53029 30.2277 6.55924 30.3619C6.66382 30.8777 6.79238 31.3934 6.94149 31.8979C7.10816 32.4631 7.30672 33.0283 7.53207 33.5773C9.04924 37.3035 11.7487 40.428 15.2152 42.4702C16.0278 42.9497 16.8771 43.3643 17.755 43.7101C21.0572 45.0159 24.6667 45.3388 28.1482 44.6398C31.6297 43.9409 34.8348 42.2498 37.3771 39.7706C38.9764 38.2114 40.274 36.3705 41.2049 34.3403C41.0462 34.508 40.8837 34.6728 40.7174 34.8348C38.0274 37.4759 34.6385 39.2928 30.9502 40.0715C30.7834 40.1535 30.6139 40.2291 30.4429 40.304C27.8355 41.4334 24.9591 41.7918 22.1543 41.3366C19.3495 40.8815 16.7339 39.6319 14.6175 37.7358C14.3763 37.5201 14.1408 37.2949 13.911 37.0604L13.8078 36.9523C11.7273 34.7906 10.3538 32.047 9.86988 29.0859C9.82606 28.821 9.78932 28.5525 9.75894 28.2848C9.70137 27.7509 9.67217 27.2144 9.67131 26.6775C9.65985 23.7563 10.5131 20.8971 12.1236 18.46C12.5288 17.8438 12.9804 17.2595 13.4744 16.7121C13.6821 16.4811 13.8983 16.2507 14.1279 16.0296C16.8536 13.35 20.5105 11.8294 24.3325 11.7862C24.3925 11.7862 24.4603 11.7862 24.5289 11.7862H24.6864C25.307 11.7909 25.9267 11.8352 26.5417 11.9191C29.1317 12.2647 31.583 13.294 33.6433 14.9013C33.5557 14.5742 33.4547 14.2478 33.3417 13.9263C33.2519 13.672 33.1565 13.4232 33.0498 13.1774C32.4615 11.7698 31.6342 10.4746 30.6047 9.34882L30.5461 9.30357C29.6814 9.00376 28.795 8.77087 27.8946 8.60695C24.4599 7.97163 20.9154 8.32416 17.6731 9.62362C17.1785 9.82219 16.6967 10.0405 16.2417 10.2729C15.2372 10.7816 14.2822 11.3826 13.3889 12.0682L13.3083 12.1282C12.7432 12.5689 12.2032 13.0406 11.6905 13.5413C10.5466 14.661 9.55448 15.9258 8.73948 17.3034C8.27235 18.0919 7.86632 18.9151 7.525 19.7656L7.51583 19.9663L7.44025 19.9649ZM18.5237 6.02536C17.4177 6.02591 16.314 6.12761 15.2265 6.32916C15.0852 6.35318 14.9439 6.37932 14.8069 6.41112C14.2981 6.51498 13.7867 6.64355 13.2794 6.79686C12.9834 6.88304 12.6895 6.97918 12.3977 7.07945C12.1059 7.17978 11.8375 7.28437 11.5605 7.39669C7.82461 8.90238 4.6972 11.6105 2.67282 15.0927C2.415 15.5308 2.16981 15.9922 1.94374 16.4634C1.76502 16.8379 1.59685 17.2193 1.44498 17.6009C-0.276253 21.9238 -0.291616 26.7392 1.40195 31.073C3.09555 35.4068 6.37174 38.9358 10.5679 40.9462C10.6527 40.9872 10.7375 41.0267 10.8222 41.0656C10.6527 40.9045 10.4857 40.7396 10.3213 40.571C7.67876 37.8765 5.86113 34.483 5.08267 30.7901C5.01201 30.665 4.9251 30.4743 4.84108 30.2771C4.70683 29.9698 4.58528 29.654 4.47153 29.3325C3.8211 27.4908 3.54061 25.5388 3.64605 23.5884C3.75155 21.638 4.24095 19.7277 5.08621 17.9668C5.3735 17.367 5.69937 16.7864 6.06185 16.2288C6.46965 15.6044 6.92453 15.012 7.42257 14.4569C7.67195 14.1743 7.92984 13.9087 8.19972 13.6508C8.70425 13.1641 9.24407 12.7154 9.81473 12.3084C10.6895 11.6834 11.6294 11.1551 12.6181 10.7328C14.9331 8.97049 17.6162 7.75394 20.4672 7.17415C21.5245 6.9543 22.598 6.82129 23.6769 6.77636L23.4324 6.70576C21.8362 6.25439 20.1853 6.02545 18.5265 6.02536H18.5237ZM21.6436 38.2339C21.722 38.2572 21.8004 38.2791 21.8788 38.3003C24.55 39.0376 27.3526 39.1653 30.0797 38.6741L30.1504 38.6599C30.2712 38.638 30.3942 38.6161 30.5157 38.5893C31.0173 38.4882 31.5118 38.3632 32.0382 38.2063C32.5645 38.0495 33.0866 37.8721 33.6172 37.6616L33.796 37.9046L33.6864 37.6326C35.9068 36.738 37.9289 35.4139 39.6365 33.7362C40.7819 32.6149 41.7759 31.3487 42.5932 29.9698C43.0661 29.1683 43.4764 28.3314 43.8203 27.4666C45.1482 24.159 45.4852 20.5366 44.7902 17.0409C44.0953 13.5451 42.3984 10.3271 39.9064 7.77895C38.3524 6.18688 36.5192 4.89371 34.4982 3.96376C36.7621 6.12589 38.4822 8.79314 39.5178 11.7474C39.8069 12.5693 40.0429 13.409 40.2243 14.2612C40.29 14.3813 40.3762 14.5699 40.4567 14.7557C40.9266 15.8552 41.262 17.0074 41.4557 18.1873C41.5906 18.9926 41.6598 19.8075 41.6627 20.624C41.6692 23.5377 40.8163 26.3885 39.2105 28.8196C38.8063 29.4362 38.3546 30.0204 37.8596 30.5668C37.652 30.7985 37.4357 31.0288 37.2061 31.25L37.1009 31.3496C35.8148 32.5898 34.3141 33.5859 32.6719 34.2894C31.0619 35.4989 29.2745 36.4522 27.3732 37.1155C25.5307 37.7663 23.6026 38.1434 21.6506 38.2346L21.6436 38.2339ZM14.72 35.6905C15.5868 35.9966 16.4765 36.2343 17.3806 36.4012C19.7222 36.8448 22.1282 36.8223 24.461 36.3347C25.2732 36.1655 26.0733 35.9427 26.8561 35.6679C27.1316 35.5717 27.4043 35.4672 27.6706 35.3583C28.1391 35.1697 28.5955 34.962 29.0299 34.7416C32.1801 33.1615 34.804 30.7011 36.583 27.6588C36.8381 27.2271 37.0832 26.7657 37.3128 26.2847C37.4845 25.9279 37.6414 25.5661 37.7883 25.2022L37.8095 25.1457C38.0559 24.5377 38.2681 23.9164 38.4454 23.2848C39.2034 20.6175 39.333 17.8108 38.824 15.085V15.0765C38.8035 14.9444 38.7767 14.8144 38.7485 14.6851C38.6474 14.1799 38.5167 13.6627 38.3606 13.1399C38.2729 12.8439 38.179 12.55 38.078 12.2561C37.9826 11.9869 37.883 11.7213 37.7749 11.4606C36.2803 7.72597 33.5865 4.59438 30.1172 2.5585C29.6502 2.28226 29.1705 2.0272 28.693 1.80042C28.3397 1.63156 27.9864 1.4733 27.6247 1.32987C23.2968 -0.413679 18.4675 -0.443834 14.1181 1.24553C9.76876 2.93489 6.2259 6.21701 4.20945 10.4248C4.17199 10.5039 4.13459 10.5824 4.09785 10.6615C6.26205 8.39299 8.93267 6.66915 11.8911 5.63112C12.707 5.34424 13.5399 5.10828 14.385 4.92461C14.5617 4.83112 14.743 4.74693 14.9283 4.67239C15.2194 4.54804 15.519 4.43217 15.8228 4.32408C16.6521 4.03331 17.5049 3.81465 18.3718 3.67055C22.063 3.07246 25.8442 3.88399 28.9649 5.94411C29.5774 6.34392 30.1577 6.79083 30.7008 7.28083C30.9714 7.52033 31.2342 7.77044 31.4871 8.03469C32.7267 9.3225 33.7219 10.8249 34.424 12.4688C34.5561 12.7782 34.6776 13.0905 34.7907 13.4113C35.0814 14.2337 35.2993 15.08 35.4421 15.9406C35.4887 16.2076 35.5247 16.4796 35.5551 16.7517C35.6137 17.2859 35.6434 17.8229 35.6441 18.3604C35.644 20.5822 35.1425 22.7753 34.1767 24.7762C33.891 25.3758 33.5646 25.9551 33.1996 26.51C31.8618 28.5453 30.0456 30.2218 27.91 31.3929C25.7745 32.5639 23.3844 33.1938 20.9491 33.2276C20.2145 33.2378 19.4802 33.1922 18.7526 33.0912C17.2215 32.88 15.7325 32.4319 14.3391 31.7629C13.3922 31.3093 12.495 30.7584 11.6622 30.1189C12.217 32.196 13.2689 34.107 14.727 35.6869L14.72 35.6905ZM11.2426 27.7068C12.3282 28.8125 13.5993 29.719 14.9983 30.3852C15.3092 30.5345 15.6247 30.6711 15.945 30.795C13.7048 28.4079 12.3196 25.3452 12.0063 22.0865C11.3562 23.8834 11.0977 25.7984 11.2482 27.7033L11.2426 27.7068ZM29.3422 14.2124C31.5726 16.5976 32.962 19.6466 33.2986 22.8948C33.9478 21.1148 34.208 19.2165 34.0616 17.3275L34.0566 17.3225C32.7269 15.9617 31.1213 14.901 29.3479 14.2118L29.3422 14.2124Z" fill="url(#paint0_radial_1033_38)"/>
<path d="M36.2657 15.437H9.7693C5.58826 15.437 2.19885 18.788 2.19885 22.9216C2.19885 27.0553 5.58826 30.4062 9.7693 30.4062H36.2657C40.4468 30.4062 43.8362 27.0553 43.8362 22.9216C43.8362 18.788 40.4468 15.437 36.2657 15.437Z" fill="white"/>
<path d="M12.4343 26.1962V20.0724H14.9143C15.37 20.0724 15.75 20.1392 16.0545 20.2728C16.359 20.4063 16.5878 20.5917 16.7411 20.8289C16.8943 21.0641 16.9709 21.3352 16.9709 21.6422C16.9709 21.8814 16.9225 22.0918 16.8257 22.2731C16.7289 22.4525 16.5959 22.6 16.4265 22.7157C16.2592 22.8293 16.0676 22.91 15.8518 22.9579V23.0177C16.0878 23.0276 16.3086 23.0934 16.5142 23.215C16.7219 23.3366 16.8902 23.5071 17.0193 23.7263C17.1483 23.9436 17.2128 24.2028 17.2128 24.5038C17.2128 24.8287 17.1312 25.1187 16.9679 25.3739C16.8066 25.6271 16.5676 25.8274 16.2511 25.9749C15.9345 26.1224 15.5444 26.1962 15.0807 26.1962H12.4343ZM13.7438 25.1376H14.8115C15.1764 25.1376 15.4425 25.0689 15.6099 24.9313C15.7773 24.7918 15.8609 24.6064 15.8609 24.3752C15.8609 24.2057 15.8196 24.0562 15.7369 23.9267C15.6542 23.7971 15.5363 23.6954 15.3831 23.6217C15.2319 23.5479 15.0514 23.5111 14.8417 23.5111H13.7438V25.1376ZM13.7438 22.6349H14.7147C14.8941 22.6349 15.0534 22.604 15.1925 22.5423C15.3337 22.4785 15.4446 22.3887 15.5252 22.2731C15.6079 22.1575 15.6492 22.019 15.6492 21.8575C15.6492 21.6362 15.5696 21.4578 15.4103 21.3222C15.253 21.1867 15.0293 21.119 14.7389 21.119H13.7438V22.6349ZM18.065 26.1962V20.0724H22.2387V21.1398H19.3746V22.599H22.0239V23.6665H19.3746V25.1287H22.2507V26.1962H18.065ZM23.0439 21.1398V20.0724H28.131V21.1398H26.2347V26.1962H24.9402V21.1398H23.0439ZM29.2795 26.1962H27.8761L30.0144 20.0724H31.702L33.8373 26.1962H32.4339L30.8824 21.4718H30.834L29.2795 26.1962ZM29.1918 23.7891H32.5065V24.7998H29.1918V23.7891Z" fill="url(#paint1_linear_1033_38)"/>
<defs>
<radialGradient id="paint0_radial_1033_38" cx="0" cy="0" r="1" gradientUnits="userSpaceOnUse" gradientTransform="translate(22.6454 22.4985) scale(22.5018 22.5024)">
<stop stop-color="#FDC300"/>
<stop offset="0.11" stop-color="#FDC205"/>
<stop offset="0.25" stop-color="#FDBF13"/>
<stop offset="0.39" stop-color="#FDB92B"/>
<stop offset="0.54" stop-color="#FEB24C"/>
<stop offset="0.7" stop-color="#FEA977"/>
<stop offset="0.86" stop-color="#FF9DAA"/>
<stop offset="1" stop-color="#FF92DE"/>
</radialGradient>
<linearGradient id="paint1_linear_1033_38" x1="-5.53186" y1="9.50305" x2="54.4703" y2="18.9032" gradientUnits="userSpaceOnUse">
<stop stop-color="#FF92DE"/>
<stop offset="1" stop-color="#FDC300"/>
</linearGradient>
</defs>
</svg>
