<svg width="34" height="24" viewBox="0 0 34 24" fill="none" xmlns="http://www.w3.org/2000/svg">
<path d="M23.75 17C23.75 16.5858 23.4142 16.25 23 16.25C22.5858 16.25 22.25 16.5858 22.25 17H23.75ZM22.25 7.5C22.25 7.91421 22.5858 8.25 23 8.25C23.4142 8.25 23.75 7.91421 23.75 7.5H22.25ZM7 3.75H21V2.25H7V3.75ZM21 21.25H7V22.75H21V21.25ZM5.75 20V5H4.25V20H5.75ZM22.25 17V20H23.75V17H22.25ZM22.25 5V7.5H23.75V5H22.25ZM7 21.25C6.30964 21.25 5.75 20.6904 5.75 20H4.25C4.25 21.5188 5.48122 22.75 7 22.75V21.25ZM21 22.75C22.5188 22.75 23.75 21.5188 23.75 20H22.25C22.25 20.6904 21.6904 21.25 21 21.25V22.75ZM21 3.75C21.6904 3.75 22.25 4.30964 22.25 5H23.75C23.75 3.48122 22.5188 2.25 21 2.25V3.75ZM7 2.25C5.48122 2.25 4.25 3.48122 4.25 5H5.75C5.75 4.30964 6.30964 3.75 7 3.75V2.25Z" fill="white"/>
<path d="M16.2857 9.25641C16.2857 10.5026 15.2624 11.5128 14 11.5128C12.7376 11.5128 11.7143 10.5026 11.7143 9.25641C11.7143 8.01023 12.7376 7 14 7C15.2624 7 16.2857 8.01023 16.2857 9.25641Z" stroke="white" stroke-width="1.5" stroke-linecap="round" stroke-linejoin="round"/>
<path d="M14 14.0513C11.7909 14.0513 10 15.8192 10 18H18C18 15.8192 16.2091 14.0513 14 14.0513Z" stroke="white" stroke-width="1.5" stroke-linecap="round" stroke-linejoin="round"/>
<path d="M23 12.5H31.5" stroke="white" stroke-width="1.5" stroke-linecap="round"/>
<path d="M27.25 8.25L27.25 16.75" stroke="white" stroke-width="1.5" stroke-linecap="round"/>
</svg>
