<svg width="31" height="23" viewBox="0 0 31 23" fill="none" xmlns="http://www.w3.org/2000/svg">
<g clip-path="url(#clip0_1703:45676)">
<path d="M22.75 16C22.75 15.5858 22.4142 15.25 22 15.25C21.5858 15.25 21.25 15.5858 21.25 16H22.75ZM21.25 6.5C21.25 6.91421 21.5858 7.25 22 7.25C22.4142 7.25 22.75 6.91421 22.75 6.5H21.25ZM6 2.75H20V1.25H6V2.75ZM20 20.25H6V21.75H20V20.25ZM4.75 19V4H3.25V19H4.75ZM21.25 16V19H22.75V16H21.25ZM21.25 4V6.5H22.75V4H21.25ZM6 20.25C5.30964 20.25 4.75 19.6904 4.75 19H3.25C3.25 20.5188 4.48122 21.75 6 21.75V20.25ZM20 21.75C21.5188 21.75 22.75 20.5188 22.75 19H21.25C21.25 19.6904 20.6904 20.25 20 20.25V21.75ZM20 2.75C20.6904 2.75 21.25 3.30964 21.25 4H22.75C22.75 2.48122 21.5188 1.25 20 1.25V2.75ZM6 1.25C4.48122 1.25 3.25 2.48122 3.25 4H4.75C4.75 3.30964 5.30964 2.75 6 2.75V1.25Z" fill="#898989"/>
<path d="M15.2857 8.25641C15.2857 9.50259 14.2624 10.5128 13 10.5128C11.7376 10.5128 10.7143 9.50259 10.7143 8.25641C10.7143 7.01023 11.7376 6 13 6C14.2624 6 15.2857 7.01023 15.2857 8.25641Z" stroke="#898989" stroke-width="1.5" stroke-linecap="round" stroke-linejoin="round"/>
<path d="M13 13.0513C10.7909 13.0513 9 14.8192 9 17H17C17 14.8192 15.2091 13.0513 13 13.0513Z" stroke="#898989" stroke-width="1.5" stroke-linecap="round" stroke-linejoin="round"/>
<path d="M0 6H3.5" stroke="#898989" stroke-width="1.5" stroke-linecap="round"/>
<path d="M0 12H3.5" stroke="#898989" stroke-width="1.5" stroke-linecap="round"/>
<path d="M0 18H3.5" stroke="#898989" stroke-width="1.5" stroke-linecap="round"/>
<path d="M22 11.5H30.5" stroke="#898989" stroke-width="1.5" stroke-linecap="round"/>
<path d="M26.25 7.25L26.25 15.75" stroke="#898989" stroke-width="1.5" stroke-linecap="round"/>
</g>
<defs>
<clipPath id="clip0_1703:45676">
<rect width="31" height="23" fill="white"/>
</clipPath>
</defs>
</svg>
