<svg width="25" height="24" viewBox="0 0 25 24" fill="none" xmlns="http://www.w3.org/2000/svg">
<path d="M8.96447 4.63603C8.41218 4.63603 7.96447 5.08374 7.96447 5.63603C7.96447 6.18831 8.41218 6.63603 8.96447 6.63603V4.63603ZM18.864 5.63603H19.864C19.864 5.08374 19.4162 4.63603 18.864 4.63603V5.63603ZM17.864 15.5355C17.864 16.0878 18.3117 16.5355 18.864 16.5355C19.4162 16.5355 19.864 16.0878 19.864 15.5355H17.864ZM5.42893 17.6568C5.03841 18.0474 5.03841 18.6805 5.42893 19.0711C5.81946 19.4616 6.45262 19.4616 6.84315 19.0711L5.42893 17.6568ZM8.96447 6.63603H18.864V4.63603H8.96447V6.63603ZM17.864 5.63603V15.5355H19.864V5.63603H17.864ZM18.1569 4.92892L5.42893 17.6568L6.84315 19.0711L19.5711 6.34313L18.1569 4.92892Z" fill="url(#paint0_linear_4_98)"/>
<defs>
<linearGradient id="paint0_linear_4_98" x1="14.4318" y1="-3.45405" x2="28.1329" y2="11.9147" gradientUnits="userSpaceOnUse">
<stop stop-color="#FF92E1"/>
<stop offset="1" stop-color="#FDC300"/>
</linearGradient>
</defs>
</svg>
