<?xml version="1.0" encoding="utf-8"?>
<!-- Generator: Adobe Illustrator 26.0.3, SVG Export Plug-In . SVG Version: 6.00 Build 0)  -->
<svg version="1.1" id="Layer_1" xmlns="http://www.w3.org/2000/svg" xmlns:xlink="http://www.w3.org/1999/xlink" x="0px" y="0px"
	 viewBox="0 0 24 24" style="enable-background:new 0 0 24 24;" xml:space="preserve">
<style type="text/css">
	.st0{fill:#949AA8;}
</style>
<g>
	<path class="st0" d="M18,21h-8c-1.7,0-3-1.3-3-3v-1H6c-1.7,0-3-1.3-3-3V6c0-1.7,1.3-3,3-3h8c1.7,0,3,1.3,3,3v1h1c1.7,0,3,1.3,3,3v8
		C21,19.7,19.7,21,18,21z M9,16v2c0,0.6,0.4,1,1,1h8c0.6,0,1-0.4,1-1v-8c0-0.6-0.4-1-1-1h-8c-0.6,0-1,0.4-1,1V16z M6,5
		C5.4,5,5,5.4,5,6v8c0,0.6,0.4,1,1,1h1v-5c0-1.7,1.3-3,3-3h5V6c0-0.6-0.4-1-1-1H6z"/>
</g>
</svg>
