<svg width="15" height="15" viewBox="0 0 15 15" fill="currentColor" xmlns="http://www.w3.org/2000/svg">
<path fill-rule="evenodd" clip-rule="evenodd" d="M4.5791 1.5C4.5791 0.671583 5.25066 0 6.0791 0H9.0791C9.90753 0 10.5791 0.671576 10.5791 1.5V3H13.5791C13.9933 3 14.3291 3.33579 14.3291 3.75C14.3291 4.16421 13.9933 4.5 13.5791 4.5H13.5274L12.9267 12.9103C12.8427 14.0877 11.8628 15 10.6825 15H4.47578C3.29534 15 2.3156 14.0877 2.2315 12.9103L1.63076 4.5H1.5791C1.16489 4.5 0.829102 4.16421 0.829102 3.75C0.829102 3.33579 1.16489 3 1.5791 3H4.5791V1.5ZM6.0791 3H9.0791V1.5H6.0791V3ZM3.13458 4.5L3.72769 12.8035C3.75572 13.1959 4.0823 13.5 4.47578 13.5H10.6825C11.0759 13.5 11.4025 13.1959 11.4305 12.8035L12.0236 4.5H3.13458ZM6.0791 6C6.49332 6 6.8291 6.33579 6.8291 6.75V11.25C6.8291 11.6642 6.49332 12 6.0791 12C5.66489 12 5.3291 11.6642 5.3291 11.25V6.75C5.3291 6.33579 5.66489 6 6.0791 6ZM9.0791 6C9.49332 6 9.8291 6.33579 9.8291 6.75V11.25C9.8291 11.6642 9.49332 12 9.0791 12C8.66489 12 8.3291 11.6642 8.3291 11.25V6.75C8.3291 6.33579 8.66489 6 9.0791 6Z" fill="currentColor"/>
</svg>
