<svg width="24" height="24" viewBox="0 0 24 24" fill="none" xmlns="http://www.w3.org/2000/svg">
<path d="M4.41877 23.8397C4.57841 23.9678 4.76989 24 4.96136 24C5.28064 24 5.56787 23.8397 5.75932 23.5832L7.99578 20.2445C14.3157 19.2831 19.1354 14.1866 19.7418 7.74397L20.2844 2.0386C20.3162 1.68601 20.1568 1.36538 19.8694 1.17312C19.5822 0.980836 19.2311 0.94864 18.9118 1.07698L14.3793 3.19251C13.9646 3.38479 13.6771 3.7054 13.5495 4.08999L12.8473 6.17329L12.3047 5.37198C12.1451 5.1475 11.9218 4.98741 11.6343 4.95522C11.3789 4.92325 11.0917 4.9872 10.9002 5.1797C7.00618 8.41714 5.28264 13.8339 6.43176 19.1547L4.16321 22.5254C3.876 22.9419 3.97192 23.5513 4.41877 23.8397ZM11.3474 7.35942L12.3689 8.8659C12.5604 9.15432 12.9433 9.31462 13.2944 9.28265C13.6455 9.21848 13.9648 8.99423 14.0605 8.64165L15.3053 4.85955L18.1779 3.51334L17.8268 7.55169C17.3799 12.4558 14.0923 16.4303 9.59179 17.9047L12.9751 12.9365C13.2623 12.4878 13.1666 11.9107 12.7197 11.5903C12.2729 11.3018 11.6982 11.398 11.3791 11.8467L8.02786 16.8149C7.77249 13.2571 8.98534 9.76337 11.3474 7.35942Z" fill="currentColor"/>
</svg>
