<svg width="24" height="14" viewBox="0 0 24 14" fill="none" xmlns="http://www.w3.org/2000/svg">
<path d="M13.5374 6.81529C13.5374 10.5792 10.5069 13.6303 6.76884 13.6303C3.03073 13.6303 0 10.5785 0 6.81529C0 3.05212 3.0305 0 6.76884 0C10.5072 0 13.5374 3.05143 13.5374 6.81529Z" fill="currentColor"/>
<path d="M20.9629 6.81524C20.9629 10.3581 19.4477 13.2313 17.5785 13.2313C15.7093 13.2313 14.1941 10.3581 14.1941 6.81524C14.1941 3.27237 15.7091 0.39917 17.5783 0.39917C19.4474 0.39917 20.9627 3.27145 20.9627 6.81524" fill="currentColor"/>
<path d="M24 6.81529C24 9.98883 23.4672 12.5631 22.8097 12.5631C22.1522 12.5631 21.6196 9.98952 21.6196 6.81529C21.6196 3.64106 22.1525 1.0675 22.8097 1.0675C23.467 1.0675 24 3.64083 24 6.81529Z" fill="currentColor"/>
</svg>
