<svg width="16" height="16" viewBox="0 0 16 16" fill="none" xmlns="http://www.w3.org/2000/svg">
<path d="M8.00023 0C3.58144 0 0 3.58126 0 8C0 12.4187 3.58144 16 8.00023 16C12.419 16 16 12.4187 16 8C16 3.58126 12.4186 0 8.00023 0ZM8.00023 14.5243C4.40188 14.5243 1.47552 11.5973 1.47552 8C1.47552 4.40274 4.40188 1.47566 8.00023 1.47566C11.5981 1.47566 14.5245 4.40274 14.5245 8C14.5245 11.5973 11.5972 14.5243 8.00023 14.5243Z" fill="currentColor"/>
<path d="M8.7511 7.24951H7.25V8.75077H8.7511V7.24951ZM8.7511 4.87831H7.25V6.37957H8.7511V4.87831ZM8.7511 2.50757H7.25V4.00928H8.7511V2.50757Z" fill="currentColor"/>
</svg>
