<svg width="87" height="88" viewBox="0 0 87 88" fill="none" xmlns="http://www.w3.org/2000/svg">
<path d="M30.3007 58.6993C29.4722 58.6993 28.8007 58.0278 28.8007 57.1993C28.8007 56.3709 29.4722 55.6993 30.3007 55.6993V58.6993ZM56.6993 55.6993C57.5278 55.6993 58.1993 56.3709 58.1993 57.1993C58.1993 58.0278 57.5278 58.6993 56.6993 58.6993V55.6993ZM57.5 33.1667C58.3284 33.1667 59 33.8382 59 34.6667C59 35.4951 58.3284 36.1667 57.5 36.1667V33.1667ZM57.4533 36.1667C56.6249 36.1667 55.9533 35.4951 55.9533 34.6667C55.9533 33.8382 56.6249 33.1667 57.4533 33.1667V36.1667ZM29.5 33.1667C30.3284 33.1667 31 33.8382 31 34.6667C31 35.4951 30.3284 36.1667 29.5 36.1667V33.1667ZM29.4533 36.1667C28.6249 36.1667 27.9533 35.4951 27.9533 34.6667C27.9533 33.8382 28.6249 33.1667 29.4533 33.1667V36.1667ZM3 44C3 66.3675 21.1325 84.5 43.5 84.5V87.5C19.4756 87.5 0 68.0244 0 44H3ZM43.5 84.5C65.8675 84.5 84 66.3675 84 44H87C87 68.0244 67.5244 87.5 43.5 87.5V84.5ZM84 44C84 21.6325 65.8675 3.5 43.5 3.5V0.5C67.5244 0.5 87 19.9756 87 44H84ZM43.5 3.5C21.1325 3.5 3 21.6325 3 44H0C0 19.9756 19.4756 0.5 43.5 0.5V3.5ZM30.3007 57.1993C30.3007 55.6993 30.3007 55.6993 30.3009 55.6993C30.301 55.6993 30.3012 55.6993 30.3015 55.6993C30.3018 55.6993 30.3021 55.6993 30.3025 55.6993C30.3029 55.6993 30.3034 55.6993 30.3039 55.6993C30.3045 55.6993 30.3051 55.6993 30.3058 55.6993C30.3064 55.6993 30.3072 55.6993 30.308 55.6993C30.3088 55.6993 30.3097 55.6993 30.3106 55.6993C30.3116 55.6993 30.3126 55.6993 30.3137 55.6993C30.3147 55.6993 30.3159 55.6993 30.3171 55.6993C30.3183 55.6993 30.3196 55.6993 30.3209 55.6993C30.3223 55.6993 30.3237 55.6993 30.3251 55.6993C30.3266 55.6993 30.3282 55.6993 30.3298 55.6993C30.3314 55.6993 30.333 55.6993 30.3348 55.6993C30.3365 55.6993 30.3383 55.6993 30.3402 55.6993C30.3421 55.6993 30.344 55.6993 30.346 55.6993C30.348 55.6993 30.3501 55.6993 30.3522 55.6993C30.3543 55.6993 30.3565 55.6993 30.3588 55.6993C30.361 55.6993 30.3633 55.6993 30.3657 55.6993C30.3681 55.6993 30.3706 55.6993 30.3731 55.6993C30.3756 55.6993 30.3782 55.6993 30.3808 55.6993C30.3835 55.6993 30.3862 55.6993 30.389 55.6993C30.3917 55.6993 30.3946 55.6993 30.3975 55.6993C30.4004 55.6993 30.4033 55.6993 30.4064 55.6993C30.4094 55.6993 30.4125 55.6993 30.4156 55.6993C30.4188 55.6993 30.422 55.6993 30.4253 55.6993C30.4286 55.6993 30.4319 55.6993 30.4353 55.6993C30.4387 55.6993 30.4422 55.6993 30.4457 55.6993C30.4493 55.6993 30.4529 55.6993 30.4565 55.6993C30.4602 55.6993 30.4639 55.6993 30.4677 55.6993C30.4715 55.6993 30.4753 55.6993 30.4792 55.6993C30.4831 55.6993 30.4871 55.6993 30.4911 55.6993C30.4952 55.6993 30.4992 55.6993 30.5034 55.6993C30.5076 55.6993 30.5118 55.6993 30.516 55.6993C30.5203 55.6993 30.5247 55.6993 30.5291 55.6993C30.5335 55.6993 30.5379 55.6993 30.5424 55.6993C30.547 55.6993 30.5516 55.6993 30.5562 55.6993C30.5608 55.6993 30.5655 55.6993 30.5703 55.6993C30.5751 55.6993 30.5799 55.6993 30.5848 55.6993C30.5897 55.6993 30.5946 55.6993 30.5996 55.6993C30.6046 55.6993 30.6097 55.6993 30.6148 55.6993C30.62 55.6993 30.6252 55.6993 30.6304 55.6993C30.6357 55.6993 30.641 55.6993 30.6463 55.6993C30.6517 55.6993 30.6571 55.6993 30.6626 55.6993C30.6681 55.6993 30.6736 55.6993 30.6792 55.6993C30.6849 55.6993 30.6905 55.6993 30.6962 55.6993C30.702 55.6993 30.7077 55.6993 30.7136 55.6993C30.7194 55.6993 30.7253 55.6993 30.7313 55.6993C30.7372 55.6993 30.7433 55.6993 30.7493 55.6993C30.7554 55.6993 30.7615 55.6993 30.7677 55.6993C30.7739 55.6993 30.7802 55.6993 30.7865 55.6993C30.7928 55.6993 30.7992 55.6993 30.8056 55.6993C30.812 55.6993 30.8185 55.6993 30.825 55.6993C30.8316 55.6993 30.8382 55.6993 30.8448 55.6993C30.8515 55.6993 30.8582 55.6993 30.865 55.6993C30.8717 55.6993 30.8786 55.6993 30.8854 55.6993C30.8923 55.6993 30.8993 55.6993 30.9063 55.6993C30.9133 55.6993 30.9203 55.6993 30.9274 55.6993C30.9345 55.6993 30.9417 55.6993 30.9489 55.6993C30.9562 55.6993 30.9634 55.6993 30.9708 55.6993C30.9781 55.6993 30.9855 55.6993 30.993 55.6993C31.0004 55.6993 31.0079 55.6993 31.0155 55.6993C31.023 55.6993 31.0307 55.6993 31.0383 55.6993C31.046 55.6993 31.0537 55.6993 31.0615 55.6993C31.0693 55.6993 31.0771 55.6993 31.085 55.6993C31.0929 55.6993 31.1009 55.6993 31.1089 55.6993C31.1169 55.6993 31.1249 55.6993 31.133 55.6993C31.1412 55.6993 31.1493 55.6993 31.1575 55.6993C31.1658 55.6993 31.174 55.6993 31.1824 55.6993C31.1907 55.6993 31.1991 55.6993 31.2075 55.6993C31.216 55.6993 31.2245 55.6993 31.233 55.6993C31.2416 55.6993 31.2502 55.6993 31.2588 55.6993C31.2675 55.6993 31.2762 55.6993 31.285 55.6993C31.2937 55.6993 31.3025 55.6993 31.3114 55.6993C31.3203 55.6993 31.3292 55.6993 31.3382 55.6993C31.3472 55.6993 31.3562 55.6993 31.3653 55.6993C31.3744 55.6993 31.3835 55.6993 31.3927 55.6993C31.4019 55.6993 31.4111 55.6993 31.4204 55.6993C31.4297 55.6993 31.439 55.6993 31.4484 55.6993C31.4578 55.6993 31.4673 55.6993 31.4768 55.6993C31.4863 55.6993 31.4959 55.6993 31.5055 55.6993C31.5151 55.6993 31.5247 55.6993 31.5344 55.6993C31.5442 55.6993 31.5539 55.6993 31.5637 55.6993C31.5735 55.6993 31.5834 55.6993 31.5933 55.6993C31.6032 55.6993 31.6132 55.6993 31.6232 55.6993C31.6333 55.6993 31.6433 55.6993 31.6534 55.6993C31.6636 55.6993 31.6737 55.6993 31.684 55.6993C31.6942 55.6993 31.7045 55.6993 31.7148 55.6993C31.7251 55.6993 31.7355 55.6993 31.7459 55.6993C31.7563 55.6993 31.7668 55.6993 31.7773 55.6993C31.7879 55.6993 31.7984 55.6993 31.8091 55.6993C31.8197 55.6993 31.8304 55.6993 31.8411 55.6993C31.8518 55.6993 31.8626 55.6993 31.8734 55.6993C31.8842 55.6993 31.8951 55.6993 31.906 55.6993C31.917 55.6993 31.9279 55.6993 31.939 55.6993C31.95 55.6993 31.9611 55.6993 31.9722 55.6993C31.9833 55.6993 31.9945 55.6993 32.0057 55.6993C32.0169 55.6993 32.0282 55.6993 32.0395 55.6993C32.0508 55.6993 32.0622 55.6993 32.0736 55.6993C32.085 55.6993 32.0964 55.6993 32.108 55.6993C32.1195 55.6993 32.131 55.6993 32.1426 55.6993C32.1542 55.6993 32.1659 55.6993 32.1776 55.6993C32.1893 55.6993 32.201 55.6993 32.2128 55.6993C32.2246 55.6993 32.2365 55.6993 32.2483 55.6993C32.2602 55.6993 32.2722 55.6993 32.2842 55.6993C32.2961 55.6993 32.3082 55.6993 32.3203 55.6993C32.3323 55.6993 32.3445 55.6993 32.3566 55.6993C32.3688 55.6993 32.381 55.6993 32.3933 55.6993C32.4055 55.6993 32.4179 55.6993 32.4302 55.6993C32.4426 55.6993 32.455 55.6993 32.4674 55.6993C32.4799 55.6993 32.4924 55.6993 32.5049 55.6993C32.5175 55.6993 32.53 55.6993 32.5427 55.6993C32.5553 55.6993 32.568 55.6993 32.5807 55.6993C32.5934 55.6993 32.6062 55.6993 32.619 55.6993C32.6318 55.6993 32.6447 55.6993 32.6576 55.6993C32.6705 55.6993 32.6835 55.6993 32.6965 55.6993C32.7094 55.6993 32.7225 55.6993 32.7356 55.6993C32.7487 55.6993 32.7618 55.6993 32.775 55.6993C32.7881 55.6993 32.8014 55.6993 32.8146 55.6993C32.8279 55.6993 32.8412 55.6993 32.8545 55.6993C32.8679 55.6993 32.8813 55.6993 32.8947 55.6993C32.9082 55.6993 32.9216 55.6993 32.9352 55.6993C32.9487 55.6993 32.9623 55.6993 32.9759 55.6993C32.9895 55.6993 33.0031 55.6993 33.0168 55.6993C33.0305 55.6993 33.0443 55.6993 33.0581 55.6993C33.0719 55.6993 33.0857 55.6993 33.0996 55.6993C33.1134 55.6993 33.1273 55.6993 33.1413 55.6993C33.1553 55.6993 33.1693 55.6993 33.1833 55.6993C33.1973 55.6993 33.2114 55.6993 33.2256 55.6993C33.2397 55.6993 33.2539 55.6993 33.2681 55.6993C33.2823 55.6993 33.2965 55.6993 33.3108 55.6993C33.3251 55.6993 33.3395 55.6993 33.3538 55.6993C33.3682 55.6993 33.3826 55.6993 33.3971 55.6993C33.4116 55.6993 33.4261 55.6993 33.4406 55.6993C33.4552 55.6993 33.4697 55.6993 33.4844 55.6993C33.499 55.6993 33.5137 55.6993 33.5284 55.6993C33.5431 55.6993 33.5578 55.6993 33.5726 55.6993C33.5874 55.6993 33.6022 55.6993 33.6171 55.6993C33.632 55.6993 33.6469 55.6993 33.6618 55.6993C33.6768 55.6993 33.6918 55.6993 33.7068 55.6993C33.7218 55.6993 33.7369 55.6993 33.752 55.6993C33.7671 55.6993 33.7823 55.6993 33.7975 55.6993C33.8127 55.6993 33.8279 55.6993 33.8432 55.6993C33.8584 55.6993 33.8737 55.6993 33.8891 55.6993C33.9044 55.6993 33.9198 55.6993 33.9352 55.6993C33.9507 55.6993 33.9661 55.6993 33.9816 55.6993C33.9971 55.6993 34.0127 55.6993 34.0283 55.6993C34.0438 55.6993 34.0595 55.6993 34.0751 55.6993C34.0908 55.6993 34.1065 55.6993 34.1222 55.6993C34.138 55.6993 34.1537 55.6993 34.1695 55.6993C34.1853 55.6993 34.2012 55.6993 34.2171 55.6993C34.233 55.6993 34.2489 55.6993 34.2649 55.6993C34.2808 55.6993 34.2968 55.6993 34.3129 55.6993C34.3289 55.6993 34.345 55.6993 34.3611 55.6993C34.3772 55.6993 34.3933 55.6993 34.4095 55.6993C34.4257 55.6993 34.4419 55.6993 34.4582 55.6993C34.4744 55.6993 34.4907 55.6993 34.5071 55.6993C34.5234 55.6993 34.5398 55.6993 34.5562 55.6993C34.5726 55.6993 34.589 55.6993 34.6055 55.6993C34.622 55.6993 34.6385 55.6993 34.655 55.6993C34.6716 55.6993 34.6882 55.6993 34.7048 55.6993C34.7214 55.6993 34.7381 55.6993 34.7548 55.6993C34.7715 55.6993 34.7882 55.6993 34.805 55.6993C34.8217 55.6993 34.8385 55.6993 34.8553 55.6993C34.8722 55.6993 34.889 55.6993 34.906 55.6993C34.9229 55.6993 34.9398 55.6993 34.9568 55.6993C34.9737 55.6993 34.9907 55.6993 35.0078 55.6993C35.0248 55.6993 35.0419 55.6993 35.059 55.6993C35.0761 55.6993 35.0933 55.6993 35.1105 55.6993C35.1276 55.6993 35.1449 55.6993 35.1621 55.6993C35.1793 55.6993 35.1966 55.6993 35.2139 55.6993C35.2313 55.6993 35.2486 55.6993 35.266 55.6993C35.2834 55.6993 35.3008 55.6993 35.3182 55.6993C35.3357 55.6993 35.3532 55.6993 35.3707 55.6993C35.3882 55.6993 35.4058 55.6993 35.4233 55.6993C35.4409 55.6993 35.4585 55.6993 35.4762 55.6993C35.4938 55.6993 35.5115 55.6993 35.5292 55.6993C35.5469 55.6993 35.5647 55.6993 35.5825 55.6993C35.6002 55.6993 35.618 55.6993 35.6359 55.6993C35.6537 55.6993 35.6716 55.6993 35.6895 55.6993C35.7074 55.6993 35.7254 55.6993 35.7433 55.6993C35.7613 55.6993 35.7793 55.6993 35.7973 55.6993C35.8154 55.6993 35.8334 55.6993 35.8515 55.6993C35.8696 55.6993 35.8877 55.6993 35.9059 55.6993C35.9241 55.6993 35.9422 55.6993 35.9605 55.6993C35.9787 55.6993 35.9969 55.6993 36.0152 55.6993C36.0335 55.6993 36.0518 55.6993 36.0701 55.6993C36.0885 55.6993 36.1069 55.6993 36.1253 55.6993C36.1437 55.6993 36.1621 55.6993 36.1806 55.6993C36.199 55.6993 36.2175 55.6993 36.236 55.6993C36.2546 55.6993 36.2731 55.6993 36.2917 55.6993C36.3103 55.6993 36.3289 55.6993 36.3475 55.6993C36.3662 55.6993 36.3848 55.6993 36.4035 55.6993C36.4223 55.6993 36.441 55.6993 36.4597 55.6993C36.4785 55.6993 36.4973 55.6993 36.5161 55.6993C36.5349 55.6993 36.5538 55.6993 36.5726 55.6993C36.5915 55.6993 36.6104 55.6993 36.6293 55.6993C36.6483 55.6993 36.6672 55.6993 36.6862 55.6993C36.7052 55.6993 36.7242 55.6993 36.7433 55.6993C36.7623 55.6993 36.7814 55.6993 36.8005 55.6993C36.8196 55.6993 36.8387 55.6993 36.8579 55.6993C36.877 55.6993 36.8962 55.6993 36.9154 55.6993C36.9346 55.6993 36.9539 55.6993 36.9731 55.6993C36.9924 55.6993 37.0117 55.6993 37.031 55.6993C37.0503 55.6993 37.0697 55.6993 37.089 55.6993C37.1084 55.6993 37.1278 55.6993 37.1472 55.6993C37.1667 55.6993 37.1861 55.6993 37.2056 55.6993C37.2251 55.6993 37.2446 55.6993 37.2641 55.6993C37.2837 55.6993 37.3032 55.6993 37.3228 55.6993C37.3424 55.6993 37.362 55.6993 37.3816 55.6993C37.4013 55.6993 37.4209 55.6993 37.4406 55.6993C37.4603 55.6993 37.48 55.6993 37.4998 55.6993C37.5195 55.6993 37.5393 55.6993 37.559 55.6993C37.5788 55.6993 37.5986 55.6993 37.6185 55.6993C37.6383 55.6993 37.6582 55.6993 37.6781 55.6993C37.698 55.6993 37.7179 55.6993 37.7378 55.6993C37.7578 55.6993 37.7777 55.6993 37.7977 55.6993C37.8177 55.6993 37.8377 55.6993 37.8577 55.6993C37.8778 55.6993 37.8978 55.6993 37.9179 55.6993C37.938 55.6993 37.9581 55.6993 37.9782 55.6993C37.9984 55.6993 38.0185 55.6993 38.0387 55.6993C38.0589 55.6993 38.0791 55.6993 38.0993 55.6993C38.1195 55.6993 38.1398 55.6993 38.1601 55.6993C38.1803 55.6993 38.2006 55.6993 38.221 55.6993C38.2413 55.6993 38.2616 55.6993 38.282 55.6993C38.3023 55.6993 38.3227 55.6993 38.3431 55.6993C38.3636 55.6993 38.384 55.6993 38.4044 55.6993C38.4249 55.6993 38.4454 55.6993 38.4659 55.6993C38.4864 55.6993 38.5069 55.6993 38.5274 55.6993C38.548 55.6993 38.5685 55.6993 38.5891 55.6993C38.6097 55.6993 38.6303 55.6993 38.651 55.6993C38.6716 55.6993 38.6922 55.6993 38.7129 55.6993C38.7336 55.6993 38.7543 55.6993 38.775 55.6993C38.7957 55.6993 38.8165 55.6993 38.8372 55.6993C38.858 55.6993 38.8787 55.6993 38.8995 55.6993C38.9203 55.6993 38.9412 55.6993 38.962 55.6993C38.9828 55.6993 39.0037 55.6993 39.0246 55.6993C39.0455 55.6993 39.0664 55.6993 39.0873 55.6993C39.1082 55.6993 39.1292 55.6993 39.1501 55.6993C39.1711 55.6993 39.1921 55.6993 39.2131 55.6993C39.2341 55.6993 39.2551 55.6993 39.2761 55.6993C39.2972 55.6993 39.3182 55.6993 39.3393 55.6993C39.3604 55.6993 39.3815 55.6993 39.4026 55.6993C39.4237 55.6993 39.4449 55.6993 39.466 55.6993C39.4872 55.6993 39.5084 55.6993 39.5295 55.6993C39.5507 55.6993 39.572 55.6993 39.5932 55.6993C39.6144 55.6993 39.6357 55.6993 39.6569 55.6993C39.6782 55.6993 39.6995 55.6993 39.7208 55.6993C39.7421 55.6993 39.7634 55.6993 39.7848 55.6993C39.8061 55.6993 39.8275 55.6993 39.8488 55.6993C39.8702 55.6993 39.8916 55.6993 39.913 55.6993C39.9344 55.6993 39.9558 55.6993 39.9773 55.6993C39.9987 55.6993 40.0202 55.6993 40.0417 55.6993C40.0632 55.6993 40.0847 55.6993 40.1062 55.6993C40.1277 55.6993 40.1492 55.6993 40.1708 55.6993C40.1923 55.6993 40.2139 55.6993 40.2355 55.6993C40.257 55.6993 40.2786 55.6993 40.3003 55.6993C40.3219 55.6993 40.3435 55.6993 40.3651 55.6993C40.3868 55.6993 40.4085 55.6993 40.4301 55.6993C40.4518 55.6993 40.4735 55.6993 40.4952 55.6993C40.5169 55.6993 40.5386 55.6993 40.5604 55.6993C40.5821 55.6993 40.6039 55.6993 40.6257 55.6993C40.6474 55.6993 40.6692 55.6993 40.691 55.6993C40.7128 55.6993 40.7346 55.6993 40.7565 55.6993C40.7783 55.6993 40.8001 55.6993 40.822 55.6993C40.8439 55.6993 40.8657 55.6993 40.8876 55.6993C40.9095 55.6993 40.9314 55.6993 40.9533 55.6993C40.9753 55.6993 40.9972 55.6993 41.0191 55.6993C41.0411 55.6993 41.063 55.6993 41.085 55.6993C41.107 55.6993 41.129 55.6993 41.151 55.6993C41.173 55.6993 41.195 55.6993 41.217 55.6993C41.2391 55.6993 41.2611 55.6993 41.2832 55.6993C41.3052 55.6993 41.3273 55.6993 41.3494 55.6993C41.3715 55.6993 41.3936 55.6993 41.4157 55.6993C41.4378 55.6993 41.4599 55.6993 41.482 55.6993C41.5042 55.6993 41.5263 55.6993 41.5485 55.6993C41.5706 55.6993 41.5928 55.6993 41.615 55.6993C41.6372 55.6993 41.6594 55.6993 41.6816 55.6993C41.7038 55.6993 41.726 55.6993 41.7482 55.6993C41.7705 55.6993 41.7927 55.6993 41.815 55.6993C41.8372 55.6993 41.8595 55.6993 41.8818 55.6993C41.904 55.6993 41.9263 55.6993 41.9486 55.6993C41.9709 55.6993 41.9932 55.6993 42.0156 55.6993C42.0379 55.6993 42.0602 55.6993 42.0826 55.6993C42.1049 55.6993 42.1273 55.6993 42.1496 55.6993C42.172 55.6993 42.1944 55.6993 42.2168 55.6993C42.2391 55.6993 42.2615 55.6993 42.2839 55.6993C42.3064 55.6993 42.3288 55.6993 42.3512 55.6993C42.3736 55.6993 42.3961 55.6993 42.4185 55.6993C42.441 55.6993 42.4634 55.6993 42.4859 55.6993C42.5084 55.6993 42.5308 55.6993 42.5533 55.6993C42.5758 55.6993 42.5983 55.6993 42.6208 55.6993C42.6433 55.6993 42.6658 55.6993 42.6883 55.6993C42.7109 55.6993 42.7334 55.6993 42.7559 55.6993C42.7785 55.6993 42.801 55.6993 42.8236 55.6993C42.8461 55.6993 42.8687 55.6993 42.8913 55.6993C42.9139 55.6993 42.9364 55.6993 42.959 55.6993C42.9816 55.6993 43.0042 55.6993 43.0268 55.6993C43.0494 55.6993 43.0721 55.6993 43.0947 55.6993C43.1173 55.6993 43.1399 55.6993 43.1626 55.6993C43.1852 55.6993 43.2079 55.6993 43.2305 55.6993C43.2532 55.6993 43.2758 55.6993 43.2985 55.6993C43.3212 55.6993 43.3438 55.6993 43.3665 55.6993C43.3892 55.6993 43.4119 55.6993 43.4346 55.6993C43.4573 55.6993 43.48 55.6993 43.5027 55.6993C43.5254 55.6993 43.5481 55.6993 43.5708 55.6993C43.5936 55.6993 43.6163 55.6993 43.639 55.6993C43.6618 55.6993 43.6845 55.6993 43.7072 55.6993C43.73 55.6993 43.7527 55.6993 43.7755 55.6993C43.7983 55.6993 43.821 55.6993 43.8438 55.6993C43.8666 55.6993 43.8893 55.6993 43.9121 55.6993C43.9349 55.6993 43.9577 55.6993 43.9805 55.6993C44.0033 55.6993 44.0261 55.6993 44.0489 55.6993C44.0717 55.6993 44.0945 55.6993 44.1173 55.6993C44.1401 55.6993 44.1629 55.6993 44.1857 55.6993C44.2085 55.6993 44.2314 55.6993 44.2542 55.6993C44.277 55.6993 44.2999 55.6993 44.3227 55.6993C44.3455 55.6993 44.3684 55.6993 44.3912 55.6993C44.4141 55.6993 44.4369 55.6993 44.4598 55.6993C44.4826 55.6993 44.5055 55.6993 44.5283 55.6993C44.5512 55.6993 44.5741 55.6993 44.5969 55.6993C44.6198 55.6993 44.6427 55.6993 44.6655 55.6993C44.6884 55.6993 44.7113 55.6993 44.7342 55.6993C44.757 55.6993 44.7799 55.6993 44.8028 55.6993C44.8257 55.6993 44.8486 55.6993 44.8715 55.6993C44.8944 55.6993 44.9173 55.6993 44.9401 55.6993C44.963 55.6993 44.9859 55.6993 45.0088 55.6993C45.0317 55.6993 45.0546 55.6993 45.0775 55.6993C45.1004 55.6993 45.1234 55.6993 45.1463 55.6993C45.1692 55.6993 45.1921 55.6993 45.215 55.6993C45.2379 55.6993 45.2608 55.6993 45.2837 55.6993C45.3066 55.6993 45.3295 55.6993 45.3525 55.6993C45.3754 55.6993 45.3983 55.6993 45.4212 55.6993C45.4441 55.6993 45.467 55.6993 45.49 55.6993C45.5129 55.6993 45.5358 55.6993 45.5587 55.6993C45.5816 55.6993 45.6046 55.6993 45.6275 55.6993C45.6504 55.6993 45.6733 55.6993 45.6962 55.6993C45.7192 55.6993 45.7421 55.6993 45.765 55.6993C45.7879 55.6993 45.8108 55.6993 45.8338 55.6993C45.8567 55.6993 45.8796 55.6993 45.9025 55.6993C45.9254 55.6993 45.9484 55.6993 45.9713 55.6993C45.9942 55.6993 46.0171 55.6993 46.04 55.6993C46.0629 55.6993 46.0859 55.6993 46.1088 55.6993C46.1317 55.6993 46.1546 55.6993 46.1775 55.6993C46.2004 55.6993 46.2233 55.6993 46.2462 55.6993C46.2691 55.6993 46.2921 55.6993 46.315 55.6993C46.3379 55.6993 46.3608 55.6993 46.3837 55.6993C46.4066 55.6993 46.4295 55.6993 46.4524 55.6993C46.4753 55.6993 46.4982 55.6993 46.5211 55.6993C46.5439 55.6993 46.5668 55.6993 46.5897 55.6993C46.6126 55.6993 46.6355 55.6993 46.6584 55.6993C46.6813 55.6993 46.7041 55.6993 46.727 55.6993C46.7499 55.6993 46.7728 55.6993 46.7956 55.6993C46.8185 55.6993 46.8414 55.6993 46.8642 55.6993C46.8871 55.6993 46.91 55.6993 46.9328 55.6993C46.9557 55.6993 46.9785 55.6993 47.0014 55.6993C47.0242 55.6993 47.0471 55.6993 47.0699 55.6993C47.0928 55.6993 47.1156 55.6993 47.1384 55.6993C47.1613 55.6993 47.1841 55.6993 47.2069 55.6993C47.2298 55.6993 47.2526 55.6993 47.2754 55.6993C47.2982 55.6993 47.321 55.6993 47.3438 55.6993C47.3666 55.6993 47.3894 55.6993 47.4122 55.6993C47.435 55.6993 47.4578 55.6993 47.4806 55.6993C47.5034 55.6993 47.5262 55.6993 47.549 55.6993C47.5717 55.6993 47.5945 55.6993 47.6173 55.6993C47.64 55.6993 47.6628 55.6993 47.6855 55.6993C47.7083 55.6993 47.731 55.6993 47.7538 55.6993C47.7765 55.6993 47.7993 55.6993 47.822 55.6993C47.8447 55.6993 47.8674 55.6993 47.8902 55.6993C47.9129 55.6993 47.9356 55.6993 47.9583 55.6993C47.981 55.6993 48.0037 55.6993 48.0264 55.6993C48.0491 55.6993 48.0718 55.6993 48.0944 55.6993C48.1171 55.6993 48.1398 55.6993 48.1624 55.6993C48.1851 55.6993 48.2078 55.6993 48.2304 55.6993C48.2531 55.6993 48.2757 55.6993 48.2983 55.6993C48.321 55.6993 48.3436 55.6993 48.3662 55.6993C48.3888 55.6993 48.4114 55.6993 48.434 55.6993C48.4566 55.6993 48.4792 55.6993 48.5018 55.6993C48.5244 55.6993 48.547 55.6993 48.5695 55.6993C48.5921 55.6993 48.6147 55.6993 48.6372 55.6993C48.6598 55.6993 48.6823 55.6993 48.7049 55.6993C48.7274 55.6993 48.7499 55.6993 48.7724 55.6993C48.7949 55.6993 48.8175 55.6993 48.84 55.6993C48.8624 55.6993 48.8849 55.6993 48.9074 55.6993C48.9299 55.6993 48.9524 55.6993 48.9748 55.6993C48.9973 55.6993 49.0197 55.6993 49.0422 55.6993C49.0646 55.6993 49.087 55.6993 49.1095 55.6993C49.1319 55.6993 49.1543 55.6993 49.1767 55.6993C49.1991 55.6993 49.2215 55.6993 49.2439 55.6993C49.2662 55.6993 49.2886 55.6993 49.311 55.6993C49.3333 55.6993 49.3557 55.6993 49.378 55.6993C49.4003 55.6993 49.4227 55.6993 49.445 55.6993C49.4673 55.6993 49.4896 55.6993 49.5119 55.6993C49.5342 55.6993 49.5565 55.6993 49.5787 55.6993C49.601 55.6993 49.6233 55.6993 49.6455 55.6993C49.6678 55.6993 49.69 55.6993 49.7122 55.6993C49.7344 55.6993 49.7566 55.6993 49.7788 55.6993C49.801 55.6993 49.8232 55.6993 49.8454 55.6993C49.8676 55.6993 49.8897 55.6993 49.9119 55.6993C49.934 55.6993 49.9562 55.6993 49.9783 55.6993C50.0004 55.6993 50.0225 55.6993 50.0446 55.6993C50.0667 55.6993 50.0888 55.6993 50.1109 55.6993C50.133 55.6993 50.155 55.6993 50.1771 55.6993C50.1991 55.6993 50.2211 55.6993 50.2432 55.6993C50.2652 55.6993 50.2872 55.6993 50.3092 55.6993C50.3312 55.6993 50.3532 55.6993 50.3751 55.6993C50.3971 55.6993 50.419 55.6993 50.441 55.6993C50.4629 55.6993 50.4848 55.6993 50.5067 55.6993C50.5286 55.6993 50.5505 55.6993 50.5724 55.6993C50.5943 55.6993 50.6162 55.6993 50.638 55.6993C50.6599 55.6993 50.6817 55.6993 50.7035 55.6993C50.7253 55.6993 50.7471 55.6993 50.7689 55.6993C50.7907 55.6993 50.8125 55.6993 50.8343 55.6993C50.856 55.6993 50.8778 55.6993 50.8995 55.6993C50.9212 55.6993 50.9429 55.6993 50.9646 55.6993C50.9863 55.6993 51.008 55.6993 51.0297 55.6993C51.0513 55.6993 51.073 55.6993 51.0946 55.6993C51.1163 55.6993 51.1379 55.6993 51.1595 55.6993C51.1811 55.6993 51.2027 55.6993 51.2242 55.6993C51.2458 55.6993 51.2673 55.6993 51.2889 55.6993C51.3104 55.6993 51.3319 55.6993 51.3534 55.6993C51.3749 55.6993 51.3964 55.6993 51.4179 55.6993C51.4394 55.6993 51.4608 55.6993 51.4822 55.6993C51.5037 55.6993 51.5251 55.6993 51.5465 55.6993C51.5679 55.6993 51.5893 55.6993 51.6106 55.6993C51.632 55.6993 51.6533 55.6993 51.6747 55.6993C51.696 55.6993 51.7173 55.6993 51.7386 55.6993C51.7599 55.6993 51.7812 55.6993 51.8024 55.6993C51.8237 55.6993 51.8449 55.6993 51.8661 55.6993C51.8873 55.6993 51.9085 55.6993 51.9297 55.6993C51.9509 55.6993 51.972 55.6993 51.9932 55.6993C52.0143 55.6993 52.0354 55.6993 52.0566 55.6993C52.0777 55.6993 52.0987 55.6993 52.1198 55.6993C52.1409 55.6993 52.1619 55.6993 52.1829 55.6993C52.204 55.6993 52.225 55.6993 52.246 55.6993C52.2669 55.6993 52.2879 55.6993 52.3089 55.6993C52.3298 55.6993 52.3507 55.6993 52.3716 55.6993C52.3926 55.6993 52.4134 55.6993 52.4343 55.6993C52.4552 55.6993 52.476 55.6993 52.4968 55.6993C52.5177 55.6993 52.5385 55.6993 52.5593 55.6993C52.58 55.6993 52.6008 55.6993 52.6215 55.6993C52.6423 55.6993 52.663 55.6993 52.6837 55.6993C52.7044 55.6993 52.7251 55.6993 52.7457 55.6993C52.7664 55.6993 52.787 55.6993 52.8076 55.6993C52.8283 55.6993 52.8489 55.6993 52.8694 55.6993C52.89 55.6993 52.9105 55.6993 52.9311 55.6993C52.9516 55.6993 52.9721 55.6993 52.9926 55.6993C53.0131 55.6993 53.0335 55.6993 53.054 55.6993C53.0744 55.6993 53.0948 55.6993 53.1152 55.6993C53.1356 55.6993 53.156 55.6993 53.1763 55.6993C53.1967 55.6993 53.217 55.6993 53.2373 55.6993C53.2576 55.6993 53.2779 55.6993 53.2981 55.6993C53.3184 55.6993 53.3386 55.6993 53.3588 55.6993C53.379 55.6993 53.3992 55.6993 53.4194 55.6993C53.4395 55.6993 53.4597 55.6993 53.4798 55.6993C53.4999 55.6993 53.52 55.6993 53.5401 55.6993C53.5601 55.6993 53.5802 55.6993 53.6002 55.6993C53.6202 55.6993 53.6402 55.6993 53.6602 55.6993C53.6801 55.6993 53.7001 55.6993 53.72 55.6993C53.7399 55.6993 53.7598 55.6993 53.7797 55.6993C53.7995 55.6993 53.8194 55.6993 53.8392 55.6993C53.859 55.6993 53.8788 55.6993 53.8986 55.6993C53.9184 55.6993 53.9381 55.6993 53.9578 55.6993C53.9775 55.6993 53.9972 55.6993 54.0169 55.6993C54.0366 55.6993 54.0562 55.6993 54.0758 55.6993C54.0955 55.6993 54.115 55.6993 54.1346 55.6993C54.1542 55.6993 54.1737 55.6993 54.1932 55.6993C54.2127 55.6993 54.2322 55.6993 54.2517 55.6993C54.2711 55.6993 54.2906 55.6993 54.31 55.6993C54.3294 55.6993 54.3488 55.6993 54.3681 55.6993C54.3875 55.6993 54.4068 55.6993 54.4261 55.6993C54.4454 55.6993 54.4647 55.6993 54.4839 55.6993C54.5032 55.6993 54.5224 55.6993 54.5416 55.6993C54.5607 55.6993 54.5799 55.6993 54.599 55.6993C54.6182 55.6993 54.6373 55.6993 54.6564 55.6993C54.6754 55.6993 54.6945 55.6993 54.7135 55.6993C54.7325 55.6993 54.7515 55.6993 54.7705 55.6993C54.7895 55.6993 54.8084 55.6993 54.8273 55.6993C54.8462 55.6993 54.8651 55.6993 54.884 55.6993C54.9028 55.6993 54.9216 55.6993 54.9404 55.6993C54.9592 55.6993 54.978 55.6993 54.9967 55.6993C55.0155 55.6993 55.0342 55.6993 55.0528 55.6993C55.0715 55.6993 55.0902 55.6993 55.1088 55.6993C55.1274 55.6993 55.146 55.6993 55.1646 55.6993C55.1831 55.6993 55.2016 55.6993 55.2201 55.6993C55.2386 55.6993 55.2571 55.6993 55.2756 55.6993C55.294 55.6993 55.3124 55.6993 55.3308 55.6993C55.3492 55.6993 55.3675 55.6993 55.3858 55.6993C55.4042 55.6993 55.4224 55.6993 55.4407 55.6993C55.459 55.6993 55.4772 55.6993 55.4954 55.6993C55.5136 55.6993 55.5317 55.6993 55.5499 55.6993C55.568 55.6993 55.5861 55.6993 55.6042 55.6993C55.6223 55.6993 55.6403 55.6993 55.6583 55.6993C55.6763 55.6993 55.6943 55.6993 55.7122 55.6993C55.7302 55.6993 55.7481 55.6993 55.766 55.6993C55.7839 55.6993 55.8017 55.6993 55.8195 55.6993C55.8373 55.6993 55.8551 55.6993 55.8729 55.6993C55.8906 55.6993 55.9084 55.6993 55.926 55.6993C55.9437 55.6993 55.9614 55.6993 55.979 55.6993C55.9966 55.6993 56.0142 55.6993 56.0318 55.6993C56.0493 55.6993 56.0669 55.6993 56.0843 55.6993C56.1018 55.6993 56.1193 55.6993 56.1367 55.6993C56.1541 55.6993 56.1715 55.6993 56.1889 55.6993C56.2062 55.6993 56.2236 55.6993 56.2409 55.6993C56.2582 55.6993 56.2754 55.6993 56.2926 55.6993C56.3099 55.6993 56.327 55.6993 56.3442 55.6993C56.3613 55.6993 56.3785 55.6993 56.3955 55.6993C56.4126 55.6993 56.4297 55.6993 56.4467 55.6993C56.4637 55.6993 56.4807 55.6993 56.4976 55.6993C56.5146 55.6993 56.5315 55.6993 56.5484 55.6993C56.5653 55.6993 56.5821 55.6993 56.5989 55.6993C56.6157 55.6993 56.6325 55.6993 56.6492 55.6993C56.666 55.6993 56.6827 55.6993 56.6993 55.6993V58.6993C56.6827 58.6993 56.666 58.6993 56.6492 58.6993C56.6325 58.6993 56.6157 58.6993 56.5989 58.6993C56.5821 58.6993 56.5653 58.6993 56.5484 58.6993C56.5315 58.6993 56.5146 58.6993 56.4976 58.6993C56.4807 58.6993 56.4637 58.6993 56.4467 58.6993C56.4297 58.6993 56.4126 58.6993 56.3955 58.6993C56.3785 58.6993 56.3613 58.6993 56.3442 58.6993C56.327 58.6993 56.3099 58.6993 56.2926 58.6993C56.2754 58.6993 56.2582 58.6993 56.2409 58.6993C56.2236 58.6993 56.2062 58.6993 56.1889 58.6993C56.1715 58.6993 56.1541 58.6993 56.1367 58.6993C56.1193 58.6993 56.1018 58.6993 56.0843 58.6993C56.0669 58.6993 56.0493 58.6993 56.0318 58.6993C56.0142 58.6993 55.9966 58.6993 55.979 58.6993C55.9614 58.6993 55.9437 58.6993 55.926 58.6993C55.9084 58.6993 55.8906 58.6993 55.8729 58.6993C55.8551 58.6993 55.8373 58.6993 55.8195 58.6993C55.8017 58.6993 55.7839 58.6993 55.766 58.6993C55.7481 58.6993 55.7302 58.6993 55.7122 58.6993C55.6943 58.6993 55.6763 58.6993 55.6583 58.6993C55.6403 58.6993 55.6223 58.6993 55.6042 58.6993C55.5861 58.6993 55.568 58.6993 55.5499 58.6993C55.5317 58.6993 55.5136 58.6993 55.4954 58.6993C55.4772 58.6993 55.459 58.6993 55.4407 58.6993C55.4224 58.6993 55.4042 58.6993 55.3858 58.6993C55.3675 58.6993 55.3492 58.6993 55.3308 58.6993C55.3124 58.6993 55.294 58.6993 55.2756 58.6993C55.2571 58.6993 55.2386 58.6993 55.2201 58.6993C55.2016 58.6993 55.1831 58.6993 55.1646 58.6993C55.146 58.6993 55.1274 58.6993 55.1088 58.6993C55.0902 58.6993 55.0715 58.6993 55.0528 58.6993C55.0342 58.6993 55.0155 58.6993 54.9967 58.6993C54.978 58.6993 54.9592 58.6993 54.9404 58.6993C54.9216 58.6993 54.9028 58.6993 54.884 58.6993C54.8651 58.6993 54.8462 58.6993 54.8273 58.6993C54.8084 58.6993 54.7895 58.6993 54.7705 58.6993C54.7515 58.6993 54.7325 58.6993 54.7135 58.6993C54.6945 58.6993 54.6754 58.6993 54.6564 58.6993C54.6373 58.6993 54.6182 58.6993 54.599 58.6993C54.5799 58.6993 54.5607 58.6993 54.5416 58.6993C54.5224 58.6993 54.5032 58.6993 54.4839 58.6993C54.4647 58.6993 54.4454 58.6993 54.4261 58.6993C54.4068 58.6993 54.3875 58.6993 54.3681 58.6993C54.3488 58.6993 54.3294 58.6993 54.31 58.6993C54.2906 58.6993 54.2711 58.6993 54.2517 58.6993C54.2322 58.6993 54.2127 58.6993 54.1932 58.6993C54.1737 58.6993 54.1542 58.6993 54.1346 58.6993C54.115 58.6993 54.0955 58.6993 54.0758 58.6993C54.0562 58.6993 54.0366 58.6993 54.0169 58.6993C53.9972 58.6993 53.9775 58.6993 53.9578 58.6993C53.9381 58.6993 53.9184 58.6993 53.8986 58.6993C53.8788 58.6993 53.859 58.6993 53.8392 58.6993C53.8194 58.6993 53.7995 58.6993 53.7797 58.6993C53.7598 58.6993 53.7399 58.6993 53.72 58.6993C53.7001 58.6993 53.6801 58.6993 53.6602 58.6993C53.6402 58.6993 53.6202 58.6993 53.6002 58.6993C53.5802 58.6993 53.5601 58.6993 53.5401 58.6993C53.52 58.6993 53.4999 58.6993 53.4798 58.6993C53.4597 58.6993 53.4395 58.6993 53.4194 58.6993C53.3992 58.6993 53.379 58.6993 53.3588 58.6993C53.3386 58.6993 53.3184 58.6993 53.2981 58.6993C53.2779 58.6993 53.2576 58.6993 53.2373 58.6993C53.217 58.6993 53.1967 58.6993 53.1763 58.6993C53.156 58.6993 53.1356 58.6993 53.1152 58.6993C53.0948 58.6993 53.0744 58.6993 53.054 58.6993C53.0335 58.6993 53.0131 58.6993 52.9926 58.6993C52.9721 58.6993 52.9516 58.6993 52.9311 58.6993C52.9105 58.6993 52.89 58.6993 52.8694 58.6993C52.8489 58.6993 52.8283 58.6993 52.8076 58.6993C52.787 58.6993 52.7664 58.6993 52.7457 58.6993C52.7251 58.6993 52.7044 58.6993 52.6837 58.6993C52.663 58.6993 52.6423 58.6993 52.6215 58.6993C52.6008 58.6993 52.58 58.6993 52.5593 58.6993C52.5385 58.6993 52.5177 58.6993 52.4968 58.6993C52.476 58.6993 52.4552 58.6993 52.4343 58.6993C52.4134 58.6993 52.3926 58.6993 52.3716 58.6993C52.3507 58.6993 52.3298 58.6993 52.3089 58.6993C52.2879 58.6993 52.2669 58.6993 52.246 58.6993C52.225 58.6993 52.204 58.6993 52.1829 58.6993C52.1619 58.6993 52.1409 58.6993 52.1198 58.6993C52.0987 58.6993 52.0777 58.6993 52.0566 58.6993C52.0354 58.6993 52.0143 58.6993 51.9932 58.6993C51.972 58.6993 51.9509 58.6993 51.9297 58.6993C51.9085 58.6993 51.8873 58.6993 51.8661 58.6993C51.8449 58.6993 51.8237 58.6993 51.8024 58.6993C51.7812 58.6993 51.7599 58.6993 51.7386 58.6993C51.7173 58.6993 51.696 58.6993 51.6747 58.6993C51.6533 58.6993 51.632 58.6993 51.6106 58.6993C51.5893 58.6993 51.5679 58.6993 51.5465 58.6993C51.5251 58.6993 51.5037 58.6993 51.4822 58.6993C51.4608 58.6993 51.4394 58.6993 51.4179 58.6993C51.3964 58.6993 51.3749 58.6993 51.3534 58.6993C51.3319 58.6993 51.3104 58.6993 51.2889 58.6993C51.2673 58.6993 51.2458 58.6993 51.2242 58.6993C51.2027 58.6993 51.1811 58.6993 51.1595 58.6993C51.1379 58.6993 51.1163 58.6993 51.0946 58.6993C51.073 58.6993 51.0513 58.6993 51.0297 58.6993C51.008 58.6993 50.9863 58.6993 50.9646 58.6993C50.9429 58.6993 50.9212 58.6993 50.8995 58.6993C50.8778 58.6993 50.856 58.6993 50.8343 58.6993C50.8125 58.6993 50.7907 58.6993 50.7689 58.6993C50.7471 58.6993 50.7253 58.6993 50.7035 58.6993C50.6817 58.6993 50.6599 58.6993 50.638 58.6993C50.6162 58.6993 50.5943 58.6993 50.5724 58.6993C50.5505 58.6993 50.5286 58.6993 50.5067 58.6993C50.4848 58.6993 50.4629 58.6993 50.441 58.6993C50.419 58.6993 50.3971 58.6993 50.3751 58.6993C50.3532 58.6993 50.3312 58.6993 50.3092 58.6993C50.2872 58.6993 50.2652 58.6993 50.2432 58.6993C50.2211 58.6993 50.1991 58.6993 50.1771 58.6993C50.155 58.6993 50.133 58.6993 50.1109 58.6993C50.0888 58.6993 50.0667 58.6993 50.0446 58.6993C50.0225 58.6993 50.0004 58.6993 49.9783 58.6993C49.9562 58.6993 49.934 58.6993 49.9119 58.6993C49.8897 58.6993 49.8676 58.6993 49.8454 58.6993C49.8232 58.6993 49.801 58.6993 49.7788 58.6993C49.7566 58.6993 49.7344 58.6993 49.7122 58.6993C49.69 58.6993 49.6678 58.6993 49.6455 58.6993C49.6233 58.6993 49.601 58.6993 49.5787 58.6993C49.5565 58.6993 49.5342 58.6993 49.5119 58.6993C49.4896 58.6993 49.4673 58.6993 49.445 58.6993C49.4227 58.6993 49.4003 58.6993 49.378 58.6993C49.3557 58.6993 49.3333 58.6993 49.311 58.6993C49.2886 58.6993 49.2662 58.6993 49.2439 58.6993C49.2215 58.6993 49.1991 58.6993 49.1767 58.6993C49.1543 58.6993 49.1319 58.6993 49.1095 58.6993C49.087 58.6993 49.0646 58.6993 49.0422 58.6993C49.0197 58.6993 48.9973 58.6993 48.9748 58.6993C48.9524 58.6993 48.9299 58.6993 48.9074 58.6993C48.8849 58.6993 48.8624 58.6993 48.84 58.6993C48.8175 58.6993 48.7949 58.6993 48.7724 58.6993C48.7499 58.6993 48.7274 58.6993 48.7049 58.6993C48.6823 58.6993 48.6598 58.6993 48.6372 58.6993C48.6147 58.6993 48.5921 58.6993 48.5695 58.6993C48.547 58.6993 48.5244 58.6993 48.5018 58.6993C48.4792 58.6993 48.4566 58.6993 48.434 58.6993C48.4114 58.6993 48.3888 58.6993 48.3662 58.6993C48.3436 58.6993 48.321 58.6993 48.2983 58.6993C48.2757 58.6993 48.2531 58.6993 48.2304 58.6993C48.2078 58.6993 48.1851 58.6993 48.1624 58.6993C48.1398 58.6993 48.1171 58.6993 48.0944 58.6993C48.0718 58.6993 48.0491 58.6993 48.0264 58.6993C48.0037 58.6993 47.981 58.6993 47.9583 58.6993C47.9356 58.6993 47.9129 58.6993 47.8902 58.6993C47.8674 58.6993 47.8447 58.6993 47.822 58.6993C47.7993 58.6993 47.7765 58.6993 47.7538 58.6993C47.731 58.6993 47.7083 58.6993 47.6855 58.6993C47.6628 58.6993 47.64 58.6993 47.6173 58.6993C47.5945 58.6993 47.5717 58.6993 47.549 58.6993C47.5262 58.6993 47.5034 58.6993 47.4806 58.6993C47.4578 58.6993 47.435 58.6993 47.4122 58.6993C47.3894 58.6993 47.3666 58.6993 47.3438 58.6993C47.321 58.6993 47.2982 58.6993 47.2754 58.6993C47.2526 58.6993 47.2298 58.6993 47.2069 58.6993C47.1841 58.6993 47.1613 58.6993 47.1384 58.6993C47.1156 58.6993 47.0928 58.6993 47.0699 58.6993C47.0471 58.6993 47.0242 58.6993 47.0014 58.6993C46.9785 58.6993 46.9557 58.6993 46.9328 58.6993C46.91 58.6993 46.8871 58.6993 46.8642 58.6993C46.8414 58.6993 46.8185 58.6993 46.7956 58.6993C46.7728 58.6993 46.7499 58.6993 46.727 58.6993C46.7041 58.6993 46.6813 58.6993 46.6584 58.6993C46.6355 58.6993 46.6126 58.6993 46.5897 58.6993C46.5668 58.6993 46.5439 58.6993 46.5211 58.6993C46.4982 58.6993 46.4753 58.6993 46.4524 58.6993C46.4295 58.6993 46.4066 58.6993 46.3837 58.6993C46.3608 58.6993 46.3379 58.6993 46.315 58.6993C46.2921 58.6993 46.2691 58.6993 46.2462 58.6993C46.2233 58.6993 46.2004 58.6993 46.1775 58.6993C46.1546 58.6993 46.1317 58.6993 46.1088 58.6993C46.0859 58.6993 46.0629 58.6993 46.04 58.6993C46.0171 58.6993 45.9942 58.6993 45.9713 58.6993C45.9484 58.6993 45.9254 58.6993 45.9025 58.6993C45.8796 58.6993 45.8567 58.6993 45.8338 58.6993C45.8108 58.6993 45.7879 58.6993 45.765 58.6993C45.7421 58.6993 45.7192 58.6993 45.6962 58.6993C45.6733 58.6993 45.6504 58.6993 45.6275 58.6993C45.6046 58.6993 45.5816 58.6993 45.5587 58.6993C45.5358 58.6993 45.5129 58.6993 45.49 58.6993C45.467 58.6993 45.4441 58.6993 45.4212 58.6993C45.3983 58.6993 45.3754 58.6993 45.3525 58.6993C45.3295 58.6993 45.3066 58.6993 45.2837 58.6993C45.2608 58.6993 45.2379 58.6993 45.215 58.6993C45.1921 58.6993 45.1692 58.6993 45.1463 58.6993C45.1234 58.6993 45.1004 58.6993 45.0775 58.6993C45.0546 58.6993 45.0317 58.6993 45.0088 58.6993C44.9859 58.6993 44.963 58.6993 44.9401 58.6993C44.9173 58.6993 44.8944 58.6993 44.8715 58.6993C44.8486 58.6993 44.8257 58.6993 44.8028 58.6993C44.7799 58.6993 44.757 58.6993 44.7342 58.6993C44.7113 58.6993 44.6884 58.6993 44.6655 58.6993C44.6427 58.6993 44.6198 58.6993 44.5969 58.6993C44.5741 58.6993 44.5512 58.6993 44.5283 58.6993C44.5055 58.6993 44.4826 58.6993 44.4598 58.6993C44.4369 58.6993 44.4141 58.6993 44.3912 58.6993C44.3684 58.6993 44.3455 58.6993 44.3227 58.6993C44.2999 58.6993 44.277 58.6993 44.2542 58.6993C44.2314 58.6993 44.2085 58.6993 44.1857 58.6993C44.1629 58.6993 44.1401 58.6993 44.1173 58.6993C44.0945 58.6993 44.0717 58.6993 44.0489 58.6993C44.0261 58.6993 44.0033 58.6993 43.9805 58.6993C43.9577 58.6993 43.9349 58.6993 43.9121 58.6993C43.8893 58.6993 43.8666 58.6993 43.8438 58.6993C43.821 58.6993 43.7983 58.6993 43.7755 58.6993C43.7527 58.6993 43.73 58.6993 43.7072 58.6993C43.6845 58.6993 43.6618 58.6993 43.639 58.6993C43.6163 58.6993 43.5936 58.6993 43.5708 58.6993C43.5481 58.6993 43.5254 58.6993 43.5027 58.6993C43.48 58.6993 43.4573 58.6993 43.4346 58.6993C43.4119 58.6993 43.3892 58.6993 43.3665 58.6993C43.3438 58.6993 43.3212 58.6993 43.2985 58.6993C43.2758 58.6993 43.2532 58.6993 43.2305 58.6993C43.2079 58.6993 43.1852 58.6993 43.1626 58.6993C43.1399 58.6993 43.1173 58.6993 43.0947 58.6993C43.0721 58.6993 43.0494 58.6993 43.0268 58.6993C43.0042 58.6993 42.9816 58.6993 42.959 58.6993C42.9364 58.6993 42.9139 58.6993 42.8913 58.6993C42.8687 58.6993 42.8461 58.6993 42.8236 58.6993C42.801 58.6993 42.7785 58.6993 42.7559 58.6993C42.7334 58.6993 42.7109 58.6993 42.6883 58.6993C42.6658 58.6993 42.6433 58.6993 42.6208 58.6993C42.5983 58.6993 42.5758 58.6993 42.5533 58.6993C42.5308 58.6993 42.5084 58.6993 42.4859 58.6993C42.4634 58.6993 42.441 58.6993 42.4185 58.6993C42.3961 58.6993 42.3736 58.6993 42.3512 58.6993C42.3288 58.6993 42.3064 58.6993 42.2839 58.6993C42.2615 58.6993 42.2391 58.6993 42.2168 58.6993C42.1944 58.6993 42.172 58.6993 42.1496 58.6993C42.1273 58.6993 42.1049 58.6993 42.0826 58.6993C42.0602 58.6993 42.0379 58.6993 42.0156 58.6993C41.9932 58.6993 41.9709 58.6993 41.9486 58.6993C41.9263 58.6993 41.904 58.6993 41.8818 58.6993C41.8595 58.6993 41.8372 58.6993 41.815 58.6993C41.7927 58.6993 41.7705 58.6993 41.7482 58.6993C41.726 58.6993 41.7038 58.6993 41.6816 58.6993C41.6594 58.6993 41.6372 58.6993 41.615 58.6993C41.5928 58.6993 41.5706 58.6993 41.5485 58.6993C41.5263 58.6993 41.5042 58.6993 41.482 58.6993C41.4599 58.6993 41.4378 58.6993 41.4157 58.6993C41.3936 58.6993 41.3715 58.6993 41.3494 58.6993C41.3273 58.6993 41.3052 58.6993 41.2832 58.6993C41.2611 58.6993 41.2391 58.6993 41.217 58.6993C41.195 58.6993 41.173 58.6993 41.151 58.6993C41.129 58.6993 41.107 58.6993 41.085 58.6993C41.063 58.6993 41.0411 58.6993 41.0191 58.6993C40.9972 58.6993 40.9753 58.6993 40.9533 58.6993C40.9314 58.6993 40.9095 58.6993 40.8876 58.6993C40.8657 58.6993 40.8439 58.6993 40.822 58.6993C40.8001 58.6993 40.7783 58.6993 40.7565 58.6993C40.7346 58.6993 40.7128 58.6993 40.691 58.6993C40.6692 58.6993 40.6474 58.6993 40.6257 58.6993C40.6039 58.6993 40.5821 58.6993 40.5604 58.6993C40.5386 58.6993 40.5169 58.6993 40.4952 58.6993C40.4735 58.6993 40.4518 58.6993 40.4301 58.6993C40.4085 58.6993 40.3868 58.6993 40.3651 58.6993C40.3435 58.6993 40.3219 58.6993 40.3003 58.6993C40.2786 58.6993 40.257 58.6993 40.2355 58.6993C40.2139 58.6993 40.1923 58.6993 40.1708 58.6993C40.1492 58.6993 40.1277 58.6993 40.1062 58.6993C40.0847 58.6993 40.0632 58.6993 40.0417 58.6993C40.0202 58.6993 39.9987 58.6993 39.9773 58.6993C39.9558 58.6993 39.9344 58.6993 39.913 58.6993C39.8916 58.6993 39.8702 58.6993 39.8488 58.6993C39.8275 58.6993 39.8061 58.6993 39.7848 58.6993C39.7634 58.6993 39.7421 58.6993 39.7208 58.6993C39.6995 58.6993 39.6782 58.6993 39.6569 58.6993C39.6357 58.6993 39.6144 58.6993 39.5932 58.6993C39.572 58.6993 39.5507 58.6993 39.5295 58.6993C39.5084 58.6993 39.4872 58.6993 39.466 58.6993C39.4449 58.6993 39.4237 58.6993 39.4026 58.6993C39.3815 58.6993 39.3604 58.6993 39.3393 58.6993C39.3182 58.6993 39.2972 58.6993 39.2761 58.6993C39.2551 58.6993 39.2341 58.6993 39.2131 58.6993C39.1921 58.6993 39.1711 58.6993 39.1501 58.6993C39.1292 58.6993 39.1082 58.6993 39.0873 58.6993C39.0664 58.6993 39.0455 58.6993 39.0246 58.6993C39.0037 58.6993 38.9828 58.6993 38.962 58.6993C38.9412 58.6993 38.9203 58.6993 38.8995 58.6993C38.8787 58.6993 38.858 58.6993 38.8372 58.6993C38.8165 58.6993 38.7957 58.6993 38.775 58.6993C38.7543 58.6993 38.7336 58.6993 38.7129 58.6993C38.6922 58.6993 38.6716 58.6993 38.651 58.6993C38.6303 58.6993 38.6097 58.6993 38.5891 58.6993C38.5685 58.6993 38.548 58.6993 38.5274 58.6993C38.5069 58.6993 38.4864 58.6993 38.4659 58.6993C38.4454 58.6993 38.4249 58.6993 38.4044 58.6993C38.384 58.6993 38.3636 58.6993 38.3431 58.6993C38.3227 58.6993 38.3023 58.6993 38.282 58.6993C38.2616 58.6993 38.2413 58.6993 38.221 58.6993C38.2006 58.6993 38.1803 58.6993 38.1601 58.6993C38.1398 58.6993 38.1195 58.6993 38.0993 58.6993C38.0791 58.6993 38.0589 58.6993 38.0387 58.6993C38.0185 58.6993 37.9984 58.6993 37.9782 58.6993C37.9581 58.6993 37.938 58.6993 37.9179 58.6993C37.8978 58.6993 37.8778 58.6993 37.8577 58.6993C37.8377 58.6993 37.8177 58.6993 37.7977 58.6993C37.7777 58.6993 37.7578 58.6993 37.7378 58.6993C37.7179 58.6993 37.698 58.6993 37.6781 58.6993C37.6582 58.6993 37.6383 58.6993 37.6185 58.6993C37.5986 58.6993 37.5788 58.6993 37.559 58.6993C37.5393 58.6993 37.5195 58.6993 37.4998 58.6993C37.48 58.6993 37.4603 58.6993 37.4406 58.6993C37.4209 58.6993 37.4013 58.6993 37.3816 58.6993C37.362 58.6993 37.3424 58.6993 37.3228 58.6993C37.3032 58.6993 37.2837 58.6993 37.2641 58.6993C37.2446 58.6993 37.2251 58.6993 37.2056 58.6993C37.1861 58.6993 37.1667 58.6993 37.1472 58.6993C37.1278 58.6993 37.1084 58.6993 37.089 58.6993C37.0697 58.6993 37.0503 58.6993 37.031 58.6993C37.0117 58.6993 36.9924 58.6993 36.9731 58.6993C36.9539 58.6993 36.9346 58.6993 36.9154 58.6993C36.8962 58.6993 36.877 58.6993 36.8579 58.6993C36.8387 58.6993 36.8196 58.6993 36.8005 58.6993C36.7814 58.6993 36.7623 58.6993 36.7433 58.6993C36.7242 58.6993 36.7052 58.6993 36.6862 58.6993C36.6672 58.6993 36.6483 58.6993 36.6293 58.6993C36.6104 58.6993 36.5915 58.6993 36.5726 58.6993C36.5538 58.6993 36.5349 58.6993 36.5161 58.6993C36.4973 58.6993 36.4785 58.6993 36.4597 58.6993C36.441 58.6993 36.4223 58.6993 36.4035 58.6993C36.3848 58.6993 36.3662 58.6993 36.3475 58.6993C36.3289 58.6993 36.3103 58.6993 36.2917 58.6993C36.2731 58.6993 36.2546 58.6993 36.236 58.6993C36.2175 58.6993 36.199 58.6993 36.1806 58.6993C36.1621 58.6993 36.1437 58.6993 36.1253 58.6993C36.1069 58.6993 36.0885 58.6993 36.0701 58.6993C36.0518 58.6993 36.0335 58.6993 36.0152 58.6993C35.9969 58.6993 35.9787 58.6993 35.9605 58.6993C35.9422 58.6993 35.9241 58.6993 35.9059 58.6993C35.8877 58.6993 35.8696 58.6993 35.8515 58.6993C35.8334 58.6993 35.8154 58.6993 35.7973 58.6993C35.7793 58.6993 35.7613 58.6993 35.7433 58.6993C35.7254 58.6993 35.7074 58.6993 35.6895 58.6993C35.6716 58.6993 35.6537 58.6993 35.6359 58.6993C35.618 58.6993 35.6002 58.6993 35.5825 58.6993C35.5647 58.6993 35.5469 58.6993 35.5292 58.6993C35.5115 58.6993 35.4938 58.6993 35.4762 58.6993C35.4585 58.6993 35.4409 58.6993 35.4233 58.6993C35.4058 58.6993 35.3882 58.6993 35.3707 58.6993C35.3532 58.6993 35.3357 58.6993 35.3182 58.6993C35.3008 58.6993 35.2834 58.6993 35.266 58.6993C35.2486 58.6993 35.2313 58.6993 35.2139 58.6993C35.1966 58.6993 35.1793 58.6993 35.1621 58.6993C35.1449 58.6993 35.1276 58.6993 35.1105 58.6993C35.0933 58.6993 35.0761 58.6993 35.059 58.6993C35.0419 58.6993 35.0248 58.6993 35.0078 58.6993C34.9907 58.6993 34.9737 58.6993 34.9568 58.6993C34.9398 58.6993 34.9229 58.6993 34.906 58.6993C34.889 58.6993 34.8722 58.6993 34.8553 58.6993C34.8385 58.6993 34.8217 58.6993 34.805 58.6993C34.7882 58.6993 34.7715 58.6993 34.7548 58.6993C34.7381 58.6993 34.7214 58.6993 34.7048 58.6993C34.6882 58.6993 34.6716 58.6993 34.655 58.6993C34.6385 58.6993 34.622 58.6993 34.6055 58.6993C34.589 58.6993 34.5726 58.6993 34.5562 58.6993C34.5398 58.6993 34.5234 58.6993 34.5071 58.6993C34.4907 58.6993 34.4744 58.6993 34.4582 58.6993C34.4419 58.6993 34.4257 58.6993 34.4095 58.6993C34.3933 58.6993 34.3772 58.6993 34.3611 58.6993C34.345 58.6993 34.3289 58.6993 34.3129 58.6993C34.2968 58.6993 34.2808 58.6993 34.2649 58.6993C34.2489 58.6993 34.233 58.6993 34.2171 58.6993C34.2012 58.6993 34.1853 58.6993 34.1695 58.6993C34.1537 58.6993 34.138 58.6993 34.1222 58.6993C34.1065 58.6993 34.0908 58.6993 34.0751 58.6993C34.0595 58.6993 34.0438 58.6993 34.0283 58.6993C34.0127 58.6993 33.9971 58.6993 33.9816 58.6993C33.9661 58.6993 33.9507 58.6993 33.9352 58.6993C33.9198 58.6993 33.9044 58.6993 33.8891 58.6993C33.8737 58.6993 33.8584 58.6993 33.8432 58.6993C33.8279 58.6993 33.8127 58.6993 33.7975 58.6993C33.7823 58.6993 33.7671 58.6993 33.752 58.6993C33.7369 58.6993 33.7218 58.6993 33.7068 58.6993C33.6918 58.6993 33.6768 58.6993 33.6618 58.6993C33.6469 58.6993 33.632 58.6993 33.6171 58.6993C33.6022 58.6993 33.5874 58.6993 33.5726 58.6993C33.5578 58.6993 33.5431 58.6993 33.5284 58.6993C33.5137 58.6993 33.499 58.6993 33.4844 58.6993C33.4697 58.6993 33.4552 58.6993 33.4406 58.6993C33.4261 58.6993 33.4116 58.6993 33.3971 58.6993C33.3826 58.6993 33.3682 58.6993 33.3538 58.6993C33.3395 58.6993 33.3251 58.6993 33.3108 58.6993C33.2965 58.6993 33.2823 58.6993 33.2681 58.6993C33.2539 58.6993 33.2397 58.6993 33.2256 58.6993C33.2114 58.6993 33.1973 58.6993 33.1833 58.6993C33.1693 58.6993 33.1553 58.6993 33.1413 58.6993C33.1273 58.6993 33.1134 58.6993 33.0996 58.6993C33.0857 58.6993 33.0719 58.6993 33.0581 58.6993C33.0443 58.6993 33.0305 58.6993 33.0168 58.6993C33.0031 58.6993 32.9895 58.6993 32.9759 58.6993C32.9623 58.6993 32.9487 58.6993 32.9352 58.6993C32.9216 58.6993 32.9082 58.6993 32.8947 58.6993C32.8813 58.6993 32.8679 58.6993 32.8545 58.6993C32.8412 58.6993 32.8279 58.6993 32.8146 58.6993C32.8014 58.6993 32.7881 58.6993 32.775 58.6993C32.7618 58.6993 32.7487 58.6993 32.7356 58.6993C32.7225 58.6993 32.7094 58.6993 32.6965 58.6993C32.6835 58.6993 32.6705 58.6993 32.6576 58.6993C32.6447 58.6993 32.6318 58.6993 32.619 58.6993C32.6062 58.6993 32.5934 58.6993 32.5807 58.6993C32.568 58.6993 32.5553 58.6993 32.5427 58.6993C32.53 58.6993 32.5175 58.6993 32.5049 58.6993C32.4924 58.6993 32.4799 58.6993 32.4674 58.6993C32.455 58.6993 32.4426 58.6993 32.4302 58.6993C32.4179 58.6993 32.4055 58.6993 32.3933 58.6993C32.381 58.6993 32.3688 58.6993 32.3566 58.6993C32.3445 58.6993 32.3323 58.6993 32.3203 58.6993C32.3082 58.6993 32.2961 58.6993 32.2842 58.6993C32.2722 58.6993 32.2602 58.6993 32.2483 58.6993C32.2365 58.6993 32.2246 58.6993 32.2128 58.6993C32.201 58.6993 32.1893 58.6993 32.1776 58.6993C32.1659 58.6993 32.1542 58.6993 32.1426 58.6993C32.131 58.6993 32.1195 58.6993 32.108 58.6993C32.0964 58.6993 32.085 58.6993 32.0736 58.6993C32.0622 58.6993 32.0508 58.6993 32.0395 58.6993C32.0282 58.6993 32.0169 58.6993 32.0057 58.6993C31.9945 58.6993 31.9833 58.6993 31.9722 58.6993C31.9611 58.6993 31.95 58.6993 31.939 58.6993C31.9279 58.6993 31.917 58.6993 31.906 58.6993C31.8951 58.6993 31.8842 58.6993 31.8734 58.6993C31.8626 58.6993 31.8518 58.6993 31.8411 58.6993C31.8304 58.6993 31.8197 58.6993 31.8091 58.6993C31.7984 58.6993 31.7879 58.6993 31.7773 58.6993C31.7668 58.6993 31.7563 58.6993 31.7459 58.6993C31.7355 58.6993 31.7251 58.6993 31.7148 58.6993C31.7045 58.6993 31.6942 58.6993 31.684 58.6993C31.6737 58.6993 31.6636 58.6993 31.6534 58.6993C31.6433 58.6993 31.6333 58.6993 31.6232 58.6993C31.6132 58.6993 31.6032 58.6993 31.5933 58.6993C31.5834 58.6993 31.5735 58.6993 31.5637 58.6993C31.5539 58.6993 31.5442 58.6993 31.5344 58.6993C31.5247 58.6993 31.5151 58.6993 31.5055 58.6993C31.4959 58.6993 31.4863 58.6993 31.4768 58.6993C31.4673 58.6993 31.4578 58.6993 31.4484 58.6993C31.439 58.6993 31.4297 58.6993 31.4204 58.6993C31.4111 58.6993 31.4019 58.6993 31.3927 58.6993C31.3835 58.6993 31.3744 58.6993 31.3653 58.6993C31.3562 58.6993 31.3472 58.6993 31.3382 58.6993C31.3292 58.6993 31.3203 58.6993 31.3114 58.6993C31.3025 58.6993 31.2937 58.6993 31.285 58.6993C31.2762 58.6993 31.2675 58.6993 31.2588 58.6993C31.2502 58.6993 31.2416 58.6993 31.233 58.6993C31.2245 58.6993 31.216 58.6993 31.2075 58.6993C31.1991 58.6993 31.1907 58.6993 31.1824 58.6993C31.174 58.6993 31.1658 58.6993 31.1575 58.6993C31.1493 58.6993 31.1412 58.6993 31.133 58.6993C31.1249 58.6993 31.1169 58.6993 31.1089 58.6993C31.1009 58.6993 31.0929 58.6993 31.085 58.6993C31.0771 58.6993 31.0693 58.6993 31.0615 58.6993C31.0537 58.6993 31.046 58.6993 31.0383 58.6993C31.0307 58.6993 31.023 58.6993 31.0155 58.6993C31.0079 58.6993 31.0004 58.6993 30.993 58.6993C30.9855 58.6993 30.9781 58.6993 30.9708 58.6993C30.9634 58.6993 30.9562 58.6993 30.9489 58.6993C30.9417 58.6993 30.9345 58.6993 30.9274 58.6993C30.9203 58.6993 30.9133 58.6993 30.9063 58.6993C30.8993 58.6993 30.8923 58.6993 30.8854 58.6993C30.8786 58.6993 30.8717 58.6993 30.865 58.6993C30.8582 58.6993 30.8515 58.6993 30.8448 58.6993C30.8382 58.6993 30.8316 58.6993 30.825 58.6993C30.8185 58.6993 30.812 58.6993 30.8056 58.6993C30.7992 58.6993 30.7928 58.6993 30.7865 58.6993C30.7802 58.6993 30.7739 58.6993 30.7677 58.6993C30.7615 58.6993 30.7554 58.6993 30.7493 58.6993C30.7433 58.6993 30.7372 58.6993 30.7313 58.6993C30.7253 58.6993 30.7194 58.6993 30.7136 58.6993C30.7077 58.6993 30.702 58.6993 30.6962 58.6993C30.6905 58.6993 30.6849 58.6993 30.6792 58.6993C30.6736 58.6993 30.6681 58.6993 30.6626 58.6993C30.6571 58.6993 30.6517 58.6993 30.6463 58.6993C30.641 58.6993 30.6357 58.6993 30.6304 58.6993C30.6252 58.6993 30.62 58.6993 30.6148 58.6993C30.6097 58.6993 30.6046 58.6993 30.5996 58.6993C30.5946 58.6993 30.5897 58.6993 30.5848 58.6993C30.5799 58.6993 30.5751 58.6993 30.5703 58.6993C30.5655 58.6993 30.5608 58.6993 30.5562 58.6993C30.5516 58.6993 30.547 58.6993 30.5424 58.6993C30.5379 58.6993 30.5335 58.6993 30.5291 58.6993C30.5247 58.6993 30.5203 58.6993 30.516 58.6993C30.5118 58.6993 30.5076 58.6993 30.5034 58.6993C30.4992 58.6993 30.4952 58.6993 30.4911 58.6993C30.4871 58.6993 30.4831 58.6993 30.4792 58.6993C30.4753 58.6993 30.4715 58.6993 30.4677 58.6993C30.4639 58.6993 30.4602 58.6993 30.4565 58.6993C30.4529 58.6993 30.4493 58.6993 30.4457 58.6993C30.4422 58.6993 30.4387 58.6993 30.4353 58.6993C30.4319 58.6993 30.4286 58.6993 30.4253 58.6993C30.422 58.6993 30.4188 58.6993 30.4156 58.6993C30.4125 58.6993 30.4094 58.6993 30.4064 58.6993C30.4033 58.6993 30.4004 58.6993 30.3975 58.6993C30.3946 58.6993 30.3917 58.6993 30.389 58.6993C30.3862 58.6993 30.3835 58.6993 30.3808 58.6993C30.3782 58.6993 30.3756 58.6993 30.3731 58.6993C30.3706 58.6993 30.3681 58.6993 30.3657 58.6993C30.3633 58.6993 30.361 58.6993 30.3588 58.6993C30.3565 58.6993 30.3543 58.6993 30.3522 58.6993C30.3501 58.6993 30.348 58.6993 30.346 58.6993C30.344 58.6993 30.3421 58.6993 30.3402 58.6993C30.3383 58.6993 30.3365 58.6993 30.3348 58.6993C30.333 58.6993 30.3314 58.6993 30.3298 58.6993C30.3282 58.6993 30.3266 58.6993 30.3251 58.6993C30.3237 58.6993 30.3223 58.6993 30.3209 58.6993C30.3196 58.6993 30.3183 58.6993 30.3171 58.6993C30.3159 58.6993 30.3147 58.6993 30.3137 58.6993C30.3126 58.6993 30.3116 58.6993 30.3106 58.6993C30.3097 58.6993 30.3088 58.6993 30.308 58.6993C30.3072 58.6993 30.3064 58.6993 30.3058 58.6993C30.3051 58.6993 30.3045 58.6993 30.3039 58.6993C30.3034 58.6993 30.3029 58.6993 30.3025 58.6993C30.3021 58.6993 30.3018 58.6993 30.3015 58.6993C30.3012 58.6993 30.301 58.6993 30.3009 58.6993C30.3007 58.6993 30.3007 58.6993 30.3007 57.1993ZM57.5 36.1667H57.4533V33.1667H57.5V36.1667ZM29.5 36.1667H29.4533V33.1667H29.5V36.1667Z" fill="url(#paint0_linear_9271_9364)"/>
<defs>
<linearGradient id="paint0_linear_9271_9364" x1="100.87" y1="-13.3702" x2="-22.1997" y2="-4.29307" gradientUnits="userSpaceOnUse">
<stop stop-color="#FF92E1"/>
<stop offset="1" stop-color="#FDC300"/>
</linearGradient>
</defs>
</svg>
