<svg width="24" height="24" viewBox="0 0 24 24" fill="none" xmlns="http://www.w3.org/2000/svg">
<rect width="24" height="24" rx="12" fill="#7F5AF0"/>
<path d="M6 14.6665L9.43934 11.6093C10.0251 11.0886 10.9749 11.0886 11.5607 11.6093L15 14.6665M13.5 13.3332L14.6893 12.276C15.2751 11.7553 16.2249 11.7553 16.8107 12.276L18 13.3332M13.5 9.33317H13.5075M7.5 17.3332H16.5C17.3284 17.3332 18 16.7362 18 15.9998V7.99984C18 7.26346 17.3284 6.6665 16.5 6.6665H7.5C6.67157 6.6665 6 7.26346 6 7.99984V15.9998C6 16.7362 6.67157 17.3332 7.5 17.3332Z" stroke="white" stroke-linecap="round" stroke-linejoin="round"/>
</svg>
