<svg width="18" height="23" viewBox="0 0 18 23" fill="none" xmlns="http://www.w3.org/2000/svg">
<path fill-rule="evenodd" clip-rule="evenodd" d="M6.2801 0.75C6.817 0.75 7.2523 1.18754 7.2523 1.72727V4.15699V4.28975C7.2525 5.87141 7.2526 6.84081 7.0141 7.78078C6.8021 8.61629 6.4129 9.38392 5.79815 10.5241C6.6411 10.6429 7.6447 11.1879 8.7501 11.8183C10.4824 12.8062 11.7346 12.5843 12.5066 12.0106L12.0053 11.0851L11.942 10.9682C11.1867 9.574 10.7243 8.72031 10.4859 7.78078C10.2474 6.84081 10.2475 5.87141 10.2477 4.28976V4.15699V1.72727C10.2477 1.18754 10.683 0.75 11.2199 0.75C11.7568 0.75 12.1921 1.18754 12.1921 1.72727V4.15699C12.1921 5.9127 12.199 6.62385 12.37 7.29773C12.5411 7.97209 12.875 8.60299 13.7131 10.1505L14.8592 12.2667C15.8634 14.121 16.6709 15.6119 17.1088 16.8176C17.5569 18.0512 17.7167 19.2475 17.0617 20.3404L17.0595 20.344L17.0464 20.3658L17.0441 20.3695C16.383 21.4511 15.2522 21.8721 13.9489 22.0629C12.6706 22.25 10.963 22.25 8.8337 22.25H8.6663C6.5371 22.25 4.82941 22.25 3.55108 22.0629C2.24775 21.8721 1.117 21.4511 0.455853 20.3695L0.453633 20.3658L0.440454 20.344L0.438273 20.3404C-0.216747 19.2475 -0.0568766 18.0512 0.391173 16.8176C0.829083 15.6118 1.63656 14.1209 2.6408 12.2667L3.78687 10.1505C4.62501 8.60299 4.95887 7.97209 5.12998 7.29773C5.30096 6.62385 5.30786 5.9127 5.30786 4.15699V1.72727C5.30786 1.18754 5.74313 0.75 6.2801 0.75ZM4.78429 15.7614C4.642 15.2279 4.95713 14.6796 5.48816 14.5366L5.4968 14.5343C6.02783 14.3914 6.5737 14.7079 6.716 15.2414C6.8582 15.7749 6.5431 16.3232 6.01208 16.4662L6.00344 16.4685C5.47241 16.6114 4.92658 16.2948 4.78429 15.7614ZM11.488 16.5366C10.957 16.6796 10.6419 17.2279 10.7841 17.7614C10.9264 18.2948 11.4723 18.6114 12.0033 18.4685L12.0119 18.4662C12.543 18.3232 12.8581 17.7749 12.7158 17.2414C12.5735 16.7079 12.0277 16.3914 11.4967 16.5343L11.488 16.5366Z" fill="#3D3B39"/>
<path fill-rule="evenodd" clip-rule="evenodd" d="M3.80005 1.34379C3.80005 0.768499 4.26568 0.302124 4.84005 0.302124H13.16C13.7344 0.302124 14.2 0.768499 14.2 1.34379C14.2 1.91908 13.7344 2.38546 13.16 2.38546H4.84005C4.26568 2.38546 3.80005 1.91908 3.80005 1.34379Z" fill="#3D3B39"/>
</svg>
