<svg width="24" height="24" viewBox="0 0 24 24" fill="none" xmlns="http://www.w3.org/2000/svg">
<rect width="24" height="24" rx="12" fill="#FF92DE"/>
<path d="M6.66602 8.00008C6.66602 7.2637 7.26297 6.66675 7.99935 6.66675H9.33268C10.0691 6.66675 10.666 7.2637 10.666 8.00008V9.33341C10.666 10.0698 10.0691 10.6667 9.33268 10.6667H7.99935C7.26297 10.6667 6.66602 10.0698 6.66602 9.33341V8.00008Z" stroke="white" stroke-linecap="round" stroke-linejoin="round"/>
<path d="M13.3327 8.00008C13.3327 7.2637 13.9296 6.66675 14.666 6.66675H15.9993C16.7357 6.66675 17.3327 7.2637 17.3327 8.00008V9.33341C17.3327 10.0698 16.7357 10.6667 15.9993 10.6667H14.666C13.9296 10.6667 13.3327 10.0698 13.3327 9.33341V8.00008Z" stroke="white" stroke-linecap="round" stroke-linejoin="round"/>
<path d="M6.66602 14.6667C6.66602 13.9304 7.26297 13.3334 7.99935 13.3334H9.33268C10.0691 13.3334 10.666 13.9304 10.666 14.6667V16.0001C10.666 16.7365 10.0691 17.3334 9.33268 17.3334H7.99935C7.26297 17.3334 6.66602 16.7365 6.66602 16.0001V14.6667Z" stroke="white" stroke-linecap="round" stroke-linejoin="round"/>
<path d="M13.3327 14.6667C13.3327 13.9304 13.9296 13.3334 14.666 13.3334H15.9993C16.7357 13.3334 17.3327 13.9304 17.3327 14.6667V16.0001C17.3327 16.7365 16.7357 17.3334 15.9993 17.3334H14.666C13.9296 17.3334 13.3327 16.7365 13.3327 16.0001V14.6667Z" stroke="white" stroke-linecap="round" stroke-linejoin="round"/>
</svg>
