<svg width="99" height="28" viewBox="0 0 99 28" fill="currentColor" xmlns="http://www.w3.org/2000/svg">
<g clip-path="url(#clip0_3401_96336)">
<path d="M9.60116 0C5.77998 0 2.68756 3.10896 2.68756 6.95057V9.55559C1.34571 9.79981 0 10.1254 0 10.548V24.1429C0 24.1429 0 24.5189 0.420292 24.6972C1.94337 25.3175 7.93542 27.4495 9.31197 27.938C9.48934 28.0039 9.53947 28.0039 9.58574 28.0039C9.65129 28.0039 9.68214 28.0039 9.85951 27.938C11.2361 27.4495 17.2435 25.3175 18.7666 24.6972C19.1561 24.5344 19.1715 24.1584 19.1715 24.1584V10.548C19.1715 10.1254 17.8451 9.7843 16.4994 9.55559V6.95057C16.5186 3.10896 13.4069 0 9.60116 0ZM9.60116 3.32217C11.853 3.32217 13.2141 4.69057 13.2141 6.95445V9.21833C10.6885 9.04001 8.53308 9.04001 5.99205 9.21833V6.95445C5.99205 4.6867 7.35318 3.32217 9.60116 3.32217ZM9.58574 12.5521C12.7283 12.5521 15.3657 12.7963 15.3657 13.2344V21.7162C15.3657 21.848 15.3503 21.8635 15.2346 21.91C15.1228 21.9604 9.87493 23.8638 9.87493 23.8638C9.87493 23.8638 9.66286 23.9297 9.60116 23.9297C9.53561 23.9297 9.3274 23.8483 9.3274 23.8483C9.3274 23.8483 4.07953 21.9449 3.96771 21.8945C3.85589 21.8441 3.83661 21.8286 3.83661 21.7007V13.2189C3.80576 12.7808 6.44319 12.5521 9.58574 12.5521Z" fill="currentColor"/>
<path d="M28.0891 21.8322V12.5439H24.7134V9.21313H35.2385V12.5439H31.896V21.8322H28.0891Z" fill="currentColor"/>
<path d="M43.7664 21.8319L42.0343 17.8639H40.656V21.8319H36.8491V9.21277H43.5489C46.4898 9.21277 48.0671 11.1727 48.0671 13.5365C48.0671 15.715 46.8141 16.8672 45.808 17.3637L48.0818 21.8282H43.7664V21.8319ZM44.216 13.5365C44.216 12.851 43.6116 12.5546 42.9777 12.5546H40.656V14.5479H42.9777C43.6116 14.5331 44.216 14.2367 44.216 13.5365Z" fill="currentColor"/>
<path d="M50.0645 21.8319V9.21277H59.5835V12.5435H53.8566V13.7884H59.4435V17.1192H53.8566V18.5048H59.5835V21.8319H50.0645Z" fill="currentColor"/>
<path d="M61.5625 21.8467V18.8123L66.346 12.5583H61.5625V9.22754H71.358V12.2323L66.5597 18.5196H71.498V21.8504L61.5625 21.8467Z" fill="currentColor"/>
<path d="M72.4263 15.5445C72.4263 11.6691 75.415 9.00891 79.2993 9.00891C83.1688 9.00891 86.1723 11.6543 86.1723 15.5445C86.1723 19.4199 83.1836 22.0652 79.2993 22.0652C75.415 22.0652 72.4263 19.4199 72.4263 15.5445ZM82.3028 15.5445C82.3028 13.7846 81.1125 12.3841 79.2846 12.3841C77.4567 12.3841 76.2663 13.7846 76.2663 15.5445C76.2663 17.3043 77.4567 18.7048 79.2846 18.7048C81.1272 18.7048 82.3028 17.3043 82.3028 15.5445Z" fill="currentColor"/>
<path d="M94.6819 21.8467L92.9498 17.8786H91.5715V21.8467H87.7646V9.22754H94.4645C97.4053 9.22754 98.9826 11.1875 98.9826 13.5512C98.9826 15.7298 97.7296 16.882 96.7236 17.3785L98.9974 21.843H94.6819V21.8467ZM95.1463 13.5364C95.1463 12.851 94.5419 12.5546 93.908 12.5546H91.5863V14.5479H93.908C94.5456 14.5331 95.1463 14.2367 95.1463 13.5364Z" fill="currentColor"/>
</g>
<defs>
<clipPath id="clip0_3401_96336">
<rect width="99" height="28" fill="currentColor"/>
</clipPath>
</defs>
</svg>
