<svg width="282" height="56" viewBox="0 0 282 56" fill="none" xmlns="http://www.w3.org/2000/svg">
<path d="M0.32 2.16V54H18.32V2.16H0.32ZM64.3364 2.16L43.1684 21.672V2.16H25.1684V54H43.1684V43.272L53.9684 33.984L68.9444 54H90.8324L66.7124 22.968L90.8324 2.16H64.3364ZM95.5794 2.16V54H113.579V2.16H95.5794ZM119.005 28.008C119.005 46.296 132.829 55.44 152.845 55.44C162.637 55.44 171.637 54.072 182.149 48.24V25.128H151.621V35.928H167.749V39.024C163.789 40.68 159.757 41.76 153.925 41.76C141.109 41.76 137.725 36.288 137.725 28.728C137.725 21.168 141.829 15.84 151.693 15.84C159.325 15.84 162.277 18.936 162.997 21.168H182.149C181.357 9.216 169.405 0.719999 151.549 0.719999C132.829 0.719999 119.005 9.792 119.005 28.008ZM259.946 54L235.106 2.16H209.474L184.634 54H203.786L208.034 44.928H236.546L240.794 54H259.946ZM222.29 14.544L230.498 31.968H214.082L222.29 14.544ZM263.922 2.16V54H281.922V2.16H263.922Z" fill="#111827"/>
</svg>
