<svg width="24" height="18" viewBox="0 0 24 18" fill="none" xmlns="http://www.w3.org/2000/svg">
<path d="M23.4984 2.96285C23.3628 2.44518 23.0954 1.97272 22.723 1.59279C22.3506 1.21286 21.8862 0.938804 21.3765 0.798056C19.5053 0.285706 12.0002 0.285706 12.0002 0.285706C12.0002 0.285706 4.49507 0.285705 2.62355 0.797735C2.11377 0.938452 1.64942 1.2125 1.277 1.59244C0.904581 1.97237 0.637174 2.44484 0.501566 2.96253C2.41886e-07 4.87147 0 8.85713 0 8.85713C0 8.85713 2.41886e-07 12.8428 0.501566 14.7517C0.637214 15.2694 0.904628 15.7419 1.27704 16.1219C1.64944 16.5019 2.11378 16.776 2.62355 16.9169C4.49507 17.4286 12.0002 17.4286 12.0002 17.4286C12.0002 17.4286 19.5049 17.4286 21.3765 16.9169C21.8863 16.7761 22.3507 16.502 22.7231 16.1221C23.0955 15.7421 23.3629 15.2695 23.4984 14.7517C24 12.8428 24 8.85713 24 8.85713C24 8.85713 24 4.87147 23.4984 2.96285ZM9.5456 12.4751V5.2395L15.8183 8.85713L9.5456 12.4751Z" fill="currentColor"/>
</svg>
