<svg width="24" height="24" viewBox="0 0 24 24" fill="none" xmlns="http://www.w3.org/2000/svg">
<path d="M19.7071 14.7071C20.0976 14.3166 20.0976 13.6834 19.7071 13.2929C19.3166 12.9024 18.6834 12.9024 18.2929 13.2929L19.7071 14.7071ZM12 21L11.2929 21.7071C11.4804 21.8946 11.7348 22 12 22C12.2652 22 12.5196 21.8946 12.7071 21.7071L12 21ZM5.70711 13.2929C5.31658 12.9024 4.68342 12.9024 4.29289 13.2929C3.90237 13.6834 3.90237 14.3166 4.29289 14.7071L5.70711 13.2929ZM13 3C13 2.44772 12.5523 2 12 2C11.4477 2 11 2.44772 11 3L13 3ZM18.2929 13.2929L11.2929 20.2929L12.7071 21.7071L19.7071 14.7071L18.2929 13.2929ZM12.7071 20.2929L5.70711 13.2929L4.29289 14.7071L11.2929 21.7071L12.7071 20.2929ZM13 21L13 3L11 3L11 21H13Z" fill="url(#paint0_linear_6_16)"/>
<defs>
<linearGradient id="paint0_linear_6_16" x1="2.4383" y1="-0.293613" x2="22.9939" y2="0.885571" gradientUnits="userSpaceOnUse">
<stop stop-color="#FF92E1"/>
<stop offset="1" stop-color="#FDC300"/>
</linearGradient>
</defs>
</svg>
