<svg width="40" height="40" viewBox="0 0 40 40" fill="none" xmlns="http://www.w3.org/2000/svg">
  <path d="M27.6313 12.6746C27.9779 12.6746 28.2615 12.9103 28.2615 13.1984V29.9603C28.2615 33.7143 24.5853 36.7698 20.0688 36.7698C15.5523 36.7698 11.8761 33.7143 11.8761 29.9603V13.1984C11.8761 12.9103 12.1597 12.6746 12.5063 12.6746H27.6313ZM27.6313 12.5H12.5063C12.042 12.5 11.666 12.8125 11.666 13.1984V29.9603C11.666 33.8173 15.4284 36.9444 20.0688 36.9444C24.7092 36.9444 28.4716 33.8173 28.4716 29.9603V13.1984C28.4716 12.8125 28.0955 12.5 27.6313 12.5Z" stroke="url(#paint0_linear_27493_2979)" stroke-width="2"/>
  <path d="M24.3477 3.55659C24.7888 3.55659 25.1497 3.85841 25.1497 4.22732V12.2761H14.99V4.22732C14.99 3.85841 15.351 3.55659 15.7921 3.55659H24.3477ZM24.3477 3.33301H15.7921C15.2012 3.33301 14.7227 3.73321 14.7227 4.22732V12.4997H25.4171V4.22732C25.4171 3.73321 24.9385 3.33301 24.3477 3.33301Z" stroke="url(#paint1_linear_27493_2979)" stroke-width="2"/>
  <rect x="18.7773" y="18.083" width="2.58333" height="11.75" rx="1.29167" stroke="url(#paint2_linear_27493_2979)" stroke-width="2"/>
  <defs>
    <linearGradient id="paint0_linear_27493_2979" x1="8.59096" y1="8.02719" x2="33.2835" y2="9.27928" gradientUnits="userSpaceOnUse">
      <stop stop-color="#FF92E1"/>
      <stop offset="1" stop-color="#FDC300"/>
    </linearGradient>
    <linearGradient id="paint1_linear_27493_2979" x1="12.7658" y1="1.65571" x2="28.4039" y2="3.00134" gradientUnits="userSpaceOnUse">
      <stop stop-color="#FF92E1"/>
      <stop offset="1" stop-color="#FDC300"/>
    </linearGradient>
    <linearGradient id="paint2_linear_27493_2979" x1="16.9387" y1="14.5671" x2="23.6863" y2="14.7329" gradientUnits="userSpaceOnUse">
      <stop stop-color="#FF92E1"/>
      <stop offset="1" stop-color="#FDC300"/>
    </linearGradient>
  </defs>
</svg>
