<svg width="20" height="20" viewBox="0 0 20 20" fill="none" xmlns="http://www.w3.org/2000/svg">
<path fill-rule="evenodd" clip-rule="evenodd" d="M13 1.75C10.1005 1.75 7.75 4.10051 7.75 7C7.75 7.53166 7.82879 8.04357 7.97483 8.52538C8.05508 8.79016 7.98304 9.07762 7.7874 9.27326L1.82322 15.2374C1.77634 15.2843 1.75 15.3479 1.75 15.4142V18C1.75 18.1381 1.86193 18.25 2 18.25H4.25V17C4.25 16.5858 4.58579 16.25 5 16.25H6.25V15C6.25 14.5858 6.58579 14.25 7 14.25H8.68934L10.7267 12.2126C10.9224 12.017 11.2098 11.9449 11.4746 12.0252C11.9564 12.1712 12.4683 12.25 13 12.25C15.8995 12.25 18.25 9.8995 18.25 7C18.25 4.10051 15.8995 1.75 13 1.75ZM6.25 7C6.25 3.27208 9.27208 0.25 13 0.25C16.7279 0.25 19.75 3.27208 19.75 7C19.75 10.7279 16.7279 13.75 13 13.75C12.4788 13.75 11.9706 13.6908 11.4822 13.5785L9.53033 15.5303C9.38968 15.671 9.19891 15.75 9 15.75H7.75V17C7.75 17.4142 7.41421 17.75 7 17.75H5.75V19C5.75 19.4142 5.41421 19.75 5 19.75H2C1.0335 19.75 0.25 18.9665 0.25 18V15.4142C0.25 14.9501 0.434374 14.505 0.762562 14.1768L6.4215 8.51783C6.30921 8.02938 6.25 7.52121 6.25 7ZM12.25 5C12.25 4.58579 12.5858 4.25 13 4.25C14.5188 4.25 15.75 5.48122 15.75 7C15.75 7.41421 15.4142 7.75 15 7.75C14.5858 7.75 14.25 7.41421 14.25 7C14.25 6.30964 13.6904 5.75 13 5.75C12.5858 5.75 12.25 5.41421 12.25 5Z" fill="url(#paint0_linear_1_8)"/>
<defs>
<linearGradient id="paint0_linear_1_8" x1="-3.31809" y1="-3.31808" x2="25.2517" y2="-1.21089" gradientUnits="userSpaceOnUse">
<stop stop-color="#FF92E1"/>
<stop offset="1" stop-color="#FDC300"/>
</linearGradient>
</defs>
</svg>
