<svg width="18" height="18" viewBox="0 0 18 18" fill="none" xmlns="http://www.w3.org/2000/svg">
<path fill-rule="evenodd" clip-rule="evenodd" d="M9 0.25C9.41421 0.25 9.75 0.585786 9.75 1V8.25H17C17.4142 8.25 17.75 8.58578 17.75 9C17.75 9.41421 17.4142 9.75 17 9.75H9.75V17C9.75 17.4142 9.41421 17.75 9 17.75C8.58578 17.75 8.25 17.4142 8.25 17V9.75H1C0.585786 9.75 0.25 9.41421 0.25 9C0.25 8.58578 0.585786 8.25 1 8.25H8.25V1C8.25 0.585786 8.58578 0.25 9 0.25Z" fill="url(#paint0_linear_1_6)"/>
<defs>
<linearGradient id="paint0_linear_1_6" x1="-2.95213" y1="-2.95212" x2="22.6874" y2="-1.06106" gradientUnits="userSpaceOnUse">
<stop stop-color="#FF92E1"/>
<stop offset="1" stop-color="#FDC300"/>
</linearGradient>
</defs>
</svg>
