<svg width="1191" height="1212" viewBox="0 0 1191 1212" fill="none" xmlns="http://www.w3.org/2000/svg">
<g filter="url(#filter0_i_1369_164295)">
<path d="M2.5178 381.381C-19.0875 149.237 105.457 111.959 105.457 111.959C260.078 63.9486 603.55 -3.26569 715.047 0.123273C854.417 4.35947 991.017 130.348 1102.66 239.892C1215.34 350.457 1213.65 730.867 1128.92 950.303C1063.95 1118.58 827.431 1319.83 747.665 1143.9C628.204 880.405 343.955 1076.12 229.155 950.303C97.1811 805.667 292.464 697.139 168.153 601.664C85.971 538.544 16.1292 527.632 2.5178 381.381Z" fill="#FFC72E"/>
</g>
<g filter="url(#filter1_i_1369_164295)">
<path d="M68.6023 376.298C50.2336 173.538 217.293 147.967 217.293 147.967C352.603 105.645 613.508 52.7078 711.079 55.6952C833.043 59.4295 952.581 170.491 1050.28 267.056C1148.89 364.521 1147.41 699.86 1073.26 893.296C1016.41 1041.63 809.427 1219.04 739.624 1063.95C635.083 831.68 386.335 1004.2 285.873 893.296C170.383 765.797 343.807 667.025 232.491 585.964C135.958 515.669 79.6165 497.877 68.6023 376.298Z" fill="#FC6133"/>
</g>
<g filter="url(#filter2_i_1369_164295)">
<path d="M138.076 375.45C138.076 183.127 343.955 175.925 343.955 175.925C343.955 175.925 644.264 133.678 727.702 136.214C831.998 139.384 934.221 233.667 1017.77 315.643C1102.09 398.383 1100.82 683.059 1037.42 847.271C988.802 973.197 811.803 1123.81 752.111 992.146C662.714 794.964 449.999 941.424 364.089 847.271C265.328 739.034 398.643 671.964 318.439 586.371C255.761 519.481 138.076 481.355 138.076 375.45Z" fill="#702BED"/>
</g>
<defs>
<filter id="filter0_i_1369_164295" x="0" y="0" width="1190.11" height="1226" filterUnits="userSpaceOnUse" color-interpolation-filters="sRGB">
<feFlood flood-opacity="0" result="BackgroundImageFix"/>
<feBlend mode="normal" in="SourceGraphic" in2="BackgroundImageFix" result="shape"/>
<feColorMatrix in="SourceAlpha" type="matrix" values="0 0 0 0 0 0 0 0 0 0 0 0 0 0 0 0 0 0 127 0" result="hardAlpha"/>
<feOffset dy="14"/>
<feGaussianBlur stdDeviation="10"/>
<feComposite in2="hardAlpha" operator="arithmetic" k2="-1" k3="1"/>
<feColorMatrix type="matrix" values="0 0 0 0 0 0 0 0 0 0 0 0 0 0 0 0 0 0 0.2 0"/>
<feBlend mode="normal" in2="shape" result="effect1_innerShadow_1369_164295"/>
</filter>
<filter id="filter1_i_1369_164295" x="67.1914" y="55.5742" width="1059.61" height="1068.41" filterUnits="userSpaceOnUse" color-interpolation-filters="sRGB">
<feFlood flood-opacity="0" result="BackgroundImageFix"/>
<feBlend mode="normal" in="SourceGraphic" in2="BackgroundImageFix" result="shape"/>
<feColorMatrix in="SourceAlpha" type="matrix" values="0 0 0 0 0 0 0 0 0 0 0 0 0 0 0 0 0 0 127 0" result="hardAlpha"/>
<feOffset/>
<feGaussianBlur stdDeviation="10"/>
<feComposite in2="hardAlpha" operator="arithmetic" k2="-1" k3="1"/>
<feColorMatrix type="matrix" values="0 0 0 0 0 0 0 0 0 0 0 0 0 0 0 0 0 0 0.2 0"/>
<feBlend mode="normal" in2="shape" result="effect1_innerShadow_1369_164295"/>
</filter>
<filter id="filter2_i_1369_164295" x="138.076" y="136.104" width="945.131" height="907.006" filterUnits="userSpaceOnUse" color-interpolation-filters="sRGB">
<feFlood flood-opacity="0" result="BackgroundImageFix"/>
<feBlend mode="normal" in="SourceGraphic" in2="BackgroundImageFix" result="shape"/>
<feColorMatrix in="SourceAlpha" type="matrix" values="0 0 0 0 0 0 0 0 0 0 0 0 0 0 0 0 0 0 127 0" result="hardAlpha"/>
<feOffset/>
<feGaussianBlur stdDeviation="10"/>
<feComposite in2="hardAlpha" operator="arithmetic" k2="-1" k3="1"/>
<feColorMatrix type="matrix" values="0 0 0 0 0 0 0 0 0 0 0 0 0 0 0 0 0 0 0.2 0"/>
<feBlend mode="normal" in2="shape" result="effect1_innerShadow_1369_164295"/>
</filter>
</defs>
</svg>
