<svg width="18" height="20" viewBox="0 0 18 20" fill="none" xmlns="http://www.w3.org/2000/svg">
<path fill-rule="evenodd" clip-rule="evenodd" d="M4.25 5C4.25 2.37665 6.37665 0.25 9 0.25C11.6234 0.25 13.75 2.37665 13.75 5C13.75 5.41421 13.4142 5.75 13 5.75C12.5858 5.75 12.25 5.41421 12.25 5C12.25 3.20507 10.7949 1.75 9 1.75C7.20507 1.75 5.75 3.20507 5.75 5V8.25H15C16.5188 8.25 17.75 9.48122 17.75 11V17C17.75 18.5188 16.5188 19.75 15 19.75H3C1.48122 19.75 0.25 18.5188 0.25 17V11C0.25 9.48122 1.48122 8.25 3 8.25H4.25V5ZM3 9.75C2.30964 9.75 1.75 10.3096 1.75 11V17C1.75 17.6904 2.30964 18.25 3 18.25H15C15.6904 18.25 16.25 17.6904 16.25 17V11C16.25 10.3096 15.6904 9.75 15 9.75H3ZM9 12.25C9.41421 12.25 9.75 12.5858 9.75 13V15C9.75 15.4142 9.41421 15.75 9 15.75C8.58578 15.75 8.25 15.4142 8.25 15V13C8.25 12.5858 8.58578 12.25 9 12.25Z" fill="url(#paint0_linear_1_7)"/>
<defs>
<linearGradient id="paint0_linear_1_7" x1="-2.95213" y1="-3.31808" x2="22.7145" y2="-1.61918" gradientUnits="userSpaceOnUse">
<stop stop-color="#FF92E1"/>
<stop offset="1" stop-color="#FDC300"/>
</linearGradient>
</defs>
</svg>
