<svg width="17" height="16" viewBox="0 0 17 16" fill="none" xmlns="http://www.w3.org/2000/svg">
  <path d="M3.01378 7.06902C2.93361 7.2761 2.86439 7.48736 2.80641 7.70192C2.55054 8.64829 2.50698 9.6408 2.67892 10.6065C2.68706 10.6545 2.69618 10.7028 2.70629 10.7503C2.74279 10.933 2.78767 11.1156 2.83969 11.2942C2.89789 11.4943 2.96718 11.6944 3.04584 11.8888C3.57537 13.2082 4.51756 14.3145 5.72744 15.0375C6.01106 15.2073 6.30748 15.3541 6.6139 15.4766C7.76646 15.9389 9.02623 16.0533 10.2414 15.8058C11.4565 15.5583 12.5752 14.9595 13.4625 14.0817C14.0207 13.5296 14.4736 12.8778 14.7985 12.159C14.7431 12.2183 14.6864 12.2767 14.6284 12.3341C13.6895 13.2692 12.5067 13.9125 11.2193 14.1883C11.1612 14.2173 11.102 14.244 11.0423 14.2706C10.1323 14.6705 9.12829 14.7974 8.14935 14.6362C7.1704 14.475 6.25751 14.0326 5.51883 13.3612C5.43466 13.2848 5.35247 13.2051 5.27224 13.1221L5.23624 13.0838C4.51006 12.3184 4.03068 11.347 3.86178 10.2986C3.8465 10.2047 3.83367 10.1097 3.82307 10.0149C3.80298 9.82586 3.79277 9.63589 3.79249 9.44577C3.78849 8.41147 4.08629 7.3991 4.64839 6.53619C4.78981 6.31804 4.94743 6.11114 5.11985 5.9173C5.19235 5.8355 5.2678 5.75395 5.34794 5.67565C6.29928 4.72689 7.57565 4.18847 8.9096 4.1732C8.93056 4.1732 8.95423 4.1732 8.97815 4.1732H9.03314C9.24975 4.17483 9.46603 4.19054 9.68067 4.22023C10.5847 4.3426 11.4402 4.70707 12.1593 5.27615C12.1287 5.16032 12.0935 5.04475 12.054 4.93093C12.0227 4.84087 11.9894 4.75282 11.9522 4.66576C11.7468 4.16739 11.4581 3.70877 11.0988 3.31016L11.0783 3.29415C10.7765 3.188 10.4671 3.10553 10.1529 3.04749C8.95407 2.82253 7.71694 2.94736 6.5853 3.40747C6.41269 3.47776 6.24452 3.55506 6.08572 3.63736C5.73512 3.81748 5.40178 4.03028 5.09002 4.27302L5.06191 4.29428C4.86468 4.45029 4.67616 4.61732 4.49723 4.79459C4.09799 5.19105 3.75172 5.63889 3.46725 6.12668C3.30421 6.40587 3.1625 6.69732 3.04337 6.99848L3.04017 7.06952L3.01378 7.06902ZM6.88219 2.13342C6.49616 2.13361 6.11095 2.16962 5.73138 2.24099C5.68207 2.24949 5.63275 2.25875 5.58491 2.27001C5.40737 2.30678 5.22884 2.35231 5.0518 2.40659C4.94848 2.43711 4.8459 2.47113 4.74406 2.50665C4.64222 2.54218 4.54852 2.5792 4.45186 2.61898C3.14794 3.1521 2.0564 4.11096 1.34984 5.34394C1.25983 5.49904 1.17427 5.66239 1.09536 5.82924C1.03298 5.96183 0.974289 6.09691 0.921274 6.232C0.320529 7.76264 0.315167 9.46761 0.906273 11.0021C1.49738 12.5366 2.64084 13.7861 4.10541 14.4979C4.135 14.5125 4.16459 14.5265 4.19418 14.5402C4.135 14.4832 4.07672 14.4248 4.01935 14.3651C3.09702 13.4111 2.46264 12.2095 2.19093 10.9019C2.16627 10.8577 2.13595 10.7901 2.1066 10.7203C2.05975 10.6115 2.01734 10.4997 1.97764 10.3859C1.75062 9.73375 1.6527 9.0426 1.68952 8.35203C1.72633 7.66145 1.89715 6.98504 2.19217 6.36158C2.29243 6.14919 2.40618 5.94363 2.5327 5.74619C2.67502 5.52509 2.83379 5.31535 3.00762 5.1188C3.09466 5.01873 3.18467 4.92467 3.27886 4.83337C3.45496 4.66106 3.64337 4.5022 3.84255 4.35807C4.14785 4.13677 4.47592 3.94973 4.82099 3.80022C5.62895 3.17621 6.56546 2.74547 7.56054 2.54017C7.92954 2.46233 8.3042 2.41523 8.68077 2.39934L8.59545 2.37432C8.03833 2.21451 7.46214 2.13345 6.88317 2.13342H6.88219ZM7.9711 13.5376C7.99847 13.5458 8.02584 13.5536 8.05321 13.5611C8.98551 13.8222 9.96372 13.8674 10.9156 13.6934L10.9402 13.6884C10.9824 13.6807 11.0253 13.6729 11.0677 13.6634C11.2428 13.6276 11.4154 13.5834 11.5991 13.5278C11.7828 13.4723 11.965 13.4095 12.1502 13.335L12.2126 13.421L12.1744 13.3247C12.9494 13.008 13.6551 12.5391 14.2511 11.9451C14.6509 11.548 14.9978 11.0997 15.283 10.6115C15.4481 10.3277 15.5913 10.0314 15.7114 9.72519C16.1748 8.55407 16.2924 7.27147 16.0499 6.03371C15.8073 4.79596 15.2151 3.65653 14.3453 2.75431C13.8029 2.19061 13.1631 1.73273 12.4577 1.40346C13.2479 2.16901 13.8482 3.11341 14.2097 4.15944C14.3106 4.45047 14.3929 4.74777 14.4563 5.0495C14.4792 5.09203 14.5093 5.15882 14.5374 5.22461C14.7014 5.61391 14.8184 6.02187 14.886 6.43963C14.9331 6.72477 14.9573 7.01331 14.9583 7.30242C14.9606 8.33405 14.6629 9.34344 14.1024 10.2042C13.9613 10.4226 13.8037 10.6294 13.6309 10.8229C13.5584 10.9049 13.483 10.9865 13.4028 11.0648L13.3661 11.1001C12.9172 11.5392 12.3935 11.8919 11.8203 12.141C11.2583 12.5692 10.6345 12.9067 9.9709 13.1416C9.3278 13.372 8.65486 13.5055 7.97357 13.5378L7.9711 13.5376ZM5.55458 12.637C5.85715 12.7454 6.16765 12.8296 6.48322 12.8887C7.30048 13.0458 8.14026 13.0378 8.95448 12.8652C9.23794 12.8052 9.51719 12.7263 9.79039 12.629C9.88656 12.595 9.98174 12.558 10.0747 12.5195C10.2382 12.4527 10.3975 12.3791 10.5491 12.3011C11.6486 11.7416 12.5644 10.8704 13.1854 9.79324C13.2744 9.64039 13.3599 9.47704 13.4401 9.30668C13.5 9.18035 13.5547 9.05227 13.606 8.92344L13.6134 8.90343C13.6994 8.68814 13.7735 8.46816 13.8354 8.24451C14.0999 7.30009 14.1452 6.30632 13.9675 5.34119V5.33818C13.9604 5.2914 13.951 5.24538 13.9411 5.1996C13.9059 5.02074 13.8603 4.83762 13.8058 4.6525C13.7752 4.54769 13.7424 4.44362 13.7071 4.33956C13.6738 4.24425 13.6391 4.15019 13.6013 4.05788C13.0797 2.73557 12.1395 1.62675 10.9286 0.905897C10.7656 0.808085 10.5982 0.717779 10.4315 0.637478C10.3082 0.577691 10.1849 0.521655 10.0587 0.470873C8.54813 -0.146473 6.86256 -0.15715 5.34453 0.441009C3.8265 1.03917 2.58994 2.20128 1.88616 3.69115C1.87309 3.71917 1.86002 3.74693 1.8472 3.77495C2.60257 2.97172 3.53468 2.36137 4.56726 1.99383C4.85203 1.89225 5.14273 1.80871 5.4377 1.74367C5.49933 1.71057 5.56262 1.68076 5.62732 1.65437C5.72892 1.61034 5.83347 1.56931 5.9395 1.53104C6.22894 1.42809 6.5266 1.35067 6.82917 1.29964C8.1175 1.08787 9.43723 1.37522 10.5265 2.10465C10.7402 2.24621 10.9428 2.40446 11.1323 2.57795C11.2267 2.66275 11.3185 2.75131 11.4068 2.84487C11.8394 3.30084 12.1867 3.83282 12.4318 4.41485C12.4779 4.52442 12.5203 4.63499 12.5598 4.74856C12.6612 5.03977 12.7373 5.33944 12.7871 5.64413C12.8034 5.73869 12.816 5.835 12.8266 5.93131C12.847 6.12047 12.8574 6.31062 12.8576 6.50092C12.8576 7.2876 12.6826 8.06412 12.3455 8.7726C12.2458 8.98489 12.1318 9.19 12.0045 9.38648C11.5375 10.1071 10.9036 10.7007 10.1583 11.1154C9.41288 11.53 8.57871 11.753 7.72871 11.765C7.47233 11.7686 7.21605 11.7525 6.96208 11.7167C6.42768 11.6419 5.90799 11.4833 5.42167 11.2464C5.09116 11.0858 4.77803 10.8907 4.48737 10.6643C4.68099 11.3998 5.04811 12.0764 5.55705 12.6358L5.55458 12.637ZM4.3409 9.81025C4.71979 10.2017 5.16346 10.5227 5.65173 10.7586C5.76023 10.8115 5.87037 10.8598 5.98216 10.9037C5.20028 10.0585 4.71681 8.97405 4.60745 7.82025C4.38055 8.45646 4.29034 9.13452 4.34287 9.809L4.3409 9.81025ZM10.6581 5.03224C11.4366 5.87676 11.9215 6.95634 12.039 8.10643C12.2656 7.47621 12.3564 6.80402 12.3053 6.13519L12.3036 6.13344C11.8394 5.65159 11.2791 5.27603 10.6601 5.03199L10.6581 5.03224Z" fill="url(#paint0_radial_13254_2111)"/>
  <defs>
    <radialGradient id="paint0_radial_13254_2111" cx="0" cy="0" r="1" gradientUnits="userSpaceOnUse" gradientTransform="translate(8.32076 7.96609) scale(7.85369 7.96751)">
      <stop stop-color="#FDC300"/>
      <stop offset="0.11" stop-color="#FDC205"/>
      <stop offset="0.25" stop-color="#FDBF13"/>
      <stop offset="0.39" stop-color="#FDB92B"/>
      <stop offset="0.54" stop-color="#FEB24C"/>
      <stop offset="0.7" stop-color="#FEA977"/>
      <stop offset="0.86" stop-color="#FF9DAA"/>
      <stop offset="1" stop-color="#FF92DE"/>
    </radialGradient>
  </defs>
</svg>
