<svg width="48" height="48" viewBox="0 0 48 48" fill="none" xmlns="http://www.w3.org/2000/svg">
<g clip-path="url(#clip0_3447_2055664)">
<rect width="48.0001" height="48" transform="translate(0 0.000244141)" fill="white"/>
<g filter="url(#filter0_d_3447_2055664)">
<rect y="0.000244141" width="48.0001" height="48" fill="#F9F9F9"/>
</g>
</g>
<path d="M18 26.6665L21.4393 23.6093C22.0251 23.0886 22.9749 23.0886 23.5607 23.6093L27 26.6665M25.5 25.3332L26.6893 24.276C27.2751 23.7553 28.2249 23.7553 28.8107 24.276L30 25.3332M25.5 21.3332H25.5075M19.5 29.3332H28.5C29.3284 29.3332 30 28.7362 30 27.9998V19.9998C30 19.2635 29.3284 18.6665 28.5 18.6665H19.5C18.6716 18.6665 18 19.2635 18 19.9998V27.9998C18 28.7362 18.6716 29.3332 19.5 29.3332Z" stroke="#C0C0C0" stroke-width="1.41667" stroke-linecap="round" stroke-linejoin="round"/>
<g clip-path="url(#clip1_3447_2055664)">
<rect x="26" y="25" width="9" height="9" rx="4.5" fill="#F9F9F9"/>
<path d="M29.75 30.25L30.5 29.5M30.5 29.5L31.25 28.75M30.5 29.5L29.75 28.75M30.5 29.5L31.25 30.25M33.875 29.5C33.875 31.364 32.364 32.875 30.5 32.875C28.636 32.875 27.125 31.364 27.125 29.5C27.125 27.636 28.636 26.125 30.5 26.125C32.364 26.125 33.875 27.636 33.875 29.5Z" stroke="#C0C0C0" stroke-width="0.833333" stroke-linecap="round" stroke-linejoin="round"/>
</g>
<defs>
<filter id="filter0_d_3447_2055664" x="-9.44044" y="-9.4402" width="66.8809" height="66.8809" filterUnits="userSpaceOnUse" color-interpolation-filters="sRGB">
<feFlood flood-opacity="0" result="BackgroundImageFix"/>
<feColorMatrix in="SourceAlpha" type="matrix" values="0 0 0 0 0 0 0 0 0 0 0 0 0 0 0 0 0 0 127 0" result="hardAlpha"/>
<feOffset/>
<feGaussianBlur stdDeviation="4.72022"/>
<feComposite in2="hardAlpha" operator="out"/>
<feColorMatrix type="matrix" values="0 0 0 0 0 0 0 0 0 0 0 0 0 0 0 0 0 0 0.1 0"/>
<feBlend mode="normal" in2="BackgroundImageFix" result="effect1_dropShadow_3447_2055664"/>
<feBlend mode="normal" in="SourceGraphic" in2="effect1_dropShadow_3447_2055664" result="shape"/>
</filter>
<clipPath id="clip0_3447_2055664">
<rect width="48.0001" height="48" fill="white" transform="translate(0 0.000244141)"/>
</clipPath>
<clipPath id="clip1_3447_2055664">
<rect x="26" y="25" width="9" height="9" rx="4.5" fill="white"/>
</clipPath>
</defs>
</svg>
