<svg width="25" height="24" viewBox="0 0 25 24" fill="none" xmlns="http://www.w3.org/2000/svg">
<g opacity="0.8">
<path fill-rule="evenodd" clip-rule="evenodd" d="M3.45649 2.20443C3.24903 1.99696 2.91266 1.99696 2.70519 2.20443C2.49772 2.4119 2.49772 2.74827 2.70519 2.95573L3.97924 4.22978L19.2813 19.5318L21.0512 21.3017C21.2586 21.5092 21.595 21.5092 21.8025 21.3017C22.0099 21.0942 22.0099 20.7579 21.8025 20.5504L20.6777 19.4257C21.5806 19.2245 22.2556 18.4187 22.2556 17.4552V15.2239V5.5551C22.2556 4.44017 21.3518 3.53634 20.2368 3.53634H4.7884L4.73054 3.47848L3.45649 2.20443ZM5.85091 4.59885L14.262 13.0099L15.3084 11.9635C16.3873 10.8846 18.1364 10.8846 19.2152 11.9635L21.1931 13.9414V5.5551C21.1931 5.02698 20.765 4.59885 20.2368 4.59885H5.85091ZM15.0133 13.7612L19.6635 18.4114H20.2368C20.765 18.4114 21.1931 17.9833 21.1931 17.4552V15.444L18.4639 12.7148C17.8 12.0509 16.7236 12.0509 16.0597 12.7148L15.0133 13.7612ZM2.38672 5.51969C2.68013 5.51969 2.91798 5.75754 2.91798 6.05094V13.9305L6.17383 10.6359C6.38007 10.4272 6.71643 10.4252 6.92513 10.6314C7.13382 10.8377 7.13581 11.174 6.92957 11.3827L2.91798 15.4421V17.4552C2.91798 17.9833 3.34611 18.4114 3.87423 18.4114H15.4768C15.7702 18.4114 16.008 18.6493 16.008 18.9427C16.008 19.2361 15.7702 19.4739 15.4768 19.4739H3.87423C2.7593 19.4739 1.85547 18.5701 1.85547 17.4552V15.2242V15.2236V6.05094C1.85547 5.75754 2.09332 5.51969 2.38672 5.51969ZM13.3837 7.78637C13.3837 7.28758 13.788 6.88324 14.2868 6.88324C14.7856 6.88324 15.1899 7.28758 15.1899 7.78637C15.1899 8.28515 14.7856 8.6895 14.2868 8.6895C13.788 8.6895 13.3837 8.28515 13.3837 7.78637Z" fill="#C0C0C0"/>
</g>
</svg>
