<svg viewBox="0 0 216 50" fill="none" xmlns="http://www.w3.org/2000/svg">
<g clip-path="url(#clip0_1134_375673)">
<path d="M6.89509 22.0842C7.57262 22.7715 8.36307 23.3455 9.2288 23.7533C9.42453 23.8439 9.62026 23.927 9.81599 24.0101C8.42329 22.5222 7.56509 20.6114 7.36936 18.5721C6.97037 19.6975 6.81228 20.8908 6.89509 22.0842ZM20.6038 19.0782C21.0027 17.9679 21.1684 16.7822 21.078 15.6039L21.0705 15.5964C20.2499 14.7505 19.2487 14.0858 18.1421 13.6553C19.5348 15.1508 20.393 17.0465 20.6038 19.0782ZM10.9 10.8079C10.5914 10.9288 10.2978 11.0647 10.0117 11.2082C9.38689 11.5255 8.79217 11.8955 8.23509 12.3336L8.18992 12.3714C7.84363 12.6433 7.50487 12.9378 7.18869 13.2475C6.48104 13.9423 5.85621 14.7354 5.35183 15.5888C5.06576 16.0797 4.80981 16.5933 4.59902 17.122L4.54632 17.2504C4.40329 17.6129 4.28284 17.983 4.17745 18.3682C3.72576 20.0374 3.65048 21.7821 3.9516 23.489C3.96666 23.5721 3.98172 23.6551 3.99677 23.7458C4.06452 24.063 4.13981 24.3877 4.23014 24.6974C4.33554 25.0448 4.45599 25.3998 4.59902 25.7472C5.54003 28.0659 7.2188 30.0221 9.37183 31.2985C9.87622 31.6006 10.4107 31.8574 10.9527 32.0689C15.1459 33.738 19.9187 32.7637 23.1483 29.6142C24.1344 28.6475 24.9475 27.4919 25.5271 26.2231C25.4293 26.3288 25.3314 26.427 25.226 26.5327C23.5472 28.1792 21.4394 29.3121 19.1508 29.7955C19.0454 29.8484 18.94 29.8937 18.8347 29.939C15.5223 31.374 11.683 30.7547 8.99543 28.3378C8.84487 28.2019 8.70183 28.0659 8.5588 27.9149L8.49105 27.8469C7.19621 26.495 6.34554 24.788 6.04441 22.9452C6.02183 22.779 5.99925 22.6129 5.97666 22.4467C5.93902 22.1144 5.92396 21.7821 5.92396 21.4422C5.91644 19.622 6.4434 17.8395 7.45217 16.3139C7.7006 15.9287 7.97914 15.5662 8.28779 15.2187C8.41577 15.0752 8.55127 14.9317 8.68678 14.7958C10.3806 13.1266 12.6541 12.1825 15.0254 12.1523H15.2438C15.6277 12.1599 16.0116 12.1825 16.4031 12.2354C18.0141 12.4469 19.5423 13.0889 20.8145 14.0934C20.7618 13.8895 20.6941 13.6931 20.6263 13.4892C20.5661 13.3306 20.5134 13.1795 20.4457 13.0209C20.0843 12.1448 19.5724 11.3291 18.925 10.6342L18.8874 10.6116C18.3529 10.4303 17.7958 10.2793 17.2387 10.1735C16.5536 10.0451 15.846 9.9847 15.1534 9.9847C13.708 9.9847 12.2551 10.2642 10.9 10.8079ZM9.37183 8.74605C9.2815 8.76116 9.19869 8.77626 9.11588 8.79892C8.7997 8.8669 8.48352 8.94242 8.16734 9.04061C7.98666 9.09348 7.80599 9.1539 7.61779 9.21432C7.43711 9.27474 7.27149 9.34272 7.09835 9.41069C4.77969 10.3472 2.83744 12.0315 1.57272 14.2067C1.40711 14.4786 1.26407 14.7656 1.12104 15.0601C1.00812 15.2943 0.910251 15.5284 0.812385 15.7701C-1.4084 21.3667 1.06834 27.726 6.48104 30.3242C6.53374 30.3468 6.58644 30.3695 6.63913 30.3997C6.53374 30.3015 6.42835 30.1958 6.33048 30.0901C4.68936 28.4133 3.56014 26.291 3.07082 23.995C3.02565 23.9195 2.97295 23.7986 2.92025 23.6778C2.83744 23.489 2.76216 23.2926 2.69441 23.0887C1.88138 20.77 2.01688 18.2247 3.07834 16.0042C3.25902 15.6341 3.46228 15.2716 3.68059 14.9166C3.93655 14.5314 4.21509 14.1614 4.52374 13.8064C4.6743 13.6327 4.83992 13.4665 5.00554 13.3079C5.31419 13.0058 5.65295 12.7263 6.00677 12.4771C6.5488 12.0919 7.13599 11.7596 7.75329 11.4952C9.19869 10.3925 10.8624 9.63727 12.6315 9.27474C13.2864 9.13879 13.964 9.05571 14.6264 9.0255L14.4759 8.98019C13.4897 8.70074 12.4584 8.55723 11.4195 8.55723C10.7344 8.55723 10.0494 8.62521 9.37183 8.74605ZM24.4657 12.1297C24.6463 12.6357 24.7894 13.1719 24.9023 13.7006C24.9399 13.7762 25.0002 13.897 25.0453 14.0103C25.3389 14.6976 25.5422 15.4151 25.6626 16.1477C25.7455 16.6462 25.7906 17.1522 25.7906 17.6734C25.7981 19.486 25.2637 21.2685 24.2624 22.7866C24.014 23.1718 23.7354 23.5343 23.4268 23.8817C23.2988 24.0252 23.1633 24.1687 23.0278 24.3047L22.9601 24.3651C22.1621 25.1355 21.2286 25.7623 20.2123 26.2004C19.2111 26.9481 18.0969 27.5523 16.915 27.9602C15.7632 28.3605 14.5738 28.5946 13.3542 28.655C13.3994 28.6701 13.4521 28.6777 13.4972 28.6928C15.1609 29.146 16.8999 29.229 18.6013 28.9269L18.6465 28.9194C18.7217 28.9043 18.797 28.8967 18.8723 28.8741C19.1809 28.8136 19.4896 28.7306 19.8208 28.6399C20.1521 28.5417 20.4683 28.436 20.7995 28.3001L20.8447 28.2849C22.2223 27.726 23.4795 26.9028 24.541 25.853C25.2486 25.1581 25.8734 24.3651 26.3778 23.5041C26.6714 23.0056 26.9274 22.4769 27.1381 21.9407C28.8244 17.7262 27.8684 12.9152 24.7066 9.65993C23.743 8.67053 22.6062 7.86238 21.3415 7.28082C22.7493 8.61766 23.8258 10.2868 24.4657 12.1297ZM2.51374 11.3064C2.49115 11.3517 2.46857 11.4046 2.44598 11.4499C3.79351 10.03 5.44969 8.96508 7.28655 8.30799C7.79093 8.12673 8.31037 7.98323 8.83734 7.86994C8.95026 7.80951 9.06318 7.75665 9.1761 7.71133C9.35678 7.6358 9.54498 7.56027 9.73318 7.49985C10.2451 7.31859 10.7796 7.18264 11.3216 7.09956C13.6102 6.72948 15.9664 7.22795 17.9012 8.51947C18.2851 8.76871 18.6389 9.04816 18.9852 9.35027C19.1508 9.50132 19.3165 9.65238 19.4745 9.81854C20.2424 10.6191 20.8672 11.5632 21.3039 12.5828C21.3867 12.7792 21.462 12.968 21.5297 13.1644C21.7104 13.6704 21.8459 14.2067 21.9287 14.7429C21.9588 14.9091 21.9814 15.0752 21.9965 15.2489C22.0341 15.5813 22.0567 15.9136 22.0567 16.2535C22.0567 17.6356 21.748 19.0027 21.1458 20.2564C20.9726 20.6265 20.7618 20.989 20.5435 21.3364C18.8497 23.9119 16.0041 25.4829 12.9251 25.5282C12.4734 25.5358 12.0142 25.5055 11.555 25.4451C10.6064 25.3167 9.68049 25.0373 8.81475 24.6219C8.22756 24.3424 7.66296 23.995 7.15105 23.5947C7.50487 24.8862 8.15228 26.072 9.05565 27.0614C9.59015 27.2502 10.1548 27.4013 10.7118 27.507C12.1648 27.7865 13.6629 27.7714 15.1082 27.4693C15.6126 27.3635 16.1095 27.22 16.5988 27.0539C16.772 26.9934 16.9376 26.933 17.1032 26.8575C17.3893 26.7366 17.6753 26.6082 17.9463 26.4723C19.9036 25.4904 21.5372 23.9572 22.6363 22.0615C22.7944 21.7972 22.945 21.5102 23.088 21.208C23.1934 20.989 23.2913 20.7624 23.3816 20.5359L23.3967 20.4981C23.5472 20.1205 23.6827 19.7353 23.7881 19.335C24.2549 17.6658 24.3377 15.9211 24.0215 14.2142V14.2067C24.0065 14.1236 23.9914 14.0405 23.9763 13.965C23.9161 13.6478 23.8333 13.3306 23.7354 13.0058C23.6828 12.8245 23.6225 12.6433 23.5623 12.4544C23.5021 12.2883 23.4419 12.1221 23.3741 11.956C22.4481 9.62972 20.7694 7.67357 18.6163 6.40471C18.3303 6.231 18.0291 6.07239 17.7356 5.93644C17.5172 5.8307 17.2989 5.73252 17.0731 5.64188C15.6804 5.08298 14.235 4.81108 12.8122 4.81108C8.53622 4.80353 4.46351 7.2204 2.51374 11.3064Z" fill="url(#paint0_radial_1134_375673)"/>
<path d="M46.0292 10.1407C47.2601 10.6633 48.2575 11.3665 49.0209 12.2494C49.7842 13.1323 50.3684 14.1149 50.7727 15.1965C51.1769 16.278 51.3967 17.4139 51.4329 18.6035C51.469 19.8293 51.2936 21.0098 50.9074 22.1457C50.5212 23.2816 49.9461 24.3133 49.1827 25.2416C48.4194 26.1698 47.4084 26.9092 46.1512 27.4591C44.8932 28.0089 43.4651 28.2838 41.8662 28.2838H35.4786V9.35668H41.8662C43.4109 9.35668 44.7984 9.61801 46.0292 10.1407ZM36.9338 10.7358V26.8782H41.8654C44.489 26.8782 46.5057 26.0535 47.9157 24.404C49.3265 22.7545 50.0131 20.821 49.9777 18.6042C49.9416 16.4411 49.2189 14.5892 47.8081 13.0477C46.3973 11.5062 44.4167 10.7358 41.8654 10.7358H36.9338Z" fill="#0F0F0F"/>
<path d="M68.3847 28.2838L66.3092 23.6328H55.0441L52.9957 28.2838H51.4329L59.8952 9.35668H61.4851L69.9475 28.2838H68.3847ZM65.7438 22.2809L60.6766 10.763L55.6102 22.2817L65.7438 22.2809Z" fill="#0F0F0F"/>
<path d="M72.1577 34.7458V14.9267H73.4511V18.0905C73.9901 17.0634 74.767 16.2477 75.7825 15.6434C76.7973 15.0392 77.9431 14.7379 79.2191 14.7379C81.1056 14.8096 82.6557 15.4546 83.8684 16.6714C85.0812 17.8881 85.688 19.5331 85.688 21.6063C85.688 23.7694 85.0504 25.4635 83.7743 26.6893C82.4983 27.9151 80.8821 28.5276 78.9232 28.5276C77.7556 28.5276 76.6866 28.2437 75.7163 27.6757C74.7459 27.1077 73.9825 26.283 73.4255 25.2014V34.7466L72.1577 34.7458ZM82.8303 25.783C83.8541 24.8004 84.3668 23.4084 84.3668 21.6056C84.3668 19.8027 83.8549 18.4198 82.8303 17.4553C81.8065 16.4909 80.5034 16.009 78.9225 16.009C77.377 16.009 76.0927 16.5362 75.0689 17.5905C74.045 18.6449 73.5324 19.9923 73.5324 21.6328C73.5324 23.2551 74.0488 24.598 75.0816 25.6614C76.1145 26.7248 77.395 27.2565 78.9225 27.2565C80.5034 27.2565 81.8065 26.7648 82.8303 25.783Z" fill="#0F0F0F"/>
<path d="M88.5163 34.7458V14.9267H89.8104V18.0905C90.3494 17.0634 91.1263 16.2477 92.1418 15.6434C93.1566 15.0392 94.3024 14.7379 95.5784 14.7379C97.4649 14.8096 99.0142 15.4546 100.227 16.6714C101.44 17.8881 102.047 19.5331 102.047 21.6063C102.047 23.7694 101.409 25.4635 100.133 26.6893C98.8569 27.9151 97.2398 28.5276 95.2818 28.5276C94.1142 28.5276 93.0452 28.2437 92.0748 27.6757C91.1044 27.1077 90.3411 26.283 89.784 25.2014V34.7466L88.5163 34.7458ZM99.1889 25.783C100.213 24.8004 100.725 23.4084 100.725 21.6056C100.725 19.8027 100.213 18.4198 99.1889 17.4553C98.165 16.4909 96.8619 16.009 95.281 16.009C93.7355 16.009 92.4512 16.5362 91.4274 17.5905C90.4036 18.6449 89.8909 19.9923 89.8909 21.6328C89.8909 23.2551 90.4073 24.598 91.4409 25.6614C92.4738 26.7248 93.7543 27.2565 95.281 27.2565C96.8627 27.2565 98.165 26.7648 99.1889 25.783Z" fill="#0F0F0F"/>
<path d="M122.851 13.007C122.223 11.9972 121.437 11.3213 120.493 10.9791C119.55 10.6362 118.431 10.4565 117.138 10.4383C116.275 10.4383 115.444 10.5373 114.645 10.7359C113.845 10.9346 113.108 11.3401 112.435 11.9527C111.761 12.5652 111.424 13.3409 111.424 14.2782C111.424 14.7472 111.532 15.1611 111.748 15.5221C111.963 15.8824 112.219 16.1754 112.516 16.4012C112.812 16.6263 113.244 16.8385 113.809 17.0364C114.375 17.235 114.887 17.3831 115.346 17.4828C115.804 17.5817 116.419 17.7033 117.192 17.8476C119.546 18.2985 121.154 18.7395 122.016 19.1723C123.74 20.0197 124.603 21.3898 124.603 23.2825C124.603 24.2923 124.365 25.1616 123.889 25.892C123.413 26.6223 122.788 27.1722 122.016 27.5415C121.243 27.9108 120.457 28.1767 119.657 28.3391C118.858 28.5014 118.017 28.5823 117.137 28.5823C115.538 28.5823 114.02 28.2356 112.583 27.5415C111.146 26.8474 110.086 25.8248 109.403 24.4728L110.696 23.824C111.235 24.9056 112.129 25.7485 113.378 26.3519C114.627 26.9562 115.879 27.2575 117.137 27.2575C117.802 27.2575 118.449 27.2031 119.078 27.0951C119.707 26.9871 120.345 26.7975 120.992 26.5272C121.638 26.2568 122.159 25.8421 122.555 25.2832C122.95 24.7243 123.148 24.0484 123.148 23.2553C123.148 22.8044 123.076 22.3943 122.932 22.025C122.789 21.6557 122.551 21.3354 122.218 21.065C121.885 20.7946 121.562 20.5696 121.248 20.3891C120.933 20.2086 120.489 20.0379 119.914 19.8755C119.339 19.7131 118.872 19.5915 118.512 19.5107C118.153 19.4299 117.631 19.3256 116.949 19.1995C116.195 19.0553 115.615 18.9382 115.211 18.8483C114.807 18.7584 114.281 18.6187 113.635 18.4291C112.988 18.2396 112.49 18.0371 112.139 17.8204C111.789 17.6044 111.424 17.334 111.047 17.0092C110.67 16.6845 110.396 16.297 110.225 15.8469C110.054 15.3967 109.969 14.8914 109.969 14.3325C109.951 13.3771 110.163 12.5433 110.602 11.8311C111.043 11.1188 111.635 10.5735 112.381 10.1952C113.126 9.81676 113.895 9.53731 114.685 9.3568C115.476 9.17629 116.293 9.08641 117.138 9.08641C118.701 9.08641 120.027 9.30242 121.113 9.73519C122.199 10.168 123.175 11.0237 124.037 12.3039L122.851 13.007Z" fill="#0F0F0F"/>
<path d="M129.751 10.8983V14.927H134.278V16.0357H129.751V24.1745C129.751 25.2017 129.917 25.9728 130.249 26.4864C130.582 27 131.233 27.2568 132.203 27.2568C132.815 27.2568 133.497 27.0763 134.252 26.716L134.71 27.7976C133.776 28.2485 132.94 28.4735 132.204 28.4735C130.857 28.4735 129.895 28.1042 129.32 27.3648C128.745 26.6254 128.457 25.562 128.457 24.1738V16.0357H125.628V14.927H128.457V11.0335L129.751 10.8983Z" fill="#0F0F0F"/>
<path d="M137.27 26.6345C135.976 25.3906 135.329 23.732 135.329 21.6596C135.329 19.5871 135.976 17.9104 137.27 16.6302C138.563 15.35 140.171 14.7103 142.094 14.7103C144.016 14.7103 145.624 15.35 146.918 16.6302C148.211 17.9104 148.859 19.5863 148.859 21.6596C148.859 23.7328 148.212 25.3906 146.918 26.6345C145.624 27.8785 144.016 28.5001 142.094 28.5001C140.172 28.5008 138.564 27.8785 137.27 26.6345ZM146.002 25.6882C147.043 24.6784 147.564 23.3355 147.564 21.6596C147.564 19.9655 147.039 18.5909 145.988 17.5358C144.937 16.4807 143.639 15.9542 142.094 15.9542C140.548 15.9542 139.25 16.4814 138.199 17.5358C137.149 18.5901 136.623 19.9647 136.623 21.6596C136.623 23.3363 137.144 24.6791 138.186 25.6882C139.228 26.698 140.531 27.2025 142.094 27.2025C143.657 27.2025 144.96 26.698 146.002 25.6882Z" fill="#0F0F0F"/>
<path d="M152.901 14.9271L152.955 17.3062C153.351 16.4588 153.953 15.8282 154.761 15.4135C155.57 14.9989 156.442 14.7919 157.376 14.7919C158.382 14.7557 159.334 15.017 160.233 15.5759L159.639 16.6575C158.975 16.2428 158.22 16.0359 157.376 16.0359C156.136 16.054 155.094 16.4958 154.249 17.3606C153.405 18.2254 152.982 19.2715 152.982 20.4973V28.2841H151.662V14.9271H152.901Z" fill="#0F0F0F"/>
<path d="M162.28 26.6081C160.986 25.346 160.339 23.6792 160.339 21.6059C160.339 19.6233 160.995 17.9784 162.306 16.671C163.617 15.3636 165.216 14.7103 167.103 14.7103C169.151 14.7103 170.817 15.35 172.102 16.6302C173.387 17.9104 173.913 19.7759 173.679 22.2275H161.686C161.811 23.7418 162.391 24.9495 163.424 25.8506C164.457 26.7516 165.683 27.2025 167.103 27.2025C168.019 27.2025 168.926 27.022 169.825 26.6617C170.723 26.3015 171.415 25.8052 171.901 25.1746L172.844 25.9314C172.215 26.7607 171.38 27.3959 170.338 27.8377C169.296 28.2795 168.218 28.5001 167.104 28.5001C165.182 28.5008 163.574 27.8694 162.28 26.6081ZM172.494 21.0644C172.476 19.4421 171.983 18.18 171.012 17.279C170.042 16.3779 168.739 15.927 167.104 15.927C165.685 15.927 164.464 16.387 163.439 17.3062C162.415 18.2253 161.831 19.4783 161.687 21.0644H172.494Z" fill="#0F0F0F"/>
</g>
<path d="M113.112 29.0184H108.443V13.0788H113.393C114.913 13.0788 116.213 13.3953 117.292 14.0283C118.376 14.6613 119.207 15.5693 119.782 16.7524C120.358 17.9354 120.646 19.3545 120.646 21.0097C120.646 22.6804 120.351 24.1151 119.759 25.3137C119.173 26.5071 118.317 27.4229 117.191 28.0611C116.07 28.6993 114.711 29.0184 113.112 29.0184ZM109.898 27.7109H113.027C114.397 27.7109 115.543 27.4411 116.467 26.9014C117.39 26.3618 118.083 25.5913 118.545 24.5899C119.007 23.5885 119.238 22.3951 119.238 21.0097C119.232 19.6347 119.004 18.4517 118.553 17.4606C118.107 16.4696 117.442 15.7094 116.56 15.1802C115.683 14.6509 114.599 14.3863 113.307 14.3863H109.898V27.7109ZM123.902 29.0184V17.0637H125.295V29.0184H123.902ZM124.61 15.009C124.325 15.009 124.081 14.913 123.878 14.721C123.676 14.5238 123.575 14.2877 123.575 14.0127C123.575 13.7377 123.676 13.5042 123.878 13.3123C124.081 13.1151 124.325 13.0165 124.61 13.0165C124.895 13.0165 125.139 13.1151 125.341 13.3123C125.544 13.5042 125.645 13.7377 125.645 14.0127C125.645 14.2877 125.544 14.5238 125.341 14.721C125.139 14.913 124.895 15.009 124.61 15.009ZM136.991 19.6866L135.722 20.0446C135.598 19.6866 135.421 19.3623 135.193 19.0717C134.965 18.7811 134.666 18.5502 134.298 18.379C133.935 18.2078 133.483 18.1222 132.944 18.1222C132.134 18.1222 131.47 18.3142 130.951 18.6981C130.432 19.0821 130.173 19.5776 130.173 20.1847C130.173 20.6984 130.349 21.116 130.702 21.4377C131.06 21.7543 131.61 22.0059 132.352 22.1927L134.158 22.6363C135.159 22.8802 135.909 23.2668 136.407 23.796C136.91 24.3253 137.162 24.9894 137.162 25.7885C137.162 26.463 136.975 27.0623 136.602 27.5864C136.228 28.1104 135.707 28.5229 135.037 28.8239C134.373 29.1196 133.603 29.2675 132.726 29.2675C131.558 29.2675 130.596 29.0055 129.838 28.4814C129.081 27.9522 128.595 27.1894 128.383 26.1932L129.714 25.8663C129.885 26.5772 130.22 27.1142 130.718 27.4774C131.221 27.8406 131.882 28.0222 132.702 28.0222C133.621 28.0222 134.355 27.8172 134.905 27.4073C135.455 26.9922 135.73 26.4734 135.73 25.8507C135.73 25.3682 135.569 24.9635 135.247 24.6366C134.926 24.3045 134.438 24.0606 133.784 23.905L131.831 23.438C130.793 23.1889 130.025 22.7946 129.527 22.255C129.029 21.7153 128.78 21.046 128.78 20.2469C128.78 19.588 128.959 19.0094 129.317 18.5113C129.675 18.008 130.168 17.6137 130.795 17.3283C131.423 17.0429 132.139 16.9002 132.944 16.9002C134.038 16.9002 134.913 17.1493 135.566 17.6474C136.225 18.1403 136.7 18.8201 136.991 19.6866ZM144.865 29.2675C143.796 29.2675 142.865 29.0003 142.071 28.4658C141.282 27.9314 140.67 27.1998 140.234 26.271C139.799 25.3422 139.581 24.2837 139.581 23.0955C139.581 21.8969 139.801 20.8307 140.242 19.8967C140.688 18.9627 141.306 18.2311 142.095 17.7019C142.883 17.1675 143.799 16.9002 144.842 16.9002C145.641 16.9002 146.365 17.0559 147.013 17.3672C147.662 17.6733 148.196 18.1066 148.617 18.667C149.042 19.2222 149.309 19.8708 149.418 20.6127H148.017C147.872 19.9382 147.522 19.3623 146.967 18.8849C146.417 18.4024 145.716 18.1611 144.865 18.1611C144.103 18.1611 143.428 18.3686 142.842 18.7837C142.255 19.1936 141.796 19.767 141.464 20.5038C141.137 21.2354 140.974 22.0837 140.974 23.0488C140.974 24.0191 141.135 24.8779 141.456 25.625C141.778 26.367 142.229 26.9481 142.811 27.3684C143.397 27.7887 144.082 27.9989 144.865 27.9989C145.395 27.9989 145.877 27.9003 146.313 27.7031C146.754 27.5007 147.122 27.2154 147.418 26.847C147.719 26.4786 147.921 26.0401 148.025 25.5316H149.426C149.322 26.2529 149.066 26.8963 148.656 27.4618C148.251 28.0222 147.724 28.4632 147.076 28.7849C146.432 29.1066 145.695 29.2675 144.865 29.2675ZM157.042 29.2675C156.009 29.2675 155.096 29.0055 154.302 28.4814C153.514 27.9573 152.896 27.2335 152.45 26.3099C152.004 25.3812 151.781 24.3097 151.781 23.0955C151.781 21.871 152.004 20.7943 152.45 19.8656C152.896 18.9316 153.514 18.2052 154.302 17.6863C155.096 17.1623 156.009 16.9002 157.042 16.9002C158.074 16.9002 158.985 17.1623 159.774 17.6863C160.562 18.2104 161.18 18.9368 161.626 19.8656C162.077 20.7943 162.303 21.871 162.303 23.0955C162.303 24.3097 162.08 25.3812 161.634 26.3099C161.188 27.2335 160.568 27.9573 159.774 28.4814C158.985 29.0055 158.074 29.2675 157.042 29.2675ZM157.042 27.9989C157.872 27.9989 158.575 27.7757 159.151 27.3295C159.727 26.8833 160.163 26.2892 160.459 25.5472C160.76 24.8052 160.91 23.988 160.91 23.0955C160.91 22.2031 160.76 21.3833 160.459 20.6361C160.163 19.8889 159.727 19.2896 159.151 18.8382C158.575 18.3868 157.872 18.1611 157.042 18.1611C156.217 18.1611 155.514 18.3868 154.933 18.8382C154.357 19.2896 153.918 19.8889 153.617 20.6361C153.322 21.3833 153.174 22.2031 153.174 23.0955C153.174 23.988 153.322 24.8052 153.617 25.5472C153.918 26.2892 154.357 26.8833 154.933 27.3295C155.509 27.7757 156.212 27.9989 157.042 27.9989ZM174.17 17.0637L169.804 29.0184H168.325L163.959 17.0637H165.461L169.01 27.1894H169.119L172.668 17.0637H174.17ZM181.286 29.2675C180.17 29.2675 179.205 29.0081 178.391 28.4892C177.576 27.9651 176.946 27.2413 176.499 26.3177C176.058 25.3889 175.838 24.3201 175.838 23.1111C175.838 21.9073 176.058 20.8385 176.499 19.9045C176.946 18.9653 177.561 18.2311 178.344 17.7019C179.133 17.1675 180.043 16.9002 181.076 16.9002C181.724 16.9002 182.35 17.0196 182.952 17.2583C183.553 17.4917 184.093 17.8524 184.57 18.3401C185.053 18.8226 185.434 19.4323 185.715 20.1691C185.995 20.9007 186.135 21.7672 186.135 22.7686V23.4536H176.795V22.2316H184.718C184.718 21.4637 184.563 20.7736 184.251 20.1613C183.945 19.5439 183.517 19.0561 182.967 18.6981C182.422 18.3401 181.792 18.1611 181.076 18.1611C180.318 18.1611 179.652 18.3634 179.076 18.7682C178.5 19.1729 178.048 19.7073 177.721 20.3715C177.4 21.0356 177.236 21.762 177.231 22.5507V23.2823C177.231 24.2319 177.394 25.0621 177.721 25.7729C178.053 26.4786 178.523 27.026 179.13 27.4151C179.737 27.8043 180.456 27.9989 181.286 27.9989C181.852 27.9989 182.347 27.9106 182.773 27.7342C183.203 27.5578 183.564 27.3217 183.854 27.026C184.15 26.725 184.373 26.3955 184.524 26.0375L185.839 26.4656C185.657 26.9689 185.359 27.4333 184.944 27.8588C184.534 28.2842 184.02 28.6267 183.403 28.8861C182.791 29.1404 182.085 29.2675 181.286 29.2675ZM189.188 29.0184V17.0637H190.534V18.9005H190.635C190.874 18.2986 191.289 17.8134 191.881 17.445C192.477 17.0715 193.152 16.8847 193.904 16.8847C194.018 16.8847 194.146 16.8873 194.286 16.8925C194.426 16.8976 194.542 16.9028 194.636 16.908V18.3167C194.574 18.3064 194.465 18.2908 194.309 18.27C194.153 18.2493 193.985 18.2389 193.803 18.2389C193.18 18.2389 192.625 18.3712 192.138 18.6359C191.655 18.8953 191.274 19.2559 190.993 19.7177C190.713 20.1795 190.573 20.7061 190.573 21.2977V29.0184H189.188ZM198.329 33.5015C198.054 33.5015 197.797 33.4755 197.558 33.4236C197.32 33.3717 197.13 33.3147 196.99 33.2524L197.364 32.0305C197.836 32.1758 198.256 32.2276 198.625 32.1861C198.993 32.1498 199.32 31.9838 199.605 31.688C199.891 31.3974 200.145 30.9512 200.368 30.3493L200.804 29.1352L196.407 17.0637H197.909L201.458 27.1894H201.567L205.116 17.0637H206.618L201.559 30.9097C201.346 31.4857 201.084 31.9656 200.773 32.3496C200.461 32.7387 200.101 33.0267 199.691 33.2135C199.286 33.4055 198.832 33.5015 198.329 33.5015Z" fill="black"/>
<g filter="url(#filter0_d_1134_375673)">
<rect x="101.169" y="35.8157" width="109.846" height="9.62212" rx="4.81106" fill="white"/>
</g>
<path d="M107.904 43.7465V37.5262H110.358C110.83 37.5262 111.232 37.6163 111.564 37.7965C111.896 37.9747 112.149 38.2227 112.323 38.5406C112.5 38.8565 112.588 39.221 112.588 39.6341C112.588 40.0471 112.499 40.4116 112.32 40.7275C112.142 41.0434 111.884 41.2894 111.546 41.4655C111.21 41.6417 110.803 41.7298 110.325 41.7298H108.761V40.6758H110.112C110.365 40.6758 110.574 40.6323 110.738 40.5452C110.904 40.4562 111.027 40.3336 111.108 40.1777C111.191 40.0198 111.233 39.8386 111.233 39.6341C111.233 39.4275 111.191 39.2473 111.108 39.0934C111.027 38.9375 110.904 38.817 110.738 38.732C110.572 38.6449 110.361 38.6014 110.106 38.6014H109.219V43.7465H107.904ZM113.442 43.7465V37.5262H114.757V42.6622H117.424V43.7465H113.442ZM119.526 43.7465H118.116L120.264 37.5262H121.958L124.103 43.7465H122.693L121.135 38.9476H121.087L119.526 43.7465ZM119.437 41.3015H122.766V42.3281H119.437V41.3015ZM130.047 39.7039H128.717C128.693 39.5318 128.643 39.3789 128.568 39.2453C128.493 39.1096 128.397 38.9942 128.28 38.899C128.162 38.8039 128.027 38.731 127.873 38.6804C127.721 38.6297 127.556 38.6044 127.378 38.6044C127.056 38.6044 126.775 38.6844 126.536 38.8444C126.297 39.0023 126.112 39.2331 125.981 39.5369C125.849 39.8386 125.783 40.2051 125.783 40.6364C125.783 41.0798 125.849 41.4524 125.981 41.7541C126.114 42.0558 126.3 42.2836 126.539 42.4375C126.778 42.5914 127.055 42.6683 127.369 42.6683C127.545 42.6683 127.708 42.645 127.858 42.5985C128.009 42.5519 128.144 42.484 128.262 42.395C128.379 42.3038 128.476 42.1935 128.553 42.0639C128.632 41.9343 128.687 41.7865 128.717 41.6204L130.047 41.6265C130.013 41.912 129.927 42.1874 129.789 42.4527C129.654 42.7159 129.47 42.9518 129.24 43.1603C129.011 43.3669 128.737 43.5309 128.419 43.6524C128.104 43.7719 127.746 43.8316 127.347 43.8316C126.792 43.8316 126.296 43.706 125.859 43.455C125.424 43.2039 125.079 42.8404 124.826 42.3646C124.575 41.8887 124.45 41.3127 124.45 40.6364C124.45 39.958 124.577 39.381 124.832 38.9051C125.088 38.4293 125.434 38.0668 125.871 37.8178C126.309 37.5667 126.801 37.4411 127.347 37.4411C127.708 37.4411 128.042 37.4918 128.35 37.593C128.659 37.6942 128.934 37.8421 129.173 38.0364C129.412 38.2288 129.606 38.4647 129.756 38.7441C129.908 39.0236 130.005 39.3435 130.047 39.7039ZM130.991 43.7465V37.5262H135.182V38.6105H132.306V40.0927H134.966V41.177H132.306V42.6622H135.194V43.7465H130.991ZM136.228 43.7465V37.5262H137.543V40.0927H140.212V37.5262H141.525V43.7465H140.212V41.177H137.543V43.7465H136.228ZM148.325 40.6364C148.325 41.3147 148.196 41.8918 147.939 42.3676C147.684 42.8435 147.336 43.2069 146.895 43.458C146.455 43.7071 145.961 43.8316 145.412 43.8316C144.86 43.8316 144.363 43.706 143.924 43.455C143.485 43.2039 143.137 42.8404 142.882 42.3646C142.627 41.8887 142.5 41.3127 142.5 40.6364C142.5 39.958 142.627 39.381 142.882 38.9051C143.137 38.4293 143.485 38.0668 143.924 37.8178C144.363 37.5667 144.86 37.4411 145.412 37.4411C145.961 37.4411 146.455 37.5667 146.895 37.8178C147.336 38.0668 147.684 38.4293 147.939 38.9051C148.196 39.381 148.325 39.958 148.325 40.6364ZM146.992 40.6364C146.992 40.197 146.926 39.8264 146.794 39.5247C146.665 39.223 146.481 38.9942 146.245 38.8383C146.008 38.6824 145.73 38.6044 145.412 38.6044C145.094 38.6044 144.817 38.6824 144.58 38.8383C144.343 38.9942 144.159 39.223 144.027 39.5247C143.898 39.8264 143.833 40.197 143.833 40.6364C143.833 41.0758 143.898 41.4463 144.027 41.748C144.159 42.0497 144.343 42.2785 144.58 42.4344C144.817 42.5904 145.094 42.6683 145.412 42.6683C145.73 42.6683 146.008 42.5904 146.245 42.4344C146.481 42.2785 146.665 42.0497 146.794 41.748C146.926 41.4463 146.992 41.0758 146.992 40.6364ZM149.299 43.7465V37.5262H150.614V42.6622H153.281V43.7465H149.299ZM156.357 43.7465H154.152V37.5262H156.375C157.001 37.5262 157.54 37.6507 157.991 37.8998C158.443 38.1468 158.79 38.5022 159.033 38.9659C159.278 39.4295 159.401 39.9844 159.401 40.6303C159.401 41.2782 159.278 41.8351 159.033 42.3008C158.79 42.7665 158.441 43.1239 157.985 43.373C157.532 43.622 156.989 43.7465 156.357 43.7465ZM155.467 42.6197H156.303C156.691 42.6197 157.018 42.5509 157.284 42.4132C157.551 42.2735 157.751 42.0578 157.885 41.7662C158.021 41.4726 158.088 41.094 158.088 40.6303C158.088 40.1706 158.021 39.795 157.885 39.5035C157.751 39.2119 157.552 38.9972 157.287 38.8596C157.021 38.7219 156.694 38.653 156.306 38.653H155.467V42.6197ZM160.375 43.7465V37.5262H164.566V38.6105H161.69V40.0927H164.351V41.177H161.69V42.6622H164.578V43.7465H160.375ZM165.612 43.7465V37.5262H168.066C168.536 37.5262 168.937 37.6102 169.269 37.7783C169.603 37.9443 169.857 38.1802 170.031 38.486C170.207 38.7897 170.295 39.1471 170.295 39.5581C170.295 39.9712 170.206 40.3266 170.028 40.6242C169.85 40.9198 169.592 41.1466 169.253 41.3046C168.917 41.4625 168.51 41.5415 168.033 41.5415H166.389V40.4845H167.82C168.071 40.4845 168.28 40.4501 168.446 40.3812C168.612 40.3124 168.735 40.2091 168.816 40.0714C168.899 39.9337 168.941 39.7626 168.941 39.5581C168.941 39.3516 168.899 39.1775 168.816 39.0357C168.735 38.894 168.611 38.7867 168.443 38.7138C168.276 38.6388 168.067 38.6014 167.814 38.6014H166.927V43.7465H165.612ZM168.971 40.9158L170.517 43.7465H169.065L167.553 40.9158H168.971ZM175.184 43.7465V37.5262H177.674C178.132 37.5262 178.514 37.594 178.819 37.7297C179.125 37.8653 179.355 38.0537 179.509 38.2946C179.663 38.5335 179.74 38.8089 179.74 39.1208C179.74 39.3637 179.691 39.5774 179.594 39.7616C179.497 39.9439 179.363 40.0937 179.193 40.2111C179.025 40.3266 178.833 40.4086 178.616 40.4572V40.5179C178.853 40.528 179.075 40.5949 179.281 40.7184C179.49 40.8419 179.659 41.015 179.788 41.2377C179.918 41.4585 179.983 41.7217 179.983 42.0274C179.983 42.3575 179.901 42.6521 179.737 42.9113C179.575 43.1684 179.335 43.3719 179.017 43.5218C178.699 43.6716 178.307 43.7465 177.841 43.7465H175.184ZM176.499 42.6713H177.571C177.938 42.6713 178.205 42.6015 178.373 42.4618C178.541 42.32 178.625 42.1317 178.625 41.8968C178.625 41.7247 178.584 41.5729 178.501 41.4412C178.417 41.3096 178.299 41.2064 178.145 41.1314C177.993 41.0565 177.812 41.0191 177.601 41.0191H176.499V42.6713ZM176.499 40.1291H177.474C177.654 40.1291 177.814 40.0978 177.954 40.035C178.096 39.9702 178.207 39.8791 178.288 39.7616C178.371 39.6442 178.412 39.5035 178.412 39.3394C178.412 39.1147 178.332 38.9335 178.172 38.7958C178.015 38.6581 177.79 38.5892 177.498 38.5892H176.499V40.1291ZM180.838 43.7465V37.5262H183.293C183.762 37.5262 184.163 37.6102 184.495 37.7783C184.829 37.9443 185.084 38.1802 185.258 38.486C185.434 38.7897 185.522 39.1471 185.522 39.5581C185.522 39.9712 185.433 40.3266 185.255 40.6242C185.076 40.9198 184.818 41.1466 184.48 41.3046C184.144 41.4625 183.737 41.5415 183.259 41.5415H181.616V40.4845H183.047C183.298 40.4845 183.506 40.4501 183.672 40.3812C183.838 40.3124 183.962 40.2091 184.043 40.0714C184.126 39.9337 184.167 39.7626 184.167 39.5581C184.167 39.3516 184.126 39.1775 184.043 39.0357C183.962 38.894 183.837 38.7867 183.669 38.7138C183.503 38.6388 183.294 38.6014 183.04 38.6014H182.154V43.7465H180.838ZM184.198 40.9158L185.744 43.7465H184.292L182.779 40.9158H184.198ZM187.524 43.7465H186.114L188.262 37.5262H189.956L192.101 43.7465H190.691L189.133 38.9476H189.085L187.524 43.7465ZM187.435 41.3015H190.764V42.3281H187.435V41.3015ZM198.052 37.5262V43.7465H196.916L194.21 39.8315H194.165V43.7465H192.849V37.5262H194.004L196.689 41.4382H196.743V37.5262H198.052ZM201.344 43.7465H199.139V37.5262H201.362C201.988 37.5262 202.526 37.6507 202.978 37.8998C203.43 38.1468 203.777 38.5022 204.02 38.9659C204.265 39.4295 204.387 39.9844 204.387 40.6303C204.387 41.2782 204.265 41.8351 204.02 42.3008C203.777 42.7665 203.428 43.1239 202.972 43.373C202.518 43.622 201.976 43.7465 201.344 43.7465ZM200.454 42.6197H201.289C201.678 42.6197 202.005 42.5509 202.27 42.4132C202.538 42.2735 202.738 42.0578 202.872 41.7662C203.007 41.4726 203.075 41.094 203.075 40.6303C203.075 40.1706 203.007 39.795 202.872 39.5035C202.738 39.2119 202.539 38.9972 202.273 38.8596C202.008 38.7219 201.681 38.653 201.292 38.653H200.454V42.6197Z" fill="url(#paint1_linear_1134_375673)"/>
<defs>
<filter id="filter0_d_1134_375673" x="96.8925" y="31.5392" width="118.399" height="18.1751" filterUnits="userSpaceOnUse" color-interpolation-filters="sRGB">
<feFlood flood-opacity="0" result="BackgroundImageFix"/>
<feColorMatrix in="SourceAlpha" type="matrix" values="0 0 0 0 0 0 0 0 0 0 0 0 0 0 0 0 0 0 127 0" result="hardAlpha"/>
<feOffset/>
<feGaussianBlur stdDeviation="2.13825"/>
<feComposite in2="hardAlpha" operator="out"/>
<feColorMatrix type="matrix" values="0 0 0 0 0.654167 0 0 0 0 0.561493 0 0 0 0 0.626109 0 0 0 0.2 0"/>
<feBlend mode="normal" in2="BackgroundImageFix" result="effect1_dropShadow_1134_375673"/>
<feBlend mode="normal" in="SourceGraphic" in2="effect1_dropShadow_1134_375673" result="shape"/>
</filter>
<radialGradient id="paint0_radial_1134_375673" cx="0" cy="0" r="1" gradientUnits="userSpaceOnUse" gradientTransform="translate(86.867 19.7788) scale(86.8852 14.9645)">
<stop stop-color="#FDC300"/>
<stop offset="0.11" stop-color="#FDC205"/>
<stop offset="0.25" stop-color="#FDBF13"/>
<stop offset="0.39" stop-color="#FDB92B"/>
<stop offset="0.54" stop-color="#FEB24C"/>
<stop offset="0.7" stop-color="#FEA977"/>
<stop offset="0.86" stop-color="#FF9DAA"/>
<stop offset="1" stop-color="#FF92DE"/>
</radialGradient>
<linearGradient id="paint1_linear_1134_375673" x1="87.4544" y1="32.6925" x2="190.549" y2="100.765" gradientUnits="userSpaceOnUse">
<stop stop-color="#FF92E1"/>
<stop offset="1" stop-color="#FDC300"/>
</linearGradient>
<clipPath id="clip0_1134_375673">
<rect width="105.843" height="29.9355" fill="white" transform="translate(0 4.81107)"/>
</clipPath>
</defs>
</svg>
