<svg width="40" height="40" viewBox="0 0 40 40" fill="none" xmlns="http://www.w3.org/2000/svg">
<path d="M36.849 20.0848C35.3331 22.143 33.1951 23.6574 30.7519 24.4035C30.4416 24.4906 30.1303 24.5721 29.8181 24.6478C26.0834 25.5593 22.2001 25.6838 18.4147 25.0134C18.3627 25.003 18.3097 24.9935 18.2577 24.985C16.374 24.657 14.4357 24.8818 12.6768 25.6323C10.9179 26.3829 9.41358 27.627 8.34541 29.2146C7.27724 30.8021 6.69088 32.6653 6.65711 34.5791C6.62334 36.4929 7.1436 38.3757 8.15509 40C0.642691 33.7635 -1.87279 23.5416 1.41749 14.7186C2.15751 12.7368 3.17143 10.8687 4.42963 9.16872C10.8077 0.539866 22.1591 -2.23982 31.5967 1.86199C32.1561 2.10508 32.7082 2.37247 33.2532 2.66417C33.6293 2.88449 33.9934 3.12476 34.3439 3.38395C35.6047 4.31517 36.6697 5.48608 37.4781 6.82971C38.2864 8.17333 38.8223 9.66332 39.0549 11.2144C39.2876 12.7656 39.2125 14.3474 38.834 15.8695C38.4555 17.3915 37.781 18.8239 36.849 20.0848Z" fill="#FC6133"/>
<path d="M16.5623 38.2385C18.4871 38.2385 20.0475 36.6777 20.0475 34.7523C20.0475 32.8269 18.4871 31.2661 16.5623 31.2661C14.6375 31.2661 13.0771 32.8269 13.0771 34.7523C13.0771 36.6777 14.6375 38.2385 16.5623 38.2385Z" fill="#FC6133"/>
</svg>
