<svg width="84" height="75" viewBox="0 0 84 75" fill="none" xmlns="http://www.w3.org/2000/svg">
<path fill-rule="evenodd" clip-rule="evenodd" d="M31.8657 6.49463C36.3873 -1.10661 47.613 -1.10661 52.1346 6.49463L82.1568 56.9652C86.7874 64.7497 80.9043 74.2055 72.0224 74.2055H11.9779C3.09594 74.2055 -2.78709 64.7497 1.8435 56.9652L31.8657 6.49463ZM46.8768 9.62219C44.7268 6.00774 39.2735 6.00774 37.1235 9.62218L7.10125 60.0928C5.06024 63.5239 7.51671 68.0878 11.9779 68.0878H72.0224C76.4836 68.0878 78.94 63.5239 76.899 60.0928L46.8768 9.62219ZM42.0001 26.029C43.6895 26.029 45.059 27.3985 45.059 29.0878V37.4996C45.059 39.1889 43.6895 40.5584 42.0001 40.5584C40.3108 40.5584 38.9413 39.1889 38.9413 37.4996V29.0878C38.9413 27.3985 40.3108 26.029 42.0001 26.029ZM38.9413 54.3231C38.9413 52.6338 40.3108 51.2643 42.0001 51.2643H42.0435C43.7328 51.2643 45.1023 52.6338 45.1023 54.3231C45.1023 56.0125 43.7328 57.3819 42.0435 57.3819H42.0001C40.3108 57.3819 38.9413 56.0125 38.9413 54.3231Z" fill="url(#paint0_linear_1002_7)"/>
<defs>
<linearGradient id="paint0_linear_1002_7" x1="-15.0666" y1="-12.6391" x2="107.157" y2="-2.37875" gradientUnits="userSpaceOnUse">
<stop stop-color="#FF92DE"/>
<stop offset="1" stop-color="#FDC300"/>
</linearGradient>
</defs>
</svg>
