<svg width="24" height="24" viewBox="0 0 24 24" fill="none" xmlns="http://www.w3.org/2000/svg">
<rect width="24" height="24" rx="12" fill="#2CB67D"/>
<path d="M14.9116 13.1713L14.8304 12.9552L14.388 11.7766L14.2188 11.3261H14.7H15.6994C15.8264 11.3261 15.9328 11.2266 15.9387 11.106L14.9116 13.1713ZM14.9116 13.1713H15.1425M14.9116 13.1713H15.1425M15.1425 13.1713H16.7599C16.888 13.1713 16.993 13.2727 16.9991 13.3915C17.004 13.5007 16.9259 13.6215 16.7327 13.6271H15.524H15.0411L15.2123 14.0786L16.7064 18.0203C16.7574 18.1648 16.6959 18.2771 16.6188 18.3188C16.5757 18.329 16.5443 18.3335 16.531 18.3335C16.4439 18.3335 16.3783 18.2881 16.3507 18.2068L16.3509 18.2067L16.3469 18.1962L14.6991 13.8347L14.6176 13.6191H14.3872H9.55808H9.32553L9.24525 13.8374L7.65902 18.1492C7.65894 18.1494 7.65886 18.1497 7.65878 18.1499C7.62357 18.2434 7.55004 18.2854 7.47537 18.2854C7.4592 18.2854 7.44941 18.2854 7.44054 18.2851C7.43815 18.285 7.43613 18.2849 7.43444 18.2848L7.43317 18.2841L7.41838 18.2781C7.32043 18.2381 7.25136 18.1034 7.29973 17.9727L7.30008 17.9718L8.73433 14.0592L8.89858 13.6111H8.42136H7.19309C7.10193 13.6111 6.99276 13.5221 6.99964 13.3752C7.00563 13.2547 7.1119 13.1553 7.23887 13.1553H8.84096H9.07414L9.15409 12.9363L9.58131 11.7657L9.74468 11.3181H9.26818H8.22301C8.13184 11.3181 8.02267 11.229 8.02956 11.0821C8.03555 10.9616 8.14182 10.8623 8.26878 10.8623H9.70303H9.93679L10.0164 10.6425L11.7687 5.80643C11.8082 5.71317 11.8913 5.66683 11.9536 5.66683C12.0288 5.66683 12.1061 5.71791 12.1364 5.80083L12.1364 5.80084L12.1376 5.80399L13.9686 10.6547L14.05 10.8703M15.1425 13.1713L14.05 10.8703M14.05 10.8703H14.2804M14.05 10.8703H14.2804M14.2804 10.8703H15.7452C15.8363 10.8703 15.9454 10.9592 15.9387 11.106L14.2804 10.8703ZM12.2886 7.34109L11.9723 6.49797L11.6634 7.34382L10.5419 10.4146L10.3784 10.8623H10.855H13.1284H13.6095L13.4405 10.4118L12.2886 7.34109ZM9.67955 12.7244L9.51755 13.1713H9.99293H13.9676H14.4488L14.2797 12.7208L13.8372 11.5423L13.7561 11.3261H13.5252H10.4202H10.1864L10.1068 11.5458L9.67955 12.7244Z" stroke="white" stroke-width="0.666667"/>
</svg>
