<svg width="25" height="24" viewBox="0 0 25 24" fill="none" xmlns="http://www.w3.org/2000/svg">
<path d="M13.5 4C13.5 3.44772 13.0523 3 12.5 3C11.9477 3 11.5 3.44772 11.5 4H13.5ZM11.5 5C11.5 5.55228 11.9477 6 12.5 6C13.0523 6 13.5 5.55228 13.5 5H11.5ZM18.5 15C17.9477 15 17.5 15.4477 17.5 16C17.5 16.5523 17.9477 17 18.5 17V15ZM20.5 17C21.0523 17 21.5 16.5523 21.5 16C21.5 15.4477 21.0523 15 20.5 15V17ZM12.5 16V15C11.9477 15 11.5 15.4477 11.5 16H12.5ZM14.5 17C15.0523 17 15.5 16.5523 15.5 16C15.5 15.4477 15.0523 15 14.5 15V17ZM11.5 20C11.5 20.5523 11.9477 21 12.5 21C13.0523 21 13.5 20.5523 13.5 20H11.5ZM13.5 9C13.5 8.44772 13.0523 8 12.5 8C11.9477 8 11.5 8.44772 11.5 9H13.5ZM12.5 12H11.5C11.5 12.5523 11.9477 13 12.5 13V12ZM16.5 19C15.9477 19 15.5 19.4477 15.5 20C15.5 20.5523 15.9477 21 16.5 21V19ZM20.5 21C21.0523 21 21.5 20.5523 21.5 20C21.5 19.4477 21.0523 19 20.5 19V21ZM4.49998 11C3.9477 11 3.49998 11.4477 3.49998 12C3.49998 12.5523 3.9477 13 4.49998 13V11ZM8.49998 13C9.05227 13 9.49998 12.5523 9.49998 12C9.49998 11.4477 9.05227 11 8.49998 11V13ZM12.51 13C13.0623 13 13.51 12.5523 13.51 12C13.51 11.4477 13.0623 11 12.51 11V13ZM16.51 13C17.0623 13 17.51 12.5523 17.51 12C17.51 11.4477 17.0623 11 16.51 11V13ZM20.5 11C19.9477 11 19.5 11.4477 19.5 12C19.5 12.5523 19.9477 13 20.5 13V11ZM20.51 13C21.0623 13 21.51 12.5523 21.51 12C21.51 11.4477 21.0623 11 20.51 11V13ZM5.49998 5H7.49998V3H5.49998V5ZM7.49998 5V7H9.49998V5H7.49998ZM7.49998 7H5.49998V9H7.49998V7ZM5.49998 7V5H3.49998V7H5.49998ZM5.49998 7H3.49998C3.49998 8.10457 4.39542 9 5.49998 9V7ZM7.49998 7V9C8.60455 9 9.49998 8.10457 9.49998 7H7.49998ZM7.49998 5H9.49998C9.49998 3.89543 8.60455 3 7.49998 3V5ZM5.49998 3C4.39542 3 3.49998 3.89543 3.49998 5H5.49998V3ZM17.5 5H19.5V3H17.5V5ZM19.5 5V7H21.5V5H19.5ZM19.5 7H17.5V9H19.5V7ZM17.5 7V5H15.5V7H17.5ZM17.5 7H15.5C15.5 8.10457 16.3954 9 17.5 9V7ZM19.5 7V9C20.6046 9 21.5 8.10457 21.5 7H19.5ZM19.5 5H21.5C21.5 3.89543 20.6046 3 19.5 3V5ZM17.5 3C16.3954 3 15.5 3.89543 15.5 5H17.5V3ZM5.49998 17H7.49998V15H5.49998V17ZM7.49998 17V19H9.49998V17H7.49998ZM7.49998 19H5.49998V21H7.49998V19ZM5.49998 19V17H3.49998V19H5.49998ZM5.49998 19H3.49998C3.49998 20.1046 4.39542 21 5.49998 21V19ZM7.49998 19V21C8.60455 21 9.49998 20.1046 9.49998 19H7.49998ZM7.49998 17H9.49998C9.49998 15.8954 8.60455 15 7.49998 15V17ZM5.49998 15C4.39542 15 3.49998 15.8954 3.49998 17H5.49998V15ZM11.5 4V5H13.5V4H11.5ZM18.5 17H20.5V15H18.5V17ZM12.5 17H14.5V15H12.5V17ZM11.5 16V20H13.5V16H11.5ZM11.5 9V12H13.5V9H11.5ZM16.5 21H20.5V19H16.5V21ZM4.49998 13H8.49998V11H4.49998V13ZM12.5 13H12.51V11H12.5V13ZM20.5 13H20.51V11H20.5V13ZM12.5 13H16.51V11H12.5V13Z" fill="url(#paint0_linear_4_100)"/>
<defs>
<linearGradient id="paint0_linear_4_100" x1="1.57049" y1="1.07234" x2="25.0269" y2="2.80347" gradientUnits="userSpaceOnUse">
<stop stop-color="#FF92E1"/>
<stop offset="1" stop-color="#FDC300"/>
</linearGradient>
</defs>
</svg>
