<svg width="24" height="24" viewBox="0 0 24 24" fill="none" xmlns="http://www.w3.org/2000/svg">
<rect width="24" height="24" rx="12" fill="#3489F7"/>
<path d="M16.6667 11.3333H7.33333M16.6667 11.3333C17.403 11.3333 18 11.9303 18 12.6667V16.6667C18 17.403 17.403 18 16.6667 18H7.33333C6.59695 18 6 17.403 6 16.6667V12.6667C6 11.9303 6.59695 11.3333 7.33333 11.3333M16.6667 11.3333V10C16.6667 9.26362 16.0697 8.66667 15.3333 8.66667M7.33333 11.3333V10C7.33333 9.26362 7.93029 8.66667 8.66667 8.66667M8.66667 8.66667V7.33333C8.66667 6.59695 9.26362 6 10 6H14C14.7364 6 15.3333 6.59695 15.3333 7.33333V8.66667M8.66667 8.66667H15.3333" stroke="white" stroke-width="1.33333" stroke-linecap="round" stroke-linejoin="round"/>
</svg>
