<svg width="27" height="40" viewBox="0 0 27 40" fill="none" xmlns="http://www.w3.org/2000/svg">
  <path d="M21.4974 19.1687C23.3751 18.0793 24.5498 16.1605 24.2754 12.964C23.9059 8.59559 20.5944 7.13077 16.414 6.71361L16.4132 0.654297H13.1743L13.1734 6.55426C12.3212 6.55426 11.4525 6.57333 10.5877 6.59309L10.587 0.655101L7.35099 0.654756L7.35039 6.71257C6.64907 6.72889 5.96034 6.7444 5.28785 6.7444V6.72648L0.820312 6.72441L0.820917 10.663C0.820917 10.663 3.21281 10.6118 3.1734 10.6615C4.48484 10.6625 4.91305 11.5299 5.0362 12.2787L5.03721 19.1815V28.8777C4.97946 29.3476 4.73648 30.0984 3.8195 30.0998C3.86122 30.1416 1.46338 30.0993 1.46338 30.0993L0.820917 34.5035H5.03519C5.82046 34.5046 6.59203 34.5185 7.34898 34.5254L7.3518 40.6533L10.587 40.6543L10.5861 34.5906C11.4762 34.6113 12.3353 34.6203 13.1745 34.619L13.1736 40.6543H16.4124L16.4143 34.5366C21.8585 34.1805 25.67 32.6183 26.1439 26.7949C26.5258 22.1064 24.5884 20.0136 21.4974 19.1687ZM10.6651 10.9289C12.4918 10.9289 18.2368 10.2663 18.2376 14.6126C18.2368 18.7795 12.4936 18.2927 10.6651 18.2927V10.9289ZM10.6637 30.1296L10.6651 22.0103C12.8599 22.0096 19.7438 21.291 19.7447 26.0681C19.7456 30.6494 12.8599 30.1278 10.6637 30.1296Z" fill="currentColor"/>
</svg>
