<svg width="24" height="24" viewBox="0 0 24 24" fill="none" xmlns="http://www.w3.org/2000/svg">
<path d="M16 6V4C16 2.89543 15.1046 2 14 2L10 2C8.89543 2 8 2.89543 8 4V6M5 20L19 20C20.1046 20 21 19.1046 21 18L21 8C21 6.89543 20.1046 6 19 6L5 6C3.89543 6 3 6.89543 3 8L3 18C3 19.1046 3.89543 20 5 20Z" stroke="currentColor" stroke-width="2" stroke-linecap="round" stroke-linejoin="round" fill="none"/>
<path d="M8 12H12C14.2091 12 16 13.7909 16 16V17M8 12L11 15M8 12L11 9" stroke="currentColor" stroke-width="1.4" stroke-linecap="round" stroke-linejoin="round"/>
</svg>
