<svg width="40" height="38" viewBox="0 0 40 38" fill="none" xmlns="http://www.w3.org/2000/svg">
  <path d="M19.5092 0.774518C20.381 0.32353 21.4452 1.36975 20.982 2.23383C20.713 2.93819 19.693 3.12549 19.172 2.58859C18.62 2.07332 18.8 1.05487 19.5092 0.774518ZM10.1322 1.77729C10.6618 1.56102 11.3322 2.04237 11.2782 2.61498C11.3344 3.2366 10.5682 3.69414 10.0284 3.39871C9.31324 3.12391 9.39504 1.97213 10.1322 1.77729ZM29.3374 3.41617C28.5098 3.31696 28.3788 2.0261 29.1756 1.76618C29.7936 1.46717 30.3606 2.02788 30.451 2.60903C30.3214 3.10526 29.9026 3.55962 29.3374 3.41617ZM12.2658 5.73659C13.1512 5.18104 14.4146 6.00841 14.2784 7.02864C14.2324 8.05879 12.8532 8.65561 12.075 7.95919C11.3226 7.41217 11.4366 6.15722 12.2658 5.73659ZM25.782 6.32607C26.177 5.31615 27.7776 5.2856 28.2272 6.26873C28.6716 7.0338 28.125 7.98121 27.3332 8.24133C26.2844 8.43558 25.2882 7.31078 25.782 6.32607ZM18.38 8.18399C18.3714 7.31594 19.1684 6.66912 20 6.60999C20.5516 6.71972 21.1528 6.95285 21.3894 7.50503C21.8304 8.26673 21.4388 9.31553 20.642 9.66513C20.2776 9.86771 19.8468 9.79172 19.45 9.76811C18.8434 9.47267 18.3326 8.89331 18.38 8.18399ZM4.43504 9.44886C5.24384 8.95561 6.33504 9.8558 6.02884 10.7274C5.86024 11.4814 4.83864 11.7881 4.25464 11.3068C3.63124 10.8558 3.73004 9.77148 4.43504 9.44886ZM34.38 9.44728C35.0662 8.91871 36.1986 9.52505 36.1168 10.3846C36.1628 11.1683 35.1838 11.7594 34.5026 11.3558C33.7524 11.0213 33.6758 9.87624 34.38 9.44728ZM22.3016 11.0078C23.434 10.6042 24.779 11.0871 25.4244 12.0887C26.2758 13.3131 25.8228 15.1778 24.5016 15.8804C23.1326 16.7113 21.1336 16.007 20.628 14.4903C20.054 13.1326 20.8902 11.4334 22.3016 11.0078ZM15.6576 11.1413C16.9126 10.5536 18.6016 11.0467 19.2078 12.3203C19.9212 13.5599 19.3696 15.2861 18.0942 15.9262C16.8172 16.6456 15.0156 16.1002 14.3976 14.7693C13.7046 13.4822 14.32 11.734 15.6576 11.1413ZM9.00504 13.3976C9.10044 12.5955 9.86324 12.0734 10.6328 12.0195C11.462 12.1187 12.1244 12.7576 12.2146 13.5901C12.1602 14.4143 11.5182 15.2199 10.6378 15.2149C9.66924 15.2976 8.82004 14.3417 9.00504 13.3976ZM28.6546 12.1939C29.649 11.6197 31.0298 12.4556 30.9856 13.5889C31.0538 14.7897 29.5256 15.6359 28.5354 14.9316C27.5068 14.3451 27.587 12.6933 28.6546 12.1939ZM12.9538 16.426C14.1168 16.1085 15.4466 16.6524 16.017 17.7129C16.6418 18.7803 16.3864 20.2633 15.416 21.0462C14.1714 22.1946 11.876 21.7335 11.2136 20.1662C10.4524 18.7296 11.377 16.8042 12.9538 16.426ZM25.5556 16.42C26.6862 16.0992 28.0144 16.5316 28.6222 17.5534C29.4258 18.722 29.0422 20.4651 27.8458 21.2184C26.5926 22.0932 24.6514 21.6339 23.9618 20.2661C23.1258 18.8512 23.967 16.8516 25.5556 16.42ZM5.47364 17.7534C6.47824 17.3764 7.59184 18.4762 7.18484 19.4643C6.93624 20.3645 5.65744 20.6972 4.99684 20.0335C4.22384 19.4103 4.51004 18.0236 5.47364 17.7534ZM32.7036 19.1873C32.6746 18.3615 33.2836 17.6302 34.1372 17.5845C34.8252 17.6927 35.4942 18.2432 35.4398 18.9863C35.5028 19.9676 34.3108 20.6347 33.468 20.1736C33.073 19.9744 32.8704 19.5724 32.7036 19.1873ZM0.534039 18.2381C1.13844 17.9764 1.88604 18.496 1.74804 19.1619C1.71564 19.9159 0.593639 20.2057 0.181439 19.5758C-0.182761 19.1383 0.0352388 18.4637 0.534039 18.2381ZM38.6426 18.223C39.0682 17.9224 39.751 18.1385 39.9196 18.6317C40.2056 19.1704 39.6812 19.9085 39.07 19.8174C38.212 19.895 37.9344 18.5978 38.6426 18.223ZM16.2366 21.8422C17.827 21.4319 19.5366 22.7476 19.5466 24.3722C19.6504 26.0138 17.9666 27.4696 16.3386 27.0904C15.0802 26.8894 14.0928 25.6868 14.1336 24.4253C14.1302 23.2188 15.048 22.0974 16.2366 21.8422ZM22.535 21.8389C24.1492 21.3912 25.9098 22.7305 25.8842 24.3926C25.9694 26.0039 24.3382 27.4106 22.7442 27.091C21.2442 26.8985 20.1374 25.2636 20.5562 23.8196C20.7676 22.8573 21.578 22.0748 22.535 21.8389ZM10.3912 22.8388C11.5082 22.6498 12.5554 23.8861 12.1024 24.9382C11.772 26.0595 10.1272 26.3636 9.40004 25.4478C8.54704 24.5682 9.18384 22.9603 10.3912 22.8388ZM28.8622 22.8883C29.8582 22.4744 31.0808 23.3291 31.0042 24.4015C31.0442 25.5821 29.5348 26.3962 28.5608 25.7071C27.4576 25.0884 27.6584 23.2678 28.8622 22.8883ZM34.025 28.0255C33.635 27.3043 34.3434 26.3483 35.1506 26.4819C35.5524 26.4751 35.8334 26.7892 36.0906 27.0527C36.1434 27.4801 36.232 27.99 35.8744 28.3194C35.3888 28.9291 34.2888 28.7551 34.025 28.0255ZM4.43164 26.6827C5.18604 26.1845 6.27164 26.9275 6.10204 27.8025C6.01184 28.5763 5.02924 29.0186 4.38204 28.5795C3.68744 28.1809 3.71304 27.046 4.43164 26.6827ZM19.3356 28.3025C20.3232 27.8702 21.5814 28.7231 21.4878 29.8023C21.561 30.9947 20.0048 31.8205 19.0392 31.1045C17.9666 30.4896 18.1454 28.6807 19.3356 28.3025ZM12.4326 29.9001C13.2738 29.461 14.4026 30.2194 14.326 31.1533C14.3516 31.9201 13.5972 32.5737 12.8344 32.4604C12.2026 32.4469 11.7906 31.885 11.588 31.3507C11.5984 30.7684 11.84 30.1197 12.4326 29.9001ZM26.4154 29.9136C27.2804 29.3832 28.5098 30.1449 28.428 31.1437C28.4502 32.1876 27.0608 32.8562 26.2554 32.1705C25.4756 31.633 25.5708 30.341 26.4154 29.9136ZM28.847 35.8772C28.4622 35.2997 28.9152 34.6038 29.54 34.4721C30.0424 34.5735 30.5736 34.9483 30.468 35.5261C30.3948 36.308 29.242 36.5479 28.847 35.8772ZM9.54484 35.3757C9.69804 34.9179 10.0692 34.463 10.6124 34.582C11.4042 34.6378 11.6392 35.8217 10.9462 36.1866C10.323 36.6034 9.60004 36.0326 9.54484 35.3757ZM18.857 35.9009C19.0086 35.2237 19.8922 34.8943 20.4746 35.254C20.8594 35.4179 20.9718 35.8451 21.0706 36.2082C21.0178 36.3973 20.9706 36.5866 20.9242 36.7757C20.6858 37.056 20.3794 37.3364 19.9826 37.3262C19.2452 37.412 18.58 36.585 18.857 35.9009Z" fill="currentColor"/>
</svg>
