<svg width="48" height="48" viewBox="0 0 48 48" fill="none" xmlns="http://www.w3.org/2000/svg">
<circle opacity="0.1" r="24" transform="matrix(1 0 0 -1 24 24)" fill="#2CB67D"/>
<path d="M16 33L16.3354 33.6708C16.1029 33.7871 15.8268 33.7746 15.6057 33.638C15.3846 33.5013 15.25 33.2599 15.25 33H16ZM32 33H32.75C32.75 33.2599 32.6154 33.5013 32.3943 33.638C32.1732 33.7746 31.8971 33.7871 31.6646 33.6708L32 33ZM24 33L24.3354 33.6708C24.1243 33.7764 23.8757 33.7764 23.6646 33.6708L24 33ZM28 31L27.6646 30.3292C27.8757 30.2236 28.1243 30.2236 28.3354 30.3292L28 31ZM20 31L19.6646 30.3292C19.8757 30.2236 20.1243 30.2236 20.3354 30.3292L20 31ZM20.75 27C20.75 27.4142 20.4142 27.75 20 27.75C19.5858 27.75 19.25 27.4142 19.25 27H20.75ZM28 22L28.5303 21.4697C28.8232 21.7626 28.8232 22.2374 28.5303 22.5303L28 22ZM25.5303 25.5303C25.2374 25.8232 24.7626 25.8232 24.4697 25.5303C24.1768 25.2374 24.1768 24.7626 24.4697 24.4697L25.5303 25.5303ZM24.4697 19.5303C24.1768 19.2374 24.1768 18.7626 24.4697 18.4697C24.7626 18.1768 25.2374 18.1768 25.5303 18.4697L24.4697 19.5303ZM30 15.75L18 15.75V14.25L30 14.25V15.75ZM16.75 17L16.75 33H15.25L15.25 17H16.75ZM31.25 33L31.25 17H32.75V33H31.25ZM23.6646 32.3292L27.6646 30.3292L28.3354 31.6708L24.3354 33.6708L23.6646 32.3292ZM28.3354 30.3292L32.3354 32.3292L31.6646 33.6708L27.6646 31.6708L28.3354 30.3292ZM15.6646 32.3292L19.6646 30.3292L20.3354 31.6708L16.3354 33.6708L15.6646 32.3292ZM20.3354 30.3292L24.3354 32.3292L23.6646 33.6708L19.6646 31.6708L20.3354 30.3292ZM18 15.75C17.3096 15.75 16.75 16.3096 16.75 17H15.25C15.25 15.4812 16.4812 14.25 18 14.25V15.75ZM30 14.25C31.5188 14.25 32.75 15.4812 32.75 17H31.25C31.25 16.3096 30.6904 15.75 30 15.75V14.25ZM19.25 27V26H20.75V27H19.25ZM24 21.25H28V22.75H24V21.25ZM19.25 26C19.25 23.3766 21.3766 21.25 24 21.25V22.75C22.2051 22.75 20.75 24.2051 20.75 26H19.25ZM24.4697 24.4697L27.4697 21.4697L28.5303 22.5303L25.5303 25.5303L24.4697 24.4697ZM27.4697 22.5303L24.4697 19.5303L25.5303 18.4697L28.5303 21.4697L27.4697 22.5303Z" fill="#2CB67D"/>
</svg>
