<svg width="48" height="48" viewBox="0 0 48 48" fill="none" xmlns="http://www.w3.org/2000/svg">
<circle opacity="0.1" r="24" transform="matrix(1 0 0 -1 24 24)" fill="#2CB67D"/>
<path d="M30.25 19V31H31.75V19H30.25ZM29 32.25H19V33.75H29V32.25ZM17.75 31L17.75 19H16.25L16.25 31H17.75ZM19 17.75H21V16.25H19V17.75ZM27 17.75H29V16.25L27 16.25V17.75ZM19 32.25C18.3096 32.25 17.75 31.6904 17.75 31H16.25C16.25 32.5188 17.4812 33.75 19 33.75V32.25ZM30.25 31C30.25 31.6904 29.6904 32.25 29 32.25V33.75C30.5188 33.75 31.75 32.5188 31.75 31H30.25ZM31.75 19C31.75 17.4812 30.5188 16.25 29 16.25V17.75C29.6904 17.75 30.25 18.3096 30.25 19H31.75ZM17.75 19C17.75 18.3096 18.3096 17.75 19 17.75V16.25C17.4812 16.25 16.25 17.4812 16.25 19H17.75ZM23 15.75H25V14.25H23V15.75ZM25 18.25H23V19.75H25V18.25ZM23 18.25C22.3096 18.25 21.75 17.6904 21.75 17H20.25C20.25 18.5188 21.4812 19.75 23 19.75V18.25ZM26.25 17C26.25 17.6904 25.6904 18.25 25 18.25V19.75C26.5188 19.75 27.75 18.5188 27.75 17H26.25ZM25 15.75C25.6904 15.75 26.25 16.3096 26.25 17H27.75C27.75 15.4812 26.5188 14.25 25 14.25V15.75ZM23 14.25C21.4812 14.25 20.25 15.4812 20.25 17H21.75C21.75 16.3096 22.3096 15.75 23 15.75V14.25Z" fill="#2CB67D"/>
<path d="M22.5858 22.1715C22.1953 21.781 21.5621 21.781 21.1716 22.1715C20.781 22.5621 20.781 23.1952 21.1716 23.5858L22.5858 22.1715ZM25.4142 27.8284C25.8047 28.2189 26.4379 28.2189 26.8284 27.8284C27.219 27.4379 27.219 26.8047 26.8284 26.4142L25.4142 27.8284ZM26.8284 23.5858C27.219 23.1952 27.219 22.5621 26.8284 22.1715C26.4379 21.781 25.8047 21.781 25.4142 22.1715L26.8284 23.5858ZM21.1716 26.4142C20.781 26.8047 20.781 27.4379 21.1716 27.8284C21.5621 28.2189 22.1953 28.2189 22.5858 27.8284L21.1716 26.4142ZM21.1716 23.5858L25.4142 27.8284L26.8284 26.4142L22.5858 22.1715L21.1716 23.5858ZM25.4142 22.1715L21.1716 26.4142L22.5858 27.8284L26.8284 23.5858L25.4142 22.1715Z" fill="#2CB67D"/>
</svg>
