<svg width="18" height="18" viewBox="0 0 18 18" fill="none" xmlns="http://www.w3.org/2000/svg">
<path fill-rule="evenodd" clip-rule="evenodd" d="M3 1.75C2.30964 1.75 1.75 2.30964 1.75 3V11C1.75 11.6904 2.30964 12.25 3 12.25H4.25V7C4.25 5.48122 5.48122 4.25 7 4.25H12.25V3C12.25 2.30964 11.6904 1.75 11 1.75H3ZM13.75 4.25V3C13.75 1.48122 12.5188 0.25 11 0.25H3C1.48122 0.25 0.25 1.48122 0.25 3V11C0.25 12.5188 1.48122 13.75 3 13.75H4.25V15C4.25 16.5188 5.48122 17.75 7 17.75H15C16.5188 17.75 17.75 16.5188 17.75 15V7C17.75 5.48122 16.5188 4.25 15 4.25H13.75ZM7 5.75C6.30964 5.75 5.75 6.30964 5.75 7V15C5.75 15.6904 6.30964 16.25 7 16.25H15C15.6904 16.25 16.25 15.6904 16.25 15V7C16.25 6.30964 15.6904 5.75 15 5.75H7Z" fill="#ABB2B7"/>
</svg>
