<svg width="105" height="26" viewBox="0 0 105 26" fill="none" xmlns="http://www.w3.org/2000/svg">
<path d="M18.4628 0.21109H8.66406V13.4302H21.894V3.63151C21.894 1.75458 20.3494 0.21109 18.4736 0.21109C18.4703 0.21109 18.466 0.21109 18.4628 0.21109V0.21109Z" fill="currentColor"/>
<path d="M5.60911 0.21109H3.92042C2.04456 0.21109 0.5 1.75566 0.5 3.63151V5.3202H5.60911V0.21109Z" fill="currentColor"/>
<path d="M0.5 8.37491H5.60911V13.484H0.5V8.37491Z" fill="currentColor"/>
<path d="M16.8281 21.6048H18.5168C20.3937 21.6048 21.9372 20.0602 21.9372 18.1844C21.9372 18.1812 21.9372 18.1769 21.9372 18.1736V16.5387H16.8281V21.6048Z" fill="currentColor"/>
<path d="M8.66406 16.5387H13.7732V21.6478H8.66406V16.5387Z" fill="currentColor"/>
<path d="M0.5 16.5387V18.2274C0.5 20.1033 2.04456 21.6478 3.92042 21.6478H5.60911V16.5387H0.5Z" fill="currentColor"/>
<path d="M34.9518 1.57712H32.9512V20.2818H43.5459V18.4963H34.9518V1.57712Z" fill="currentColor"/>
<path d="M49.9783 6.53561C46.0846 6.53561 43.3418 9.42898 43.3418 13.5916V14.0648C43.473 17.7014 46.4901 20.6271 50.1288 20.6475H50.387C52.2091 20.6443 53.9709 19.9925 55.3563 18.8082V18.7545L54.4528 17.2809L54.356 17.3347C53.2804 18.3371 51.8681 18.9018 50.3977 18.9158C50.3612 18.9169 50.3246 18.9169 50.288 18.9169C47.5732 18.9169 45.3403 16.6839 45.3403 13.9691C45.3403 13.9153 45.3403 13.8605 45.3424 13.8067H55.4531V13.6991V12.7526C55.5499 8.95572 53.3449 6.53561 49.9783 6.53561ZM45.45 12.118C45.7167 9.89364 47.6302 8.2028 49.8707 8.21355C51.5594 8.21355 53.4094 9.22462 53.56 12.118H45.45Z" fill="currentColor"/>
<path d="M67.1872 8.11678V8.81592C66.332 7.39182 64.7929 6.51413 63.1321 6.50338H62.8847C59.303 6.50338 56.8291 9.34297 56.8291 13.5055C56.8291 17.6681 59.1954 20.5723 62.7234 20.5723C64.5519 20.6594 66.2836 19.7204 67.2087 18.1414V20.1958H69.1017V1.57712H67.1872V8.11678ZM63.0784 18.8083C60.6045 18.8083 58.9696 16.6571 58.9696 13.5378C58.9696 10.4186 60.7013 8.32114 63.1321 8.32114C65.1435 8.32114 67.1872 9.95606 67.1872 13.5378C67.1872 17.4207 65.0359 18.8083 63.0353 18.8083H63.0784Z" fill="currentColor"/>
<path d="M80.6859 8.3749V8.48246C80.3095 7.84786 79.1586 6.48184 76.3835 6.48184C72.8555 6.48184 70.5322 9.17085 70.5322 13.2796C70.5322 17.3884 72.9631 20.1743 76.5448 20.1743C78.2239 20.299 79.8373 19.4654 80.7074 18.0231V19.8731C80.7074 22.4545 79.0725 23.9281 76.1684 23.9281C74.9164 23.9356 73.6816 23.6452 72.5651 23.0784L72.4683 23.0246L71.7261 24.6595L71.8337 24.7133C73.1879 25.3995 74.6819 25.7685 76.2006 25.7889C79.3091 25.7889 82.6543 24.2078 82.6543 19.8301V6.92284H80.6859V8.3749ZM76.7815 18.4963C74.2 18.4963 72.4791 16.4957 72.4791 13.3872C72.4791 10.2787 73.9526 8.42868 76.4803 8.42868C79.2661 8.42868 80.5891 10.0636 80.5891 13.3872C80.5891 16.7108 79.3091 18.4963 76.7815 18.4963Z" fill="currentColor"/>
<path d="M90.5925 6.53561C86.688 6.53561 83.999 9.42898 83.999 13.5378V14.011C84.1141 17.6885 87.1721 20.6497 90.8506 20.6475H91.1195C92.9351 20.6368 94.6894 19.9806 96.0673 18.7975L95.153 17.2271H95.0455C93.9742 18.2296 92.5651 18.7943 91.098 18.8082C91.0614 18.8093 91.0249 18.8093 90.9883 18.8093C88.2681 18.8093 86.0298 16.571 86.0298 13.8508C86.0298 13.8002 86.0308 13.7497 86.0319 13.6991H96.2286V13.5916V12.645C96.2286 8.95572 94.0129 6.53561 90.5925 6.53561ZM86.1072 12.118C86.3783 9.89149 88.2961 8.2028 90.5387 8.21355C92.2166 8.21355 94.0667 9.22462 94.2172 12.118H86.1072Z" fill="currentColor"/>
<path d="M104.446 6.79375C104.177 6.79375 103.973 6.79375 103.704 6.68619C101.805 6.74104 100.133 7.98874 99.5416 9.79468V6.79375H97.5947V20.228H99.5953V14.5919C99.6018 13.726 99.7438 12.8655 100.015 12.0427C100.649 9.98829 102.069 8.67605 103.758 8.67605C103.969 8.65454 104.182 8.65454 104.393 8.67605H104.5V6.79375H104.446Z" fill="currentColor"/>
</svg>
