<svg width="40" height="40" viewBox="0 0 40 40" fill="none" xmlns="http://www.w3.org/2000/svg">
<circle cx="20" cy="20" r="19.25" stroke="url(#paint0_linear_603_18107)" stroke-width="1.5"/>
<path d="M29.1217 19.1789C28.2587 19.1789 27.4995 19.6333 27.0762 20.3186L24.6471 19.6809C24.6632 19.5533 24.6632 19.4179 24.6632 19.2825C24.6632 18.3738 24.3675 17.5291 23.8721 16.8356L26.9804 13.7352C27.316 13.9185 27.7076 14.0221 28.1151 14.0221C29.4415 14.0221 30.5122 12.9461 30.5122 11.631C30.5122 10.3079 29.4335 9.23999 28.1151 9.23999C26.7966 9.23999 25.718 10.3159 25.718 11.631C25.718 12.0375 25.8218 12.4281 26.0056 12.7628L22.8973 15.8632C22.21 15.369 21.3631 15.0742 20.4441 15.0742C19.1656 15.0742 18.0151 15.6481 17.24 16.5487L13.2126 14.118C13.2606 13.9267 13.2845 13.7274 13.2845 13.5202C13.2845 12.1971 12.2058 11.1292 10.8874 11.1292C9.5689 11.1292 8.49023 12.2051 8.49023 13.5202C8.49023 14.8433 9.5689 15.9112 10.8874 15.9112C11.5106 15.9112 12.0699 15.6721 12.5014 15.2896L16.5446 17.7205C16.3528 18.1987 16.249 18.7248 16.249 19.2746C16.249 20.1833 16.5446 21.028 17.04 21.7215L12.03 26.7188C11.6944 26.5355 11.3028 26.4319 10.8953 26.4319C9.56885 26.4319 8.49819 27.5079 8.49819 28.823C8.49819 30.1381 9.57685 31.214 10.8953 31.214C12.2138 31.214 13.2924 30.1381 13.2924 28.823C13.2924 28.4165 13.1886 28.0259 13.0048 27.6912L18.0067 22.7016C18.614 23.1319 19.3411 23.4109 20.1241 23.4746L20.3318 25.9215C19.4449 26.2723 18.8137 27.1409 18.8137 28.1451C18.8137 29.4682 19.8923 30.5362 21.2108 30.5362C22.5373 30.5362 23.6079 29.4602 23.6079 28.1451C23.6079 26.9895 22.7849 26.0251 21.6982 25.8019L21.4906 23.363C22.7371 23.0443 23.7678 22.1675 24.2871 21.0199L26.7162 21.6575C26.7562 22.9408 27.819 23.9688 29.1133 23.9688C30.4398 23.9688 31.5105 22.8929 31.5105 21.5778C31.5265 20.2547 30.4479 19.1787 29.1215 19.1787L29.1217 19.1789ZM10.8872 14.5403C10.3279 14.5403 9.87241 14.086 9.87241 13.5281C9.87241 12.9702 10.3279 12.5159 10.8872 12.5159C11.4465 12.5159 11.902 12.9702 11.902 13.5281C11.902 14.086 11.4465 14.5403 10.8872 14.5403ZM28.1307 10.619C28.69 10.619 29.1455 11.0734 29.1455 11.6312C29.1455 12.1891 28.69 12.6435 28.1307 12.6435C27.5714 12.6435 27.1159 12.1891 27.1159 11.6312C27.1159 11.0734 27.5714 10.619 28.1307 10.619ZM10.8872 29.843C10.3279 29.843 9.87241 29.3886 9.87241 28.8308C9.87241 28.2729 10.3279 27.8185 10.8872 27.8185C11.4465 27.8185 11.902 28.2729 11.902 28.8308C11.902 29.3886 11.4465 29.843 10.8872 29.843ZM22.2415 28.1452C22.2415 28.7031 21.786 29.1575 21.2267 29.1575C20.6674 29.1575 20.2119 28.7031 20.2119 28.1452C20.2119 27.5874 20.6674 27.133 21.2267 27.133C21.786 27.125 22.2415 27.5874 22.2415 28.1452ZM20.4597 22.1121C18.8936 22.1121 17.6231 20.8449 17.6231 19.2828C17.6231 17.7207 18.8936 16.4534 20.4597 16.4534C22.0258 16.4534 23.2963 17.7207 23.2963 19.2828C23.2963 20.8449 22.0178 22.1121 20.4597 22.1121ZM29.1214 22.5903C28.5621 22.5903 28.1066 22.136 28.1066 21.5781C28.1066 21.0202 28.5621 20.5659 29.1214 20.5659C29.6807 20.5659 30.1362 21.0202 30.1362 21.5781C30.1361 22.136 29.6886 22.5903 29.1214 22.5903Z" fill="url(#paint1_linear_603_18107)"/>
<path fill-rule="evenodd" clip-rule="evenodd" d="M25.4777 11.6308C25.4777 10.1827 26.6643 9 28.1146 9C29.5644 9 30.7516 10.1742 30.7516 11.6308C30.7516 13.0784 29.5735 14.2617 28.1146 14.2617C27.7307 14.2617 27.359 14.1781 27.0272 14.0266L24.1818 16.8647C24.6351 17.5632 24.9025 18.3935 24.9025 19.2823V19.2893C24.9025 19.3558 24.9025 19.4268 24.9002 19.4994L26.9712 20.043C27.3705 19.4855 27.9822 19.0909 28.6866 18.9745L28.6617 18.9387H29.1211C30.5782 18.9387 31.7667 20.1208 31.7498 21.579C31.7491 23.026 30.5713 24.2084 29.1129 24.2084C27.7511 24.2084 26.6211 23.1735 26.4879 21.8454L24.417 21.3018C23.8746 22.3656 22.9089 23.1849 21.7459 23.5401L21.9221 25.6094C23.0294 25.9183 23.8473 26.936 23.8473 28.1449C23.8473 29.5925 22.6692 30.7758 21.2104 30.7758C19.7606 30.7758 18.5734 29.6016 18.5734 28.1449C18.5734 27.102 19.1909 26.1941 20.0779 25.7704L19.9015 23.6923C19.2215 23.6055 18.5867 23.3652 18.0358 23.0106L13.2964 27.7384C13.4481 28.0693 13.5318 28.4399 13.5318 28.8228C13.5318 30.2709 12.3452 31.4536 10.8949 31.4536C9.44455 31.4536 8.25795 30.2709 8.25795 28.8228C8.25795 27.3752 9.43603 26.192 10.8949 26.192C11.2788 26.192 11.6505 26.2756 11.9824 26.427L16.7295 21.692C16.2761 20.9935 16.0087 20.1632 16.0087 19.2744C16.0087 18.7667 16.0926 18.2772 16.2499 17.8232L12.5233 15.5826C12.0722 15.9342 11.5091 16.1508 10.8869 16.1508C9.43712 16.1508 8.25 14.9766 8.25 13.52C8.25 12.0719 9.4366 10.8892 10.8869 10.8892C12.3367 10.8892 13.5239 12.0634 13.5239 13.52C13.5239 13.6839 13.5101 13.8443 13.4823 14.0007L17.194 16.2409C18.0081 15.3772 19.1651 14.8342 20.4437 14.8342C21.341 14.8342 22.1737 15.1003 22.8682 15.5529L25.7131 12.7152C25.5614 12.3843 25.4777 12.0137 25.4777 11.6308ZM29.1518 19.4185H29.1212C28.3443 19.4185 27.661 19.8273 27.2798 20.4444L27.1865 20.5954L24.3825 19.8593L24.4088 19.6508C24.4226 19.5408 24.4229 19.4208 24.4229 19.2823C24.4229 18.4265 24.1447 17.63 23.6766 16.9747L23.5583 16.8092L26.9375 13.4386L27.0949 13.5245C27.3954 13.6887 27.7475 13.7821 28.1146 13.7821C29.3087 13.7821 30.272 12.8135 30.272 11.6308C30.272 10.4413 29.3018 9.47959 28.1146 9.47959C26.928 9.47959 25.9573 10.4487 25.9573 11.6308C25.9573 11.9967 26.0509 12.3477 26.2153 12.6473L26.302 12.8052L22.9221 16.1765L22.7569 16.0577C22.1088 15.5917 21.3106 15.3138 20.4437 15.3138C19.2384 15.3138 18.1531 15.8546 17.4213 16.7049L17.2892 16.8585L12.9364 14.2314L12.9796 14.0594C13.0225 13.8882 13.0443 13.7086 13.0443 13.52C13.0443 12.3304 12.0741 11.3688 10.8869 11.3688C9.70032 11.3688 8.72959 12.3379 8.72959 13.52C8.72959 14.7096 9.6998 15.6713 10.8869 15.6713C11.4467 15.6713 11.9505 15.4569 12.342 15.11L12.4737 14.9932L16.8427 17.6201L16.7667 17.8096C16.5864 18.2591 16.4883 18.7548 16.4883 19.2744C16.4883 20.1302 16.7666 20.9267 17.2347 21.582L17.3529 21.7475L12.072 27.015L11.9146 26.9291C11.6142 26.765 11.2621 26.6715 10.8949 26.6715C9.70079 26.6715 8.73755 27.6402 8.73755 28.8228C8.73755 30.0049 9.70827 30.974 10.8949 30.974C12.0815 30.974 13.0522 30.0049 13.0522 28.8228C13.0522 28.4569 12.9587 28.1059 12.7942 27.8064L12.7075 27.6484L17.98 22.3889L18.1449 22.5057C18.7186 22.9122 19.4047 23.1753 20.1431 23.2354L20.3454 23.2519L20.5854 26.0788L20.4195 26.1443C19.6204 26.4604 19.053 27.2431 19.053 28.1449C19.053 29.3345 20.0232 30.2962 21.2104 30.2962C22.4044 30.2962 23.3677 29.3276 23.3677 28.1449C23.3677 27.1058 22.6273 26.2375 21.6495 26.0366L21.4741 26.0006L21.234 23.1808L21.4307 23.1305C22.6063 22.83 23.5787 22.0026 24.0682 20.9208L24.1517 20.7363L26.9499 21.4708L26.9554 21.6499C26.9914 22.8027 27.9471 23.7288 29.1129 23.7288C30.307 23.7288 31.2702 22.7602 31.2702 21.5776V21.5747C31.2845 20.3976 30.3327 19.435 29.1518 19.4185ZM28.1303 10.8586C27.7028 10.8586 27.3553 11.2062 27.3553 11.6311C27.3553 12.0559 27.7028 12.4035 28.1303 12.4035C28.5577 12.4035 28.9053 12.0559 28.9053 11.6311C28.9053 11.2062 28.5577 10.8586 28.1303 10.8586ZM26.8757 11.6311C26.8757 10.9402 27.4391 10.379 28.1303 10.379C28.8214 10.379 29.3849 10.9402 29.3849 11.6311C29.3849 12.3219 28.8214 12.8831 28.1303 12.8831C27.4391 12.8831 26.8757 12.3219 26.8757 11.6311ZM10.8868 12.7555C10.4593 12.7555 10.1118 13.103 10.1118 13.5279C10.1118 13.9528 10.4593 14.3003 10.8868 14.3003C11.3142 14.3003 11.6618 13.9528 11.6618 13.5279C11.6618 13.103 11.3142 12.7555 10.8868 12.7555ZM9.63218 13.5279C9.63218 12.837 10.1956 12.2759 10.8868 12.2759C11.5779 12.2759 12.1414 12.837 12.1414 13.5279C12.1414 14.2188 11.5779 14.7799 10.8868 14.7799C10.1956 14.7799 9.63218 14.2188 9.63218 13.5279ZM20.4592 16.693C19.025 16.693 17.8625 17.8535 17.8625 19.2826C17.8625 20.7117 19.025 21.8722 20.4592 21.8722C21.8859 21.8722 23.056 20.7113 23.056 19.2826C23.056 17.8535 21.8935 16.693 20.4592 16.693ZM17.3829 19.2826C17.3829 17.5875 18.7613 16.2134 20.4592 16.2134C22.1572 16.2134 23.5356 17.5875 23.5356 19.2826C23.5356 20.9782 22.1488 22.3518 20.4592 22.3518C18.7613 22.3518 17.3829 20.9777 17.3829 19.2826ZM29.121 20.8055C28.6936 20.8055 28.346 21.153 28.346 21.5779C28.346 22.0028 28.6936 22.3503 29.121 22.3503C29.555 22.3503 29.8959 22.0041 29.896 21.5779M27.8664 21.5779C27.8664 20.887 28.4298 20.3259 29.121 20.3259C29.8122 20.3259 30.3756 20.887 30.3756 21.5779C30.3754 22.2675 29.8213 22.8299 29.121 22.8299C28.4298 22.8299 27.8664 22.2688 27.8664 21.5779ZM29.121 20.8055C29.5484 20.8055 29.896 21.1531 29.896 21.5779L29.121 20.8055ZM22.0012 28.1451C22.0012 27.717 21.6513 27.3666 21.2297 27.3726L21.2262 27.3726C20.7988 27.3726 20.4512 27.7202 20.4512 28.1451C20.4512 28.5699 20.7988 28.9175 21.2262 28.9175C21.6537 28.9175 22.0012 28.5699 22.0012 28.1451ZM21.2246 26.893C21.9207 26.8841 22.4808 27.4579 22.4808 28.1451C22.4808 28.8359 21.9174 29.3971 21.2262 29.3971C20.5351 29.3971 19.9716 28.8359 19.9716 28.1451C19.9716 27.4547 20.5342 26.8939 21.2246 26.893ZM10.8868 28.0581C10.4593 28.0581 10.1118 28.4057 10.1118 28.8306C10.1118 29.2554 10.4593 29.603 10.8868 29.603C11.3142 29.603 11.6618 29.2554 11.6618 28.8306C11.6618 28.4057 11.3142 28.0581 10.8868 28.0581ZM9.63218 28.8306C9.63218 28.1397 10.1956 27.5785 10.8868 27.5785C11.5779 27.5785 12.1414 28.1397 12.1414 28.8306C12.1414 29.5214 11.5779 30.0826 10.8868 30.0826C10.1956 30.0826 9.63218 29.5214 9.63218 28.8306Z" fill="url(#paint2_linear_603_18107)"/>
<defs>
<linearGradient id="paint0_linear_603_18107" x1="-7.31915" y1="-7.31914" x2="51.2856" y2="-2.9967" gradientUnits="userSpaceOnUse">
<stop stop-color="#FF92E1"/>
<stop offset="1" stop-color="#FDC300"/>
</linearGradient>
<linearGradient id="paint1_linear_603_18107" x1="4.27799" y1="5.21922" x2="37.9878" y2="7.82391" gradientUnits="userSpaceOnUse">
<stop stop-color="#FF92E1"/>
<stop offset="1" stop-color="#FDC300"/>
</linearGradient>
<linearGradient id="paint2_linear_603_18107" x1="3.95" y1="4.89147" x2="38.3625" y2="7.54787" gradientUnits="userSpaceOnUse">
<stop stop-color="#FF92E1"/>
<stop offset="1" stop-color="#FDC300"/>
</linearGradient>
</defs>
</svg>
