<svg width="48" height="48" viewBox="0 0 48 48" fill="none" xmlns="http://www.w3.org/2000/svg">
<circle opacity="0.1" cx="24" cy="24" r="24" fill="#FDC300"/>
<path d="M24.75 20C24.75 19.5858 24.4142 19.25 24 19.25C23.5858 19.25 23.25 19.5858 23.25 20H24.75ZM24 24H23.25C23.25 24.1989 23.329 24.3897 23.4697 24.5303L24 24ZM26.4697 27.5303C26.7626 27.8232 27.2374 27.8232 27.5303 27.5303C27.8232 27.2374 27.8232 26.7626 27.5303 26.4697L26.4697 27.5303ZM32.25 24C32.25 28.5563 28.5563 32.25 24 32.25V33.75C29.3848 33.75 33.75 29.3848 33.75 24H32.25ZM24 32.25C19.4437 32.25 15.75 28.5563 15.75 24H14.25C14.25 29.3848 18.6152 33.75 24 33.75V32.25ZM15.75 24C15.75 19.4437 19.4437 15.75 24 15.75V14.25C18.6152 14.25 14.25 18.6152 14.25 24H15.75ZM24 15.75C28.5563 15.75 32.25 19.4437 32.25 24H33.75C33.75 18.6152 29.3848 14.25 24 14.25V15.75ZM23.25 20V24H24.75V20H23.25ZM23.4697 24.5303L26.4697 27.5303L27.5303 26.4697L24.5303 23.4697L23.4697 24.5303Z" fill="#FDC300"/>
</svg>
