<svg width="48" height="48" viewBox="0 0 48 48" fill="none" xmlns="http://www.w3.org/2000/svg">
<circle opacity="0.1" r="24" transform="matrix(1 0 0 -1 24 24)" fill="#2CB67D"/>
<path d="M21.5303 25.4697C21.2374 25.1768 20.7626 25.1768 20.4697 25.4697C20.1768 25.7626 20.1768 26.2374 20.4697 26.5303L21.5303 25.4697ZM23 28L22.4697 28.5303C22.7626 28.8232 23.2374 28.8232 23.5303 28.5303L23 28ZM27.5303 24.5303C27.8232 24.2374 27.8232 23.7626 27.5303 23.4697C27.2374 23.1768 26.7626 23.1768 26.4697 23.4697L27.5303 24.5303ZM30.25 19V31H31.75V19H30.25ZM29 32.25H19V33.75H29V32.25ZM17.75 31L17.75 19H16.25L16.25 31H17.75ZM19 17.75H21V16.25H19V17.75ZM27 17.75H29V16.25L27 16.25V17.75ZM19 32.25C18.3096 32.25 17.75 31.6904 17.75 31H16.25C16.25 32.5188 17.4812 33.75 19 33.75V32.25ZM30.25 31C30.25 31.6904 29.6904 32.25 29 32.25V33.75C30.5188 33.75 31.75 32.5188 31.75 31H30.25ZM31.75 19C31.75 17.4812 30.5188 16.25 29 16.25V17.75C29.6904 17.75 30.25 18.3096 30.25 19H31.75ZM17.75 19C17.75 18.3096 18.3096 17.75 19 17.75V16.25C17.4812 16.25 16.25 17.4812 16.25 19H17.75ZM20.4697 26.5303L22.4697 28.5303L23.5303 27.4697L21.5303 25.4697L20.4697 26.5303ZM23.5303 28.5303L27.5303 24.5303L26.4697 23.4697L22.4697 27.4697L23.5303 28.5303ZM23 15.75H25V14.25H23V15.75ZM25 18.25H23V19.75H25V18.25ZM23 18.25C22.3096 18.25 21.75 17.6904 21.75 17H20.25C20.25 18.5188 21.4812 19.75 23 19.75V18.25ZM26.25 17C26.25 17.6904 25.6904 18.25 25 18.25V19.75C26.5188 19.75 27.75 18.5188 27.75 17H26.25ZM25 15.75C25.6904 15.75 26.25 16.3096 26.25 17H27.75C27.75 15.4812 26.5188 14.25 25 14.25V15.75ZM23 14.25C21.4812 14.25 20.25 15.4812 20.25 17H21.75C21.75 16.3096 22.3096 15.75 23 15.75V14.25Z" fill="#2CB67D"/>
</svg>
