<svg width="48" height="48" viewBox="0 0 48 48" fill="none" xmlns="http://www.w3.org/2000/svg">
<circle opacity="0.1" cx="24" cy="24" r="24" transform="matrix(1 0 0 -1 0 48)" fill="#2CB67D"/>
<path d="M24 20L24 33M24 20C24 20 24 18.5072 24 18C24 16.8954 24.8954 16 26 16C27.1046 16 28 16.8954 28 18C28 19.1046 27.1046 20 26 20C25.4027 20 24 20 24 20ZM24 20C24 20 24 18.0629 24 17.5C24 16.1193 22.8807 15 21.5 15C20.1193 15 19 16.1193 19 17.5C19 18.8807 20.1193 20 21.5 20C22.3178 20 24 20 24 20ZM17 24H31M17 24C15.8954 24 15 23.1046 15 22C15 20.8954 15.8954 20 17 20L31 20C32.1046 20 33 20.8954 33 22C33 23.1046 32.1046 24 31 24M17 24L17 31C17 32.1046 17.8954 33 19 33H29C30.1046 33 31 32.1046 31 31L31 24" fill="rgb(44, 182, 125, 0.1)" stroke="#2CB67D" stroke-width="1.5" stroke-linecap="round" stroke-linejoin="round"/>
</svg>

