<svg width="48" height="48" viewBox="0 0 48 48" fill="none" xmlns="http://www.w3.org/2000/svg">
<circle opacity="0.1" r="24" transform="matrix(1 0 0 -1 24 24)" fill="#2CB67D"/>
<path d="M16.75 16C16.75 15.5858 16.4142 15.25 16 15.25C15.5858 15.25 15.25 15.5858 15.25 16H16.75ZM16 21H15.25C15.25 21.4142 15.5858 21.75 16 21.75V21ZM31.1939 23.0928C31.2451 23.5038 31.6199 23.7955 32.0309 23.7442C32.4419 23.693 32.7336 23.3182 32.6823 22.9072L31.1939 23.0928ZM21 21.75C21.4142 21.75 21.75 21.4142 21.75 21C21.75 20.5858 21.4142 20.25 21 20.25V21.75ZM31.25 32C31.25 32.4142 31.5858 32.75 32 32.75C32.4142 32.75 32.75 32.4142 32.75 32L31.25 32ZM32 27L32.75 27C32.75 26.5858 32.4142 26.25 32 26.25V27ZM27 26.25C26.5858 26.25 26.25 26.5858 26.25 27C26.25 27.4142 26.5858 27.75 27 27.75V26.25ZM16.8061 24.9072C16.7549 24.4962 16.3801 24.2045 15.9691 24.2558C15.5581 24.307 15.2664 24.6818 15.3177 25.0928L16.8061 24.9072ZM15.25 16V21H16.75V16H15.25ZM24 16.75C27.6966 16.75 30.748 19.5172 31.1939 23.0928L32.6823 22.9072C32.144 18.5901 28.4626 15.25 24 15.25V16.75ZM17.2767 21.2814C18.3528 18.6231 20.9586 16.75 24 16.75V15.25C20.3267 15.25 17.1838 17.5133 15.8863 20.7186L17.2767 21.2814ZM16 21.75H16.5815V20.25H16V21.75ZM16.5815 21.75H21V20.25H16.5815V21.75ZM32.75 32V27L31.25 27V32L32.75 32ZM30.7233 26.7186C29.6472 29.3769 27.0414 31.25 24 31.25L24 32.75C27.6733 32.75 30.8162 30.4867 32.1137 27.2814L30.7233 26.7186ZM32 26.25H31.4185V27.75H32V26.25ZM31.4185 26.25H27V27.75H31.4185V26.25ZM24 31.25C20.3034 31.25 17.252 28.4828 16.8061 24.9072L15.3177 25.0928C15.856 29.4099 19.5374 32.75 24 32.75L24 31.25Z" fill="#2CB67D"/>
</svg>
