<svg width="24" height="24" viewBox="0 0 24 24" fill="none" xmlns="http://www.w3.org/2000/svg">
<rect width="24" height="24" rx="12" fill="#FF92DE"/>
<path d="M6.66602 8.66667V15.3333C6.66602 16.8061 9.05383 18 11.9993 18C14.9449 18 17.3327 16.8061 17.3327 15.3333V8.66667M6.66602 8.66667C6.66602 10.1394 9.05383 11.3333 11.9993 11.3333C14.9449 11.3333 17.3327 10.1394 17.3327 8.66667M6.66602 8.66667C6.66602 7.19391 9.05383 6 11.9993 6C14.9449 6 17.3327 7.19391 17.3327 8.66667M17.3327 12C17.3327 13.4728 14.9449 14.6667 11.9993 14.6667C9.05383 14.6667 6.66602 13.4728 6.66602 12" stroke="white"/>
</svg>
