<svg width="20" height="16" viewBox="0 0 20 16" fill="none" xmlns="http://www.w3.org/2000/svg">
<path fill-rule="evenodd" clip-rule="evenodd" d="M3 0.25C1.48122 0.25 0.25 1.48122 0.25 3L0.25 6C0.25 6.41421 0.585786 6.75 1 6.75C1.69036 6.75 2.25 7.30964 2.25 8C2.25 8.69036 1.69036 9.25 1 9.25C0.585786 9.25 0.25 9.58579 0.25 10L0.25 13C0.25 14.5188 1.48122 15.75 3 15.75L17 15.75C18.5188 15.75 19.75 14.5188 19.75 13L19.75 10C19.75 9.58579 19.4142 9.25 19 9.25C18.3096 9.25 17.75 8.69036 17.75 8C17.75 7.30964 18.3096 6.75 19 6.75C19.4142 6.75 19.75 6.41421 19.75 6V3C19.75 1.48122 18.5188 0.25 17 0.25L3 0.25ZM1.75 3C1.75 2.30964 2.30964 1.75 3 1.75L17 1.75C17.6904 1.75 18.25 2.30964 18.25 3V5.35352C17.0957 5.67998 16.25 6.74122 16.25 8C16.25 9.25878 17.0957 10.32 18.25 10.6465L18.25 13C18.25 13.6904 17.6904 14.25 17 14.25L3 14.25C2.30964 14.25 1.75 13.6904 1.75 13L1.75 10.6465C2.90425 10.32 3.75 9.25878 3.75 8C3.75 6.74122 2.90425 5.67998 1.75 5.35352L1.75 3ZM12.4243 5.57574C12.1899 5.34142 11.8101 5.34142 11.5757 5.57574C11.3414 5.81005 11.3414 6.18995 11.5757 6.42426L12.5515 7.4L7 7.4C6.66863 7.4 6.4 7.66863 6.4 8C6.4 8.33137 6.66863 8.6 7 8.6L12.5515 8.6L11.5757 9.57574C11.3414 9.81005 11.3414 10.1899 11.5757 10.4243C11.8101 10.6586 12.1899 10.6586 12.4243 10.4243L14.4243 8.42426C14.6586 8.18995 14.6586 7.81005 14.4243 7.57574L12.4243 5.57574Z" fill="currentColor"/>
</svg>
