<svg width="48" height="48" viewBox="0 0 48 48" fill="none" xmlns="http://www.w3.org/2000/svg">
    <circle opacity="0.1" cx="24" cy="24" r="24" transform="matrix(1 0 0 -1 0 48)" fill="#3489F7"/>
    <path d="M33 22V22.75C33.4142 22.75 33.75 22.4142 33.75 22H33ZM33 26H33.75C33.75 25.5858 33.4142 25.25 33 25.25V26ZM15 26V25.25C14.5858 25.25 14.25 25.5858 14.25 26H15ZM15 22H14.25C14.25 22.4142 14.5858 22.75 15 22.75L15 22ZM17 16.25C15.4812 16.25 14.25 17.4812 14.25 19H15.75C15.75 18.3096 16.3096 17.75 17 17.75V16.25ZM31 16.25L17 16.25V17.75L31 17.75V16.25ZM33.75 19C33.75 17.4812 32.5188 16.25 31 16.25V17.75C31.6904 17.75 32.25 18.3096 32.25 19H33.75ZM33.75 22V19H32.25V22H33.75ZM31.75 24C31.75 23.3096 32.3096 22.75 33 22.75V21.25C31.4812 21.25 30.25 22.4812 30.25 24H31.75ZM33 25.25C32.3096 25.25 31.75 24.6904 31.75 24H30.25C30.25 25.5188 31.4812 26.75 33 26.75V25.25ZM33.75 29V26H32.25V29H33.75ZM31 31.75C32.5188 31.75 33.75 30.5188 33.75 29H32.25C32.25 29.6904 31.6904 30.25 31 30.25V31.75ZM17 31.75H31V30.25H17V31.75ZM14.25 29C14.25 30.5188 15.4812 31.75 17 31.75V30.25C16.3096 30.25 15.75 29.6904 15.75 29H14.25ZM14.25 26V29H15.75V26H14.25ZM16.25 24C16.25 24.6904 15.6904 25.25 15 25.25V26.75C16.5188 26.75 17.75 25.5188 17.75 24H16.25ZM15 22.75C15.6904 22.75 16.25 23.3096 16.25 24H17.75C17.75 22.4812 16.5188 21.25 15 21.25L15 22.75ZM14.25 19V22H15.75V19H14.25Z" fill="#3489F7"/>
    <path d="M27 17V19" stroke="#3489F7" stroke-width="2" stroke-linecap="round"/>
    <path d="M27 23V25" stroke="#3489F7" stroke-width="2" stroke-linecap="round" stroke-linejoin="round"/>
    <path d="M27 29V31" stroke="#3489F7" stroke-width="2" stroke-linecap="round" stroke-linejoin="round"/>
</svg>
