<svg width="20" height="18" viewBox="0 0 20 18" fill="none" xmlns="http://www.w3.org/2000/svg">
<path d="M6.29 17.251C13.837 17.251 17.965 10.998 17.965 5.576C17.965 5.398 17.965 5.221 17.953 5.046C18.7562 4.46453 19.4493 3.74461 20 2.92C19.2511 3.252 18.4566 3.46976 17.643 3.566C18.4996 3.05306 19.1408 2.24635 19.447 1.296C18.6417 1.77389 17.7607 2.11073 16.842 2.292C16.2234 1.63377 15.405 1.19784 14.5136 1.05171C13.6222 0.905576 12.7075 1.0574 11.9111 1.48367C11.1147 1.90994 10.4811 2.58687 10.1083 3.40966C9.7355 4.23245 9.64437 5.15518 9.849 6.035C8.21759 5.95324 6.6216 5.52933 5.16465 4.79077C3.70769 4.05221 2.42233 3.01552 1.392 1.748C0.867318 2.6512 0.706589 3.72042 0.942536 4.73796C1.17848 5.75551 1.79337 6.64488 2.662 7.225C2.00926 7.20607 1.37065 7.03046 0.8 6.713V6.765C0.800389 7.7123 1.1284 8.6303 1.7284 9.36336C2.3284 10.0964 3.16347 10.5994 4.092 10.787C3.48781 10.9517 2.85389 10.9757 2.239 10.857C2.50116 11.6725 3.01168 12.3856 3.69913 12.8966C4.38658 13.4076 5.21657 13.691 6.073 13.707C5.22212 14.3756 4.24779 14.8698 3.20573 15.1615C2.16367 15.4532 1.07432 15.5366 0 15.407C1.8766 16.6113 4.06019 17.2501 6.29 17.247" fill="currentColor"/>
</svg>
