<svg width="686" height="166" viewBox="0 0 686 166" fill="none" xmlns="http://www.w3.org/2000/svg">
<path d="M288.795 -11C288.684 -28.1626 285.317 -45.27 287.139 -62.4878C288.905 -79.0985 291.776 -95.5989 295.751 -111.823C304.308 -147.639 319.215 -181.246 341.519 -210.66C349.082 -220.649 357.584 -230.968 368.405 -237.646C379.557 -244.544 392.421 -247.248 403.849 -254.146C420.743 -264.355 440.673 -266.783 459.72 -271.143C475.565 -274.785 491.354 -280.856 507.751 -280.8C542.864 -280.635 577.424 -276.496 611.046 -265.349C648.698 -252.877 685.964 -243.716 711.967 -211.267C736.534 -180.694 746.196 -141.568 753.815 -103.822C759.888 -73.7456 766.568 -43.8352 766.623 -12.9867C766.733 23.1044 754.311 55.2222 739.902 87.5055C726.431 117.692 729.689 154.556 704.955 179.278C682.43 201.794 649.25 201.96 620.707 211.341C608.175 215.48 594.539 217.522 581.509 219.674C563.401 222.709 544.741 226.407 526.412 226.572C495.937 226.848 458.45 222.82 429.963 211.12C413.621 204.333 397.003 197.214 380.993 189.764C366.363 182.976 352.284 174.477 340.801 162.999C318.663 140.87 312.866 110.573 304.088 81.7111C294.868 51.6352 289.016 20.4003 288.795 -11Z" stroke="#FF92DE" stroke-width="0.4" stroke-miterlimit="10"/>
<path d="M292.439 -10.9448C292.383 -27.2797 288.96 -43.7248 289.899 -60.17C290.893 -77.4982 293.929 -94.9367 298.125 -111.768C307.069 -147.363 321.865 -182.847 344.224 -212.15C351.787 -222.028 360.455 -232.237 371.662 -238.032C382.98 -243.937 395.071 -246.586 406.444 -253.042C423.227 -262.589 443.709 -264.797 462.37 -268.604C477.497 -271.695 492.403 -277.048 507.972 -277.103C542.532 -277.213 576.761 -274.013 609.942 -263.251C647.373 -251.111 685.135 -242.336 711.028 -210.329C735.154 -180.474 743.987 -141.954 751.385 -105.146C757.569 -74.5733 762.758 -43.8904 762.979 -12.8211C763.255 23.3252 751.496 56.4363 737.694 89.2163C725.217 118.685 728.695 154.887 704.679 178.947C682.872 200.746 650.023 201.021 622.087 209.244C609.058 213.107 594.815 214.707 581.344 216.639C563.235 219.288 544.63 222.82 526.411 222.93C509.573 223.04 492.624 221.274 475.896 218.791C460.713 216.529 444.813 215.259 430.515 209.41C413.676 202.511 396.506 194.234 379.944 186.563C365.921 180.051 352.505 171.939 341.519 160.957C319.822 139.269 314.522 109.193 306.13 80.8282C297.462 51.0282 292.549 19.8485 292.439 -10.9448Z" stroke="#FF94D7" stroke-width="0.4" stroke-miterlimit="10"/>
<path d="M295.475 -10.7793C295.42 -27.0037 291.776 -43.4489 292.439 -59.9493C293.212 -78.1604 296.027 -96.2059 300.775 -113.81C310.216 -148.356 324.956 -184.999 347.04 -213.585C354.106 -222.746 362.388 -232.127 372.988 -237.259C384.526 -242.888 396.893 -245.592 408.487 -251.773C425.27 -260.768 445.311 -262.865 463.861 -266.176C478.822 -268.825 493.507 -273.737 508.8 -273.902C542.698 -274.289 576.706 -271.75 609.334 -261.375C646.214 -249.676 684.804 -240.902 710.255 -209.391C734.216 -179.701 742.552 -141.071 749.84 -104.484C755.968 -73.9111 759.667 -43.173 759.998 -12.2693C760.384 22.7733 750.171 56.4363 736.921 88.5541C724.83 117.913 728.198 154.776 704.458 178.506C683.314 199.642 649.802 200.911 622.198 207.699C609.003 210.955 594.759 212.224 581.289 213.935C563.236 216.253 544.686 219.674 526.467 219.729C510.456 219.84 494.446 218.46 478.546 216.529C462.315 214.597 444.758 213.88 429.687 207.202C413.29 199.973 397.5 191.364 381.103 184.024C366.97 177.733 353.389 169.676 342.402 158.694C321.478 137.724 316.509 108.476 308.504 81.1041C299.892 51.3041 295.53 20.3452 295.475 -10.7793Z" stroke="#FF95D0" stroke-width="0.4" stroke-miterlimit="10"/>
<path d="M298.015 -10.5585C298.015 -26.507 294.15 -42.7315 294.481 -59.0111C294.813 -77.7189 297.573 -96.2611 302.652 -114.307C308.449 -134.67 317.448 -154.923 326.116 -174.238C332.52 -188.531 340.194 -202.493 349.8 -214.909C356.701 -223.794 364.982 -232.734 375.527 -237.149C387.618 -242.171 399.708 -245.371 411.689 -251.331C428.251 -259.609 448.071 -261.486 466.179 -264.245C480.809 -266.452 495.053 -270.867 509.904 -271.088C544.244 -271.64 578.528 -269.322 611.488 -258.726C646.931 -247.303 684.749 -238.694 709.317 -208.563C732.836 -179.756 740.51 -141.403 747.963 -105.863C754.532 -74.4629 756.906 -42.897 757.348 -11.2207C757.845 23.9874 748.073 58.423 735.154 90.9822C723.892 119.347 727.094 155.549 704.293 178.34C683.976 198.649 650.575 200.249 623.909 206.209C609.445 209.41 593.434 210.569 578.694 212.003C561.358 213.659 543.968 217.136 526.522 217.191C510.512 217.246 494.446 216.197 478.491 214.542C462.977 212.997 446.083 213.052 431.619 206.816C414.67 199.476 399.212 189.212 382.152 181.872C367.908 175.747 354.217 167.745 343.23 156.708C322.638 136.069 317.614 106.324 309.829 79.3382C301.438 50.1452 298.015 19.2415 298.015 -10.5585Z" stroke="#FF97C9" stroke-width="0.4" stroke-miterlimit="10"/>
<path d="M300.057 -10.2827C300.057 -26.2864 296.027 -42.566 296.137 -58.8456C296.248 -77.2223 298.843 -95.5438 303.811 -113.258C309.774 -134.339 320.374 -154.261 328.931 -174.403C335.17 -189.083 342.789 -203.486 352.671 -216.123C359.461 -224.787 367.853 -233.562 378.564 -237.204C391.703 -241.619 403.462 -246.034 416.271 -251.718C432.281 -258.837 451.052 -260.603 468.277 -262.755C482.742 -264.521 496.875 -268.494 511.45 -268.825C545.127 -269.487 579.025 -267.722 611.322 -257.292C645.938 -246.144 684.583 -237.204 708.544 -207.846C731.731 -179.37 739.626 -140.244 747.079 -105.036C753.759 -73.3593 754.808 -41.7934 755.36 -10.0068C755.968 24.1529 747.41 59.1403 734.823 90.8717C728.64 106.6 725.714 121.389 722.843 137.89C720.248 152.679 715.003 167.193 704.182 178.009C692.478 189.708 676.689 194.785 660.789 197.434C648.367 199.476 636.442 202.953 624.13 205.215C609.445 207.92 593.49 208.968 578.639 210.127C561.358 211.507 543.968 214.928 526.632 214.983C510.788 215.038 494.887 214.211 479.098 212.886C463.64 211.617 446.47 212.279 432.06 206.043C414.725 198.538 399.929 186.618 382.483 179.168C368.405 173.153 354.879 165.427 343.948 154.555C323.962 134.523 318.828 104.944 311.265 78.6758C302.928 49.8692 300.057 19.1862 300.057 -10.2827Z" stroke="#FF98C2" stroke-width="0.4" stroke-miterlimit="10"/>
<path d="M301.658 -9.89629C301.658 -25.6793 297.518 -41.7933 297.352 -57.9074C297.186 -76.9463 299.781 -95.8748 305.026 -114.141C311.265 -135.608 323.355 -154.757 331.968 -175.231C338.206 -190.021 345.439 -204.59 355.431 -217.172C362.222 -225.726 370.448 -233.727 381.158 -236.928C394.85 -240.957 406.72 -246.42 420.025 -251.773C435.98 -258.23 454.199 -259.775 471.203 -261.596C485.281 -263.086 499.139 -266.452 513.327 -266.728C546.894 -267.501 580.736 -265.956 612.813 -255.47C646.158 -244.599 684.583 -235.162 707.771 -207.128C730.627 -179.48 738.632 -139.526 746.141 -105.201C753.207 -72.8074 753.042 -40.8552 753.649 -8.40628C754.311 26.0293 746.03 61.5685 733.498 93.7415C727.425 109.249 724.609 123.983 721.628 140.318C719.089 154.114 714.175 167.745 704.017 177.844C693.03 188.826 678.124 193.682 663.162 196.165C650.575 198.262 638.429 202.015 625.952 204.112C610.659 206.706 593.987 207.644 578.473 208.637C561.193 209.741 543.968 213.162 526.632 213.217C510.677 213.273 494.777 212.666 478.877 211.562C463.143 210.513 445.476 211.562 430.956 204.94C413.179 196.827 398.659 183.638 380.661 175.636C367.522 169.842 354.824 162.668 344.61 152.459C325.398 133.254 320.319 104.447 312.755 79.283C304.143 50.4763 301.658 19.6278 301.658 -9.89629Z" stroke="#FF9ABB" stroke-width="0.4" stroke-miterlimit="10"/>
<path d="M302.873 -9.39969C302.873 -24.2445 299.008 -39.4756 298.401 -54.6516C297.628 -75.4564 300.278 -97.0338 306.627 -116.9C313.252 -137.705 326.171 -155.365 334.783 -175.231C341.298 -190.242 347.978 -205.307 358.357 -218.165C365.424 -226.94 373.429 -233.507 384.36 -236.597C397.997 -240.405 410.032 -246.475 423.117 -251.663C439.569 -258.174 458.45 -259.499 475.951 -260.934C489.256 -262.037 502.285 -264.797 515.646 -265.128C549.433 -265.9 583.552 -264.41 615.794 -253.429C631.307 -248.131 646.269 -241.398 661.893 -236.211C679.559 -230.306 694.962 -220.98 706.998 -206.521C718.812 -192.283 726.266 -175.066 730.848 -157.296C735.265 -140.299 741.172 -123.688 745.202 -106.636C749.398 -88.7008 751.385 -69.7723 753.152 -51.4508C754.587 -36.4956 752.103 -21.3197 752.379 -6.53008C753.042 27.0777 745.644 62.7273 733.387 94.1829C727.591 108.862 723.45 124.093 720.91 139.711C718.592 153.728 714.065 167.303 703.851 177.568C692.644 188.77 677.903 192.799 662.721 195.393C650.354 197.49 638.374 201.794 626.007 203.45C610.494 205.491 594.097 206.65 578.473 207.478C561.248 208.361 544.023 211.838 526.798 211.893C510.787 211.948 494.722 211.507 478.767 210.679C464.026 209.906 446.746 211.507 432.888 205.712C414.173 197.876 400.316 181.762 381.766 173.429C368.516 167.469 355.873 160.847 345.494 150.472C326.833 131.819 320.981 102.295 313.473 77.7929C304.86 49.5933 302.818 19.3518 302.873 -9.39969Z" stroke="#FF9BB4" stroke-width="0.4" stroke-miterlimit="10"/>
<path d="M303.701 -8.90298C303.701 -23.6374 299.836 -38.703 299.064 -53.6581C298.015 -75.1804 300.72 -97.5304 307.4 -118.004C314.246 -139.085 328.103 -156.192 337.654 -175.893C344.886 -190.738 350.628 -205.969 361.228 -218.883C368.405 -227.657 376.19 -233.231 387.121 -236.1C401.309 -239.798 413.731 -247.137 427.368 -252.104C443.765 -258.064 462.094 -259.333 479.319 -260.272C492.293 -260.989 505.156 -263.362 518.185 -263.693C551.697 -264.466 585.76 -263.031 617.671 -251.828C632.743 -246.53 646.986 -239.301 662.058 -234.059C679.283 -228.043 694.19 -219.931 706.115 -205.693C717.819 -191.787 724.333 -175.286 729.026 -157.958C733.719 -140.63 740.509 -123.909 744.76 -106.47C749.288 -87.9282 751.441 -67.9511 752.931 -48.9674C754.091 -34.0674 751.165 -19.0571 751.441 -4.32261C752.103 29.0092 745.147 64.99 732.891 96.2248C727.259 110.628 722.622 124.645 720.027 139.931C717.708 153.838 713.789 167.138 703.575 177.347C692.313 188.605 677.958 191.806 662.886 194.565C650.796 196.772 639.092 201.518 626.891 202.898C610.77 204.719 593.766 206.043 577.534 206.706C560.585 207.368 543.747 210.844 526.743 210.955C510.898 211.01 494.998 210.734 479.098 210.127C464.357 209.52 447.077 211.396 433.109 205.933C413.676 198.373 400.481 180.106 381.931 171.001C368.957 164.599 356.425 158.805 346.046 148.43C328.158 130.495 321.589 101.081 314.025 77.517C305.357 49.5933 303.701 19.5726 303.701 -8.90298Z" stroke="#FF9DAD" stroke-width="0.4" stroke-miterlimit="10"/>
<path d="M304.253 -8.35103C304.253 -22.9199 300.389 -37.8199 299.505 -52.6647C298.18 -74.9044 300.996 -98.027 308.007 -119.218C315.019 -140.409 329.207 -157.406 340.194 -176.5C348.42 -190.848 353.444 -206.521 364.209 -219.434C371.607 -228.319 379.281 -232.624 390.268 -235.714C404.843 -239.798 417.762 -247.91 432.005 -252.711C458.947 -261.817 492.679 -261.927 521.167 -262.534C553.85 -263.251 587.472 -261.872 618.665 -250.945C633.516 -245.703 647.318 -238.032 661.948 -232.348C678.842 -225.781 693.472 -219.158 705.452 -204.976C717.212 -191.124 722.677 -174.955 727.867 -157.848C733.277 -140.023 740.785 -122.971 745.202 -104.815C749.674 -86.4381 751.938 -65.9092 753.207 -46.9807C754.256 -31.8599 750.778 -16.7944 751.054 -1.89436C751.662 31.6582 744.816 68.3564 732.283 99.7016C727.094 112.78 722.18 125.583 719.53 139.49C716.88 153.397 713.954 166.752 703.52 177.126C692.257 188.384 677.738 190.812 662.831 194.013C651.458 196.441 640.638 201.187 629.044 202.401C611.267 204.222 592.717 205.547 574.829 206.154C558.819 206.65 542.974 210.293 527.019 210.348C511.284 210.403 495.495 210.293 479.76 209.851C465.075 209.41 447.629 211.562 433.662 206.43C413.621 199.09 400.702 179.389 382.539 168.904C370.062 161.73 357.419 156.818 347.04 146.388C329.87 129.17 322.417 99.8671 314.853 77.2964C305.689 49.7038 304.198 19.8486 304.253 -8.35103Z" stroke="#FF9EA7" stroke-width="0.4" stroke-miterlimit="10"/>
<path d="M304.474 -7.68889C304.474 -22.8648 300.333 -38.3719 299.505 -53.8237C298.291 -75.677 301.382 -97.8615 307.842 -118.721C314.798 -141.127 330.091 -158.455 342.623 -177.77C351.456 -191.456 356.37 -207.183 367.025 -219.766C374.478 -228.595 382.152 -232.072 392.973 -235.328C408.376 -240.019 422.178 -249.234 437.581 -253.815C464.633 -261.817 496.047 -261.154 524.148 -261.706C556.555 -262.369 590.067 -260.934 620.818 -249.731C635.227 -244.489 648.367 -236.707 662.334 -230.527C678.345 -223.518 692.699 -217.889 704.403 -204.203C715.997 -190.628 720.69 -174.845 726.376 -158.289C732.559 -140.299 740.675 -122.971 745.202 -104.373C749.84 -85.4448 752.49 -63.757 753.483 -44.2767C754.256 -29.2111 750.447 -14.2559 750.668 0.644061C751.22 33.4241 744.981 70.1222 732.504 100.75C727.37 113.387 721.849 125.804 718.868 139.214C715.831 153.01 713.513 166.255 703.078 176.685C691.76 187.998 677.406 189.653 662.666 193.461C651.348 196.441 640.693 201.242 628.823 202.125C610.88 203.394 592.661 205.271 574.719 205.712C558.764 206.099 543.084 209.796 527.184 209.851C512.278 209.906 497.261 209.906 482.355 209.686C466.731 209.41 447.464 212.059 432.613 206.374C413.179 198.924 400.316 179.444 383.864 167.579C372.049 159.081 358.468 154.832 347.978 144.291C338.427 134.689 334.286 123.541 329.483 111.18C325.177 100.088 319.767 89.3818 315.736 78.1792C305.854 50.6418 304.474 20.6211 304.474 -7.68889Z" stroke="#FEA0A0" stroke-width="0.4" stroke-miterlimit="10"/>
<path d="M304.474 -7.08191C304.474 -22.1475 300.444 -37.4889 299.45 -52.7752C298.07 -75.4012 301.327 -98.303 308.007 -119.991C314.964 -142.506 330.532 -159.724 344.279 -178.322C354.051 -191.511 359.185 -207.459 369.951 -219.931C377.68 -228.871 385.961 -231.575 396.727 -235.438C412.185 -240.957 426.54 -250.283 442.329 -254.698C469.492 -262.258 499.415 -260.658 527.46 -261.099C559.536 -261.651 592.882 -260.106 623.247 -248.683C637.215 -243.44 649.747 -235.549 663.052 -228.926C677.958 -221.476 692.257 -216.51 703.52 -203.486C714.893 -190.297 719.144 -174.514 725.327 -158.676C732.394 -140.575 741.006 -122.916 745.589 -103.987C750.447 -83.5134 753.262 -62.6534 754.091 -41.6278C754.587 -26.5623 750.447 -11.7174 750.668 3.18255C751.165 35.7418 745.092 72.7159 732.449 102.957C727.37 115.043 721.683 126.797 718.26 139.49C714.672 152.79 712.85 165.703 702.692 175.912C691.705 186.894 677.461 188.274 663.383 192.633C652.121 196.11 641.631 200.856 629.706 201.518C611.156 202.567 592.551 204.829 573.946 205.16C558.322 205.436 542.974 209.299 527.405 209.354C512.609 209.41 497.758 209.52 482.962 209.354C467.394 209.189 448.071 211.948 433.165 206.706C413.566 199.807 399.984 179.278 384.692 166.255C373.54 156.763 359.461 152.238 348.972 141.753C339.642 132.426 335.832 121.279 330.588 109.524C325.84 98.8737 320.264 88.554 316.068 77.6273C305.689 50.8625 304.474 21.0625 304.474 -7.08191Z" stroke="#FEA199" stroke-width="0.4" stroke-miterlimit="10"/>
<path d="M304.253 -6.36447C304.253 -21.3197 300.278 -36.4404 299.284 -51.6163C297.739 -75.0149 301.217 -98.4686 308.063 -120.874C315.019 -143.61 330.643 -160.662 345.549 -178.653C356.149 -191.456 361.946 -207.294 372.877 -219.71C380.772 -228.706 390.102 -231.244 400.868 -235.604C416.216 -241.784 431.122 -251.111 447.132 -255.47C474.295 -262.81 503.058 -260.161 530.883 -260.547C563.015 -260.989 596.747 -259.278 626.891 -247.137C640.527 -241.674 652.507 -233.452 665.26 -226.388C678.566 -218.993 692.092 -214.302 702.416 -202.493C713.016 -190.407 717.212 -175.342 723.395 -160.828C731.234 -142.341 740.509 -124.295 745.589 -104.76C748.846 -92.1774 749.453 -79.0986 751.054 -66.2404C752.158 -57.19 754.532 -48.3604 754.808 -39.2549C755.25 -23.9686 750.723 -9.06855 750.833 6.10737C751.109 38.2803 745.533 74.6474 732.946 104.392C727.977 116.147 721.849 127.404 717.764 139.545C713.513 152.238 712.022 165.372 702.084 175.305C692.036 185.349 678.455 187.06 665.647 191.53C654.219 195.558 643.84 200.414 631.583 201.187C612.316 202.401 592.993 204.553 573.725 205.105C558.211 205.547 542.974 209.354 527.516 209.41C512.885 209.465 498.145 209.686 483.459 209.575C467.891 209.52 448.623 212.224 433.606 207.533C413.897 201.408 399.708 179.72 385.575 165.979C374.809 155.494 360.621 150.251 350.076 139.6C341.132 130.605 337.213 119.403 331.581 108.31C326.392 98.1011 320.595 88.1678 316.233 77.517C305.468 51.1385 304.308 21.5592 304.253 -6.36447Z" stroke="#FEA392" stroke-width="0.4" stroke-miterlimit="10"/>
<path d="M303.922 -5.64702C303.867 -20.2159 300.168 -34.9504 299.064 -49.6296C297.242 -74.7941 301.051 -99.6274 308.615 -123.688C315.626 -145.983 331.636 -162.814 347.095 -179.591C358.357 -191.897 364.927 -206.963 375.858 -219.269C383.753 -228.154 394.298 -231.023 404.898 -235.659C420.135 -242.391 435.152 -251.497 451.218 -255.967C478.546 -263.527 506.647 -259.83 534.582 -260.161C566.272 -260.492 599.949 -258.506 629.485 -246.199C642.68 -240.681 654.108 -232.458 666.088 -224.843C678.179 -217.172 691.54 -212.371 701.256 -201.444C711.635 -189.745 716.107 -174.459 722.677 -160.552C731.4 -142.065 741.227 -123.688 746.251 -103.711C749.619 -90.3563 750.06 -76.4496 751.937 -62.8741C753.207 -53.8789 755.581 -45.27 755.692 -36.1644C755.857 -20.9333 751.109 -6.03332 751.22 9.1426C751.441 41.0948 745.975 77.6826 733.056 107.096C728.087 118.354 721.849 128.95 717.267 140.373C712.519 152.183 710.752 165.096 701.367 174.533C691.816 184.08 678.29 186.177 666.254 191.088C654.881 195.779 644.723 200.249 632.246 200.966C612.426 202.07 592.772 204.664 572.952 205.16C557.77 205.547 542.863 209.52 527.792 209.575C513.272 209.63 498.697 209.851 484.122 209.851C468.553 209.851 449.341 212.5 434.269 208.306C414.449 202.787 400.04 180.548 386.845 166.255C376.134 154.721 362.332 148.43 351.456 137.448C342.899 128.839 338.648 117.637 332.685 107.262C327.054 97.4389 321.036 87.8919 316.509 77.5171C305.081 51.4697 303.977 22.0008 303.922 -5.64702Z" stroke="#FEA48B" stroke-width="0.4" stroke-miterlimit="10"/>
<path d="M303.425 -4.92959C303.37 -19.3881 299.781 -33.9018 298.732 -48.4155C296.8 -74.2974 300.83 -99.1307 308.394 -123.909C315.35 -146.645 331.029 -163.311 347.536 -179.756C354.548 -186.71 361.835 -193.553 367.301 -201.775C371.055 -207.404 374.092 -213.419 378.729 -218.441C387.01 -227.436 398.88 -230.968 409.701 -236.045C424.883 -243.164 440.066 -252.325 456.352 -256.74C483.515 -264.134 510.567 -259.554 538.226 -259.775C569.529 -259.996 602.985 -257.733 631.97 -245.206C644.778 -239.632 655.654 -231.41 666.861 -223.242C677.737 -215.351 690.711 -210.163 699.821 -200.064C710.09 -188.696 715.114 -173.189 722.07 -159.779C731.621 -141.237 742 -122.529 746.803 -102.056C750.116 -87.9833 750.502 -73.4144 752.821 -59.1766C754.256 -50.2918 756.575 -41.9589 756.52 -32.9085C756.465 -17.6774 751.496 -2.88773 751.551 12.2882C751.661 44.4612 746.085 81.7112 732.449 110.959C727.37 121.776 720.91 131.875 715.831 142.691C710.918 153.176 708.654 164.986 700.207 173.429C691.54 182.093 679.007 184.797 668.186 189.874C656.758 195.227 646.71 199.863 633.957 200.635C613.475 201.905 593.158 204.774 572.676 205.326C557.604 205.712 542.863 209.796 527.847 209.906C513.493 209.962 499.028 210.237 484.619 210.293C468.94 210.348 450.058 212.776 434.766 209.023C414.78 204.167 400.481 181.762 388.059 167.083C381.71 159.633 375.361 152.072 367.411 146.333C362.387 142.691 357.198 139.711 352.781 135.296C344.555 127.018 339.807 115.981 333.513 106.269C327.441 96.8871 321.202 87.7264 316.454 77.5723C304.584 51.856 303.48 22.4975 303.425 -4.92959Z" stroke="#FEA684" stroke-width="0.4" stroke-miterlimit="10"/>
<path d="M302.818 -4.15703C302.762 -18.2292 299.45 -32.3015 298.291 -46.4289C296.248 -72.0348 300.002 -96.537 307.234 -121.15C314.135 -144.659 327.661 -161.324 345.439 -177.825C353.609 -185.44 362.829 -192.559 369.841 -201.279C374.036 -206.466 377.018 -212.426 381.6 -217.337C390.875 -227.16 405.284 -231.906 417.099 -237.756C431.84 -245.096 446.856 -254.201 462.977 -258.009C478.601 -261.706 491.851 -262.424 507.475 -260.768C518.903 -259.554 530.442 -259.609 541.87 -259.664C572.676 -259.72 606.022 -257.236 634.344 -244.433C646.821 -238.804 657.145 -230.582 667.634 -221.918C677.351 -213.806 689.607 -208.011 698.165 -198.74C708.378 -187.648 714.285 -171.975 721.628 -158.896C732.062 -140.244 742.883 -121.094 747.41 -100.069C750.557 -85.3896 750.999 -70.2689 753.87 -55.5896C755.581 -46.8704 757.624 -38.703 757.458 -29.763C757.237 -14.587 752.103 0.202594 752.103 15.3233C752.158 47.11 746.582 84.7463 732.504 113.498C727.425 123.873 720.8 133.309 715.114 143.353C709.758 152.845 706.722 164.213 698.937 172.049C690.822 180.161 678.51 183.859 668.518 189.212C657.366 195.227 647.152 199.863 634.233 200.138C613.254 200.58 592.717 204.829 571.737 205.326C557.052 205.712 542.643 210.017 528.012 210.072C498.421 210.237 466.51 213.714 437.084 209.41C416.381 206.43 402.248 184.08 390.268 168.959C383.698 160.626 377.294 151.686 369.344 144.622C364.541 140.373 359.02 137.172 354.437 132.647C346.377 124.535 340.856 113.718 334.066 104.503C327.441 95.4522 320.816 86.4018 315.957 76.2477C304.032 51.5248 302.928 22.663 302.818 -4.15703Z" stroke="#FEA77D" stroke-width="0.4" stroke-miterlimit="10"/>
<path d="M302.21 -3.43965C302.155 -17.3463 299.008 -31.253 297.904 -45.1597C295.861 -70.8208 299.45 -95.323 306.682 -119.991C313.804 -144.272 326.116 -161.159 345.162 -177.77C353.83 -185.33 363.381 -192.173 371.497 -200.34C376.355 -205.197 379.778 -210.991 384.471 -215.903C394.464 -226.277 410.143 -231.962 422.675 -238.473C437.581 -246.144 452.543 -255.194 468.995 -259.002C484.287 -262.479 496.654 -262.92 511.836 -261.099C523.044 -259.775 534.417 -259.554 545.679 -259.554C575.989 -259.499 609.169 -256.684 636.773 -243.661C648.919 -237.922 658.856 -229.809 668.518 -220.593C677.296 -212.26 688.117 -205.749 696.343 -197.029C706.722 -185.992 713.623 -170.485 721.407 -157.517C732.78 -138.588 743.767 -119.108 748.018 -97.1993C750.944 -82.1889 751.606 -66.7371 754.974 -51.7819C756.851 -43.2282 758.618 -35.2263 758.397 -26.4519C757.955 -11.3311 752.71 3.40332 752.71 18.4689C752.655 50.2555 746.969 88.7196 732.007 117.195C727.37 126.025 721.462 133.971 715.776 142.139C709.537 151.134 705.176 162.723 697.447 170.449C689.331 178.616 676.357 184.19 666.42 190.04C656.703 195.779 647.318 199.256 635.834 199.587C614.248 200.249 593.158 204.829 571.572 205.436C556.997 205.878 542.753 210.348 528.233 210.403C498.697 210.569 467.725 213.107 438.133 209.741C417.099 207.368 403.739 186.177 391.979 170.559C385.189 161.509 378.84 152.017 371.221 143.684C366.639 138.662 361.118 134.965 356.315 130.219C348.42 122.272 342.126 112.173 334.949 103.454C327.882 94.9556 321.036 86.1259 315.902 76.1926C303.535 51.9663 302.376 23.1596 302.21 -3.43965Z" stroke="#FEA976" stroke-width="0.4" stroke-miterlimit="10"/>
<path d="M301.603 -2.66702C301.493 -16.1874 298.622 -29.6526 297.573 -43.1178C295.475 -69.8274 299.063 -95.047 306.848 -120.708C314.301 -145.321 325.619 -161.656 345.383 -178.046C359.848 -190.076 374.202 -200.727 387.397 -214.026C398.162 -224.843 414.559 -231.575 427.809 -238.694C442.495 -246.53 457.291 -255.526 473.577 -259.444C489.256 -263.196 501.236 -263.196 516.64 -261.21C527.571 -259.775 538.612 -259.444 549.599 -259.333C561.193 -259.278 572.621 -256.74 584.215 -256.022C604.145 -254.753 620.983 -251.718 639.092 -242.778C651.017 -236.928 660.568 -228.926 669.511 -219.158C677.406 -210.605 686.35 -203.265 694.355 -194.932C705.066 -183.785 713.126 -168.719 721.407 -155.696C733.829 -136.215 744.54 -116.459 748.68 -93.557C751.441 -78.3811 752.766 -63.0396 756.188 -47.974C758.121 -39.5307 759.667 -31.6944 759.335 -22.9752C758.728 -7.9096 753.373 6.76966 753.318 21.7248C753.152 53.07 747.466 91.9204 731.952 119.789C727.259 128.287 721.186 135.793 715.058 143.243C708.378 151.3 702.912 161.288 695.57 168.628C687.62 176.574 676.081 183.473 666.641 189.598C656.814 195.944 647.538 198.538 635.779 199.09C613.861 200.083 592.606 204.995 570.633 205.712C556.39 206.209 542.587 210.844 528.454 210.955C499.083 211.12 468.884 212.776 439.403 210.072C417.982 208.085 405.56 188.826 393.911 172.656C382.594 156.873 372.27 141.587 358.523 127.846C343.451 112.836 326.171 95.0108 316.012 76.1926C303.094 52.4078 301.769 23.6563 301.603 -2.66702Z" stroke="#FEAB6F" stroke-width="0.4" stroke-miterlimit="10"/>
<path d="M300.996 -1.89453C300.885 -15.2493 298.18 -28.4386 297.186 -41.7382C295.199 -68.1719 298.511 -93.0605 306.13 -118.446C313.749 -143.831 323.742 -160.938 344.555 -177.549C359.517 -189.469 376.024 -198.961 390.212 -211.764C402.8 -223.132 419.031 -231.079 433.772 -239.246C448.678 -247.524 463.364 -256.353 480.092 -260.216C495.219 -263.693 506.15 -263.362 520.946 -261.265C531.711 -259.83 542.532 -259.113 553.353 -259.113C564.726 -259.002 575.933 -256.298 587.306 -255.415C607.071 -253.87 623.192 -251.276 641.079 -242.06C663.052 -230.747 675.419 -210.053 691.981 -192.615C718.481 -164.636 742.607 -127.441 749.287 -89.363C751.937 -74.2975 753.759 -59.2871 757.403 -44.4975C759.446 -36.2197 760.605 -28.273 760.164 -19.7193C759.446 -4.76415 754.035 9.91511 753.925 24.7599C753.649 55.6636 747.852 94.9003 731.952 122.051C722.401 138.386 706.722 152.955 693.361 166.2C676.192 183.252 659.905 196.441 635.393 198.152C613.254 199.697 591.944 204.719 569.75 205.657C555.893 206.264 542.422 211.065 528.675 211.175C499.691 211.396 470.044 212.445 440.839 209.961C419.142 208.085 407.714 191.53 396.009 174.643C384.526 158.087 375.03 139.655 360.952 125.031C345.659 109.193 327.165 95.2314 316.068 75.8614C302.707 52.794 301.161 24.0977 300.996 -1.89453Z" stroke="#FEAC68" stroke-width="0.4" stroke-miterlimit="10"/>
<path d="M300.499 -1.1771C300.388 -14.9182 297.739 -28.6593 296.855 -42.4004C295.309 -66.6267 298.07 -89.5286 304.695 -112.927C312.369 -140.078 321.644 -160.221 344.334 -177.439C359.793 -189.138 377.791 -197.195 392.918 -209.225C419.915 -230.692 454.365 -253.925 488.483 -261.32C511.284 -266.287 533.809 -259.223 556.942 -258.892C568.094 -258.726 579.025 -255.857 590.122 -254.808C609.555 -252.987 625.179 -250.945 642.68 -241.398C665.702 -228.871 672.714 -208.397 689.166 -189.966C700.428 -177.383 711.58 -165.022 721.352 -151.17C736.148 -130.145 745.092 -109.947 749.508 -84.5619C753.318 -62.8189 761.93 -38.6478 760.605 -16.4082C759.722 -1.5082 754.477 12.8399 754.146 27.7399C753.483 58.2022 747.907 96.6662 732.062 123.155C721.628 140.594 704.513 149.644 690.491 163.551C682.706 171.277 676.192 180.217 667.469 186.949C654.992 196.662 642.68 195.944 627.719 198.041C607.899 200.801 589.128 204.498 569.198 205.547C555.506 206.264 542.201 211.231 528.62 211.341C500.022 211.562 470.982 212.058 442.219 209.685C398.715 206.098 388.556 150.361 363.436 122.548C348.254 105.772 327.993 95.6177 315.957 75.6407C302.431 53.1803 300.72 24.4288 300.499 -1.1771Z" stroke="#FEAE61" stroke-width="0.4" stroke-miterlimit="10"/>
<path d="M300.112 -0.459665C300.002 -13.8697 297.518 -27.39 296.745 -40.9104C295.309 -64.033 297.794 -87.2108 304.087 -109.506C311.706 -136.712 320.264 -159.172 343.396 -176.335C359.793 -188.531 378.729 -195.87 395.733 -206.907C427.202 -227.381 457.567 -253.704 495.108 -261.706C516.584 -266.287 538.723 -258.892 560.585 -258.506C571.517 -258.285 582.172 -255.25 592.993 -253.98C612.04 -251.828 627.167 -250.393 644.171 -240.626C655.489 -234.114 664.708 -226.388 671.609 -215.185C677.241 -206.08 680.443 -195.319 687.233 -186.986C698.165 -173.631 711.083 -162.263 721.407 -148.19C737.418 -126.447 745.092 -105.643 749.784 -79.0985C753.594 -57.6867 762.482 -34.8952 761.047 -12.9315C760.053 1.80294 754.808 16.0959 754.477 30.8855C753.759 60.9063 747.907 99.5359 731.731 125.363C720.524 143.243 702.195 147.657 688.061 161.509C680.332 169.124 675.529 179.058 666.972 186.066C654.55 196.276 640.693 195.061 625.676 197.655C606.243 201.021 587.858 204.112 568.259 205.436C554.954 206.374 542.091 211.451 528.841 211.562C500.74 211.783 472.307 211.727 444.041 209.354C422.454 207.533 412.296 196.827 400.481 179.168C388.17 160.791 380.165 138.276 366.252 121.224C358.965 112.284 347.592 106.655 338.648 99.4807C330.035 92.5826 322.085 84.8014 316.178 75.42C302.321 53.4563 300.333 24.7048 300.112 -0.459665Z" stroke="#FEAF5A" stroke-width="0.4" stroke-miterlimit="10"/>
<path d="M299.892 0.257712C299.781 -12.6556 297.573 -25.7345 296.855 -38.703C295.53 -62.4327 297.794 -85.3897 304.308 -108.292C311.927 -134.891 320.153 -158.786 343.12 -175.397C360.29 -187.813 379.999 -194.767 398.328 -205.086C432.171 -224.18 460.769 -252.877 499.691 -261.375C520.725 -266.011 542.643 -258.45 564.064 -257.954C574.774 -257.733 585.098 -254.477 595.643 -253.097C614.082 -250.614 628.933 -249.842 645.385 -239.908C656.482 -233.231 665.813 -225.339 672.051 -213.861C677.351 -204.093 679.394 -192.946 686.184 -184.006C696.729 -170.099 710.752 -159.007 721.407 -144.99C738.411 -122.64 744.816 -100.731 749.95 -73.3593C753.87 -52.389 762.924 -31.253 761.323 -9.67562C760.274 4.94845 755.029 19.0759 754.698 33.6447C753.925 63.0033 748.018 100.86 731.897 126.135C725.99 135.406 718.04 142.47 708.489 147.712C700.98 151.796 692.312 153.838 686.019 159.853C678.676 166.862 675.032 176.795 667.469 183.748C655.433 194.785 640.803 193.682 625.676 196.607C605.967 200.414 587.803 203.394 567.983 205.05C554.844 206.154 542.146 211.396 529.061 211.507C501.513 211.783 473.743 211.286 446.028 208.637C438.299 207.92 429.742 207.423 422.951 203.339C414.504 198.207 408.487 189.267 403.131 181.21C390.323 162.005 382.483 139.711 369.013 121.058C361.449 110.573 349.91 105.772 339.752 98.3218C330.808 91.8099 322.638 84.2495 316.509 74.9784C302.431 53.6769 300.113 24.9255 299.892 0.257712Z" stroke="#FEB153" stroke-width="0.4" stroke-miterlimit="10"/>
<path d="M299.836 0.919975C299.726 -11.6622 297.739 -24.4652 297.131 -37.1578C296.027 -59.7837 297.904 -82.1889 304.032 -104.042C311.375 -130.09 319.546 -157.186 342.292 -173.631C360.179 -186.599 381.269 -193.663 400.702 -203.817C436.311 -222.414 465.572 -252.601 505.764 -261.21C525.583 -265.459 547.17 -257.843 567.321 -257.347C577.755 -257.071 587.748 -253.704 598.017 -252.104C615.794 -249.345 630.479 -249.069 646.269 -239.136C657.145 -232.293 666.641 -224.18 672.272 -212.426C677.351 -201.775 678.952 -190.738 685.908 -180.915C696.177 -166.512 710.366 -155.364 721.297 -141.403C727.646 -133.346 734.216 -124.406 738.411 -114.969C744.981 -100.234 746.693 -82.9063 749.895 -67.2337C754.035 -46.8152 762.979 -27.5004 761.323 -6.36444C760.164 8.03889 755.084 22.0559 754.643 36.4592C753.87 65.3211 747.576 103.123 731.234 127.736C725.272 136.731 716.825 143.794 706.888 148.044C698.993 151.52 690.711 152.734 684.142 158.805C676.854 165.593 673.542 175.471 666.309 182.369C654.495 193.571 637.656 192.688 622.695 196C603.648 200.249 586.036 202.511 566.879 204.664C554.181 206.043 541.87 211.286 529.117 211.451C502.175 211.727 475.068 210.844 447.96 207.809C427.865 205.547 417.32 200.249 405.781 183.141C392.752 163.827 384.913 141.532 371.773 122.272C357.695 101.633 331.36 95.6729 316.896 74.5922C302.707 53.7874 300.112 25.1463 299.836 0.919975Z" stroke="#FEB24C" stroke-width="0.4" stroke-miterlimit="10"/>
<path d="M300.057 1.52699C299.726 -32.6878 294.757 -65.1367 304.087 -99.5171C311.044 -125.013 319.491 -155.144 341.74 -171.534C360.014 -185.054 382.539 -192.89 402.8 -202.989C423.669 -213.364 442.605 -225.56 461.873 -238.473C477.883 -249.179 492.237 -256.629 511.45 -260.547C530.221 -264.41 551.476 -257.016 570.523 -256.464C580.847 -256.188 590.729 -252.601 600.832 -250.78C616.898 -247.965 631.418 -247.91 645.717 -238.915C656.703 -232.017 666.806 -223.353 672.106 -211.267C677.185 -199.623 679.228 -188.476 686.516 -177.659C696.619 -162.704 710.366 -150.894 721.628 -136.822C740.565 -113.148 743.656 -87.1004 750.336 -58.1834C754.643 -39.586 762.648 -23.3063 761.157 -3.82598C760.053 10.6325 754.919 24.6496 754.477 39.0529C753.649 67.4733 746.914 106.213 729.744 129.943C724.113 137.779 716.383 143.85 707.384 147.381C698.606 150.858 689.994 151.631 682.651 158.087C674.701 165.041 671.168 175.636 663.107 182.369C652.066 191.585 635.393 191.254 622.088 194.454C603.317 198.98 585.484 201.297 566.603 203.725C554.071 205.326 541.925 210.734 529.393 210.9C503.555 211.175 477.607 210.237 451.715 206.65C432.999 204.057 420.743 201.573 409.37 185.294C395.899 166.089 387.839 143.574 374.865 124.038C366.086 110.904 356.922 104.668 343.837 96.8318C334.121 91.0373 325.177 83.9184 318.442 74.7025C303.425 54.5599 300.278 25.6981 300.057 1.52699Z" stroke="#FEB445" stroke-width="0.4" stroke-miterlimit="10"/>
<path d="M300.554 2.07888C300.223 -30.4804 295.972 -62.1015 304.529 -94.8263C311.044 -119.77 320.043 -152.55 341.519 -168.995C360.179 -183.288 383.422 -192.283 404.456 -202.493C426.098 -212.978 447.408 -223.684 467.118 -237.59C482.466 -248.407 497.648 -256.353 516.529 -259.554C534.803 -262.644 554.954 -256.077 573.449 -255.526C583.497 -255.194 592.993 -251.552 602.765 -249.566C618.057 -246.475 632.467 -246.751 646.048 -238.032C656.813 -231.134 666.972 -221.863 671.83 -209.832C676.799 -197.471 680.332 -185.992 687.675 -174.624C697.447 -159.503 709.813 -146.7 721.186 -132.849C740.399 -109.395 742.331 -80.8645 750.005 -52.3889C754.808 -34.6193 762.206 -19.8297 760.716 -0.901135C759.556 13.2815 754.532 27.133 754.146 41.3155C753.318 69.2392 746.196 107.648 728.86 130.66C715.886 147.878 696.508 144.843 681.381 157.425C673.542 163.937 669.401 173.76 661.617 180.217C650.465 189.433 631.915 189.874 618.609 193.351C600.777 198.041 583.662 199.807 565.72 202.677C553.629 204.609 541.87 210.017 529.669 210.127C504.494 210.403 479.153 209.299 453.978 205.05C437.084 202.236 423.227 200.525 412.517 185.901C398.991 167.524 390.544 145.671 378.011 126.577C369.012 112.946 359.627 103.399 345.549 95.4522C335.611 89.8233 326.392 83.0355 319.435 73.8748C304.308 54.3392 300.775 25.8085 300.554 2.07888Z" stroke="#FEB53E" stroke-width="0.4" stroke-miterlimit="10"/>
<path d="M301.327 2.6307C300.996 -28.3834 297.628 -58.8456 305.357 -90.0252C311.541 -115.024 321.257 -148.632 341.684 -165.85C360.234 -181.522 383.919 -191.676 405.56 -202.106C427.644 -212.757 451.052 -222.359 471.479 -236.045C486.827 -246.31 501.954 -254.919 520.725 -257.733C538.613 -260.437 557.991 -254.532 575.989 -253.98C585.761 -253.649 594.815 -249.897 604.255 -247.689C618.72 -244.323 632.964 -244.82 645.827 -236.487C669.898 -220.924 674.756 -194.16 689.055 -171.092C698.385 -156.082 709.262 -142.12 720.138 -128.213C738.853 -104.373 740.013 -74.5734 749.067 -46.4841C754.532 -29.5974 760.992 -15.9115 759.501 2.29957C758.342 16.2062 753.483 29.7818 753.042 43.6885C752.214 71.0603 744.319 110.352 726.431 132.206C713.789 147.602 694.3 145.56 679.615 157.094C672.327 162.778 667.579 170.946 660.513 176.85C649.25 186.232 630.81 187.611 617.008 191.53C598.79 196.717 580.902 198.097 562.683 202.015C551.697 204.388 540.821 209.244 529.558 209.354C504.549 209.63 479.429 208.196 454.53 203.229C438.354 199.973 424.11 198.041 413.787 183.969C401.309 167.027 392.531 147.547 380.882 129.998C372.049 116.698 362.277 103.73 348.585 95.1211C338.482 88.7748 328.821 83.5322 321.147 74.0403C305.689 54.8359 301.548 26.25 301.327 2.6307Z" stroke="#FEB738" stroke-width="0.4" stroke-miterlimit="10"/>
<path d="M302.487 3.0722C302.21 -26.6174 300.002 -55.5896 306.848 -85.4448C312.755 -111.216 323.521 -143.941 342.789 -162.98C360.345 -180.308 384.416 -191.4 406.333 -202.051C428.803 -212.923 452.212 -222.359 473.964 -234.555C489.864 -243.495 505.764 -252.656 524.148 -255.526C541.759 -258.285 560.641 -252.987 578.307 -252.435C587.362 -252.159 595.588 -248.627 604.2 -246.254C618.609 -242.281 633.571 -242.943 646.379 -234.279C668.904 -218.993 677.517 -190.241 690.988 -167.836C700.097 -152.66 710.2 -138.147 719.972 -123.412C735.927 -99.3515 737.363 -70.0482 747.355 -43.5593C754.035 -25.9 759.998 -12.5452 758.066 6.82478C756.796 19.7933 752.324 32.4859 751.938 45.5096C751.109 72.3848 742.718 109.524 725.603 130.991C713.071 146.664 693.582 145.505 678.234 156.542C670.34 162.226 664.488 170.449 656.151 175.581C641.686 184.466 620.983 187.611 604.918 192.192C590.011 196.496 574.829 196.993 559.978 200.801C549.985 203.339 540.048 207.864 529.724 207.975C505.377 208.251 480.809 206.65 456.794 200.966C442.164 197.49 427.368 195.172 416.989 183.307C403.959 168.407 395.237 149.589 384.25 133.254C374.809 119.237 364.43 105.22 350.849 94.8451C341.188 87.5055 330.643 82.4837 322.748 72.8814C307.345 54.2289 302.707 26.25 302.487 3.0722Z" stroke="#FDB831" stroke-width="0.4" stroke-miterlimit="10"/>
<path d="M304.032 3.45859C303.756 -25.017 302.762 -52.4992 309.001 -81.0851C314.964 -108.347 326.999 -138.754 344.997 -160.331C360.786 -179.26 385.023 -191.124 406.665 -201.885C428.914 -212.867 451.825 -222.304 474.295 -232.844C490.747 -240.515 508.69 -249.676 526.798 -252.656C544.299 -255.581 562.683 -250.945 580.295 -250.504C589.018 -250.283 596.913 -246.696 605.139 -244.157C618.554 -240.018 633.405 -240.46 645.33 -232.513C667.69 -217.558 680.001 -187.041 693.085 -164.58C701.808 -149.57 711.415 -134.946 719.475 -119.549C732.725 -94.3296 733.995 -64.5848 745.92 -38.8685C753.483 -22.5888 758.01 -8.79253 756.244 9.41858C754.974 22.056 750.723 34.4727 750.392 47.1653C749.619 73.5438 740.675 109.469 723.671 130.329C711.47 145.229 692.037 145.781 676.799 155.935C668.904 161.178 662.39 168.462 653.777 172.656C637.546 180.493 618.057 185.239 600.777 190.316C587.03 194.399 572.842 195.006 559.095 198.925C549.489 201.684 539.938 206.154 529.89 206.264C505.819 206.485 481.361 204.609 457.843 198.042C445.918 194.73 432.557 191.861 422.454 184.245C407.493 172.932 398.107 151.741 387.673 136.565C376.963 121.003 365.369 105.882 350.959 93.5208C342.568 86.3467 332.741 80.8282 325.453 72.4401C309.553 54.2841 304.253 26.6364 304.032 3.45859Z" stroke="#FDBA2A" stroke-width="0.4" stroke-miterlimit="10"/>
<path d="M306.02 3.78964C305.799 -22.9752 305.633 -48.5811 311.43 -75.2907C317.669 -104.429 329.539 -132.739 347.15 -156.854C362.167 -177.383 384.471 -190.297 406.775 -201.665C428.472 -212.702 450.942 -222.304 473.632 -231.189C491.354 -238.087 510.732 -245.758 529.448 -249.345C546.618 -252.601 564.671 -248.572 581.896 -248.186C590.453 -248.02 598.127 -244.268 606.077 -241.564C618.002 -237.425 631.859 -237.535 642.791 -231.023C653.722 -224.511 662.555 -211.598 670.229 -201.554C679.78 -188.972 687.509 -175.01 695.294 -161.269C703.796 -146.204 713.292 -130.807 719.475 -114.638C729.633 -88.1489 731.731 -59.2318 744.871 -33.8466C752.269 -19.5537 755.471 -5.03998 754.035 11.0741C752.931 23.6011 748.735 35.8522 748.404 48.3793C747.686 74.1507 738.522 107.538 722.235 128.012C710.145 143.132 690.877 145.395 675.143 154.997C667.634 159.577 660.844 165.593 652.563 168.959C635.393 175.912 616.511 181.596 598.845 187.17C585.54 191.364 571.848 192.192 558.653 196.386C549.268 199.366 539.882 203.946 529.945 204.057C506.592 204.277 482.686 202.125 460.106 194.896C448.402 191.143 435.925 188.053 425.435 181.376C410.529 171.884 401.199 153.728 391.206 139.6C379.999 123.817 368.129 108.531 354.217 95.0107C345.715 86.733 335.667 79.6693 327.827 70.7293C312.093 53.1804 306.241 26.5811 306.02 3.78964Z" stroke="#FDBB23" stroke-width="0.4" stroke-miterlimit="10"/>
<path d="M308.504 4.06552C308.339 -21.6508 309.387 -45.8219 314.632 -71.483C326.226 -128.489 354.714 -173.686 406.609 -201.279C444.593 -221.476 488.318 -237.922 530.828 -245.647C548.108 -248.793 565.775 -245.703 583.166 -245.427C591.557 -245.261 598.9 -241.453 606.574 -238.473C617.892 -234.114 631.528 -233.893 641.686 -227.326C665.812 -211.764 683.866 -182.35 697.392 -157.793C705.452 -143.169 713.457 -128.048 718.426 -112.099C726.652 -85.5 729.192 -56.9693 741.779 -31.9152C749.011 -17.5119 752.545 -3.38447 751.275 12.7296C750.281 25.0911 746.196 37.1215 745.92 49.5381C745.257 75.1993 735.485 107.538 718.702 127.349C706.777 141.421 688.89 145.505 673.321 154.114C649.305 167.359 623.192 175.416 596.968 183.804C584.159 187.887 570.909 189.157 558.156 193.627C548.992 196.827 539.772 201.573 529.945 201.629C507.53 201.794 485.06 198.98 463.419 192.137C450.776 188.163 438.133 185.073 426.76 177.899C413.014 169.29 404.235 155.328 394.74 142.525C383.643 127.625 372.27 112.946 359.572 99.3704C349.303 88.3885 337.489 78.5104 328.324 66.5903C314.798 49.0966 308.67 25.7533 308.504 4.06552Z" stroke="#FDBD1C" stroke-width="0.4" stroke-miterlimit="10"/>
<path d="M311.485 4.1759C311.375 -21.4852 313.583 -46.0426 317.558 -71.5934C322.196 -101.338 330.256 -126.227 349.248 -150.232C365.258 -170.43 383.808 -187.924 406.278 -200.672C443.157 -221.587 487.048 -234.5 528.73 -241.895C546.839 -245.151 565.609 -242.502 583.883 -242.281C592.109 -242.171 599.066 -238.253 606.464 -235.107C616.898 -230.637 628.768 -229.809 638.65 -224.18C664.543 -209.501 685.522 -179.977 699.269 -154.371C720.69 -114.362 723.45 -69.11 740.289 -27.5556C745.699 -14.2008 748.846 -0.404453 747.907 14.0541C747.134 26.1948 743.159 38.0596 742.883 50.2003C742.331 75.6959 731.455 106.379 715.114 126.08C703.796 139.656 686.516 144.953 671.278 152.679C662.721 156.984 654.771 160.736 645.441 163.164C628.381 167.579 612.481 175.691 595.643 180.824C582.945 184.687 570.136 185.459 557.715 190.205C548.826 193.627 539.717 198.483 530.055 198.538C508.8 198.704 487.379 195.282 466.676 189.819C436.311 181.817 417.872 169.456 398.494 144.843C377.625 118.354 352.781 94.4589 332.906 67.3629C319.325 49.0966 311.596 26.857 311.485 4.1759Z" stroke="#FDBE15" stroke-width="0.4" stroke-miterlimit="10"/>
<path d="M315.019 4.28633C314.964 -20.6574 316.399 -45.6011 319.325 -70.324C322.803 -99.4066 328.6 -124.295 347.978 -147.473C364.044 -166.733 384.692 -186.378 406.168 -199.513C425.325 -211.212 445.531 -218.827 467.283 -224.015C486.772 -228.65 506.536 -235.383 526.356 -238.253C545.514 -241.012 564.947 -238.749 584.215 -238.694C591.668 -238.639 597.906 -235.052 604.697 -232.403C615.959 -228.043 627.94 -225.781 638.484 -219.6C664.488 -204.258 687.013 -177.438 700.815 -151.005C721.021 -112.32 724.168 -67.1233 737.859 -26.1207C742.552 -11.9933 744.816 2.63076 743.712 17.4756C742.883 28.5126 739.516 39.3841 739.35 50.4211C738.908 75.2544 727.591 102.295 712.96 122.162C702.084 136.896 685.135 143.629 668.959 150.969C660.513 154.831 652.397 157.26 643.508 159.743C624.02 165.206 606.684 176.85 586.589 180.713C576.596 182.645 566.824 183.362 557.163 186.729C548.329 189.819 539.496 194.896 529.945 194.951C509.297 195.061 487.6 192.137 467.283 187.501C439.79 181.265 420.301 167.855 402.027 146.333C380.717 121.279 357.143 96.5007 338.151 69.5704C324.735 50.5867 315.129 27.8504 315.019 4.28633Z" stroke="#FDC00E" stroke-width="0.4" stroke-miterlimit="10"/>
<path d="M318.552 3.40327C319.159 -21.3749 318.552 -47.2567 320.981 -72.7523C323.742 -102.056 327.606 -125.785 348.199 -148.522C358.247 -159.614 370.117 -168.388 381.766 -177.604C390.157 -184.226 397.39 -191.842 406.278 -197.857C423.282 -209.336 441.335 -215.24 461.21 -219.821C481.141 -224.401 501.236 -231.686 521.553 -234.059C542.256 -236.432 563.898 -234.169 583.662 -234.059C599.618 -233.948 622.474 -224.677 636.442 -216.234C662.831 -200.285 687.841 -174.955 701.808 -147.418C711.47 -128.379 715.831 -107.519 720.303 -86.7693C725.051 -64.6952 731.069 -43.3937 736.645 -21.6508C740.068 -8.1856 741.503 5.55551 740.289 19.4622C739.35 30.0577 735.927 40.7636 735.927 51.1384C735.872 74.3714 724.499 99.5359 710.752 118.244C699.434 133.64 683.755 141.753 666.42 148.982C657.255 152.79 647.649 154.611 638.484 158.198C621.149 164.93 605.249 175.747 586.644 179.168C576.761 180.989 566.99 181.541 557.273 184.411C548.44 187.06 539.551 191.419 530.221 191.53C509.794 191.695 488.318 190.04 468.056 186.066C455.91 183.693 443.875 180.824 433.937 173.098C423.945 165.261 414.504 156.597 405.836 147.326C384.305 124.148 362.167 99.2047 344.39 73.047C331.14 53.5666 318 27.0777 318.552 3.40327Z" stroke="#FDC107" stroke-width="0.4" stroke-miterlimit="10"/>
<path d="M321.147 0.423344C322.196 -24.1341 320.264 -50.5678 322.306 -76.2289C324.349 -102.497 325.95 -125.84 344.003 -146.424C361.339 -166.236 386.403 -179.425 407.051 -195.429C422.509 -207.404 439.9 -211.377 458.56 -215.903C477.607 -220.538 496.047 -227.712 515.701 -229.368C537.784 -231.244 561.248 -227.933 581.675 -227.767C599.286 -227.602 621.315 -222.028 637.159 -211.433C662.334 -194.656 688.669 -171.313 702.195 -143.886C712.353 -123.302 716.383 -99.6826 721.076 -77.443C725.382 -57.2452 731.566 -37.3233 735.485 -17.0704C738.191 -3.49481 738.908 10.4118 737.583 24.2081C736.59 33.8656 733.664 43.7437 733.774 53.1804C734.16 93.0793 699.71 132.702 663.549 146.499C653.28 150.417 643.232 152.293 633.46 157.591C618.665 165.537 603.869 175.084 587.085 178.12C576.541 180.051 566.161 180.603 555.727 183.362C547.611 185.514 539.33 188.715 530.994 188.826C511.34 189.046 490.913 188.439 471.148 185.404C459.113 183.528 446.249 181.376 436.477 173.594C426.816 165.924 418.479 155.549 409.425 147.05C386.403 125.252 363.712 97.8252 347.095 70.8396C335.28 51.5248 320.208 23.1596 321.147 0.423344Z" stroke="#FDC300" stroke-width="0.4" stroke-miterlimit="10"/>
</svg>
