<svg width="22" height="20" viewBox="0 0 22 20" fill="none" xmlns="http://www.w3.org/2000/svg">
<path d="M2 1L5.58916 4.58916M20 19L16.4112 15.4112M12.8749 16.8246C12.2677 16.9398 11.6411 17 11.0005 17C6.52281 17 2.73251 14.0571 1.45825 9.99997C1.80515 8.8955 2.33851 7.87361 3.02143 6.97118M8.87868 7.87868C9.42157 7.33579 10.1716 7 11 7C12.6569 7 14 8.34315 14 10C14 10.8284 13.6642 11.5784 13.1213 12.1213M8.87868 7.87868L13.1213 12.1213M8.87868 7.87868L5.58916 4.58916M13.1213 12.1213L5.58916 4.58916M13.1213 12.1213L16.4112 15.4112M5.58916 4.58916C7.14898 3.58354 9.00656 3 11.0004 3C15.4781 3 19.2684 5.94291 20.5426 10C19.8357 12.2507 18.3545 14.1585 16.4112 15.4112" stroke="currentColor" stroke-width="1.5" stroke-linecap="round" stroke-linejoin="round"/>
</svg>
