<svg width="242" height="242" viewBox="0 0 242 242" fill="none" xmlns="http://www.w3.org/2000/svg">
<path d="M225.925 154.578C223.749 160.119 217.088 162.215 211.239 163.072C208.069 163.54 204.864 163.843 201.659 164.007C198.454 164.172 194.549 163.366 191.577 164.051C189.133 164.622 186.584 167.28 184.666 168.882C182.196 170.943 179.803 173.116 177.202 175.03C172.477 178.493 166.577 181.143 160.84 179.913C162.188 178.493 161.946 176.103 161.462 174.224C160.979 172.346 160.175 170.475 160.417 168.57C160.659 166.665 161.946 164.986 162.948 163.271C163.527 162.333 163.923 161.293 164.115 160.206C159.631 159.34 155.13 158.379 150.629 157.357C123.698 151.287 98.5117 139.117 77.0006 121.779C57.7447 106.271 37.7458 96.6685 17.6 83.083C28.3381 81.2301 36.8819 83.5766 45.5207 88.5986C36.7342 81.1441 29.6612 71.872 24.7875 61.419C36.2692 62.1634 47.0714 67.1344 55.1185 75.3768C63.2994 84.3212 67.7139 97.1188 77.0784 105.726C86.1232 114.047 99.1161 116.454 112.575 116.592C125.344 116.713 138.647 115.614 151.39 115.605C162.62 115.605 172.028 116.263 179.535 118.584C179.924 117.934 179.846 116.67 179.932 115.9L180.295 112.843C180.753 109.224 180.675 105.319 183.111 102.34C183.975 101.327 185.841 99.5865 185.306 98.0972C185.651 99.067 187.604 99.9935 188.701 100.695C192.393 103.079 195.352 106.446 197.245 110.419C198.283 112.754 199.087 115.188 199.646 117.683C199.957 118.85 200.208 120.032 200.398 121.225C200.45 121.588 200.484 124.965 200.562 125.008C206.991 127.765 212.851 131.7 217.84 136.611C223.213 141.105 228.509 148.015 225.925 154.578Z" fill="white"/>
<path d="M94.9789 110.616C89.7843 109.317 81.854 113.992 87.9056 119.1C89.7237 120.641 92.9183 122.494 95.2732 122.814C97.6281 123.134 100.26 121.135 102.528 121.689C105.991 122.554 113.281 134.762 117.393 129.965C119.991 126.901 114.337 117.187 111.852 114.936C108.086 111.533 96.5545 107.733 94.9789 110.616Z" fill="#FC6133"/>
<path d="M140.803 157.531C140.492 157.47 140.18 157.401 139.877 157.323C136.942 156.622 132.371 155.133 133.635 151.324C134.899 147.514 139.28 146.475 140.353 142.311C141.851 136.51 138.068 135.151 137.055 130.312C135.929 124.944 140.57 123.463 144.492 125.455C148.413 127.446 149.288 131.68 152.959 133.835C158.058 136.831 163.157 132.909 168.456 134.485C173.113 135.87 176.126 141.056 181.278 141.263C188.316 141.549 194.264 136.233 202.056 137.601C208.393 138.718 215.414 149.722 207.016 153.02C201.415 155.228 193.329 143.211 188.896 148.614C186.299 151.782 191.104 155.237 193.086 156.942C198.073 161.271 197.796 169.297 195.008 174.734C193.424 177.842 191.286 179.443 188.307 181.028C184.282 183.175 181.139 183.01 176.828 181.218C174.04 180.058 172.81 178.153 171.217 175.807C168.802 172.249 167.529 168.102 164.586 164.881C158.499 158.241 148.82 159.219 140.803 157.531Z" fill="#FC6133"/>
</svg>
