<svg width="171" height="40" viewBox="0 0 171 40" fill="none" xmlns="http://www.w3.org/2000/svg">
<path d="M36.849 20.0848C35.3331 22.143 33.1951 23.6574 30.7519 24.4035C30.4416 24.4906 30.1303 24.5721 29.8181 24.6478C26.0834 25.5593 22.2001 25.6838 18.4147 25.0134C18.3627 25.003 18.3097 24.9935 18.2577 24.985C16.374 24.657 14.4357 24.8818 12.6768 25.6323C10.9179 26.3829 9.41358 27.627 8.34541 29.2146C7.27724 30.8021 6.69088 32.6653 6.65711 34.5791C6.62334 36.4929 7.1436 38.3757 8.15508 40C0.642691 33.7635 -1.87279 23.5416 1.41749 14.7186C2.15751 12.7368 3.17143 10.8687 4.42963 9.16872C10.8077 0.539866 22.1591 -2.23982 31.5967 1.86199C32.1561 2.10508 32.7082 2.37247 33.2532 2.66417C33.6293 2.88449 33.9934 3.12476 34.3439 3.38395C35.6047 4.31517 36.6697 5.48608 37.4781 6.82971C38.2864 8.17334 38.8223 9.66332 39.0549 11.2144C39.2876 12.7656 39.2125 14.3474 38.834 15.8695C38.4555 17.3915 37.781 18.8239 36.849 20.0848Z" fill="#FC6133"/>
<path d="M16.5626 38.2384C18.4874 38.2384 20.0477 36.6776 20.0477 34.7522C20.0477 32.8268 18.4874 31.266 16.5626 31.266C14.6378 31.266 13.0774 32.8268 13.0774 34.7522C13.0774 36.6776 14.6378 38.2384 16.5626 38.2384Z" fill="#FC6133"/>
<path d="M159.523 30.1021L151.506 9.27486C151.103 8.2276 150.393 7.32697 149.469 6.69139C148.545 6.05581 147.451 5.71506 146.33 5.71393C145.209 5.7128 144.114 6.05136 143.189 6.68508C142.263 7.31879 141.552 8.218 141.146 9.26444L133.105 30.0765C132.966 30.432 132.894 30.8103 132.893 31.1922C132.895 31.6208 132.984 32.0445 133.157 32.4366C133.33 32.8287 133.582 33.1806 133.898 33.4703C134.213 33.76 134.585 33.9812 134.991 34.1198C135.396 34.2585 135.825 34.3116 136.252 34.2759C137.469 34.1812 138.503 33.3421 138.92 32.1923L139.951 29.3587L141.577 24.0891L145.266 13.9137C145.345 13.6958 145.489 13.5076 145.678 13.3745C145.868 13.2415 146.094 13.1701 146.325 13.1701C146.556 13.1701 146.782 13.2415 146.972 13.3745C147.161 13.5076 147.305 13.6958 147.384 13.9137L151.034 24.0891L152.704 29.3577L153.762 32.2653C153.977 32.8576 154.37 33.3688 154.887 33.7285C155.427 34.1067 156.074 34.3013 156.733 34.2838C157.391 34.2664 158.027 34.0376 158.546 33.6314C159.065 33.2251 159.44 32.6627 159.616 32.027C159.792 31.3914 159.759 30.7159 159.523 30.1002V30.1021Z" fill="#212121"/>
<path d="M170.726 8.75676C170.726 7.0767 169.366 5.71474 167.688 5.71474C166.01 5.71474 164.65 7.0767 164.65 8.75676V31.2452C164.65 32.9253 166.01 34.2872 167.688 34.2872C169.366 34.2872 170.726 32.9253 170.726 31.2452V8.75676Z" fill="#212121"/>
<path d="M55.8907 5.71574C56.6966 5.71574 57.4695 6.03624 58.0394 6.60673C58.6092 7.17722 58.9293 7.95097 58.9293 8.75777V31.2443C58.9293 32.0511 58.6092 32.8249 58.0394 33.3953C57.4695 33.9658 56.6966 34.2863 55.8907 34.2863C55.4917 34.2863 55.0966 34.2076 54.728 34.0548C54.3594 33.9019 54.0245 33.6778 53.7424 33.3953C53.4603 33.1128 53.2366 32.7774 53.084 32.4084C52.9314 32.0393 52.8529 31.6438 52.853 31.2443V8.75587C52.8533 7.9495 53.1734 7.17623 53.7431 6.60612C54.3127 6.03601 55.0852 5.71574 55.8907 5.71574Z" fill="#212121"/>
<path d="M95.5179 5.71574C96.3238 5.71574 97.0967 6.03624 97.6666 6.60673C98.2364 7.17722 98.5566 7.95097 98.5566 8.75777V31.2443C98.5566 32.0511 98.2364 32.8249 97.6666 33.3953C97.0967 33.9658 96.3238 34.2863 95.5179 34.2863C95.1189 34.2863 94.7238 34.2076 94.3552 34.0548C93.9866 33.9019 93.6517 33.6778 93.3696 33.3953C93.0875 33.1128 92.8638 32.7774 92.7112 32.4084C92.5586 32.0393 92.4801 31.6438 92.4802 31.2443V8.75587C92.4805 7.9495 92.8006 7.17623 93.3703 6.60612C93.9399 6.03601 94.7124 5.71574 95.5179 5.71574Z" fill="#212121"/>
<path d="M73.3619 22.8493L71.1369 25.5011V31.2404C71.1369 31.6399 71.0583 32.0355 70.9056 32.4045C70.7529 32.7736 70.5291 33.109 70.2469 33.3914C69.9647 33.6739 69.6297 33.898 69.2611 34.0509C68.8924 34.2037 68.4973 34.2824 68.0982 34.2824C67.2925 34.2822 66.5199 33.9616 65.9502 33.3911C65.3806 32.8206 65.0605 32.047 65.0605 31.2404V8.75575C65.061 7.94945 65.3813 7.17633 65.9509 6.60628C66.5205 6.03622 67.2928 5.71587 68.0982 5.71562C68.9041 5.71562 69.677 6.03612 70.2469 6.60661C70.8167 7.1771 71.1369 7.95085 71.1369 8.75765V18.4785L80.3833 6.79056C80.6489 6.45498 80.9868 6.18383 81.3718 5.99736C81.7568 5.81089 82.1789 5.71393 82.6065 5.71373C85.0208 5.71373 86.331 8.54266 84.7701 10.3876L77.3826 19.1225L85.7161 29.5612C87.2373 31.4658 85.8826 34.2862 83.4456 34.2862C82.9967 34.2862 82.5538 34.1821 82.1519 33.9819C81.7499 33.7818 81.3997 33.4911 81.1288 33.1327L73.3619 22.8493Z" fill="#212121"/>
<path d="M124.041 23.5908V23.2764C124.041 22.5088 124.346 21.7726 124.888 21.2298C125.43 20.687 126.166 20.3821 126.932 20.3821C127.699 20.3821 128.435 20.687 128.977 21.2298C129.519 21.7726 129.823 22.5088 129.823 23.2764V27.472C129.824 28.0188 129.71 28.5597 129.489 29.0596C129.267 29.5595 128.943 30.0073 128.538 30.3738C127.216 31.5675 125.694 32.5178 124.041 33.181C122.153 33.9265 120.138 34.3017 118.108 34.2862C110.067 34.2862 103.461 28.6691 103.461 19.9967C103.461 11.2835 110.064 5.74876 118.108 5.74876C122.002 5.74876 124.911 7.04342 127.035 8.90444C127.455 9.27087 127.754 9.7571 127.891 10.2981C128.028 10.8391 127.996 11.409 127.801 11.9316C127.605 12.4543 127.255 12.9047 126.797 13.2227C126.339 13.5406 125.795 13.711 125.237 13.7109C124.563 13.7119 123.912 13.4606 123.413 13.0062C121.965 11.6792 120.071 10.946 118.107 10.952C113.116 10.952 109.485 14.7934 109.485 19.9967C109.485 25.1999 113.116 29.0422 118.107 29.0422C120.619 29.0422 122.837 28.0146 124.04 26.9406L124.041 23.5908Z" fill="#212121"/>
</svg>
