<svg width="32" height="32" viewBox="0 0 32 32" fill="none" xmlns="http://www.w3.org/2000/svg">
<circle cx="16" cy="16" r="16" fill="#0041FF"/>
<path fill-rule="evenodd" clip-rule="evenodd" d="M15.9756 11.4439C18.4104 11.4439 20.3923 13.4193 20.3923 15.8541C20.3923 18.2889 18.4169 20.2708 15.9756 20.2708C13.5408 20.2708 11.5654 18.2955 11.5654 15.8541C11.5654 13.4259 13.5408 11.4439 15.9756 11.4439Z" fill="white"/>
<path fill-rule="evenodd" clip-rule="evenodd" d="M7.58819 16.5106C8.4676 16.5106 9.17637 17.2194 9.17637 18.0987C9.17637 18.9782 8.4676 19.687 7.58819 19.687C6.70878 19.687 6 18.9782 6 18.0987C6 17.2259 6.70878 16.5106 7.58819 16.5106Z" fill="white"/>
<path fill-rule="evenodd" clip-rule="evenodd" d="M18.9418 4.90723C20.484 4.90723 21.731 6.15415 21.731 7.6964C21.731 9.23863 20.484 10.4856 18.9418 10.4856C17.3995 10.4856 16.1526 9.23863 16.1526 7.6964C16.1526 6.15415 17.3995 4.90723 18.9418 4.90723Z" fill="white"/>
<path fill-rule="evenodd" clip-rule="evenodd" d="M19.7031 21.4066C20.9698 21.4066 22.0001 22.437 22.0001 23.7035C22.0001 24.9701 20.9698 26.0005 19.7031 26.0005C18.4365 26.0005 17.4062 24.9701 17.4062 23.7035C17.3996 22.437 18.43 21.4066 19.7031 21.4066Z" fill="white"/>
</svg>
