<svg width="15" height="14" viewBox="0 0 15 14" fill="none" xmlns="http://www.w3.org/2000/svg">
<path d="M12.8793 8.09756C12.8646 7.81756 12.6141 7.60387 12.3267 7.60387H10.7646L10.3372 6.52072H11.3025C11.5825 6.52072 11.8404 6.3144 11.8551 6.02703C11.8699 5.73229 11.6341 5.48914 11.3467 5.48914H9.93198L8.16356 1.03124C8.08987 0.839663 7.89829 0.707031 7.68461 0.707031C7.47829 0.707031 7.28671 0.839663 7.20566 1.03124L5.51092 5.48177H4.12566C3.84566 5.48177 3.58777 5.68808 3.57303 5.97545C3.55829 6.27019 3.79408 6.51335 4.08145 6.51335H5.09092L4.67829 7.58914H3.13092C2.85092 7.58914 2.59303 7.79545 2.57829 8.08282C2.56356 8.37756 2.79934 8.62072 3.08671 8.62072H4.27303L2.88777 12.2165C2.78461 12.4818 2.91724 12.7839 3.1825 12.887C3.24145 12.9165 3.3004 12.9165 3.35934 12.9165C3.56566 12.9165 3.75724 12.7986 3.83829 12.5923L5.37092 8.62808H10.0351L11.6267 12.6365C11.7004 12.8428 11.892 12.9607 12.1057 12.9607C12.1646 12.9607 12.2383 12.946 12.2972 12.9312C12.5625 12.8281 12.6804 12.5333 12.5772 12.2607L11.133 8.63545H12.3046C12.6509 8.62808 12.8941 8.39229 12.8793 8.09756ZM7.70671 2.65966L8.81934 5.48177H6.62356L7.70671 2.65966ZM5.79092 7.60387L6.20355 6.52072H9.2025L9.62987 7.60387H5.79092Z" fill="#3D3B39"/>
</svg>
