<svg width="24" height="24" viewBox="0 0 24 24" fill="none" xmlns="http://www.w3.org/2000/svg">
<path d="M16.2466 13.4325L16.3684 13.7568H16.7147H19.1408C19.333 13.7568 19.4903 13.9087 19.4996 14.0869C19.5071 14.2507 19.3899 14.432 19.1001 14.4405H17.2869H16.5627L16.8194 15.1177L19.0606 21.0302C19.1371 21.2469 19.0448 21.4154 18.9291 21.478C18.8646 21.4933 18.8174 21.5 18.7974 21.5C18.6668 21.5 18.5685 21.4319 18.527 21.31L18.5243 21.302L18.5214 21.2941L16.0496 14.7517L15.9274 14.4284H15.5818H8.3381H7.98928L7.86884 14.7558L5.48951 21.2236C5.48938 21.2239 5.48925 21.2243 5.48912 21.2246C5.4363 21.3648 5.32602 21.4278 5.21403 21.4278C5.18978 21.4278 5.1751 21.4278 5.16178 21.4274C5.1582 21.4272 5.15517 21.4271 5.15264 21.427L5.15074 21.426L5.12855 21.4169C4.98162 21.3568 4.87802 21.1549 4.95057 20.9588L4.9511 20.9574L7.10247 15.0885L7.34884 14.4164H6.63302H4.79062C4.65386 14.4164 4.49011 14.2828 4.50044 14.0625C4.50943 13.8818 4.66883 13.7327 4.85928 13.7327H7.26241H7.61219L7.73211 13.4041L8.37294 11.6483L8.61799 10.9769H7.90325H6.33549C6.19873 10.9769 6.03498 10.8433 6.04531 10.623C6.0543 10.4422 6.2137 10.2931 6.40415 10.2931H8.55553H8.90617L9.02562 9.96348L11.654 2.7094C11.7133 2.56951 11.838 2.5 11.9314 2.5C12.0441 2.5 12.1601 2.57661 12.2056 2.701L12.2056 2.70101L12.2074 2.70574L14.9538 9.98174L15.0759 10.3052H15.4216H17.6188C17.7555 10.3052 17.9193 10.4388 17.9089 10.6591C17.8999 10.8398 17.7405 10.9889 17.5501 10.9889H16.051H15.3292L15.5829 11.6646L16.2466 13.4325ZM12.4338 5.01139L11.9594 3.74671L11.496 5.01549L9.81383 9.62162L9.56859 10.2931H10.2835H13.6937H14.4152L14.1618 9.61752L12.4338 5.01139ZM8.52031 13.0864L8.2773 13.7568H8.99038H14.9524H15.6742L15.4205 13.081L14.7568 11.3131L14.6351 10.9889H14.2887H9.63121H9.28062L9.16114 11.3185L8.52031 13.0864Z" stroke="currentColor"/>
</svg>
