<svg width="20" height="18" viewBox="0 0 20 18" fill="none" xmlns="http://www.w3.org/2000/svg">
<path d="M1.33978 14L0.473755 13.5L1.33978 14ZM18.6603 14L19.5263 13.5L18.6603 14ZM11.7321 2L10.8661 2.5V2.5L11.7321 2ZM8.26798 2L9.13401 2.5V2.5L8.26798 2ZM11 7C11 6.44771 10.5523 6 10 6C9.44775 6 9.00003 6.44771 9.00003 7H11ZM9.00003 9C9.00003 9.55228 9.44775 10 10 10C10.5523 10 11 9.55228 11 9H9.00003ZM10 12C9.44775 12 9.00003 12.4477 9.00003 13C9.00003 13.5523 9.44775 14 10 14V12ZM10.01 14C10.5623 14 11.01 13.5523 11.01 13C11.01 12.4477 10.5623 12 10.01 12V14ZM10.8661 2.5L17.7943 14.5L19.5263 13.5L12.5981 1.5L10.8661 2.5ZM16.9282 16H3.07183V18H16.9282V16ZM2.20581 14.5L9.13401 2.5L7.40196 1.5L0.473755 13.5L2.20581 14.5ZM3.07183 16C2.30203 16 1.82091 15.1667 2.20581 14.5L0.473755 13.5C-0.680945 15.5 0.76243 18 3.07183 18V16ZM17.7943 14.5C18.1792 15.1667 17.698 16 16.9282 16V18C19.2376 18 20.681 15.5 19.5263 13.5L17.7943 14.5ZM12.5981 1.5C11.4434 -0.5 8.55666 -0.5 7.40196 1.5L9.13401 2.5C9.51891 1.83333 10.4812 1.83333 10.8661 2.5L12.5981 1.5ZM9.00003 7V9H11V7H9.00003ZM10 14H10.01V12H10V14Z" fill="currentColor"/>
</svg>
