<?xml version="1.0" encoding="utf-8"?>
<svg xmlns="http://www.w3.org/2000/svg" width="256" height="256">
  <defs>
    <filter id="inset-shadow" x="-50%" y="-50%" width="200%" height="200%">
      <feComponentTransfer in="SourceAlpha">
        <feFuncA type="table" tableValues="1 0" />
      </feComponentTransfer>
      <feGaussianBlur stdDeviation="4"/>
      <feOffset dx="0" dy="5" result="offsetblur"/>
      <feFlood flood-color="rgb(0, 0, 0)" result="color"/>
      <feComposite in2="offsetblur" operator="in"/>
      <feComposite in2="SourceAlpha" operator="in" />
      <feMerge>
        <feMergeNode in="SourceGraphic" />
        <feMergeNode />
      </feMerge>
    </filter>
  </defs>
  <g filter="url(#inset-shadow)">
    <g transform="translate(32, 32) scale(0.75)">
      <path
          d="M 107.63656,75.645679 A 16.869421,16.869421 0 1 1 90.764474,92.5151 16.872088,16.872088 0 0 1 107.63656,75.645679 Z m 40.72821,0 A 16.869421,16.869421 0 1 1 131.49135,92.5151 16.872088,16.872088 0 0 1 148.36477,75.645679 Z m 0,70.968371 a 16.869421,16.869421 0 1 1 -16.87342,16.86942 16.870755,16.870755 0 0 1 16.87342,-16.86942 z m -40.72821,0 A 16.869421,16.869421 0 1 1 90.764474,163.48347 16.870755,16.870755 0 0 1 107.63656,146.61405 Z M 86.69112,111.7112 A 16.869421,16.869421 0 1 1 69.819032,128.58062 16.872088,16.872088 0 0 1 86.69112,111.7112 Z m 82.6191,0 a 16.869421,16.869421 0 1 1 -16.87343,16.86942 16.870755,16.870755 0 0 1 16.87343,-16.86942 z m 19.2001,-29.084151 A 10.470721,10.470721 0 1 1 178.03693,93.09777 10.470721,10.470721 0 0 1 188.51032,82.627049 Z m 0,69.803031 a 10.470721,10.470721 0 1 1 -10.47339,10.47072 10.470721,10.470721 0 0 1 10.47339,-10.47072 z m -121.0193,0 A 10.470721,10.470721 0 1 1 57.018965,162.9008 10.472055,10.472055 0 0 1 67.49102,152.43008 Z m 0,-69.803031 A 10.470721,10.470721 0 1 1 57.018965,93.09777 10.472055,10.472055 0 0 1 67.49102,82.627049 Z M 128.00067,47.7242 A 10.470721,10.470721 0 1 1 117.52728,58.194921 10.470721,10.470721 0 0 1 128.00067,47.7242 Z m 0,139.60873 a 10.470721,10.470721 0 1 1 -10.47339,10.47072 10.470721,10.470721 0 0 1 10.47339,-10.47072 z m 44.80023,10.47072 a 8.7253788,8.7253788 0 1 1 -8.72805,8.72538 8.7253788,8.7253788 0 0 1 8.72805,-8.72538 z m -89.600465,0 a 8.7253788,8.7253788 0 1 1 -8.728046,8.72538 8.7253788,8.7253788 0 0 1 8.728046,-8.72538 z m 0,-157.059486 a 8.7253788,8.7253788 0 1 1 -8.728046,8.725378 8.7253788,8.7253788 0 0 1 8.728046,-8.725378 z m 89.600465,0 a 8.7253788,8.7253788 0 1 1 -8.72805,8.725378 8.7253788,8.7253788 0 0 1 8.72805,-8.725378 z m 45.38157,77.948406 a 8.7253788,8.7253788 0 1 1 -8.72671,8.72538 8.7267121,8.7267121 0 0 1 8.72671,-8.72538 z m -180.364938,0 a 8.7253788,8.7253788 0 1 1 -8.726712,8.72538 8.7253788,8.7253788 0 0 1 8.726712,-8.72538 z M 31.417498,65.174958 a 6.9813697,6.9813697 0 1 1 -6.981369,6.980036 6.9813697,6.9813697 0 0 1 6.981369,-6.980036 z m 0,111.687252 a 6.9813697,6.9813697 0 1 1 -6.981369,6.98003 6.9813697,6.9813697 0 0 1 6.981369,-6.98003 z m 193.165002,0 a 6.9813697,6.9813697 0 1 1 -6.98137,6.98003 6.9813697,6.9813697 0 0 1 6.98137,-6.98003 z m 0,-111.687252 a 6.9813697,6.9813697 0 1 1 -6.98137,6.980036 6.9813697,6.9813697 0 0 1 6.98137,-6.980036 z M 128.00067,9.3320005 a 6.9813697,6.9813697 0 1 1 -6.9827,6.9800365 6.9800364,6.9800364 0 0 1 6.9827,-6.9800365 z m 0,223.3731595 a 6.9813697,6.9813697 0 1 1 -6.9827,6.98137 6.9813697,6.9813697 0 0 1 6.9827,-6.98137 z m 61.67232,-4.65335 a 5.8173636,5.8173636 0 1 1 -5.81737,5.81736 5.8173636,5.8173636 0 0 1 5.81737,-5.81736 z m -123.345976,0 a 5.8173636,5.8173636 0 1 1 -5.817364,5.81736 5.8173636,5.8173636 0 0 1 5.817364,-5.81736 z m 0,-211.73444 a 5.8173636,5.8173636 0 1 1 -5.817364,5.817364 5.8173636,5.8173636 0 0 1 5.817364,-5.822697 z m 123.345976,0 a 5.8173636,5.8173636 0 1 1 -5.81737,5.817364 5.8173636,5.8173636 0 0 1 5.81737,-5.822697 z m 60.50965,105.86722 a 5.8173636,5.8173636 0 1 1 -5.81737,5.8147 5.8173636,5.8173636 0 0 1 5.81737,-5.81737 z m -244.3652758,0 A 5.8173636,5.8173636 0 1 1 6.1120346e-7,127.99929 5.8173636,5.8173636 0 0 1 5.8173642,122.18192 Z"
          style="fill:#aaaaaa;fill-opacity:1;stroke-width:1.33334" />
    </g>
  </g>
</svg>
