<svg width="25" height="24" viewBox="0 0 25 24" fill="none" xmlns="http://www.w3.org/2000/svg">
    <path d="M19.7778 11L5.77783 11M19.7778 11C20.8824 11 21.7778 11.8954 21.7778 13L21.7778 19C21.7778 20.1046 20.8824 21 19.7778 21L5.77783 21C4.67326 21 3.77783 20.1046 3.77783 19L3.77783 13C3.77783 11.8954 4.67326 11 5.77783 11M19.7778 11V9C19.7778 7.89543 18.8824 7 17.7778 7M5.77783 11V9C5.77783 7.89543 6.67326 7 7.77783 7M7.77783 7L7.77783 5C7.77783 3.89543 8.67326 3 9.77783 3L15.7778 3C16.8824 3 17.7778 3.89543 17.7778 5V7M7.77783 7L17.7778 7" stroke="#5F6676" stroke-width="1.5" stroke-linecap="round" stroke-linejoin="round"/>
</svg>
