<svg width="24" height="24" viewBox="0 0 24 24" fill="none" xmlns="http://www.w3.org/2000/svg">
<path d="M3 16L8.15901 11.4142C9.03769 10.6332 10.4623 10.6332 11.341 11.4142L16.5 16M14.25 14L16.034 12.4142C16.9127 11.6332 18.3373 11.6332 19.216 12.4142L21 14M14.25 8H14.2613M5.25 20H18.75C19.9926 20 21 19.1046 21 18V6C21 4.89543 19.9926 4 18.75 4L5.25 4C4.00736 4 3 4.89543 3 6L3 18C3 19.1046 4.00736 20 5.25 20Z" stroke="currentColor" stroke-width="1.5" stroke-linecap="round" stroke-linejoin="round"/>
</svg>
