<svg width="24" height="24" viewBox="0 0 24 24" fill="none" xmlns="http://www.w3.org/2000/svg">
    <path d="M21.1212 11.1789C20.2582 11.1789 19.499 11.6333 19.0757 12.3185L16.6466 11.6809C16.6627 11.5533 16.6627 11.4179 16.6627 11.2825C16.6627 10.3738 16.3671 9.52905 15.8716 8.83553L18.9799 5.73516C19.3155 5.91846 19.7071 6.02203 20.1146 6.02203C21.4411 6.02203 22.5117 4.94611 22.5117 3.631C22.5117 2.3079 21.4331 1.23996 20.1146 1.23996C18.7961 1.23996 17.7175 2.31588 17.7175 3.631C17.7175 4.03745 17.8213 4.42807 18.0051 4.76281L14.8968 7.86318C14.2096 7.369 13.3626 7.07413 12.4436 7.07413C11.1652 7.07413 10.0146 7.64803 9.23954 8.54868L5.2121 6.11793C5.26009 5.92663 5.284 5.72732 5.284 5.52017C5.284 4.19707 4.20534 3.12914 2.88688 3.12914C1.56841 3.12914 0.489746 4.20506 0.489746 5.52017C0.489746 6.84327 1.56841 7.91121 2.88688 7.91121C3.51009 7.91121 4.06939 7.67204 4.50096 7.28958L8.5441 9.7205C8.35231 10.1987 8.24847 10.7247 8.24847 11.2746C8.24847 12.1832 8.5441 13.028 9.03953 13.7215L4.02953 18.7188C3.69394 18.5355 3.30234 18.4319 2.89483 18.4319C1.56836 18.4319 0.4977 19.5078 0.4977 20.8229C0.4977 22.1381 1.57636 23.214 2.89483 23.214C4.21329 23.214 5.29196 22.1381 5.29196 20.8229C5.29196 20.4165 5.18812 20.0259 5.00435 19.6911L10.0062 14.7016C10.6136 15.1319 11.3406 15.4109 12.1236 15.4746L12.3313 17.9215C11.4444 18.2723 10.8132 19.1409 10.8132 20.1451C10.8132 21.4682 11.8918 22.5361 13.2103 22.5361C14.5368 22.5361 15.6074 21.4602 15.6074 20.1451C15.6074 18.9895 14.7844 18.0251 13.6977 17.8019L13.4901 15.363C14.7366 15.0443 15.7673 14.1675 16.2867 13.0198L18.7157 13.6575C18.7557 14.9407 19.8185 15.9688 21.1128 15.9688C22.4393 15.9688 23.51 14.8929 23.51 13.5778C23.526 12.2547 22.4474 11.1787 21.121 11.1787L21.1212 11.1789ZM2.88673 6.5403C2.32742 6.5403 1.87193 6.08596 1.87193 5.52808C1.87193 4.9702 2.32742 4.51586 2.88673 4.51586C3.44603 4.51586 3.90152 4.9702 3.90152 5.52808C3.90152 6.08596 3.44603 6.5403 2.88673 6.5403ZM20.1302 2.619C20.6895 2.619 21.145 3.07334 21.145 3.63122C21.145 4.1891 20.6895 4.64344 20.1302 4.64344C19.5709 4.64344 19.1154 4.1891 19.1154 3.63122C19.1154 3.07334 19.5709 2.619 20.1302 2.619ZM2.88673 21.8429C2.32742 21.8429 1.87193 21.3886 1.87193 20.8307C1.87193 20.2728 2.32742 19.8185 2.88673 19.8185C3.44603 19.8185 3.90152 20.2728 3.90152 20.8307C3.90152 21.3886 3.44603 21.8429 2.88673 21.8429ZM14.241 20.1452C14.241 20.7031 13.7855 21.1574 13.2262 21.1574C12.6669 21.1574 12.2114 20.7031 12.2114 20.1452C12.2114 19.5873 12.6669 19.133 13.2262 19.133C13.7855 19.125 14.241 19.5873 14.241 20.1452ZM12.4592 14.1121C10.8931 14.1121 9.62262 12.8449 9.62262 11.2828C9.62262 9.72064 10.8931 8.45339 12.4592 8.45339C14.0253 8.45339 15.2958 9.72064 15.2958 11.2828C15.2958 12.8449 14.0173 14.1121 12.4592 14.1121ZM21.121 14.5903C20.5617 14.5903 20.1062 14.1359 20.1062 13.5781C20.1062 13.0202 20.5617 12.5658 21.121 12.5658C21.6803 12.5658 22.1358 13.0202 22.1358 13.5781C22.1356 14.1359 21.6881 14.5903 21.121 14.5903Z" fill="currentColor"/>
    <path fill-rule="evenodd" clip-rule="evenodd" d="M17.4777 3.63083C17.4777 2.18271 18.6643 1 20.1146 1C21.5644 1 22.7516 2.1742 22.7516 3.63083C22.7516 5.07844 21.5735 6.26167 20.1146 6.26167C19.7307 6.26167 19.359 6.17805 19.0272 6.02659L16.1818 8.86475C16.6351 9.56324 16.9025 10.3935 16.9025 11.2823V11.2893C16.9025 11.3558 16.9025 11.4268 16.9002 11.4994L18.9712 12.043C19.3705 11.4855 19.9822 11.0909 20.6866 10.9745L20.6617 10.9387H21.1211C22.5782 10.9387 23.7667 12.1208 23.7498 13.579C23.7491 15.026 22.5713 16.2084 21.1129 16.2084C19.7511 16.2084 18.6211 15.1735 18.4879 13.8454L16.417 13.3018C15.8746 14.3656 14.9089 15.1849 13.7459 15.5401L13.9221 17.6094C15.0294 17.9183 15.8473 18.936 15.8473 20.1449C15.8473 21.5925 14.6692 22.7758 13.2104 22.7758C11.7606 22.7758 10.5734 21.6016 10.5734 20.1449C10.5734 19.102 11.1909 18.1941 12.0779 17.7704L11.9015 15.6923C11.2215 15.6055 10.5867 15.3652 10.0358 15.0106L5.29643 19.7384C5.44808 20.0693 5.5318 20.4399 5.5318 20.8228C5.5318 22.2709 4.3452 23.4536 2.89488 23.4536C1.44455 23.4536 0.257954 22.2709 0.257954 20.8228C0.257954 19.3752 1.43603 18.192 2.89488 18.192C3.27885 18.192 3.65051 18.2756 3.98236 18.427L8.72948 13.692C8.27615 12.9935 8.00873 12.1632 8.00873 11.2744C8.00873 10.7667 8.09264 10.2772 8.24985 9.82319L4.52327 7.58261C4.07216 7.93416 3.50905 8.15084 2.88693 8.15084C1.43712 8.15084 0.25 6.97664 0.25 5.52001C0.25 4.07188 1.4366 2.88918 2.88693 2.88918C4.33673 2.88918 5.52385 4.06338 5.52385 5.52001C5.52385 5.68392 5.5101 5.84426 5.48227 6.00071L9.194 8.24092C10.0081 7.37724 11.1651 6.83417 12.4437 6.83417C13.341 6.83417 14.1737 7.10033 14.8682 7.55286L17.7131 4.71525C17.5614 4.38433 17.4777 4.01372 17.4777 3.63083ZM21.1518 11.4185H21.1212C20.3443 11.4185 19.661 11.8273 19.2798 12.4444L19.1865 12.5954L16.3825 11.8593L16.4088 11.6508C16.4226 11.5408 16.4229 11.4208 16.4229 11.2823C16.4229 10.4265 16.1447 9.63002 15.6766 8.97475L15.5583 8.80923L18.9375 5.4386L19.0949 5.52455C19.3954 5.68867 19.7475 5.78207 20.1146 5.78207C21.3087 5.78207 22.272 4.81346 22.272 3.63083C22.272 2.44127 21.3018 1.47959 20.1146 1.47959C18.928 1.47959 17.9573 2.44873 17.9573 3.63083C17.9573 3.99674 18.0509 4.34769 18.2153 4.64725L18.302 4.80519L14.9221 8.17652L14.7569 8.0577C14.1088 7.59174 13.3106 7.31377 12.4437 7.31377C11.2384 7.31377 10.1531 7.85463 9.42135 8.70493L9.28917 8.85853L4.93641 6.23143L4.97956 6.05942C5.02252 5.8882 5.04426 5.70855 5.04426 5.52001C5.04426 4.33044 4.07405 3.36877 2.88693 3.36877C1.70032 3.36877 0.729592 4.33791 0.729592 5.52001C0.729592 6.70958 1.6998 7.67125 2.88693 7.67125C3.44665 7.67125 3.95046 7.4569 4.34197 7.10995L4.47371 6.9932L8.84274 9.62006L8.76671 9.8096C8.58643 10.2591 8.48832 10.7548 8.48832 11.2744C8.48832 12.1302 8.7666 12.9267 9.2347 13.582L9.35294 13.7475L4.07198 19.015L3.91463 18.9291C3.61415 18.765 3.26206 18.6715 2.89488 18.6715C1.70079 18.6715 0.737545 19.6402 0.737545 20.8228C0.737545 22.0049 1.70827 22.974 2.89488 22.974C4.08148 22.974 5.05221 22.0049 5.05221 20.8228C5.05221 20.4569 4.95865 20.1059 4.7942 19.8064L4.7075 19.6484L9.98 14.3889L10.1449 14.5057C10.7186 14.9122 11.4047 15.1753 12.1431 15.2354L12.3454 15.2519L12.5854 18.0788L12.4195 18.1443C11.6204 18.4604 11.053 19.2431 11.053 20.1449C11.053 21.3345 12.0232 22.2962 13.2104 22.2962C14.4044 22.2962 15.3677 21.3276 15.3677 20.1449C15.3677 19.1058 14.6273 18.2375 13.6495 18.0366L13.4741 18.0006L13.234 15.1808L13.4307 15.1305C14.6063 14.83 15.5787 14.0026 16.0682 12.9208L16.1517 12.7363L18.9499 13.4708L18.9554 13.6499C18.9914 14.8027 19.9471 15.7288 21.1129 15.7288C22.307 15.7288 23.2702 14.7602 23.2702 13.5776V13.5747C23.2845 12.3976 22.3327 11.435 21.1518 11.4185ZM20.1303 2.85863C19.7028 2.85863 19.3553 3.20619 19.3553 3.63106C19.3553 4.05592 19.7028 4.40348 20.1303 4.40348C20.5577 4.40348 20.9053 4.05593 20.9053 3.63106C20.9053 3.20619 20.5577 2.85863 20.1303 2.85863ZM18.8757 3.63106C18.8757 2.94016 19.4391 2.37904 20.1303 2.37904C20.8214 2.37904 21.3849 2.94016 21.3849 3.63106C21.3849 4.32195 20.8214 4.88307 20.1303 4.88307C19.4391 4.88307 18.8757 4.32195 18.8757 3.63106ZM2.88678 4.75549C2.45933 4.75549 2.11177 5.10305 2.11177 5.52792C2.11177 5.95279 2.45933 6.30034 2.88678 6.30034C3.31422 6.30034 3.66178 5.95279 3.66178 5.52792C3.66178 5.10305 3.31422 4.75549 2.88678 4.75549ZM1.63218 5.52792C1.63218 4.83703 2.19561 4.2759 2.88678 4.2759C3.57794 4.2759 4.14137 4.83703 4.14137 5.52792C4.14137 6.21881 3.57794 6.77993 2.88678 6.77993C2.19561 6.77993 1.63218 6.21881 1.63218 5.52792ZM12.4592 8.69302C11.025 8.69302 9.86246 9.85348 9.86246 11.2826C9.86246 12.7117 11.025 13.8722 12.4592 13.8722C13.8859 13.8722 15.056 12.7113 15.056 11.2826C15.056 9.85348 13.8935 8.69302 12.4592 8.69302ZM9.38287 11.2826C9.38287 9.58746 10.7613 8.21343 12.4592 8.21343C14.1572 8.21343 15.5356 9.58746 15.5356 11.2826C15.5356 12.9782 14.1488 14.3518 12.4592 14.3518C10.7613 14.3518 9.38287 12.9777 9.38287 11.2826ZM21.121 12.8055C20.6936 12.8055 20.346 13.153 20.346 13.5779C20.346 14.0028 20.6936 14.3503 21.121 14.3503C21.555 14.3503 21.8959 14.0041 21.896 13.5779M19.8664 13.5779C19.8664 12.887 20.4298 12.3259 21.121 12.3259C21.8122 12.3259 22.3756 12.887 22.3756 13.5779C22.3754 14.2675 21.8213 14.8299 21.121 14.8299C20.4298 14.8299 19.8664 14.2688 19.8664 13.5779ZM21.121 12.8055C21.5484 12.8055 21.896 13.1531 21.896 13.5779L21.121 12.8055ZM14.0012 20.1451C14.0012 19.717 13.6513 19.3666 13.2297 19.3726L13.2262 19.3726C12.7988 19.3726 12.4512 19.7202 12.4512 20.1451C12.4512 20.5699 12.7988 20.9175 13.2262 20.9175C13.6537 20.9175 14.0012 20.5699 14.0012 20.1451ZM13.2246 18.893C13.9207 18.8841 14.4808 19.4579 14.4808 20.1451C14.4808 20.8359 13.9174 21.3971 13.2262 21.3971C12.5351 21.3971 11.9716 20.8359 11.9716 20.1451C11.9716 19.4547 12.5342 18.8939 13.2246 18.893ZM2.88678 20.0581C2.45933 20.0581 2.11177 20.4057 2.11177 20.8306C2.11177 21.2554 2.45933 21.603 2.88678 21.603C3.31422 21.603 3.66178 21.2554 3.66178 20.8306C3.66178 20.4057 3.31422 20.0581 2.88678 20.0581ZM1.63218 20.8306C1.63218 20.1397 2.19561 19.5785 2.88678 19.5785C3.57794 19.5785 4.14137 20.1397 4.14137 20.8306C4.14137 21.5214 3.57794 22.0826 2.88678 22.0826C2.19561 22.0826 1.63218 21.5214 1.63218 20.8306Z" fill="currentColor"/>
</svg>
