<svg width="24" height="24" viewBox="0 0 24 24" fill="none" xmlns="http://www.w3.org/2000/svg">
<path d="M14.25 10.125H17.25" stroke="#3D3B39" stroke-width="1.5" stroke-linecap="round" stroke-linejoin="round"/>
<path d="M6.75 10.125H9.75" stroke="#3D3B39" stroke-width="1.5" stroke-linecap="round" stroke-linejoin="round"/>
<path d="M8.25 8.625V11.625" stroke="#3D3B39" stroke-width="1.5" stroke-linecap="round" stroke-linejoin="round"/>
<path d="M16.125 5.22168L7.875 5.2498C6.72913 5.25199 5.62051 5.65696 4.74305 6.39389C3.86558 7.13083 3.27514 8.1528 3.075 9.28105V9.28105L1.5375 17.1654C1.43878 17.716 1.51852 18.2837 1.76509 18.7858C2.01167 19.2879 2.41218 19.6981 2.90823 19.9566C3.40429 20.2151 3.96995 20.3084 4.52274 20.2228C5.07552 20.1373 5.58653 19.8774 5.98125 19.4811V19.4811L10.0313 14.9998L16.125 14.9717C17.4179 14.9717 18.6579 14.4581 19.5721 13.5438C20.4864 12.6296 21 11.3896 21 10.0967C21 8.80375 20.4864 7.56377 19.5721 6.64953C18.6579 5.73529 17.4179 5.22168 16.125 5.22168V5.22168Z" stroke="#3D3B39" stroke-width="1.5" stroke-linecap="round" stroke-linejoin="round"/>
<path d="M20.925 9.25293L22.4625 17.1654C22.5612 17.716 22.4815 18.2837 22.2349 18.7858C21.9883 19.2879 21.5878 19.6981 21.0918 19.9566C20.5957 20.2151 20.03 20.3084 19.4773 20.2228C18.9245 20.1373 18.4135 19.8774 18.0187 19.4811L14 15" stroke="#3D3B39" stroke-width="1.5" stroke-linecap="round" stroke-linejoin="round"/>
</svg>
