<svg width="18" height="18" viewBox="0 0 18 18" fill="none" xmlns="http://www.w3.org/2000/svg">
<path fill-rule="evenodd" clip-rule="evenodd" d="M6.525 0.75H10.725C11.0151 0.75 11.25 0.946463 11.25 1.18902V5.25H12.3375C12.5654 5.25 12.75 5.40343 12.75 5.59286V13.8214C12.75 15.7149 10.903 17.25 8.625 17.25C6.34697 17.25 4.5 15.7149 4.5 13.8214V5.59286C4.5 5.40343 4.68459 5.25 4.9125 5.25H6V1.18902C6 0.946463 6.23493 0.75 6.525 0.75ZM7.5 8.625C7.5 8.00368 8.00368 7.5 8.625 7.5C9.24632 7.5 9.75 8.00368 9.75 8.625V13.125C9.75 13.7463 9.24632 14.25 8.625 14.25C8.00368 14.25 7.5 13.7463 7.5 13.125V8.625Z" fill="white"/>
</svg>
