<svg width="24" height="24" viewBox="0 0 24 24" fill="none" xmlns="http://www.w3.org/2000/svg">
<path d="M15.75 7C16.8546 7 17.75 7.89543 17.75 9M21.75 9C21.75 12.3137 19.0637 15 15.75 15C15.1438 15 14.5587 14.9101 14.0071 14.7429L11.75 17H9.75V19H7.75V21H4.75C4.19772 21 3.75 20.5523 3.75 20V17.4142C3.75 17.149 3.85536 16.8946 4.04289 16.7071L10.0071 10.7429C9.83989 10.1914 9.75 9.60617 9.75 9C9.75 5.68629 12.4363 3 15.75 3C19.0637 3 21.75 5.68629 21.75 9Z" stroke="currentColor" stroke-width="2" stroke-linecap="round" stroke-linejoin="round"/>
</svg>
