<svg xmlns="http://www.w3.org/2000/svg" width="24" height="24" viewBox="0 0 24 24" fill="none">
  <path d="M19.3491 4.65088L20.0562 3.94377V3.94377L19.3491 4.65088ZM7.11112 20.0316V21.0316C7.37634 21.0316 7.63069 20.9262 7.81823 20.7387L7.11112 20.0316ZM4 20.0316H3C3 20.5839 3.44772 21.0316 4 21.0316V20.0316ZM4 16.8573L3.29289 16.1502C3.10536 16.3377 3 16.5921 3 16.8573H4ZM16.9135 5.35798C17.3908 4.88067 18.1647 4.88067 18.642 5.35798L20.0562 3.94377C18.7979 2.68541 16.7577 2.68541 15.4993 3.94377L16.9135 5.35798ZM18.642 5.35798C19.1193 5.83529 19.1193 6.60917 18.642 7.08648L20.0562 8.50069C21.3146 7.24233 21.3146 5.20213 20.0562 3.94377L18.642 5.35798ZM18.642 7.08648L6.40401 19.3245L7.81823 20.7387L20.0562 8.50069L18.642 7.08648ZM7.11112 19.0316H4V21.0316H7.11112V19.0316ZM15.4993 3.94377L3.29289 16.1502L4.70711 17.5644L16.9135 5.35798L15.4993 3.94377ZM3 16.8573V20.0316H5V16.8573H3ZM14.166 6.69132L17.3087 9.83403L18.7229 8.41981L15.5802 5.27711L14.166 6.69132Z" fill="currentColor"/>
</svg>
