<svg width="20" height="20" viewBox="0 0 20 20" fill="none" xmlns="http://www.w3.org/2000/svg">
<g clip-path="url(#clip0_201_4)">
<path d="M18.3542 13.3544L19.2821 13.7273C19.4314 13.3555 19.3446 12.9305 19.0613 12.6473C18.778 12.364 18.353 12.2771 17.9813 12.4265L18.3542 13.3544ZM6.64581 1.646L7.57369 2.01889C7.72307 1.64717 7.6362 1.22217 7.35292 0.938892C7.06964 0.655615 6.64465 0.568738 6.27293 0.718122L6.64581 1.646ZM17.9813 12.4265C17.0613 12.7962 16.0557 13.0002 15 13.0002V15.0002C16.3155 15.0002 17.5739 14.7457 18.7271 14.2823L17.9813 12.4265ZM15 13.0002C10.5817 13.0002 7 9.41846 7 5.00019H5C5 10.523 9.47715 15.0002 15 15.0002V13.0002ZM7 5.00019C7 3.94451 7.20396 2.93891 7.57369 2.01889L5.71794 1.27311C5.25452 2.42625 5 3.68472 5 5.00019H7ZM2 10.0002C2 6.63733 4.07526 3.75676 7.0187 2.57388L6.27293 0.718122C2.59771 2.19508 0 5.79307 0 10.0002H2ZM10 18.0002C5.58172 18.0002 2 14.4185 2 10.0002H0C0 15.523 4.47715 20.0002 10 20.0002V18.0002ZM17.4263 12.9815C16.2434 15.9249 13.3629 18.0002 10 18.0002V20.0002C14.2071 20.0002 17.8051 17.4025 19.2821 13.7273L17.4263 12.9815Z" fill="currentColor"/>
</g>
<defs>
<clipPath id="clip0_201_4">
<rect width="20" height="20" fill="white"/>
</clipPath>
</defs>
</svg>
