<svg width="19" height="16" viewBox="0 0 19 16" fill="none" xmlns="http://www.w3.org/2000/svg">
<path fill-rule="evenodd" clip-rule="evenodd" d="M0.333313 14.6207V12.7854L5.74824 7.97216C6.40426 7.38904 7.50374 7.38903 8.15976 7.97216L11.3618 10.8185C11.3675 10.8237 11.3733 10.8288 11.3791 10.8338L13.8525 13.0323C14.1941 13.336 14.7172 13.3052 15.0208 12.9636C15.3245 12.622 15.2937 12.0989 14.9521 11.7952L13.1652 10.2069L14.4379 9.07561C15.0939 8.49248 16.1934 8.49248 16.8494 9.07561L18.5402 10.5785V14.6207C18.5402 15.2935 17.8935 16 16.885 16H1.98849C0.98003 16 0.333313 15.2935 0.333313 14.6207ZM9.25939 6.73507L11.9195 9.09962L13.3383 7.83852C14.6214 6.69795 16.6659 6.69795 17.949 7.83852L18.5402 8.36399V1.37931C18.5402 0.706482 17.8935 0 16.885 0H1.98849C0.98003 0 0.333313 0.706482 0.333313 1.37931V10.5709L4.64861 6.73507C5.93175 5.5945 7.97626 5.5945 9.25939 6.73507ZM11.9195 2.75862C11.4625 2.75862 11.0919 3.12914 11.0919 3.58621C11.0919 4.04327 11.4625 4.41379 11.9195 4.41379H11.9319C12.389 4.41379 12.7595 4.04327 12.7595 3.58621C12.7595 3.12914 12.389 2.75862 11.9319 2.75862H11.9195Z" fill="url(#paint0_linear_2576_5473)"/>
<defs>
<linearGradient id="paint0_linear_2576_5473" x1="-2.99816" y1="-2.92766" x2="23.6346" y2="-0.692395" gradientUnits="userSpaceOnUse">
<stop stop-color="#FF92E1"/>
<stop offset="1" stop-color="#FDC300"/>
</linearGradient>
</defs>
</svg>
