<svg width="20" height="17" viewBox="0 0 20 17" fill="none" xmlns="http://www.w3.org/2000/svg">
<path d="M3.6 10.8C3.6 11.4627 4.13726 12 4.8 12C5.46274 12 6 11.4627 6 10.8L6 4.09705L7.55147 5.64852C8.0201 6.11714 8.7799 6.11714 9.24853 5.64852C9.71716 5.17989 9.71716 4.42009 9.24853 3.95146L5.64853 0.351471C5.42349 0.126428 5.11826 0 4.8 0C4.48174 0 4.17652 0.126428 3.95147 0.351471L0.351472 3.95146C-0.117157 4.42009 -0.117157 5.17989 0.351472 5.64851C0.820101 6.11714 1.5799 6.11714 2.04853 5.64851L3.6 4.09705L3.6 10.8Z" fill="url(#paint0_linear_1841_1880)"/>
<path d="M15.6 5.99999C15.6 5.33725 15.0627 4.79999 14.4 4.79999C13.7373 4.79999 13.2 5.33725 13.2 5.99999L13.2 12.7029L11.6485 11.1514C11.1799 10.6828 10.4201 10.6828 9.95147 11.1514C9.48284 11.6201 9.48284 12.3799 9.95147 12.8485L13.5515 16.4485C13.7765 16.6735 14.0817 16.8 14.4 16.8C14.7183 16.8 15.0235 16.6735 15.2485 16.4485L18.8485 12.8485C19.3172 12.3799 19.3172 11.6201 18.8485 11.1514C18.3799 10.6828 17.6201 10.6828 17.1515 11.1514L15.6 12.7029L15.6 5.99999Z" fill="url(#paint1_linear_1841_1880)"/>
<defs>
<linearGradient id="paint0_linear_1841_1880" x1="-3.51319" y1="-3.07403" x2="24.5706" y2="-0.706781" gradientUnits="userSpaceOnUse">
<stop stop-color="#FF92E1"/>
<stop offset="1" stop-color="#FDC300"/>
</linearGradient>
<linearGradient id="paint1_linear_1841_1880" x1="-3.51319" y1="-3.07403" x2="24.5706" y2="-0.706781" gradientUnits="userSpaceOnUse">
<stop stop-color="#FF92E1"/>
<stop offset="1" stop-color="#FDC300"/>
</linearGradient>
</defs>
</svg>
