<svg width="18" height="20" viewBox="0 0 18 20" fill="none" xmlns="http://www.w3.org/2000/svg">
<path d="M1.75 15V5H0.25V15H1.75ZM9 18.25C6.88205 18.25 5.00168 17.8192 3.67856 17.1576C2.31057 16.4736 1.75 15.6674 1.75 15H0.25C0.25 16.5417 1.48029 17.7355 3.00774 18.4992C4.58004 19.2854 6.69967 19.75 9 19.75V18.25ZM16.25 15C16.25 15.6674 15.6894 16.4736 14.3214 17.1576C12.9983 17.8192 11.118 18.25 9 18.25V19.75C11.3003 19.75 13.42 19.2854 14.9923 18.4992C16.5197 17.7355 17.75 16.5417 17.75 15H16.25ZM16.25 5V15H17.75V5H16.25ZM16.25 5C16.25 5.66745 15.6894 6.47361 14.3214 7.15761C12.9983 7.81917 11.118 8.25 9 8.25V9.75C11.3003 9.75 13.42 9.2854 14.9923 8.49925C16.5197 7.73553 17.75 6.54169 17.75 5H16.25ZM9 8.25C6.88205 8.25 5.00168 7.81917 3.67856 7.15761C2.31057 6.47361 1.75 5.66745 1.75 5H0.25C0.25 6.54169 1.48029 7.73553 3.00774 8.49925C4.58004 9.2854 6.69967 9.75 9 9.75V8.25ZM1.75 5C1.75 4.33255 2.31057 3.52639 3.67856 2.84239C5.00168 2.18083 6.88205 1.75 9 1.75V0.25C6.69967 0.25 4.58004 0.7146 3.00774 1.50075C1.48029 2.26447 0.25 3.45831 0.25 5H1.75ZM9 1.75C11.118 1.75 12.9983 2.18083 14.3214 2.84239C15.6894 3.52639 16.25 4.33255 16.25 5H17.75C17.75 3.45831 16.5197 2.26447 14.9923 1.50075C13.42 0.7146 11.3003 0.25 9 0.25V1.75ZM16.25 10C16.25 10.6674 15.6894 11.4736 14.3214 12.1576C12.9983 12.8192 11.118 13.25 9 13.25V14.75C11.3003 14.75 13.42 14.2854 14.9923 13.4992C16.5197 12.7355 17.75 11.5417 17.75 10H16.25ZM9 13.25C6.88205 13.25 5.00168 12.8192 3.67856 12.1576C2.31057 11.4736 1.75 10.6674 1.75 10H0.25C0.25 11.5417 1.48029 12.7355 3.00774 13.4992C4.58004 14.2854 6.69967 14.75 9 14.75V13.25Z" fill="currentColor"/>
</svg>
