<svg width="16" height="16" viewBox="0 0 16 16" fill="none" xmlns="http://www.w3.org/2000/svg">
<path d="M13.7803 1.29917L14.3106 0.768845V0.768845L13.7803 1.29917ZM3.4545 14.2766V15.0266C3.65341 15.0266 3.84418 14.9476 3.98483 14.8069L3.4545 14.2766ZM0.829498 14.2766H0.0794983C0.0794983 14.6908 0.415285 15.0266 0.829498 15.0266L0.829498 14.2766ZM0.829498 11.5983L0.299168 11.068C0.158516 11.2086 0.0794983 11.3994 0.0794983 11.5983H0.829498ZM11.659 1.8295C12.0983 1.39017 12.8106 1.39017 13.25 1.8295L14.3106 0.768845C13.2855 -0.256282 11.6234 -0.256282 10.5983 0.768845L11.659 1.8295ZM13.25 1.8295C13.6893 2.26884 13.6893 2.98116 13.25 3.4205L14.3106 4.48116C15.3357 3.45603 15.3357 1.79397 14.3106 0.768845L13.25 1.8295ZM13.25 3.4205L2.92417 13.7463L3.98483 14.8069L14.3106 4.48116L13.25 3.4205ZM3.4545 13.5266H0.829498V15.0266H3.4545V13.5266ZM10.5983 0.768845L0.299168 11.068L1.35983 12.1286L11.659 1.8295L10.5983 0.768845ZM0.0794983 11.5983V14.2766H1.5795V11.5983H0.0794983ZM9.4733 2.9545L12.125 5.60616L13.1856 4.5455L10.534 1.89384L9.4733 2.9545Z" fill="currentColor"/>
</svg>
