<svg width="25" height="24" viewBox="0 0 25 24" fill="none" xmlns="http://www.w3.org/2000/svg">
<path d="M3.5 8C3.5 8.55228 3.94772 9 4.5 9C5.05228 9 5.5 8.55228 5.5 8H3.5ZM4.5 4V3C3.94772 3 3.5 3.44772 3.5 4H4.5ZM8.5 5C9.05228 5 9.5 4.55228 9.5 4C9.5 3.44772 9.05228 3 8.5 3V5ZM19.5 8C19.5 8.55228 19.9477 9 20.5 9C21.0523 9 21.5 8.55228 21.5 8H19.5ZM20.5 4H21.5C21.5 3.44772 21.0523 3 20.5 3V4ZM16.5 3C15.9477 3 15.5 3.44772 15.5 4C15.5 4.55228 15.9477 5 16.5 5V3ZM5.5 16C5.5 15.4477 5.05228 15 4.5 15C3.94772 15 3.5 15.4477 3.5 16H5.5ZM4.5 20H3.5C3.5 20.5523 3.94772 21 4.5 21V20ZM8.5 21C9.05228 21 9.5 20.5523 9.5 20C9.5 19.4477 9.05228 19 8.5 19V21ZM10.2071 15.7071C10.5976 15.3166 10.5976 14.6834 10.2071 14.2929C9.81658 13.9024 9.18342 13.9024 8.79289 14.2929L10.2071 15.7071ZM14.7929 8.29289C14.4024 8.68342 14.4024 9.31658 14.7929 9.70711C15.1834 10.0976 15.8166 10.0976 16.2071 9.70711L14.7929 8.29289ZM8.79289 9.70711C9.18342 10.0976 9.81658 10.0976 10.2071 9.70711C10.5976 9.31658 10.5976 8.68342 10.2071 8.29289L8.79289 9.70711ZM20.5 20V21C21.0523 21 21.5 20.5523 21.5 20H20.5ZM16.2071 14.2929C15.8166 13.9024 15.1834 13.9024 14.7929 14.2929C14.4024 14.6834 14.4024 15.3166 14.7929 15.7071L16.2071 14.2929ZM21.5 16C21.5 15.4477 21.0523 15 20.5 15C19.9477 15 19.5 15.4477 19.5 16H21.5ZM16.5 19C15.9477 19 15.5 19.4477 15.5 20C15.5 20.5523 15.9477 21 16.5 21V19ZM5.5 8V4H3.5V8H5.5ZM4.5 5H8.5V3H4.5V5ZM21.5 8V4H19.5V8H21.5ZM20.5 3H16.5V5H20.5V3ZM3.5 16V20H5.5V16H3.5ZM4.5 21H8.5V19H4.5V21ZM5.20711 20.7071L10.2071 15.7071L8.79289 14.2929L3.79289 19.2929L5.20711 20.7071ZM16.2071 9.70711L21.2071 4.70711L19.7929 3.29289L14.7929 8.29289L16.2071 9.70711ZM10.2071 8.29289L5.20711 3.29289L3.79289 4.70711L8.79289 9.70711L10.2071 8.29289ZM21.2071 19.2929L16.2071 14.2929L14.7929 15.7071L19.7929 20.7071L21.2071 19.2929ZM19.5 16V20H21.5V16H19.5ZM20.5 19H16.5V21H20.5V19Z" fill="currentColor"/>
<defs>
<linearGradient id="paint0_linear_6_5" x1="1.57234" y1="1.07234" x2="25.0142" y2="2.80132" gradientUnits="userSpaceOnUse">
<stop stop-color="#FF92E1"/>
<stop offset="1" stop-color="#FDC300"/>
</linearGradient>
</defs>
</svg>
