<svg width="22" height="16" viewBox="0 0 22 16" fill="none" xmlns="http://www.w3.org/2000/svg">
<path d="M1.45825 7.99997L0.504204 7.70031C0.442935 7.89538 0.442935 8.10454 0.504202 8.29961L1.45825 7.99997ZM20.5426 8.00004L21.4967 8.29969C21.558 8.10462 21.558 7.89546 21.4967 7.70039L20.5426 8.00004ZM13 8C13 9.10457 12.1046 10 11 10V12C13.2091 12 15 10.2091 15 8H13ZM11 10C9.89543 10 9 9.10457 9 8H7C7 10.2091 8.79086 12 11 12V10ZM9 8C9 6.89543 9.89543 6 11 6V4C8.79086 4 7 5.79086 7 8H9ZM11 6C12.1046 6 13 6.89543 13 8H15C15 5.79086 13.2091 4 11 4V6ZM2.4123 8.29962C3.55943 4.64733 6.97208 2 11.0004 2V0C6.07354 0 1.90562 3.23842 0.504204 7.70031L2.4123 8.29962ZM11.0004 2C15.0288 2 18.4415 4.64737 19.5886 8.29968L21.4967 7.70039C20.0953 3.23846 15.9274 0 11.0004 0V2ZM19.5886 7.70038C18.4415 11.3527 15.0288 14 11.0005 14V16C15.9274 16 20.0953 12.7616 21.4967 8.29969L19.5886 7.70038ZM11.0005 14C6.97208 14 3.55941 11.3526 2.4123 7.70032L0.504202 8.29961C1.9056 12.7615 6.07353 16 11.0005 16V14Z" fill="url(#paint0_linear_7205_15004)"/>
<defs>
<linearGradient id="paint0_linear_7205_15004" x1="-2.03379" y1="-1.5617" x2="25.7979" y2="1.23654" gradientUnits="userSpaceOnUse">
<stop stop-color="#FF92E1"/>
<stop offset="1" stop-color="#FDC300"/>
</linearGradient>
</defs>
</svg>
