<svg width="20" height="18" viewBox="0 0 20 18" fill="none" xmlns="http://www.w3.org/2000/svg">
<path d="M0.501727 12.4394C0.19214 12.7146 0.164254 13.1887 0.439443 13.4983C0.714632 13.8079 1.18869 13.8357 1.49827 13.5606L0.501727 12.4394ZM6.15901 8.41421L6.65728 8.97477L6.15901 8.41421ZM9.34099 8.41421L9.83926 7.85366L9.34099 8.41421ZM14.0017 13.5606C14.3113 13.8357 14.7854 13.8079 15.0606 13.4983C15.3357 13.1887 15.3079 12.7146 14.9983 12.4394L14.0017 13.5606ZM11.7517 10.4394C11.4421 10.7146 11.4143 11.1887 11.6894 11.4983C11.9646 11.8079 12.4387 11.8357 12.7483 11.5606L11.7517 10.4394ZM17.216 9.41421L16.7177 9.97477L17.216 9.41421ZM18.5017 11.5606C18.8113 11.8357 19.2854 11.8079 19.5606 11.4983C19.8357 11.1887 19.8079 10.7146 19.4983 10.4394L18.5017 11.5606ZM12.25 4.25C11.8358 4.25 11.5 4.58579 11.5 5C11.5 5.41421 11.8358 5.75 12.25 5.75V4.25ZM12.2613 5.75C12.6755 5.75 13.0113 5.41421 13.0113 5C13.0113 4.58579 12.6755 4.25 12.2613 4.25V5.75ZM3.25 1.75H16.75V0.25H3.25V1.75ZM18.25 3V15H19.75V3H18.25ZM16.75 16.25H3.25V17.75H16.75V16.25ZM1.75 15V3H0.25V15H1.75ZM3.25 16.25C2.33609 16.25 1.75 15.6098 1.75 15H0.25C0.25 16.5994 1.67863 17.75 3.25 17.75V16.25ZM18.25 15C18.25 15.6098 17.6639 16.25 16.75 16.25V17.75C18.3214 17.75 19.75 16.5994 19.75 15H18.25ZM16.75 1.75C17.6639 1.75 18.25 2.39025 18.25 3H19.75C19.75 1.40061 18.3214 0.25 16.75 0.25V1.75ZM3.25 0.25C1.67863 0.25 0.25 1.40061 0.25 3H1.75C1.75 2.39025 2.33609 1.75 3.25 1.75V0.25ZM1.49827 13.5606L6.65728 8.97477L5.66074 7.85366L0.501727 12.4394L1.49827 13.5606ZM8.84272 8.97477L14.0017 13.5606L14.9983 12.4394L9.83926 7.85366L8.84272 8.97477ZM6.65728 8.97477C7.2518 8.44631 8.2482 8.44631 8.84272 8.97477L9.83926 7.85366C8.67642 6.82002 6.82358 6.82002 5.66074 7.85366L6.65728 8.97477ZM12.7483 11.5606L14.5323 9.97477L13.5357 8.85366L11.7517 10.4394L12.7483 11.5606ZM16.7177 9.97477L18.5017 11.5606L19.4983 10.4394L17.7143 8.85366L16.7177 9.97477ZM14.5323 9.97477C15.1268 9.44631 16.1232 9.44631 16.7177 9.97477L17.7143 8.85366C16.5514 7.82002 14.6986 7.82002 13.5357 8.85366L14.5323 9.97477ZM12.25 5.75H12.2613V4.25H12.25V5.75Z" fill="url(#paint0_linear_1841_1913)"/>
<defs>
<linearGradient id="paint0_linear_1841_1913" x1="-2.29362" y1="-1.92766" x2="24.0407" y2="0.257438" gradientUnits="userSpaceOnUse">
<stop stop-color="#FF92E1"/>
<stop offset="1" stop-color="#FDC300"/>
</linearGradient>
</defs>
</svg>

