<svg width="18" height="20" viewBox="0 0 18 20" fill="none" xmlns="http://www.w3.org/2000/svg">
<path d="M12 15H17L15.5951 13.5951C15.2141 13.2141 15 12.6973 15 12.1585V9C15 6.38757 13.3304 4.16509 11 3.34142V3C11 1.89543 10.1046 1 9 1C7.89543 1 7 1.89543 7 3V3.34142C4.66962 4.16509 3 6.38757 3 9V12.1585C3 12.6973 2.78595 13.2141 2.40493 13.5951L1 15H6M12 15V16C12 17.6569 10.6569 19 9 19C7.34315 19 6 17.6569 6 16V15M12 15H6" stroke="url(#paint0_linear_19964_69966)" stroke-width="2" stroke-linecap="round" stroke-linejoin="round"/>
<defs>
<linearGradient id="paint0_linear_19964_69966" x1="-1.92766" y1="-2.29361" x2="21.5409" y2="-0.754999" gradientUnits="userSpaceOnUse">
<stop stop-color="#FF92DE"/>
<stop offset="1" stop-color="#FDC300"/>
</linearGradient>
</defs>
</svg>
