<svg width="16" height="16" viewBox="0 0 16 16" fill="none" xmlns="http://www.w3.org/2000/svg">
<path d="M7.99967 1.33333C8.45991 1.33333 8.83301 1.70642 8.83301 2.16666V2.99999C8.83301 3.46023 8.45991 3.83333 7.99967 3.83333C7.53944 3.83333 7.16634 3.46023 7.16634 2.99999V2.16666C7.16634 1.70642 7.53944 1.33333 7.99967 1.33333Z" fill="white"/>
<path d="M11.333 8C11.333 9.84094 9.84062 11.3333 7.99967 11.3333C6.15873 11.3333 4.66634 9.84094 4.66634 8C4.66634 6.15905 6.15873 4.66666 7.99967 4.66666C9.84062 4.66666 11.333 6.15905 11.333 8Z" fill="white"/>
<path d="M10.946 12.1248L11.5353 12.714C11.8607 13.0394 12.3883 13.0394 12.7138 12.714C13.0392 12.3886 13.0392 11.8609 12.7138 11.5355L12.1245 10.9462C11.7991 10.6208 11.2714 10.6208 10.946 10.9462C10.6206 11.2717 10.6206 11.7993 10.946 12.1248Z" fill="white"/>
<path d="M12.7137 3.28591C13.0391 3.61134 13.0391 4.13898 12.7137 4.46442L12.1244 5.05367C11.799 5.37911 11.2714 5.37911 10.9459 5.05367C10.6205 4.72824 10.6205 4.2006 10.9459 3.87516L11.5352 3.28591C11.8606 2.96047 12.3882 2.96047 12.7137 3.28591Z" fill="white"/>
<path d="M13.833 8.83333C14.2932 8.83333 14.6663 8.46023 14.6663 8C14.6663 7.53976 14.2932 7.16666 13.833 7.16666H12.9997C12.5394 7.16666 12.1663 7.53976 12.1663 8C12.1663 8.46023 12.5394 8.83333 12.9997 8.83333H13.833Z" fill="white"/>
<path d="M7.99967 12.1667C8.45991 12.1667 8.83301 12.5398 8.83301 13V13.8333C8.83301 14.2936 8.45991 14.6667 7.99967 14.6667C7.53944 14.6667 7.16634 14.2936 7.16634 13.8333V13C7.16634 12.5398 7.53944 12.1667 7.99967 12.1667Z" fill="white"/>
<path d="M3.87493 5.05369C4.20037 5.37912 4.72801 5.37912 5.05344 5.05369C5.37888 4.72825 5.37888 4.20061 5.05344 3.87518L4.46419 3.28592C4.13875 2.96048 3.61111 2.96048 3.28568 3.28592C2.96024 3.61136 2.96024 4.139 3.28568 4.46443L3.87493 5.05369Z" fill="white"/>
<path d="M5.05337 12.1247L4.46411 12.714C4.13867 13.0394 3.61104 13.0394 3.2856 12.714C2.96016 12.3886 2.96016 11.8609 3.2856 11.5355L3.87486 10.9462C4.20029 10.6208 4.72793 10.6208 5.05337 10.9462C5.3788 11.2717 5.3788 11.7993 5.05337 12.1247Z" fill="white"/>
<path d="M2.99967 8.83333C3.45991 8.83333 3.83301 8.46023 3.83301 8C3.83301 7.53976 3.45991 7.16666 2.99967 7.16666H2.16634C1.7061 7.16666 1.33301 7.53976 1.33301 8C1.33301 8.46023 1.7061 8.83333 2.16634 8.83333H2.99967Z" fill="white"/>
</svg>
