<svg width="20" height="20" viewBox="0 0 20 20" fill="none" xmlns="http://www.w3.org/2000/svg">
<path d="M18 10C18 14.4183 14.4183 18 10 18V20C15.5228 20 20 15.5228 20 10H18ZM10 18C5.58172 18 2 14.4183 2 10H0C0 15.5228 4.47715 20 10 20V18ZM2 10C2 5.58172 5.58172 2 10 2V0C4.47715 0 0 4.47715 0 10H2ZM10 2C14.4183 2 18 5.58172 18 10H20C20 4.47715 15.5228 0 10 0V2ZM13 10C13 11.6569 11.6569 13 10 13V15C12.7614 15 15 12.7614 15 10H13ZM10 13C8.34315 13 7 11.6569 7 10H5C5 12.7614 7.23858 15 10 15V13ZM7 10C7 8.34315 8.34315 7 10 7V5C7.23858 5 5 7.23858 5 10H7ZM10 7C11.6569 7 13 8.34315 13 10H15C15 7.23858 12.7614 5 10 5V7ZM15.6569 2.92893L12.1213 6.46447L13.5355 7.87868L17.0711 4.34315L15.6569 2.92893ZM12.1213 13.5355L15.6569 17.0711L17.0711 15.6569L13.5355 12.1213L12.1213 13.5355ZM7.87868 6.46447L4.34315 2.92893L2.92893 4.34315L6.46447 7.87868L7.87868 6.46447ZM6.46447 12.1213L2.92893 15.6569L4.34315 17.0711L7.87868 13.5355L6.46447 12.1213Z" fill="currentColor"/>
</svg>
