<svg width="18" height="20" viewBox="0 0 18 20" fill="none" xmlns="http://www.w3.org/2000/svg">
<path d="M5 4.25C4.58579 4.25 4.25 4.58579 4.25 5C4.25 5.41421 4.58579 5.75 5 5.75L5 4.25ZM17 5L17.5303 5.53033C17.8232 5.23744 17.8232 4.76256 17.5303 4.46967L17 5ZM13.5303 0.46967C13.2374 0.176777 12.7626 0.176777 12.4697 0.46967C12.1768 0.762563 12.1768 1.23744 12.4697 1.53033L13.5303 0.46967ZM12.4697 8.46967C12.1768 8.76256 12.1768 9.23744 12.4697 9.53033C12.7626 9.82322 13.2374 9.82322 13.5303 9.53033L12.4697 8.46967ZM13 15.75C13.4142 15.75 13.75 15.4142 13.75 15C13.75 14.5858 13.4142 14.25 13 14.25L13 15.75ZM0.999999 15L0.469669 14.4697C0.176776 14.7626 0.176776 15.2374 0.469669 15.5303L0.999999 15ZM4.46967 19.5303C4.76256 19.8232 5.23744 19.8232 5.53033 19.5303C5.82322 19.2374 5.82322 18.7626 5.53033 18.4697L4.46967 19.5303ZM5.53033 11.5303C5.82322 11.2374 5.82322 10.7626 5.53033 10.4697C5.23744 10.1768 4.76256 10.1768 4.46967 10.4697L5.53033 11.5303ZM5 5.75L17 5.75L17 4.25L5 4.25L5 5.75ZM12.4697 1.53033L16.4697 5.53033L17.5303 4.46967L13.5303 0.46967L12.4697 1.53033ZM16.4697 4.46967L12.4697 8.46967L13.5303 9.53033L17.5303 5.53033L16.4697 4.46967ZM13 14.25L0.999999 14.25L0.999999 15.75L13 15.75L13 14.25ZM5.53033 18.4697L1.53033 14.4697L0.469669 15.5303L4.46967 19.5303L5.53033 18.4697ZM1.53033 15.5303L5.53033 11.5303L4.46967 10.4697L0.469669 14.4697L1.53033 15.5303Z" fill="currentColor"/>
</svg>
