<svg width="20" height="18" viewBox="0 0 20 18" fill="none" xmlns="http://www.w3.org/2000/svg">
<path d="M4.25 13C4.25 13.4142 4.58579 13.75 5 13.75C5.41421 13.75 5.75 13.4142 5.75 13H4.25ZM5 1L5.53033 0.46967C5.23744 0.176777 4.76256 0.176777 4.46967 0.46967L5 1ZM0.46967 4.46967C0.176777 4.76256 0.176777 5.23744 0.46967 5.53033C0.762563 5.82322 1.23744 5.82322 1.53033 5.53033L0.46967 4.46967ZM8.46967 5.53033C8.76256 5.82322 9.23744 5.82322 9.53033 5.53033C9.82322 5.23744 9.82322 4.76256 9.53033 4.46967L8.46967 5.53033ZM15.75 5C15.75 4.58579 15.4142 4.25 15 4.25C14.5858 4.25 14.25 4.58579 14.25 5H15.75ZM15 17L14.4697 17.5303C14.7626 17.8232 15.2374 17.8232 15.5303 17.5303L15 17ZM19.5303 13.5303C19.8232 13.2374 19.8232 12.7626 19.5303 12.4697C19.2374 12.1768 18.7626 12.1768 18.4697 12.4697L19.5303 13.5303ZM11.5303 12.4697C11.2374 12.1768 10.7626 12.1768 10.4697 12.4697C10.1768 12.7626 10.1768 13.2374 10.4697 13.5303L11.5303 12.4697ZM5.75 13V1H4.25V13H5.75ZM1.53033 5.53033L5.53033 1.53033L4.46967 0.46967L0.46967 4.46967L1.53033 5.53033ZM4.46967 1.53033L8.46967 5.53033L9.53033 4.46967L5.53033 0.46967L4.46967 1.53033ZM14.25 5V17H15.75V5H14.25ZM18.4697 12.4697L14.4697 16.4697L15.5303 17.5303L19.5303 13.5303L18.4697 12.4697ZM15.5303 16.4697L11.5303 12.4697L10.4697 13.5303L14.4697 17.5303L15.5303 16.4697Z" fill="currentColor"/>
</svg>

