<svg xmlns="http://www.w3.org/2000/svg" width="19" height="12" viewBox="0 0 19 12" fill="none">
<path fill-rule="evenodd" clip-rule="evenodd" d="M11.875 2.375C11.2192 2.375 10.6875 1.84334 10.6875 1.1875C10.6875 0.531661 11.2192 0 11.875 0H17.8125C18.4683 0 19 0.531661 19 1.1875V7.12499C19 7.78083 18.4683 8.31249 17.8125 8.31249C17.1567 8.31249 16.625 7.78083 16.625 7.12499V4.05438L11.5272 9.15218C11.0634 9.61593 10.3116 9.61593 9.84781 9.15218L7.125 6.42937L2.02719 11.5272C1.56344 11.9909 0.811558 11.9909 0.347811 11.5272C-0.115937 11.0634 -0.115937 10.3116 0.347811 9.8478L6.28531 3.91031C6.74906 3.44656 7.50094 3.44656 7.96469 3.91031L10.6875 6.63312L14.9456 2.375H11.875Z" fill="currentColor"/>
<defs>
</defs>
</svg>
