<svg width="24" height="24" viewBox="0 0 24 24" fill="none" xmlns="http://www.w3.org/2000/svg">
<g clip-path="url(#clip0_242_12219)">
<path d="M23.4984 5.96285C23.3628 5.44518 23.0954 4.97272 22.723 4.59279C22.3506 4.21286 21.8862 3.9388 21.3765 3.79806C19.5053 3.28571 12.0002 3.28571 12.0002 3.28571C12.0002 3.28571 4.49507 3.28571 2.62355 3.79773C2.11377 3.93845 1.64942 4.2125 1.277 4.59244C0.904581 4.97237 0.637174 5.44484 0.501566 5.96253C2.41886e-07 7.87147 0 11.8571 0 11.8571C0 11.8571 2.41886e-07 15.8428 0.501566 17.7517C0.637214 18.2694 0.904628 18.7419 1.27704 19.1219C1.64944 19.5019 2.11378 19.776 2.62355 19.9169C4.49507 20.4286 12.0002 20.4286 12.0002 20.4286C12.0002 20.4286 19.5049 20.4286 21.3765 19.9169C21.8863 19.7761 22.3507 19.502 22.7231 19.1221C23.0955 18.7421 23.3629 18.2695 23.4984 17.7517C24 15.8428 24 11.8571 24 11.8571C24 11.8571 24 7.87147 23.4984 5.96285ZM9.5456 15.4751V8.2395L15.8183 11.8571L9.5456 15.4751Z" fill="currentColor"/>
</g>
<defs>
<clipPath id="clip0_242_12219">
<rect width="24" height="24" fill="white"/>
</clipPath>
</defs>
</svg>
