<svg width="20" height="20" viewBox="0 0 20 20" fill="none" xmlns="http://www.w3.org/2000/svg">
<path d="M13.5355 13.4645C13.926 13.855 13.926 14.4882 13.5355 14.8787C13.145 15.2693 12.5118 15.2693 12.1213 14.8787L13.5355 13.4645ZM7.87862 14.8787C7.4881 15.2693 6.85493 15.2693 6.46441 14.8787C6.07388 14.4882 6.07388 13.855 6.46441 13.4645L7.87862 14.8787ZM13 7C13.5523 7 14 7.44772 14 8C14 8.55228 13.5523 9 13 9V7ZM12.99 9C12.4377 9 11.99 8.55228 11.99 8C11.99 7.44772 12.4377 7 12.99 7V9ZM7 7C7.55229 7 8 7.44772 8 8C8 8.55228 7.55229 9 7 9V7ZM6.99 9C6.43771 9 5.99 8.55228 5.99 8C5.99 7.44772 6.43771 7 6.99 7V9ZM2 10C2 14.4183 5.58172 18 10 18V20C4.47715 20 0 15.5228 0 10H2ZM10 18C14.4183 18 18 14.4183 18 10H20C20 15.5228 15.5228 20 10 20V18ZM18 10C18 5.58172 14.4183 2 10 2V0C15.5228 0 20 4.47715 20 10H18ZM10 2C5.58172 2 2 5.58172 2 10H0C0 4.47715 4.47715 0 10 0V2ZM12.1213 14.8787C10.9497 13.7072 9.05019 13.7072 7.87862 14.8787L6.46441 13.4645C8.41703 11.5119 11.5829 11.5119 13.5355 13.4645L12.1213 14.8787ZM13 9H12.99V7H13V9ZM7 9H6.99V7H7V9Z" fill="currentColor"/>
</svg>
