<svg width="18" height="18" viewBox="0 0 18 18" fill="none" xmlns="http://www.w3.org/2000/svg">
<path d="M3 1.75H5V0.25H3V1.75ZM6.25 3V5H7.75V3H6.25ZM5 6.25H3V7.75H5V6.25ZM1.75 5V3H0.25V5H1.75ZM3 6.25C2.30964 6.25 1.75 5.69036 1.75 5H0.25C0.25 6.51878 1.48122 7.75 3 7.75V6.25ZM6.25 5C6.25 5.69036 5.69036 6.25 5 6.25V7.75C6.51878 7.75 7.75 6.51878 7.75 5H6.25ZM5 1.75C5.69036 1.75 6.25 2.30964 6.25 3H7.75C7.75 1.48122 6.51878 0.25 5 0.25V1.75ZM3 0.25C1.48122 0.25 0.25 1.48122 0.25 3H1.75C1.75 2.30964 2.30964 1.75 3 1.75V0.25ZM13 1.75H15V0.25H13V1.75ZM16.25 3V5H17.75V3H16.25ZM15 6.25H13V7.75H15V6.25ZM11.75 5V3H10.25V5H11.75ZM13 6.25C12.3096 6.25 11.75 5.69036 11.75 5H10.25C10.25 6.51878 11.4812 7.75 13 7.75V6.25ZM16.25 5C16.25 5.69036 15.6904 6.25 15 6.25V7.75C16.5188 7.75 17.75 6.51878 17.75 5H16.25ZM15 1.75C15.6904 1.75 16.25 2.30964 16.25 3H17.75C17.75 1.48122 16.5188 0.25 15 0.25V1.75ZM13 0.25C11.4812 0.25 10.25 1.48122 10.25 3H11.75C11.75 2.30964 12.3096 1.75 13 1.75V0.25ZM3 11.75H5V10.25H3V11.75ZM6.25 13V15H7.75V13H6.25ZM5 16.25H3V17.75H5V16.25ZM1.75 15V13H0.25V15H1.75ZM3 16.25C2.30964 16.25 1.75 15.6904 1.75 15H0.25C0.25 16.5188 1.48122 17.75 3 17.75V16.25ZM6.25 15C6.25 15.6904 5.69036 16.25 5 16.25V17.75C6.51878 17.75 7.75 16.5188 7.75 15H6.25ZM5 11.75C5.69036 11.75 6.25 12.3096 6.25 13H7.75C7.75 11.4812 6.51878 10.25 5 10.25V11.75ZM3 10.25C1.48122 10.25 0.25 11.4812 0.25 13H1.75C1.75 12.3096 2.30964 11.75 3 11.75V10.25ZM13 11.75H15V10.25H13V11.75ZM16.25 13V15H17.75V13H16.25ZM15 16.25H13V17.75H15V16.25ZM11.75 15V13H10.25V15H11.75ZM13 16.25C12.3096 16.25 11.75 15.6904 11.75 15H10.25C10.25 16.5188 11.4812 17.75 13 17.75V16.25ZM16.25 15C16.25 15.6904 15.6904 16.25 15 16.25V17.75C16.5188 17.75 17.75 16.5188 17.75 15H16.25ZM15 11.75C15.6904 11.75 16.25 12.3096 16.25 13H17.75C17.75 11.4812 16.5188 10.25 15 10.25V11.75ZM13 10.25C11.4812 10.25 10.25 11.4812 10.25 13H11.75C11.75 12.3096 12.3096 11.75 13 11.75V10.25Z" fill="currentColor"/>
</svg>
