<svg width="23" height="18" viewBox="0 0 23 18" fill="none" xmlns="http://www.w3.org/2000/svg">
<path d="M19.4705 1.45323C18.0045 0.780593 16.4325 0.285024 14.7889 0.00119064C14.759 -0.00428725 14.7291 0.00940229 14.7137 0.036782C14.5115 0.396363 14.2875 0.865466 14.1307 1.23418C12.3629 0.969517 10.6041 0.969517 8.87256 1.23418C8.7157 0.85727 8.48363 0.396363 8.28055 0.036782C8.26513 0.0103158 8.23523 -0.00337372 8.2053 0.00119064C6.56258 0.284117 4.99058 0.779686 3.52373 1.45323C3.51103 1.4587 3.50015 1.46784 3.49292 1.4797C0.511167 5.93437 -0.305661 10.2796 0.0950476 14.5709C0.0968607 14.5919 0.108646 14.612 0.124965 14.6247C2.09224 16.0694 3.99789 16.9465 5.86814 17.5279C5.89808 17.537 5.92979 17.5261 5.94884 17.5014C6.39125 16.8972 6.78562 16.2602 7.12375 15.5903C7.1437 15.5511 7.12466 15.5045 7.08387 15.489C6.45834 15.2517 5.8627 14.9624 5.28974 14.6339C5.24442 14.6074 5.24079 14.5426 5.28249 14.5115C5.40306 14.4212 5.52366 14.3272 5.63879 14.2323C5.65962 14.2149 5.68865 14.2113 5.71314 14.2222C9.47723 15.9408 13.5523 15.9408 17.272 14.2222C17.2965 14.2104 17.3255 14.214 17.3472 14.2313C17.4624 14.3263 17.583 14.4212 17.7045 14.5115C17.7462 14.5426 17.7434 14.6074 17.6981 14.6339C17.1252 14.9688 16.5295 15.2517 15.9031 15.4881C15.8623 15.5036 15.8442 15.5511 15.8641 15.5903C16.2095 16.2593 16.6039 16.8963 17.0381 17.5005C17.0562 17.5261 17.0889 17.537 17.1188 17.5279C18.9981 16.9465 20.9038 16.0694 22.871 14.6247C22.8883 14.612 22.8992 14.5928 22.901 14.5718C23.3805 9.61055 22.0977 5.301 19.5004 1.4806C19.494 1.46784 19.4832 1.4587 19.4705 1.45323ZM7.68586 11.9579C6.5526 11.9579 5.61884 10.9175 5.61884 9.63977C5.61884 8.36204 6.53449 7.32163 7.68586 7.32163C8.84625 7.32163 9.77098 8.37118 9.75284 9.63977C9.75284 10.9175 8.83718 11.9579 7.68586 11.9579ZM15.3283 11.9579C14.1951 11.9579 13.2613 10.9175 13.2613 9.63977C13.2613 8.36204 14.1769 7.32163 15.3283 7.32163C16.4887 7.32163 17.4134 8.37118 17.3953 9.63977C17.3953 10.9175 16.4887 11.9579 15.3283 11.9579Z" fill="currentColor"/>
</svg>
