<svg width="1em" height="1em" viewBox="0 0 17 17" fill="currentColor" xmlns="http://www.w3.org/2000/svg">
<path d="M8.66699 1.94434C8.66699 1.11591 9.33856 0.444336 10.167 0.444336C10.9954 0.444336 11.667 1.11591 11.667 1.94434V2.44434C11.667 2.99662 12.1147 3.44434 12.667 3.44434H15.667C16.2193 3.44434 16.667 3.89205 16.667 4.44434V7.44434C16.667 7.99662 16.2193 8.44434 15.667 8.44434H15.167C14.3386 8.44434 13.667 9.11591 13.667 9.94434C13.667 10.7728 14.3386 11.4443 15.167 11.4443H15.667C16.2193 11.4443 16.667 11.8921 16.667 12.4443V15.4443C16.667 15.9966 16.2193 16.4443 15.667 16.4443H12.667C12.1147 16.4443 11.667 15.9966 11.667 15.4443V14.9443C11.667 14.1159 10.9954 13.4443 10.167 13.4443C9.33856 13.4443 8.66699 14.1159 8.66699 14.9443V15.4443C8.66699 15.9966 8.21928 16.4443 7.66699 16.4443H4.66699C4.11471 16.4443 3.66699 15.9966 3.66699 15.4443V12.4443C3.66699 11.8921 3.21928 11.4443 2.66699 11.4443H2.16699C1.33857 11.4443 0.666992 10.7728 0.666992 9.94434C0.666992 9.11591 1.33857 8.44434 2.16699 8.44434H2.66699C3.21928 8.44434 3.66699 7.99662 3.66699 7.44434V4.44434C3.66699 3.89205 4.11471 3.44434 4.66699 3.44434H7.66699C8.21928 3.44434 8.66699 2.99662 8.66699 2.44434V1.94434Z" fill="currentColor"/>
</svg>
