<svg width="24" height="24" viewBox="0 0 24 24" fill="none" xmlns="http://www.w3.org/2000/svg">
<path fill-rule="evenodd" clip-rule="evenodd" d="M5 10.0002H4.25204C4.69035 8.29729 5.67528 6.81381 7.00863 5.74796C7.13571 7.56537 8.65029 9.00024 10.5 9.00024H11C11.5523 9.00024 12 9.44796 12 10.0002C12 11.6571 13.3431 13.0002 15 13.0002C16.6569 13.0002 18 11.6571 18 10.0002C18 9.44796 18.4477 9.00024 19 9.00024H19.4185C19.7935 9.92667 20 10.9393 20 12.0002C20 13.0611 19.7935 14.0738 19.4185 15.0002H17C15.3431 15.0002 14 16.3435 14 18.0002V19.7482C13.3608 19.9127 12.6906 20.0002 12 20.0002V18.0002C12 16.3435 10.6569 15.0002 9 15.0002C8.4477 15.0002 8 14.5525 8 14.0002V13.0002C8 11.3434 6.65688 10.0002 5 10.0002ZM12 2.00024C15.9251 2.00024 19.3219 4.26157 20.9589 7.55245L20.9622 7.55916C21.6265 8.89716 22 10.4051 22 12.0002C22 13.5955 21.6264 15.1036 20.962 16.4417L20.9591 16.4476C19.8102 18.7576 17.7942 20.5603 15.3371 21.4299L15.3285 21.4329C14.2872 21.8003 13.167 22.0002 12 22.0002C11.6271 22.0002 11.2589 21.9798 10.8966 21.94L10.8812 21.9383C5.88495 21.3821 2 17.1449 2 12.0002C2 6.4774 6.47716 2.00024 12 2.00024Z" fill="currentColor"/>
</svg>
