<svg width="20" height="16" viewBox="0 0 20 16" fill="none" xmlns="http://www.w3.org/2000/svg">
<path fill-rule="evenodd" clip-rule="evenodd" d="M19.75 6C19.75 6.4142 19.4142 6.75 19 6.75C18.3096 6.75 17.75 7.3096 17.75 8C17.75 8.6904 18.3096 9.25 19 9.25C19.4142 9.25 19.75 9.5858 19.75 10V13C19.75 14.5188 18.5188 15.75 17 15.75H13H3C1.48122 15.75 0.25 14.5188 0.25 13V10C0.25 9.5858 0.58579 9.25 1 9.25C1.69036 9.25 2.25 8.6904 2.25 8C2.25 7.3096 1.69036 6.75 1 6.75C0.58579 6.75 0.25 6.4142 0.25 6V3C0.25 1.48122 1.48122 0.25 3 0.25H13H17C18.5188 0.25 19.75 1.48122 19.75 3V6ZM13.75 14.25V13C13.75 12.5858 13.4142 12.25 13 12.25C12.5858 12.25 12.25 12.5858 12.25 13V14.25H3C2.30964 14.25 1.75 13.6904 1.75 13V10.6465C2.90425 10.32 3.75 9.25879 3.75 8C3.75 6.74121 2.90425 5.67998 1.75 5.35352V3C1.75 2.30964 2.30964 1.75 3 1.75H12.25V3C12.25 3.41421 12.5858 3.75 13 3.75C13.4142 3.75 13.75 3.41421 13.75 3V1.75H17C17.6904 1.75 18.25 2.30964 18.25 3V5.35351C17.0957 5.67997 16.25 6.74121 16.25 8C16.25 9.25879 17.0957 10.32 18.25 10.6465V13C18.25 13.6904 17.6904 14.25 17 14.25H13.75ZM13 6.25C13.4142 6.25 13.75 6.58579 13.75 7V9C13.75 9.41421 13.4142 9.75 13 9.75C12.5858 9.75 12.25 9.41421 12.25 9V7C12.25 6.58579 12.5858 6.25 13 6.25Z" fill="currentColor"/>
</svg>
