<svg width="24" height="24" viewBox="0 0 24 24" fill="none" xmlns="http://www.w3.org/2000/svg">
<path d="M8 4C7.33726 4 6.8 4.53726 6.8 5.2C6.8 5.86274 7.33726 6.4 8 6.4H15.2C15.8627 6.4 16.4 5.86274 16.4 5.2C16.4 4.53726 15.8627 4 15.2 4H8Z" fill="url(#paint0_linear_15815_7271)"/>
<path d="M4.4 8.8C4.4 8.13726 4.93726 7.6 5.6 7.6H17.6C18.2627 7.6 18.8 8.13726 18.8 8.8C18.8 9.46274 18.2627 10 17.6 10H5.6C4.93726 10 4.4 9.46274 4.4 8.8Z" fill="url(#paint1_linear_15815_7271)"/>
<path d="M2 13.6C2 12.2745 3.07452 11.2 4.4 11.2H18.8C20.1255 11.2 21.2 12.2745 21.2 13.6V18.4C21.2 19.7255 20.1255 20.8 18.8 20.8H4.4C3.07452 20.8 2 19.7255 2 18.4V13.6Z" fill="url(#paint2_linear_15815_7271)"/>
<defs>
<linearGradient id="paint0_linear_15815_7271" x1="-1.51319" y1="0.925962" x2="26.5706" y2="3.29321" gradientUnits="userSpaceOnUse">
<stop stop-color="#FF92DE"/>
<stop offset="1" stop-color="#FDC300"/>
</linearGradient>
<linearGradient id="paint1_linear_15815_7271" x1="-1.51319" y1="0.925962" x2="26.5706" y2="3.29321" gradientUnits="userSpaceOnUse">
<stop stop-color="#FF92DE"/>
<stop offset="1" stop-color="#FDC300"/>
</linearGradient>
<linearGradient id="paint2_linear_15815_7271" x1="-1.51319" y1="0.925962" x2="26.5706" y2="3.29321" gradientUnits="userSpaceOnUse">
<stop stop-color="#FF92DE"/>
<stop offset="1" stop-color="#FDC300"/>
</linearGradient>
</defs>
</svg>
