<svg width="19" height="20" viewBox="0 0 19 20" fill="none" xmlns="http://www.w3.org/2000/svg">
<path d="M17.2481 5.05344C17.2776 4.64027 16.9666 4.28142 16.5534 4.25191C16.1403 4.22239 15.7814 4.5334 15.7519 4.94656L17.2481 5.05344ZM15.6327 17.1425L14.8846 17.0891L15.6327 17.1425ZM3.36732 17.1425L4.11542 17.0891L3.36732 17.1425ZM3.24809 4.94656C3.21858 4.5334 2.85973 4.22239 2.44656 4.25191C2.0334 4.28142 1.72239 4.64027 1.75191 5.05344L3.24809 4.94656ZM8.25 9C8.25 8.58579 7.91421 8.25 7.5 8.25C7.08579 8.25 6.75 8.58579 6.75 9H8.25ZM6.75 15C6.75 15.4142 7.08579 15.75 7.5 15.75C7.91421 15.75 8.25 15.4142 8.25 15H6.75ZM12.25 9C12.25 8.58579 11.9142 8.25 11.5 8.25C11.0858 8.25 10.75 8.58579 10.75 9H12.25ZM10.75 15C10.75 15.4142 11.0858 15.75 11.5 15.75C11.9142 15.75 12.25 15.4142 12.25 15H10.75ZM11.75 5C11.75 5.41421 12.0858 5.75 12.5 5.75C12.9142 5.75 13.25 5.41421 13.25 5H11.75ZM5.75 5C5.75 5.41421 6.08579 5.75 6.5 5.75C6.91421 5.75 7.25 5.41421 7.25 5H5.75ZM1.5 4.25C1.08579 4.25 0.75 4.58579 0.75 5C0.75 5.41421 1.08579 5.75 1.5 5.75V4.25ZM17.5 5.75C17.9142 5.75 18.25 5.41421 18.25 5C18.25 4.58579 17.9142 4.25 17.5 4.25V5.75ZM15.7519 4.94656L14.8846 17.0891L16.3808 17.1959L17.2481 5.05344L15.7519 4.94656ZM13.6378 18.25H5.36224V19.75H13.6378V18.25ZM4.11542 17.0891L3.24809 4.94656L1.75191 5.05344L2.61923 17.1959L4.11542 17.0891ZM5.36224 18.25C4.70644 18.25 4.16214 17.7432 4.11542 17.0891L2.61923 17.1959C2.72202 18.635 3.91948 19.75 5.36224 19.75V18.25ZM14.8846 17.0891C14.8379 17.7432 14.2936 18.25 13.6378 18.25V19.75C15.0805 19.75 16.278 18.635 16.3808 17.1959L14.8846 17.0891ZM6.75 9V15H8.25V9H6.75ZM10.75 9V15H12.25V9H10.75ZM7.5 1.75H11.5V0.25H7.5V1.75ZM11.75 2V5H13.25V2H11.75ZM7.25 5V2H5.75V5H7.25ZM11.5 1.75C11.6381 1.75 11.75 1.86193 11.75 2H13.25C13.25 1.0335 12.4665 0.25 11.5 0.25V1.75ZM7.5 0.25C6.5335 0.25 5.75 1.0335 5.75 2H7.25C7.25 1.86193 7.36193 1.75 7.5 1.75V0.25ZM1.5 5.75H17.5V4.25H1.5V5.75Z" fill="#3D3B39"/>
</svg>
