<svg width="24" height="24" viewBox="0 0 24 24" fill="none" xmlns="http://www.w3.org/2000/svg">
<path d="M21 10V10.75C21.4142 10.75 21.75 10.4142 21.75 10H21ZM21 14H21.75C21.75 13.5858 21.4142 13.25 21 13.25V14ZM3 14V13.25C2.58579 13.25 2.25 13.5858 2.25 14H3ZM3 10H2.25C2.25 10.4142 2.58579 10.75 3 10.75V10ZM5 4.25C3.48122 4.25 2.25 5.48122 2.25 7H3.75C3.75 6.30964 4.30964 5.75 5 5.75V4.25ZM19 4.25H5V5.75H19V4.25ZM21.75 7C21.75 5.48122 20.5188 4.25 19 4.25V5.75C19.6904 5.75 20.25 6.30964 20.25 7H21.75ZM21.75 10V7H20.25V10H21.75ZM19.75 12C19.75 11.3096 20.3096 10.75 21 10.75V9.25C19.4812 9.25 18.25 10.4812 18.25 12H19.75ZM21 13.25C20.3096 13.25 19.75 12.6904 19.75 12H18.25C18.25 13.5188 19.4812 14.75 21 14.75V13.25ZM21.75 17V14H20.25V17H21.75ZM19 19.75C20.5188 19.75 21.75 18.5188 21.75 17H20.25C20.25 17.6904 19.6904 18.25 19 18.25V19.75ZM5 19.75H19V18.25H5V19.75ZM2.25 17C2.25 18.5188 3.48122 19.75 5 19.75V18.25C4.30964 18.25 3.75 17.6904 3.75 17H2.25ZM2.25 14V17H3.75V14H2.25ZM4.25 12C4.25 12.6904 3.69036 13.25 3 13.25V14.75C4.51878 14.75 5.75 13.5188 5.75 12H4.25ZM3 10.75C3.69036 10.75 4.25 11.3096 4.25 12H5.75C5.75 10.4812 4.51878 9.25 3 9.25V10.75ZM2.25 7V10H3.75V7H2.25Z" fill="currentColor"/>
<path d="M15 5V7" stroke="currentColor" stroke-width="1.5" stroke-linecap="round"/>
<path d="M15 11V13" stroke="currentColor" stroke-width="1.5" stroke-linecap="round" stroke-linejoin="round"/>
<path d="M15 17V19" stroke="currentColor" stroke-width="1.5" stroke-linecap="round" stroke-linejoin="round"/>
</svg>
