<svg width="20" height="20" viewBox="0 0 20 20" fill="none" xmlns="http://www.w3.org/2000/svg">
<path fill-rule="evenodd" clip-rule="evenodd" d="M12.7782 1.36396C11.2438 -0.17038 8.75617 -0.170384 7.22183 1.36396C6.86008 1.7257 6.36945 1.92893 5.85786 1.92893C3.68797 1.92893 1.92892 3.68799 1.92892 5.85788C1.92892 6.36946 1.72569 6.86009 1.36395 7.22183C-0.170389 8.75617 -0.170389 11.2438 1.36395 12.7782C1.72569 13.1399 1.92892 13.6305 1.92892 14.1421C1.92892 16.312 3.68797 18.0711 5.85786 18.0711C6.36945 18.0711 6.86008 18.2743 7.22182 18.636C8.75617 20.1704 11.2438 20.1704 12.7782 18.636C13.1399 18.2743 13.6306 18.0711 14.1421 18.0711C16.312 18.0711 18.0711 16.312 18.0711 14.1421C18.0711 13.6306 18.2743 13.1399 18.636 12.7782C20.1704 11.2438 20.1704 8.75616 18.636 7.22181C18.2743 6.86007 18.0711 6.36944 18.0711 5.85785C18.0711 3.68797 16.312 1.92893 14.1421 1.92893C13.6305 1.92893 13.1399 1.72571 12.7782 1.36396ZM8.63604 2.77817C9.38933 2.02488 10.6107 2.02488 11.364 2.77818C12.1008 3.51499 13.1001 3.92893 14.1421 3.92893C15.2074 3.92893 16.0711 4.79254 16.0711 5.85785C16.0711 6.89987 16.485 7.89921 17.2218 8.63603C17.9751 9.38932 17.9751 10.6107 17.2218 11.364C16.485 12.1008 16.0711 13.1001 16.0711 14.1421C16.0711 15.2075 15.2074 16.0711 14.1421 16.0711C13.1001 16.0711 12.1008 16.485 11.364 17.2218C10.6107 17.9751 9.38933 17.9751 8.63604 17.2218C7.89922 16.485 6.89988 16.0711 5.85786 16.0711C4.79254 16.0711 3.92892 15.2074 3.92892 14.1421C3.92892 13.1001 3.51498 12.1008 2.77816 11.364C2.02487 10.6107 2.02487 9.38934 2.77816 8.63605C3.51498 7.89923 3.92892 6.89989 3.92892 5.85788C3.92892 4.79255 4.79254 3.92893 5.85786 3.92893C6.89988 3.92893 7.89922 3.51499 8.63604 2.77817ZM13.7071 8.70711C14.0976 8.31658 14.0976 7.68342 13.7071 7.29289C13.3166 6.90237 12.6834 6.90237 12.2929 7.29289L9 10.5858L7.70711 9.29289C7.31658 8.90237 6.68342 8.90237 6.29289 9.29289C5.90237 9.68342 5.90237 10.3166 6.29289 10.7071L8.29289 12.7071C8.68342 13.0976 9.31658 13.0976 9.70711 12.7071L13.7071 8.70711Z" fill="currentColor"/>
</svg>
