<svg width="18" height="20" viewBox="0 0 18 20" fill="none" xmlns="http://www.w3.org/2000/svg">
<path fill-rule="evenodd" clip-rule="evenodd" d="M3.67856 2.84239C2.31057 3.52639 1.75 4.33255 1.75 5C1.75 5.66745 2.31057 6.47361 3.67856 7.15761C5.00168 7.81917 6.88205 8.25 9 8.25C11.118 8.25 12.9983 7.81917 14.3215 7.15761C15.6894 6.47362 16.25 5.66745 16.25 5C16.25 4.33255 15.6894 3.52638 14.3215 2.84239C12.9983 2.18083 11.118 1.75 9 1.75C6.88205 1.75 5.00168 2.18083 3.67856 2.84239ZM16.25 7.70722C15.8733 8.00772 15.4459 8.27245 14.9923 8.49925C13.42 9.2854 11.3003 9.75 9 9.75C6.69967 9.75 4.58004 9.2854 3.00773 8.49925C2.55414 8.27245 2.12675 8.00772 1.75 7.70722V10C1.75 10.6674 2.31057 11.4736 3.67856 12.1576C5.00168 12.8192 6.88205 13.25 9 13.25C11.118 13.25 12.9983 12.8192 14.3215 12.1576C15.6894 11.4736 16.25 10.6674 16.25 10V7.70722ZM17.75 5C17.75 3.45831 16.5197 2.26448 14.9923 1.50075C13.42 0.7146 11.3003 0.25 9 0.25C6.69967 0.25 4.58004 0.7146 3.00773 1.50075C1.48029 2.26447 0.25 3.45831 0.25 5V15C0.25 16.5417 1.48029 17.7355 3.00773 18.4992C4.58004 19.2854 6.69967 19.75 9 19.75C11.3003 19.75 13.42 19.2854 14.9923 18.4992C16.5197 17.7355 17.75 16.5417 17.75 15V5ZM16.25 12.7072C15.8733 13.0077 15.4459 13.2724 14.9923 13.4992C13.42 14.2854 11.3003 14.75 9 14.75C6.69967 14.75 4.58004 14.2854 3.00773 13.4992C2.55414 13.2724 2.12675 13.0077 1.75 12.7072V15C1.75 15.6674 2.31057 16.4736 3.67856 17.1576C5.00168 17.8192 6.88205 18.25 9 18.25C11.118 18.25 12.9983 17.8192 14.3215 17.1576C15.6894 16.4736 16.25 15.6674 16.25 15V12.7072Z" fill="currentColor"/>
</svg>
