<svg width="10" height="10" viewBox="0 0 10 10" fill="none" xmlns="http://www.w3.org/2000/svg">
<path fill-rule="evenodd" clip-rule="evenodd" d="M5 1C2.79086 1 1 2.79086 1 5C1 7.20914 2.79086 9 5 9C7.20914 9 9 7.20914 9 5C9 2.79086 7.20914 1 5 1ZM0 5C0 2.23858 2.23858 0 5 0C7.76142 0 10 2.23858 10 5C10 7.76142 7.76142 10 5 10C2.23858 10 0 7.76142 0 5ZM4.5 3C4.5 2.72386 4.72386 2.5 5 2.5H5.005C5.28114 2.5 5.505 2.72386 5.505 3C5.505 3.27614 5.28114 3.5 5.005 3.5H5C4.72386 3.5 4.5 3.27614 4.5 3ZM4.07467 4.73713C4.16578 4.58973 4.32671 4.5 4.5 4.5H5C5.27614 4.5 5.5 4.72386 5.5 5V5.88197L5.94721 6.77639C6.02471 6.93139 6.01643 7.11546 5.92533 7.26287C5.83422 7.41027 5.67329 7.5 5.5 7.5H5C4.72386 7.5 4.5 7.27614 4.5 7V6.11803L4.05279 5.22361C3.97529 5.06861 3.98357 4.88454 4.07467 4.73713Z" fill="currentColor"/>
</svg>
