<svg width="283" height="95" viewBox="0 0 283 95" fill="none" xmlns="http://www.w3.org/2000/svg">
<path d="M117.762 15.5859H127.67V77.6017H117.762V15.5859Z" fill="#3D3B39"/>
<path d="M183.579 33.8372V77.6031H174.72L174.631 71.7595C171.264 76.0101 165.421 78.5762 158.68 78.5762C145.832 78.5762 136.973 69.1756 136.973 55.71C136.973 42.2443 145.832 32.8438 158.68 32.8438C165.502 32.8438 171.257 35.4124 174.626 39.6655L174.715 33.8219L183.579 33.8372ZM173.67 55.71C173.67 47.562 168.177 41.8912 160.294 41.8912C152.41 41.8912 146.904 47.5798 146.904 55.71C146.904 63.8402 152.397 69.5313 160.281 69.5313C168.165 69.5313 173.67 63.8707 173.67 55.71Z" fill="#3D3B39"/>
<path d="M192.789 55.71C192.789 42.1554 202.19 32.8438 216.087 32.8438C222.467 32.8438 227.96 35.0592 232.655 39.5766L226.631 46.0554C223.976 43.3978 220.165 41.8937 216.265 41.8937C208.292 41.8937 202.71 47.5645 202.71 55.7125C202.71 63.952 208.206 69.5339 216.265 69.5339C220.518 69.5339 224.418 67.9383 227.076 65.0165L233.189 71.6605C228.316 76.3557 222.909 78.5711 216.166 78.5711C202.002 78.5762 192.789 69.5415 192.789 55.71Z" fill="#3D3B39"/>
<path d="M282.439 59.4398H247.446C248.244 65.8195 253.559 69.8923 261.267 69.8923C266.227 69.8923 271.176 68.1138 273.846 65.3749L279.87 71.2185C275.531 75.9162 268.531 78.8406 261.001 78.8406C246.559 78.8406 237.258 69.7169 237.258 55.7203C237.258 42.1657 246.381 32.9531 259.936 32.9531C275.353 32.9506 283.859 43.0498 282.439 59.4398ZM247.535 51.7314H272.962C272.251 45.5295 267.469 41.5432 260.203 41.5432C253.292 41.5432 248.775 45.2628 247.535 51.7314Z" fill="#3D3B39"/>
<path d="M15.3101 41.8976C14.8271 43.1251 14.4107 44.3778 14.0626 45.6502C12.5249 51.2588 12.2644 57.1408 13.3004 62.8633C13.3487 63.1479 13.4046 63.4325 13.4655 63.7145C13.684 64.7968 13.9534 65.8792 14.2684 66.9386C14.6165 68.1175 15.0306 69.304 15.5057 70.4626C18.6896 78.2813 24.3546 84.8372 31.629 89.1214C33.3307 90.1265 35.1087 90.9964 36.9466 91.7231C43.876 94.464 51.4504 95.1417 58.7563 93.6743C66.0621 92.2069 72.7875 88.6571 78.1211 83.4531C81.4769 80.1811 84.2003 76.3181 86.1547 72.0581C85.8219 72.4087 85.4789 72.7568 85.1385 73.0973C79.4933 78.6384 72.3822 82.4509 64.6427 84.0858C64.2921 84.2585 63.9364 84.416 63.5782 84.5736C58.1061 86.9476 52.0678 87.7017 46.18 86.7465C40.2922 85.7914 34.802 83.1669 30.3611 79.1848C29.853 78.7325 29.3593 78.2599 28.8799 77.7671L28.664 77.5409C24.2951 73.0037 21.4121 67.2431 20.3991 61.0264C20.3076 60.4692 20.2306 59.9085 20.1679 59.3445C20.0464 58.2247 19.9844 57.0993 19.9824 55.973C19.9584 49.843 21.7495 43.8431 25.1299 38.7293C25.9795 37.437 26.9266 36.2113 27.9627 35.0631C28.3997 34.5778 28.8571 34.0951 29.3347 33.6301C35.0556 28.0111 42.7293 24.8244 50.7477 24.7377C50.8722 24.7377 51.017 24.7377 51.1592 24.7377H51.4895C58.3047 24.7915 64.9123 27.089 70.2907 31.2749C70.1043 30.5855 69.8935 29.9029 69.658 29.2271C69.4675 28.6936 69.2668 28.1727 69.0457 27.657C67.8111 24.7008 66.0748 21.9804 63.9135 19.6157L63.789 19.5217C61.9755 18.8917 60.1162 18.4025 58.2275 18.0582C53.3394 17.1589 48.3242 17.2046 43.4533 18.1929C41.1718 18.6528 38.9375 19.3222 36.7789 20.1924C35.7398 20.6091 34.7286 21.0664 33.7733 21.5542C31.6662 22.6222 29.6624 23.8827 27.7874 25.3195L27.6197 25.4466C26.4337 26.3733 25.3004 27.3657 24.2254 28.4192C21.8242 30.7663 19.7416 33.4186 18.0312 36.308C17.0541 37.9627 16.2048 39.6894 15.4905 41.4733L15.4701 41.895L15.3101 41.8976ZM38.5676 12.6491C36.2462 12.6471 33.9296 12.858 31.6467 13.2792C31.3469 13.3275 31.0573 13.3834 30.7677 13.4494C29.7006 13.6679 28.6259 13.9398 27.5613 14.2599C26.9414 14.4403 26.324 14.641 25.7117 14.8544C25.0994 15.0679 24.5353 15.2863 23.9535 15.5226C16.1143 18.6816 9.55201 24.3641 5.30484 31.6713C4.76368 32.591 4.24791 33.559 3.78043 34.5473C3.40441 35.3324 3.05125 36.1327 2.73366 36.933C-0.879288 46.0041 -0.912057 56.1089 2.64199 65.2032C6.19604 74.2975 13.0716 81.7024 21.8778 85.9201L22.4113 86.1742C22.0556 85.8363 21.7025 85.4908 21.3595 85.1401C15.8136 79.4866 11.9992 72.3657 10.3659 64.6164C10.2211 64.3624 10.0356 63.9533 9.85776 63.5417C9.57574 62.8938 9.32168 62.2333 9.08285 61.5574C7.71665 57.6935 7.12716 53.5978 7.34821 49.5055C7.56927 45.4131 8.59652 41.4047 10.371 37.7105C10.9745 36.4516 11.6585 35.233 12.4188 34.0621C13.2748 32.7523 14.2295 31.5097 15.2745 30.345C15.7979 29.7581 16.3391 29.1941 16.9082 28.6529C17.9675 27.6303 19.1012 26.6876 20.3 25.8328C22.1315 24.5219 24.1003 23.4144 26.1715 22.5299C31.0268 18.8297 36.6559 16.2752 42.6378 15.0577C44.8563 14.5962 47.109 14.3175 49.3731 14.2243L48.865 14.077C45.5145 13.1299 42.0494 12.6494 38.5676 12.6491V12.6491ZM45.1124 80.2315L45.6205 80.3713C51.2249 81.9166 57.1046 82.184 62.8261 81.1538L62.9836 81.1258C63.2377 81.0776 63.4918 81.0318 63.7458 80.9759C64.7977 80.7651 65.8368 80.5008 66.9395 80.1731C68.0421 79.8453 69.1397 79.4719 70.2424 79.0298L70.6184 79.5379L70.3897 78.9688C75.048 77.0914 79.2899 74.313 82.8722 70.7928C85.2762 68.4394 87.3627 65.7822 89.0791 62.8888C90.0704 61.2068 90.9308 59.4511 91.6528 57.6372C94.4396 50.6975 95.1473 43.097 93.6897 35.7622C92.2321 28.4273 88.6722 21.6749 83.4438 16.328V16.328C80.1832 12.9853 76.3363 10.2699 72.0946 8.31723C76.8455 12.8535 80.4551 18.4499 82.6283 24.6488C83.2355 26.3735 83.7319 28.1353 84.1146 29.9233C84.2518 30.1773 84.4322 30.5737 84.6024 30.9675C85.5891 33.2777 86.2929 35.6988 86.6984 38.178C86.9752 39.867 87.1145 41.5757 87.1151 43.2873C87.127 49.4001 85.3375 55.381 81.9702 60.4827C81.1208 61.7751 80.1728 63 79.1348 64.1464C78.6978 64.6342 78.2405 65.1169 77.7628 65.5819L77.5418 65.7902C74.8442 68.3927 71.6959 70.4829 68.2505 71.959C64.8702 74.4978 61.1183 76.4997 57.1273 77.8941C55.3932 78.5058 53.6212 79.0039 51.8224 79.3855C49.6122 79.8485 47.3683 80.1323 45.1124 80.2341V80.2315ZM30.5898 74.8961C32.4116 75.537 34.2804 76.0356 36.1793 76.3875C41.093 77.3182 46.142 77.2707 51.0373 76.2477C52.7413 75.8918 54.4201 75.4241 56.0628 74.8478C56.6421 74.6445 57.2137 74.426 57.7727 74.1999C58.7559 73.8036 59.7138 73.3666 60.6259 72.9042C67.2364 69.5888 72.7422 64.4254 76.4747 58.0411C77.0108 57.1366 77.524 56.1686 77.9991 55.16C78.3599 54.3978 78.6876 53.6508 78.9976 52.8886L79.0408 52.7692C81.731 46.0748 82.4667 38.7544 81.1623 31.6586V31.6408C81.1191 31.3638 81.0632 31.092 81.0022 30.8176C80.7888 29.7607 80.517 28.6733 80.1892 27.5782C80.0037 26.9557 79.8081 26.3384 79.5896 25.721C79.3889 25.1569 79.1806 24.6005 78.9544 24.0517C75.8207 16.2175 70.1724 9.64675 62.8972 5.37257C61.9165 4.79075 60.9104 4.2572 59.9094 3.77955C59.1701 3.4264 58.4256 3.09357 57.6685 2.79377C48.5859 -0.867743 38.4496 -0.932404 29.321 2.61294C20.1924 6.15829 12.7569 13.0474 8.52644 21.8794C8.44768 22.0446 8.36891 22.2097 8.29269 22.3876C12.8328 17.6275 18.4354 14.01 24.642 11.831C26.3546 11.2311 28.1026 10.7373 29.8759 10.3523C30.1579 10.1973 30.5822 10.0043 31.0141 9.82386C31.6264 9.56979 32.254 9.31572 32.8917 9.09468C34.6316 8.4843 36.421 8.02527 38.2398 7.72271C45.986 6.46887 53.9205 8.17093 60.4709 12.4916C61.7541 13.3288 62.9713 14.2631 64.1117 15.2863C64.6808 15.7945 65.2313 16.3221 65.7632 16.8692C68.3619 19.573 70.4493 22.7253 71.9243 26.1732C72.2013 26.8236 72.4579 27.4791 72.6865 28.1524C73.2974 29.8771 73.7548 31.6523 74.0534 33.4574C74.1525 34.0189 74.2262 34.5905 74.2897 35.1596C74.93 40.9331 73.9278 46.7701 71.3984 51.9994C70.1181 54.6735 68.4673 57.1539 66.4949 59.3674C63.6061 62.5782 60.0849 65.1574 56.1521 66.943C52.2194 68.7285 47.96 69.682 43.6413 69.7435C42.1 69.7646 40.5593 69.6687 39.0325 69.4564C35.8192 69.0116 32.6947 68.0687 29.7717 66.6617C27.7845 65.7098 25.9018 64.5535 24.1542 63.2114C25.3168 67.5716 27.5239 71.5829 30.5847 74.8986L30.5898 74.8961ZM23.2929 58.1275C25.5698 60.4466 28.2355 62.3487 31.1691 63.7475C31.8229 64.0609 32.4852 64.348 33.1559 64.6088C28.4528 59.6024 25.5418 53.1782 24.8783 46.3412C23.5148 50.1145 22.9742 54.1357 23.2929 58.1351V58.1275ZM61.2737 29.8267C65.9537 34.8314 68.8671 41.2302 69.5691 48.046C70.9323 44.3096 71.4781 40.3242 71.1697 36.3589V36.3461C68.374 33.4918 64.9998 31.2689 61.2737 29.8267V29.8267Z" fill="url(#paint0_radial_6637_345404)"/>
<defs>
<radialGradient id="paint0_radial_6637_345404" cx="0" cy="0" r="1" gradientUnits="userSpaceOnUse" gradientTransform="translate(47.2085 47.2152) scale(47.2188)">
<stop stop-color="#FDC300"/>
<stop offset="0.09" stop-color="#FDC109"/>
<stop offset="0.25" stop-color="#FDBC21"/>
<stop offset="0.44" stop-color="#FEB348"/>
<stop offset="0.66" stop-color="#FEA77E"/>
<stop offset="0.91" stop-color="#FF98C3"/>
<stop offset="1" stop-color="#FF92DE"/>
</radialGradient>
</defs>
</svg>
