<svg width="470" height="240" viewBox="0 0 470 240" fill="none" xmlns="http://www.w3.org/2000/svg">
<path d="M0.75 7.75H469.25V232C469.25 236.004 466.004 239.25 462 239.25H8.00001C3.99594 239.25 0.75 236.004 0.75 232V7.75Z" fill="#F9F9F9" stroke="#EFEFEF" stroke-width="1.5"/>
<g filter="url(#filter0_d_200_14595)">
<rect x="133" y="58" width="203" height="32" rx="16" fill="white" shape-rendering="crispEdges"/>
<rect x="157" y="68" width="155" height="12" rx="2" fill="#EFEFEF"/>
</g>
<g filter="url(#filter1_d_200_14595)">
<rect x="133" y="104" width="203" height="32" rx="16" fill="white" shape-rendering="crispEdges"/>
<rect x="157" y="114" width="155" height="12" rx="2" fill="#EFEFEF"/>
</g>
<g filter="url(#filter2_d_200_14595)">
<rect x="133" y="150" width="203" height="32" rx="16" fill="white" shape-rendering="crispEdges"/>
<rect x="157" y="160" width="155" height="12" rx="2" fill="#EFEFEF"/>
</g>
<path d="M0 8C0 3.58172 3.58172 0 8 0H462C466.418 0 470 3.58172 470 8V16H0V8Z" fill="#C0C0C0"/>
<circle cx="31" cy="8" r="3" fill="white"/>
<circle cx="21" cy="8" r="3" fill="white"/>
<circle cx="41" cy="8" r="3" fill="white"/>
<defs>
<filter id="filter0_d_200_14595" x="113" y="38" width="243" height="72" filterUnits="userSpaceOnUse" color-interpolation-filters="sRGB">
<feFlood flood-opacity="0" result="BackgroundImageFix"/>
<feColorMatrix in="SourceAlpha" type="matrix" values="0 0 0 0 0 0 0 0 0 0 0 0 0 0 0 0 0 0 127 0" result="hardAlpha"/>
<feOffset/>
<feGaussianBlur stdDeviation="10"/>
<feComposite in2="hardAlpha" operator="out"/>
<feColorMatrix type="matrix" values="0 0 0 0 0.654167 0 0 0 0 0.561493 0 0 0 0 0.626109 0 0 0 0.15 0"/>
<feBlend mode="normal" in2="BackgroundImageFix" result="effect1_dropShadow_200_14595"/>
<feBlend mode="normal" in="SourceGraphic" in2="effect1_dropShadow_200_14595" result="shape"/>
</filter>
<filter id="filter1_d_200_14595" x="113" y="84" width="243" height="72" filterUnits="userSpaceOnUse" color-interpolation-filters="sRGB">
<feFlood flood-opacity="0" result="BackgroundImageFix"/>
<feColorMatrix in="SourceAlpha" type="matrix" values="0 0 0 0 0 0 0 0 0 0 0 0 0 0 0 0 0 0 127 0" result="hardAlpha"/>
<feOffset/>
<feGaussianBlur stdDeviation="10"/>
<feComposite in2="hardAlpha" operator="out"/>
<feColorMatrix type="matrix" values="0 0 0 0 0.654167 0 0 0 0 0.561493 0 0 0 0 0.626109 0 0 0 0.15 0"/>
<feBlend mode="normal" in2="BackgroundImageFix" result="effect1_dropShadow_200_14595"/>
<feBlend mode="normal" in="SourceGraphic" in2="effect1_dropShadow_200_14595" result="shape"/>
</filter>
<filter id="filter2_d_200_14595" x="113" y="130" width="243" height="72" filterUnits="userSpaceOnUse" color-interpolation-filters="sRGB">
<feFlood flood-opacity="0" result="BackgroundImageFix"/>
<feColorMatrix in="SourceAlpha" type="matrix" values="0 0 0 0 0 0 0 0 0 0 0 0 0 0 0 0 0 0 127 0" result="hardAlpha"/>
<feOffset/>
<feGaussianBlur stdDeviation="10"/>
<feComposite in2="hardAlpha" operator="out"/>
<feColorMatrix type="matrix" values="0 0 0 0 0.654167 0 0 0 0 0.561493 0 0 0 0 0.626109 0 0 0 0.15 0"/>
<feBlend mode="normal" in2="BackgroundImageFix" result="effect1_dropShadow_200_14595"/>
<feBlend mode="normal" in="SourceGraphic" in2="effect1_dropShadow_200_14595" result="shape"/>
</filter>
</defs>
</svg>
