<svg width="331" height="613" viewBox="0 0 331 613" fill="none" xmlns="http://www.w3.org/2000/svg">
<path d="M-175.134 -57.3888C-179.189 -56.5426 -183.232 -55.6016 -187.261 -54.5626C-221.68 -45.6892 -253.572 -30.151 -282.052 -8.37291C-310.532 13.4051 -333.9 40.1178 -351.5 71.0232C-368.502 100.876 -379.438 133.359 -384.004 167.579C-388.57 201.799 -386.54 236.025 -377.964 269.31C-369.084 303.77 -353.547 335.703 -331.779 364.224C-310.011 392.744 -283.316 416.149 -252.435 433.783C-222.607 450.816 -190.153 461.779 -155.968 466.366C-121.785 470.954 -87.5961 468.937 -54.352 460.365C-19.9322 451.491 11.9594 435.953 40.4394 414.175C68.9195 392.397 92.2872 365.684 109.888 334.779C126.889 304.926 137.825 272.443 142.391 238.223C146.958 204.006 144.925 169.78 136.349 136.496C127.469 102.036 111.932 70.1028 90.1642 41.5822C68.3961 13.0615 41.701 -10.3436 10.8204 -27.9774C-19.0085 -45.0106 -51.462 -55.9734 -85.6474 -60.5606C-115.686 -64.5908 -145.733 -63.5226 -175.137 -57.3881L-175.134 -57.3888ZM-66.9633 460.854C-96.1049 466.934 -125.878 467.994 -155.649 463.999C-189.527 459.452 -221.693 448.589 -251.249 431.71C-281.853 414.233 -308.306 391.041 -329.88 362.776C-351.452 334.511 -366.854 302.866 -375.65 268.716C-384.147 235.731 -386.162 201.814 -381.635 167.902C-377.109 133.989 -366.272 101.794 -349.425 72.2142C-331.981 41.5856 -308.826 15.1158 -280.602 -6.46898C-252.376 -28.0506 -220.772 -43.4542 -186.663 -52.2432C-153.721 -60.7366 -119.837 -62.7354 -85.9586 -58.1883C-52.0806 -53.6411 -19.9144 -42.7778 9.64162 -25.8992C40.2457 -8.42244 66.6981 14.7697 88.273 43.0344C109.845 71.2998 125.247 102.945 134.042 137.095C142.539 170.08 144.554 203.997 140.028 237.909C135.501 271.821 124.664 304.017 107.818 333.597C90.3737 364.225 67.2186 390.695 38.9941 412.28C10.7688 433.861 -20.8355 449.265 -54.9446 458.054C-58.9365 459.082 -62.9448 460.016 -66.9633 460.854Z" fill="#333333"/>
<path d="M-50.2552 -28.9825C-76.1229 -23.5857 -100.987 -14.4051 -124.44 -1.56468C-155.1 15.217 -181.806 37.3993 -203.816 64.3691C-226.606 92.2924 -243.333 124.145 -253.537 159.046C-263.742 193.944 -266.808 229.807 -262.658 265.635C-258.651 300.237 -248.109 333.349 -231.331 364.05C-214.553 394.75 -192.382 421.495 -165.43 443.541C-137.526 466.369 -105.7 483.128 -70.8312 493.359C-35.9654 503.591 -0.139442 506.677 35.6488 502.54C70.215 498.544 103.283 488.006 133.943 471.225C164.604 454.443 191.309 432.261 213.319 405.291C236.11 377.368 252.837 345.515 263.04 310.614C273.245 275.716 276.311 239.853 272.162 204.025C268.155 169.423 257.612 136.311 240.834 105.61C224.056 74.9097 201.885 48.1655 174.934 26.1189C147.03 3.29152 115.203 -13.4681 80.3346 -23.6992C45.4688 -33.9309 9.64285 -37.0172 -26.1454 -32.88C-34.2678 -31.9404 -42.3086 -30.6404 -50.2552 -28.9825ZM57.7991 489.282C50.136 490.88 42.3813 492.134 34.5475 493.039C0.0356038 497.03 -34.5169 494.049 -68.1494 484.182C-101.782 474.315 -132.48 458.149 -159.391 436.137C-185.386 414.873 -206.771 389.075 -222.955 359.461C-239.139 329.847 -249.307 297.907 -253.172 264.532C-257.176 229.981 -254.214 195.393 -244.373 161.729C-234.531 128.066 -218.398 97.3427 -196.421 70.4125C-175.193 44.4 -149.435 23.0043 -119.857 6.81621C-90.2788 -9.37192 -58.3808 -19.5351 -25.0436 -23.3921C9.46829 -27.3834 44.0208 -24.4024 77.6533 -14.535C111.286 -4.6676 141.984 11.4976 168.895 33.5102C194.89 54.7735 216.275 80.5687 232.459 110.186C248.644 139.803 258.811 171.74 262.68 205.114C266.683 239.665 263.721 274.253 253.88 307.917C244.038 341.581 227.905 372.304 205.928 399.234C184.7 425.246 158.942 446.642 129.364 462.83C106.739 475.215 82.7503 484.073 57.8016 489.278L57.7991 489.282Z" fill="url(#paint0_linear_9955_225433)"/>
<path d="M-120.32 29.0402C-124.383 29.8876 -128.431 30.83 -132.466 31.8703C-166.936 40.7541 -198.877 56.3189 -227.403 78.1292C-255.925 99.9388 -279.326 126.694 -296.956 157.645C-313.984 187.542 -324.935 220.074 -329.508 254.344C-334.08 288.614 -332.045 322.892 -323.456 356.225C-314.565 390.739 -299.002 422.718 -277.202 451.284C-255.402 479.847 -228.664 503.286 -197.738 520.949C-167.865 538.009 -135.363 548.987 -101.127 553.581C-66.8881 558.176 -32.6484 556.152 0.643002 547.572C35.1127 538.689 67.0539 523.124 95.5793 501.314C124.102 479.504 147.503 452.749 165.133 421.798C182.16 391.9 193.112 359.369 197.684 325.099C202.257 290.829 200.222 256.551 191.632 223.218C182.742 188.707 167.179 156.724 145.379 128.158C123.579 99.5956 96.8411 76.1571 65.9152 58.4936C36.0418 41.4339 3.5395 30.4553 -30.696 25.8622C-60.7812 21.8255 -90.8704 22.896 -120.32 29.0402ZM-12.1503 547.283C-41.2483 553.354 -70.9757 554.414 -100.704 550.423C-134.531 545.885 -166.645 535.037 -196.161 518.182C-226.716 500.735 -253.132 477.577 -274.673 449.351C-296.213 421.128 -311.589 389.529 -320.374 355.432C-328.86 322.497 -330.871 288.631 -326.35 254.769C-321.833 220.908 -311.011 188.764 -294.188 159.225C-276.77 128.644 -253.653 102.212 -225.467 80.6609C-197.284 59.1108 -165.726 43.7333 -131.67 34.9553C-98.7739 26.4748 -64.9446 24.4777 -31.1166 29.019C2.71088 33.5572 34.8251 44.4052 64.3404 61.2598C94.8968 78.7107 121.312 101.865 142.853 130.091C164.393 158.314 179.769 189.913 188.553 224.01C197.04 256.945 199.051 290.811 194.53 324.673C190.013 358.534 179.191 390.678 162.368 420.217C144.95 450.798 121.83 477.231 93.6466 498.781C65.4636 520.331 33.9058 535.709 -0.150315 544.487C-4.13598 545.514 -8.13805 546.446 -12.1503 547.283Z" fill="#FDC300"/>
<path d="M-89.1018 -115.791L-89.3354 -115.742C-123.389 -108.605 -155.362 -95.0933 -184.364 -75.5822C-213.366 -56.0711 -237.94 -31.541 -257.399 -2.67246C-277.549 27.2157 -291.303 60.4656 -298.284 96.1525C-305.265 131.839 -305.054 167.832 -297.656 203.133C-290.511 237.226 -276.999 269.24 -257.495 298.281C-237.991 327.323 -213.476 351.935 -184.629 371.428C-154.764 391.614 -121.543 405.398 -85.8906 412.403L-84.9738 407.714L-85.8906 412.403C-50.3198 419.392 -14.4436 419.214 20.7414 411.873L20.9781 411.824C55.032 404.687 87.0051 391.175 116.007 371.664C145.009 352.153 169.582 327.62 189.042 298.754C209.192 268.866 222.946 235.616 229.927 199.929C236.908 164.242 236.696 128.25 229.299 92.9493C222.154 58.8557 208.642 26.8422 189.138 -2.19964C169.634 -31.2415 145.116 -55.8524 116.272 -75.3465C86.4063 -95.5321 53.1855 -109.316 17.5333 -116.321C-18.0375 -123.311 -53.9138 -123.132 -89.0987 -115.791L-89.1018 -115.791ZM18.7894 402.517C-15.1402 409.596 -49.7401 409.769 -84.0569 403.025C-118.448 396.268 -150.491 382.974 -179.292 363.51C-207.114 344.707 -230.761 320.969 -249.576 292.955C-268.391 264.941 -281.426 234.061 -288.316 201.177C-295.45 167.137 -295.652 132.418 -288.918 97.9933C-282.184 63.5685 -268.919 31.4978 -249.49 2.6745C-230.72 -25.1682 -207.018 -48.8296 -179.043 -67.6515C-151.067 -86.4733 -120.227 -99.5077 -87.381 -106.39L-87.1536 -106.437C-53.224 -113.516 -18.6241 -113.689 15.6927 -106.945C50.0839 -100.188 82.1265 -86.8936 110.925 -67.4292C138.747 -48.6266 162.394 -24.8883 181.209 3.12565C200.024 31.1396 213.058 62.0193 219.948 94.9034C227.083 128.944 227.285 163.663 220.551 198.087C213.817 232.512 200.552 264.583 181.122 293.403C162.352 321.246 138.65 344.907 110.675 363.729C82.6995 382.551 51.8589 395.585 19.013 402.467L18.7857 402.515L18.7894 402.517Z" fill="url(#paint1_linear_9955_225433)"/>
<defs>
<linearGradient id="paint0_linear_9955_225433" x1="-232.659" y1="361.596" x2="242.302" y2="108.345" gradientUnits="userSpaceOnUse">
<stop stop-color="#FDC300"/>
<stop offset="0.11" stop-color="#FDC105"/>
<stop offset="0.25" stop-color="#FDBE13"/>
<stop offset="0.39" stop-color="#FDB92B"/>
<stop offset="0.54" stop-color="#FDB14D"/>
<stop offset="0.7" stop-color="#FEA878"/>
<stop offset="0.86" stop-color="#FE9CAC"/>
<stop offset="1" stop-color="#FF92DE"/>
</linearGradient>
<linearGradient id="paint1_linear_9955_225433" x1="113.674" y1="373.216" x2="-182.408" y2="-76.8853" gradientUnits="userSpaceOnUse">
<stop stop-color="#FDC300"/>
<stop offset="0.11" stop-color="#FDC105"/>
<stop offset="0.25" stop-color="#FDBE13"/>
<stop offset="0.39" stop-color="#FDB92B"/>
<stop offset="0.54" stop-color="#FDB14D"/>
<stop offset="0.7" stop-color="#FEA878"/>
<stop offset="0.86" stop-color="#FE9CAC"/>
<stop offset="1" stop-color="#FF92DE"/>
</linearGradient>
</defs>
</svg>
