<svg width="20" height="20" viewBox="0 0 20 20" fill="none" xmlns="http://www.w3.org/2000/svg">
<path fill-rule="evenodd" clip-rule="evenodd" d="M2 0H18C19.1046 0 20 0.895431 20 2V18C20 19.1046 19.1046 20 18 20H2C0.895431 20 0 19.1046 0 18V2C0 0.895431 0.895431 0 2 0ZM2.84448 2.78223C6.68254 2.78223 10.289 4.27499 12.9995 6.9855C15.71 9.696 17.2028 13.3025 17.2028 17.1406H14.3789C14.3789 14.0568 13.1798 11.1595 11.0027 8.98233C8.82555 6.80517 5.92823 5.60617 2.84448 5.60617V2.78223ZM2.81519 10.385V7.56104C8.09742 7.56104 12.3948 11.8584 12.3948 17.1407H9.57084C9.57084 13.4155 6.54023 10.385 2.81519 10.385ZM4.8202 17.219C5.93725 17.219 6.8428 16.3135 6.8428 15.1964C6.8428 14.0794 5.93725 13.1738 4.8202 13.1738C3.70315 13.1738 2.79761 14.0794 2.79761 15.1964C2.79761 16.3135 3.70315 17.219 4.8202 17.219Z" fill="currentColor"/>
</svg>
