<svg width="21" height="20" viewBox="0 0 21 20" fill="none" xmlns="http://www.w3.org/2000/svg">
<path fill-rule="evenodd" clip-rule="evenodd" d="M10.5 0C4.975 0 0.5 4.475 0.5 10C0.5 14.425 3.3625 18.1625 7.3375 19.4875C7.8375 19.575 8.025 19.275 8.025 19.0125C8.025 18.775 8.0125 17.9875 8.0125 17.15C5.5 17.6125 4.85 16.5375 4.65 15.975C4.5375 15.6875 4.05 14.8 3.625 14.5625C3.275 14.375 2.775 13.9125 3.6125 13.9C4.4 13.8875 4.9625 14.625 5.15 14.925C6.05 16.4375 7.4875 16.0125 8.0625 15.75C8.15 15.1 8.4125 14.6625 8.7 14.4125C6.475 14.1625 4.15 13.3 4.15 9.475C4.15 8.3875 4.5375 7.4875 5.175 6.7875C5.075 6.5375 4.725 5.5125 5.275 4.1375C5.275 4.1375 6.1125 3.875 8.025 5.1625C8.825 4.9375 9.675 4.825 10.525 4.825C11.375 4.825 12.225 4.9375 13.025 5.1625C14.9375 3.8625 15.775 4.1375 15.775 4.1375C16.325 5.5125 15.975 6.5375 15.875 6.7875C16.5125 7.4875 16.9 8.375 16.9 9.475C16.9 13.3125 14.5625 14.1625 12.3375 14.4125C12.7 14.725 13.0125 15.325 13.0125 16.2625C13.0125 17.6 13 18.675 13 19.0125C13 19.275 13.1875 19.5875 13.6875 19.4875C15.6726 18.8173 17.3976 17.5414 18.6197 15.8395C19.8418 14.1375 20.4994 12.0952 20.5 10C20.5 4.475 16.025 0 10.5 0Z" fill="currentColor"/>
</svg>
