<svg width="24" height="24" viewBox="0 0 24 24" fill="none" xmlns="http://www.w3.org/2000/svg">
<path d="M13.5374 11.8153C13.5374 15.5792 10.5069 18.6303 6.76884 18.6303C3.03073 18.6303 0 15.5785 0 11.8153C0 8.05212 3.0305 5 6.76884 5C10.5072 5 13.5374 8.05143 13.5374 11.8153Z" fill="currentColor"/>
<path d="M20.9628 11.8153C20.9628 15.3582 19.4476 18.2314 17.5784 18.2314C15.7093 18.2314 14.194 15.3582 14.194 11.8153C14.194 8.27243 15.709 5.39923 17.5782 5.39923C19.4474 5.39923 20.9626 8.27151 20.9626 11.8153" fill="currentColor"/>
<path d="M24 11.8153C24 14.9888 23.4672 17.5631 22.8097 17.5631C22.1522 17.5631 21.6196 14.9895 21.6196 11.8153C21.6196 8.64106 22.1525 6.0675 22.8097 6.0675C23.467 6.0675 24 8.64083 24 11.8153Z" fill="currentColor"/>
</svg>
