<svg width="23" height="20" viewBox="0 0 23 20" fill="none" xmlns="http://www.w3.org/2000/svg">
<path fill-rule="evenodd" clip-rule="evenodd" d="M18.7535 18.6552L22.487 0.719115C22.5831 0.256581 22.1281 -0.129295 21.6871 0.0410427L0.882729 8.05675C0.369259 8.25429 0.373659 8.98035 0.888596 9.17301L5.95786 11.0626L7.91997 17.3648C8.04554 17.7682 8.53973 17.9175 8.86764 17.6496L11.6934 15.3491C11.9896 15.1079 12.4115 15.096 12.7209 15.3204L17.8175 19.016C18.1683 19.2706 18.6655 19.0787 18.7535 18.6552ZM7.60388 10.0566L17.5111 3.96251C17.689 3.85334 17.8723 4.09378 17.7192 4.23538L9.54301 11.8261C9.25555 12.0932 9.07026 12.4509 9.01767 12.839L8.73928 14.9005C8.7022 15.1756 8.31528 15.2028 8.23908 14.9365L7.16793 11.1774C7.04543 10.7487 7.22416 10.2907 7.60388 10.0566Z" fill="currentColor"/>
</svg>
