<svg width="16" height="20" viewBox="0 0 16 20" fill="none" xmlns="http://www.w3.org/2000/svg">
<path d="M5.53033 11.4697C5.23744 11.1768 4.76256 11.1768 4.46967 11.4697C4.17678 11.7626 4.17678 12.2374 4.46967 12.5303L5.53033 11.4697ZM7 14L6.46967 14.5303C6.76256 14.8232 7.23744 14.8232 7.53033 14.5303L7 14ZM11.5303 10.5303C11.8232 10.2374 11.8232 9.76256 11.5303 9.46967C11.2374 9.17678 10.7626 9.17678 10.4697 9.46967L11.5303 10.5303ZM14.25 5V17H15.75V5H14.25ZM13 18.25H3V19.75H13V18.25ZM1.75 17V5H0.25V17H1.75ZM3 3.75H5V2.25H3V3.75ZM11 3.75H13V2.25H11V3.75ZM3 18.25C2.30964 18.25 1.75 17.6904 1.75 17H0.25C0.25 18.5188 1.48122 19.75 3 19.75V18.25ZM14.25 17C14.25 17.6904 13.6904 18.25 13 18.25V19.75C14.5188 19.75 15.75 18.5188 15.75 17H14.25ZM15.75 5C15.75 3.48122 14.5188 2.25 13 2.25V3.75C13.6904 3.75 14.25 4.30964 14.25 5H15.75ZM1.75 5C1.75 4.30964 2.30964 3.75 3 3.75V2.25C1.48122 2.25 0.25 3.48122 0.25 5H1.75ZM4.46967 12.5303L6.46967 14.5303L7.53033 13.4697L5.53033 11.4697L4.46967 12.5303ZM7.53033 14.5303L11.5303 10.5303L10.4697 9.46967L6.46967 13.4697L7.53033 14.5303ZM7 1.75H9V0.25H7V1.75ZM9 4.25H7V5.75H9V4.25ZM7 4.25C6.30964 4.25 5.75 3.69036 5.75 3H4.25C4.25 4.51878 5.48122 5.75 7 5.75V4.25ZM10.25 3C10.25 3.69036 9.69036 4.25 9 4.25V5.75C10.5188 5.75 11.75 4.51878 11.75 3H10.25ZM9 1.75C9.69036 1.75 10.25 2.30964 10.25 3H11.75C11.75 1.48122 10.5188 0.25 9 0.25V1.75ZM7 0.25C5.48122 0.25 4.25 1.48122 4.25 3H5.75C5.75 2.30964 6.30964 1.75 7 1.75V0.25Z" fill="currentColor"/>
</svg>
