<svg width="20" height="18" viewBox="0 0 20 18" fill="none" xmlns="http://www.w3.org/2000/svg">
<path fill-rule="evenodd" clip-rule="evenodd" d="M7.61848 1.625C8.67696 -0.208333 11.3232 -0.208333 12.3816 1.625L19.3098 13.625C20.3683 15.4583 19.0451 17.75 16.9282 17.75H3.07185C0.954904 17.75 -0.368195 15.4583 0.690282 13.625C0.690283 13.625 0.690285 13.625 0.690286 13.625L7.61848 1.625ZM11.0826 2.375C10.6015 1.54167 9.39864 1.54167 8.91752 2.375L1.98932 14.375L1.98932 14.375C1.5082 15.2083 2.1096 16.25 3.07185 16.25H16.9282C17.8905 16.25 18.4919 15.2083 18.0108 14.375L18.6603 14L18.0108 14.375L11.0826 2.375ZM10 6.25C10.4142 6.25 10.75 6.58579 10.75 7V9C10.75 9.41421 10.4142 9.75 10 9.75C9.58581 9.75 9.25002 9.41421 9.25002 9V7C9.25002 6.58579 9.58581 6.25 10 6.25ZM9.25002 13C9.25002 12.5858 9.58581 12.25 10 12.25H10.01C10.4242 12.25 10.76 12.5858 10.76 13C10.76 13.4142 10.4242 13.75 10.01 13.75H10C9.58581 13.75 9.25002 13.4142 9.25002 13Z" fill="currentColor"/>
</svg>
