<svg width="16" height="20" viewBox="0 0 16 20" fill="none" xmlns="http://www.w3.org/2000/svg">
<path d="M12.2466 11.4325L12.3684 11.7568H12.7147H15.1408C15.333 11.7568 15.4903 11.9087 15.4996 12.0869C15.5071 12.2507 15.3899 12.432 15.1001 12.4405H13.2869H12.5627L12.8194 13.1177L15.0606 19.0302C15.1371 19.2469 15.0448 19.4154 14.9291 19.478C14.8646 19.4933 14.8174 19.5 14.7974 19.5C14.6668 19.5 14.5685 19.4319 14.527 19.31L14.5243 19.302L14.5214 19.2941L12.0496 12.7517L11.9274 12.4284H11.5818H4.3381H3.98928L3.86884 12.7558L1.48951 19.2236C1.48938 19.2239 1.48925 19.2243 1.48912 19.2246C1.4363 19.3648 1.32602 19.4278 1.21403 19.4278C1.18978 19.4278 1.1751 19.4278 1.16178 19.4274C1.1582 19.4272 1.15517 19.4271 1.15264 19.427L1.15074 19.426L1.12855 19.4169C0.981619 19.3568 0.878016 19.1549 0.950572 18.9588L0.951097 18.9574L3.10247 13.0885L3.34884 12.4164H2.63302H0.790619C0.653862 12.4164 0.490111 12.2828 0.500439 12.0625C0.509432 11.8818 0.66883 11.7327 0.859279 11.7327H3.26241H3.61219L3.73211 11.4041L4.37294 9.64827L4.61799 8.97685H3.90325H2.33549C2.19873 8.97685 2.03498 8.84327 2.04531 8.62298C2.0543 8.44223 2.2137 8.29315 2.40415 8.29315H4.55553H4.90617L5.02562 7.96348L7.65403 0.709402C7.71325 0.569506 7.83798 0.5 7.93135 0.5C8.04413 0.5 8.16012 0.576614 8.20564 0.701004L8.20562 0.701013L8.2074 0.705736L10.9538 7.98174L11.0759 8.30517H11.4216H13.6188C13.7555 8.30517 13.9193 8.43878 13.9089 8.65913C13.8999 8.83984 13.7405 8.98888 13.5501 8.98888H12.051H11.3292L11.5829 9.66462L12.2466 11.4325ZM8.43383 3.01139L7.95939 1.74671L7.49603 3.01549L5.81383 7.62162L5.56859 8.29315H6.28349H9.69365H10.4152L10.1618 7.61752L8.43383 3.01139ZM4.52031 11.0864L4.2773 11.7568H4.99038H10.9524H11.6742L11.4205 11.081L10.7568 9.31314L10.6351 8.98888H10.2887H5.63121H5.28062L5.16114 9.31848L4.52031 11.0864Z" stroke="currentColor"/>
</svg>