<svg width="24" height="24" viewBox="0 0 24 24" fill="none" xmlns="http://www.w3.org/2000/svg">
<g id="general/book">
<path id="Icon" d="M12 6.25278V19.2528M12 6.25278C10.8321 5.47686 9.24649 5 7.5 5C5.75351 5 4.16789 5.47686 3 6.25278V19.2528C4.16789 18.4769 5.75351 18 7.5 18C9.24649 18 10.8321 18.4769 12 19.2528M12 6.25278C13.1679 5.47686 14.7535 5 16.5 5C18.2465 5 19.8321 5.47686 21 6.25278V19.2528C19.8321 18.4769 18.2465 18 16.5 18C14.7535 18 13.1679 18.4769 12 19.2528" stroke="url(#paint0_linear_260_12874)" stroke-width="2" stroke-linecap="round" stroke-linejoin="round"/>
</g>
<defs>
<linearGradient id="paint0_linear_260_12874" x1="-0.293617" y1="2.39205" x2="25.9939" y2="4.84065" gradientUnits="userSpaceOnUse">
<stop stop-color="#FF92E1"/>
<stop offset="1" stop-color="#FDC300"/>
</linearGradient>
</defs>
</svg>
