<svg width="24" height="24" viewBox="0 0 24 24" fill="none" xmlns="http://www.w3.org/2000/svg">
<g id="general/chip">
<path id="Icon" d="M9 3V5M15 3V5M9 19V21M15 19V21M5 9H3M5 15H3M21 9H19M21 15H19M7 19H17C18.1046 19 19 18.1046 19 17V7C19 5.89543 18.1046 5 17 5H7C5.89543 5 5 5.89543 5 7V17C5 18.1046 5.89543 19 7 19ZM9 9H15V15H9V9Z" stroke="url(#paint0_linear_260_13164)" stroke-width="2" stroke-linecap="round" stroke-linejoin="round"/>
</g>
<defs>
<linearGradient id="paint0_linear_260_13164" x1="-0.293617" y1="-0.293613" x2="26.0785" y2="1.65148" gradientUnits="userSpaceOnUse">
<stop stop-color="#FF92E1"/>
<stop offset="1" stop-color="#FDC300"/>
</linearGradient>
</defs>
</svg>
