<svg width="18" height="18" viewBox="0 0 18 18" fill="none" xmlns="http://www.w3.org/2000/svg">
<path fill-rule="evenodd" clip-rule="evenodd" d="M3 2C2.44771 2 2 2.44771 2 3V11C2 11.5523 2.44771 12 3 12H4V7C4 5.34315 5.34315 4 7 4H12V3C12 2.44771 11.5523 2 11 2H3ZM14 4V3C14 1.34315 12.6569 0 11 0H3C1.34315 0 0 1.34315 0 3V11C0 12.6569 1.34315 14 3 14H4V15C4 16.6569 5.34315 18 7 18H15C16.6569 18 18 16.6569 18 15V7C18 5.34315 16.6569 4 15 4H14ZM7 6C6.44771 6 6 6.44771 6 7V15C6 15.5523 6.4477 16 7 16H15C15.5523 16 16 15.5523 16 15V7C16 6.4477 15.5523 6 15 6H7Z" fill="currentColor"/>
</svg>
