<svg width="82" height="80" viewBox="0 0 82 80" fill="none" xmlns="http://www.w3.org/2000/svg">
<g id="Lace symbol">
<path id="Vector" d="M13.6552 35.3451C13.2485 36.3805 12.8974 37.4368 12.6033 38.5096C11.3054 43.2415 11.0845 48.204 11.9566 53.0325C11.9979 53.2726 12.0442 53.514 12.0955 53.7517C12.2806 54.6648 12.5082 55.5778 12.7722 56.4709C13.0673 57.4715 13.4188 58.4722 13.8178 59.444C16.5039 66.0409 21.2831 71.5724 27.4201 75.1877C28.8588 76.0367 30.3624 76.7707 31.9167 77.3828C37.763 79.6947 44.1531 80.2663 50.3169 79.0288C56.4807 77.7914 62.1551 74.7976 66.6561 70.4084C69.4873 67.6482 71.7847 64.3891 73.4328 60.7949C73.1518 61.0917 72.8641 61.3836 72.5698 61.6704C67.8074 66.346 61.8076 69.5626 55.2776 70.9413C54.9825 71.0863 54.6823 71.2202 54.3796 71.3528C49.7634 73.3524 44.6708 73.9868 39.7052 73.181C34.7395 72.3752 30.1089 70.1629 26.362 66.8062C25.935 66.4242 25.5181 66.0257 25.1112 65.6104L24.9286 65.419C21.245 61.5921 18.8134 56.7349 17.9567 51.4928C17.8791 51.0237 17.8141 50.5484 17.7603 50.0744C17.6584 49.1293 17.6066 48.1794 17.6052 47.2288C17.5849 42.0573 19.0955 36.9955 21.9467 32.6809C22.6641 31.5902 23.4636 30.5557 24.3382 29.5865C24.7059 29.1775 25.0886 28.7697 25.4952 28.3782C30.3208 23.6345 36.7951 20.9424 43.5615 20.866C43.6678 20.866 43.7879 20.866 43.9092 20.866H44.1882C45.2869 20.8742 46.384 20.9527 47.4727 21.1012C52.0583 21.713 56.398 23.5353 60.0456 26.3807C59.8905 25.8016 59.7117 25.2238 59.5116 24.6546C59.3527 24.2044 59.1838 23.7641 58.995 23.3288C57.9533 20.8369 56.4887 18.5438 54.666 16.5508L54.5622 16.4707C53.0314 15.94 51.462 15.5277 49.868 15.2375C43.7871 14.1126 37.5118 14.7368 31.7716 17.0374C30.8961 17.3888 30.043 17.7753 29.2375 18.1868C27.4591 19.0874 25.7683 20.1514 24.1868 21.3651L24.0442 21.4714C23.0438 22.2515 22.0876 23.0866 21.1799 23.973C19.1548 25.9552 17.3983 28.1945 15.9554 30.6334C15.1284 32.0293 14.4096 33.4866 13.8053 34.9924L13.789 35.3476L13.6552 35.3451ZM33.2776 10.6671C31.3194 10.6681 29.3655 10.8481 27.4401 11.2049C27.19 11.2475 26.9398 11.2937 26.6972 11.35C25.7966 11.5339 24.891 11.7615 23.993 12.033C23.4689 12.1855 22.9486 12.3557 22.432 12.5333C21.9154 12.7109 21.4401 12.896 20.9498 13.0949C14.3357 15.7605 8.79893 20.5548 5.2149 26.7197C4.75837 27.4952 4.32434 28.3119 3.92409 29.1462C3.60764 29.8091 3.30995 30.4846 3.04104 31.16C-0.00622141 38.8132 -0.0334173 47.338 2.96495 55.0105C5.96331 62.683 11.7635 68.9306 19.1924 72.4897C19.3425 72.5623 19.4926 72.6323 19.6427 72.7011C19.3425 72.4159 19.0469 72.1241 18.7559 71.8256C14.0774 67.0554 10.8596 61.0475 9.48134 54.5097C9.35626 54.2883 9.20241 53.9506 9.05357 53.6016C8.81592 53.0575 8.60078 52.4984 8.3994 51.9293C7.24784 48.6688 6.75119 45.213 6.93793 41.7601C7.12466 38.3073 7.99111 34.9252 9.48759 31.8079C9.9962 30.746 10.5732 29.7182 11.2149 28.731C11.9369 27.6255 12.7422 26.5768 13.6239 25.594C14.0655 25.0937 14.522 24.6234 14.9998 24.1668C15.8931 23.3053 16.8488 22.511 17.8591 21.7903C19.4077 20.6838 21.0719 19.7486 22.8222 19.0011C26.9206 15.881 31.6709 13.7273 36.7185 12.7009C38.5902 12.3117 40.4907 12.0761 42.4008 11.9967L41.968 11.8716C39.142 11.0726 36.2193 10.6672 33.2826 10.6671H33.2776ZM38.801 67.688C38.9399 67.7292 39.0787 67.768 39.2175 67.8055C43.9466 69.1108 48.9085 69.337 53.7367 68.4672L53.8617 68.4422C54.0756 68.4034 54.2933 68.3646 54.5084 68.3171C55.3965 68.1383 56.272 67.9169 57.2039 67.6392C58.1357 67.3615 59.06 67.0476 59.9994 66.6748L60.3158 67.1051L60.1219 66.6235C64.053 65.0398 67.6328 62.6956 70.6561 59.7255C72.6838 57.7402 74.4436 55.4986 75.8906 53.0575C76.728 51.6386 77.4543 50.1569 78.0632 48.626C80.4141 42.7704 81.0107 36.3573 79.7803 30.1686C78.55 23.9798 75.5457 18.2827 71.1339 13.7715C68.3826 10.953 65.1372 8.66367 61.5591 7.0173C65.5671 10.8451 68.6124 15.5671 70.4459 20.7972C70.9577 22.2523 71.3755 23.7388 71.6967 25.2475C71.813 25.4602 71.9656 25.7941 72.1082 26.1231C72.9401 28.0696 73.5339 30.1093 73.8768 32.1981C74.1157 33.6238 74.2382 35.0666 74.2433 36.5121C74.2549 41.6702 72.7447 46.7172 69.9018 51.0212C69.1862 52.1128 68.3866 53.147 67.5103 54.1144C67.1426 54.5247 66.7599 54.9324 66.3534 55.3239L66.167 55.5003C63.8901 57.6959 61.2333 59.4593 58.3258 60.7048C55.4754 62.8461 52.311 64.5337 48.9449 65.708C45.6828 66.8602 42.2694 67.5277 38.8135 67.6892L38.801 67.688ZM26.5433 63.1851C28.0781 63.7272 29.6531 64.148 31.2538 64.4434C35.3993 65.2288 39.6591 65.1888 43.7892 64.3259C45.227 64.0261 46.6435 63.6316 48.0293 63.1451C48.5171 62.975 48.9999 62.7899 49.4715 62.5973C50.3008 62.2633 51.1088 61.8956 51.878 61.5053C57.4552 58.7081 62.1005 54.3522 65.2502 48.9662C65.7017 48.202 66.1357 47.3852 66.5422 46.5334C66.8462 45.9018 67.1239 45.2614 67.384 44.6172L67.4215 44.5171C67.8576 43.4407 68.2335 42.3408 68.5472 41.2226C69.8893 36.5005 70.1187 31.5316 69.2177 26.7059V26.6909C69.1814 26.457 69.1339 26.2269 69.0838 25.998C68.905 25.1037 68.6736 24.1881 68.3972 23.2625C68.2421 22.7384 68.0757 22.2181 67.8968 21.6978C67.728 21.2212 67.5516 20.7509 67.3602 20.2894C64.7142 13.6778 59.9449 8.13373 53.803 4.52948C52.9762 4.04043 52.1269 3.58889 51.2814 3.18739C50.656 2.88845 50.0306 2.60827 49.3902 2.35436C41.728 -0.732364 33.178 -0.785749 25.4778 2.20505C17.7777 5.19584 11.5053 11.0064 7.93537 18.4557C7.86907 18.5958 7.80278 18.7347 7.73774 18.8748C11.5693 14.8586 16.2975 11.8068 21.5352 9.96915C22.9796 9.46126 24.4542 9.04353 25.9504 8.71837C26.2631 8.55285 26.5841 8.4038 26.9123 8.27184C27.4276 8.0517 27.958 7.84657 28.4958 7.6552C29.964 7.14043 31.4739 6.75334 33.0086 6.49822C39.5436 5.43937 46.2379 6.87609 51.7629 10.5233C52.8472 11.2311 53.8747 12.0223 54.8361 12.8897C55.3152 13.3138 55.7805 13.7565 56.2282 14.2243C58.4229 16.5042 60.1847 19.1641 61.4278 22.0743C61.6617 22.6221 61.8768 23.175 62.0769 23.7428C62.5915 25.1988 62.9774 26.6972 63.2301 28.2206C63.3127 28.6934 63.3765 29.175 63.4303 29.6565C63.534 30.6024 63.5866 31.5531 63.5879 32.5046C63.5878 36.438 62.6998 40.3206 60.99 43.863C60.4842 44.9245 59.9062 45.95 59.2601 46.9324C56.8916 50.5357 53.6763 53.5037 49.8953 55.5769C46.1144 57.6501 41.8831 58.7652 37.5715 58.8249C36.271 58.843 34.9711 58.7623 33.6828 58.5835C30.9721 58.2096 28.336 57.4163 25.8691 56.232C24.1926 55.429 22.6043 54.4536 21.1299 53.3214C22.1121 56.9988 23.9743 60.3819 26.5558 63.1789L26.5433 63.1851ZM20.3869 49.0512C22.3089 51.0086 24.5594 52.6136 27.0361 53.793C27.5865 54.0573 28.1452 54.2991 28.7122 54.5184C24.7462 50.2924 22.2937 44.8702 21.739 39.1012C20.5881 42.2823 20.1305 45.6726 20.397 49.045L20.3869 49.0512ZM52.4309 25.1612C56.3796 29.3838 58.8393 34.7817 59.4353 40.5321C60.5848 37.381 61.0454 34.0201 60.7861 30.6759L60.7774 30.6672C58.4231 28.2579 55.5806 26.3802 52.4409 25.16L52.4309 25.1612Z" fill="url(#paint0_radial_28423_355343)"/>
</g>
<defs>
<radialGradient id="paint0_radial_28423_355343" cx="0" cy="0" r="1" gradientUnits="userSpaceOnUse" gradientTransform="translate(40.5746 39.8304) scale(39.8376 39.8376)">
<stop stop-color="#FDC300"/>
<stop offset="0.11" stop-color="#FDC205"/>
<stop offset="0.25" stop-color="#FDBF13"/>
<stop offset="0.39" stop-color="#FDB92B"/>
<stop offset="0.54" stop-color="#FEB24C"/>
<stop offset="0.7" stop-color="#FEA977"/>
<stop offset="0.86" stop-color="#FF9DAA"/>
<stop offset="1" stop-color="#FF92DE"/>
</radialGradient>
</defs>
</svg>
