<svg width="148" height="148" viewBox="0 0 148 148" fill="none" xmlns="http://www.w3.org/2000/svg">
<g id="Pie parts">
<path id="Clothes" d="M76.0011 3.70748C76.0712 1.68506 77.7695 0.0932067 79.7858 0.265539C91.7987 1.29236 103.397 5.27829 113.547 11.8959C124.723 19.1829 133.723 29.3875 139.586 41.4202C145.449 53.4529 147.955 66.8619 146.837 80.216C145.718 93.5701 141.017 106.368 133.235 117.243C125.453 128.118 114.882 136.662 102.651 141.964C90.4202 147.265 76.9883 149.125 63.7893 147.344C50.5903 145.563 38.1197 140.208 27.7086 131.851C18.2394 124.251 10.7973 114.426 6.02188 103.265C5.23281 101.421 6.19488 99.3253 8.07254 98.6194C9.96122 97.9094 12.058 98.8747 12.8625 100.725C17.1704 110.634 23.8176 119.357 32.2481 126.124C41.6284 133.653 52.8645 138.478 64.7568 140.083C76.6491 141.687 88.7512 140.012 99.7712 135.235C110.791 130.459 120.315 122.76 127.327 112.962C134.339 103.163 138.574 91.6326 139.582 79.6006C140.59 67.5686 138.332 55.487 133.05 44.6456C127.767 33.8041 119.658 24.6098 109.588 18.0442C100.544 12.1476 90.2238 8.56998 79.5279 7.59687C77.5138 7.41363 75.9309 5.72863 76.0011 3.70748Z" fill="url(#paint0_linear_843_19899)"/>
<path id="Clothes_2" d="M76.0011 3.70748C76.0712 1.68506 77.7695 0.0932067 79.7858 0.265539C91.7987 1.29236 103.397 5.27829 113.547 11.8959C124.723 19.1829 133.723 29.3875 139.586 41.4202C145.449 53.4529 147.955 66.8619 146.837 80.216C145.718 93.5701 141.017 106.368 133.235 117.243C125.453 128.118 114.882 136.662 102.651 141.964C90.4202 147.265 76.9883 149.125 63.7893 147.344C50.5903 145.563 38.1197 140.208 27.7086 131.851C18.2394 124.251 10.7973 114.426 6.02188 103.265C5.23281 101.421 6.19488 99.3253 8.07254 98.6194C9.96122 97.9094 12.058 98.8747 12.8625 100.725C17.1704 110.634 23.8176 119.357 32.2481 126.124C41.6284 133.653 52.8645 138.478 64.7568 140.083C76.6491 141.687 88.7512 140.012 99.7712 135.235C110.791 130.459 120.315 122.76 127.327 112.962C134.339 103.163 138.574 91.6326 139.582 79.6006C140.59 67.5686 138.332 55.487 133.05 44.6456C127.767 33.8041 119.658 24.6098 109.588 18.0442C100.544 12.1476 90.2238 8.56998 79.5279 7.59687C77.5138 7.41363 75.9309 5.72863 76.0011 3.70748Z" fill="url(#paint1_linear_843_19899)"/>
</g>
<defs>
<linearGradient id="paint0_linear_843_19899" x1="174.007" y1="175.081" x2="-41.4813" y2="159.287" gradientUnits="userSpaceOnUse">
<stop stop-color="#FF92E1"/>
<stop offset="1" stop-color="#FDC300"/>
</linearGradient>
<linearGradient id="paint1_linear_843_19899" x1="174.007" y1="175.081" x2="-41.4813" y2="159.287" gradientUnits="userSpaceOnUse">
<stop stop-color="white" stop-opacity="0"/>
<stop offset="0.799608" stop-color="white"/>
<stop offset="1" stop-color="white" stop-opacity="0"/>
</linearGradient>
</defs>
</svg>
