<svg width="148" height="148" viewBox="0 0 148 148" fill="none" xmlns="http://www.w3.org/2000/svg">
<g id="Pie parts">
<path id="Clothes" d="M76.0975 3.70748C76.1677 1.68506 77.866 0.0932067 79.8822 0.265539C91.8952 1.29236 103.493 5.27829 113.643 11.8959C124.819 19.1829 133.819 29.3875 139.683 41.4202C145.546 53.4529 148.052 66.8619 146.933 80.216C145.814 93.5701 141.113 106.368 133.331 117.243C125.549 128.118 114.978 136.662 102.747 141.964C90.5166 147.265 77.0848 149.125 63.8857 147.344C50.6867 145.563 38.2161 140.208 27.8051 131.851C18.3358 124.251 10.8938 114.426 6.11831 103.265C5.32925 101.421 6.29132 99.3253 8.16897 98.6194C10.0577 97.9094 12.1545 98.8747 12.959 100.725C17.2668 110.634 23.914 119.357 32.3445 126.124C41.7249 133.653 52.9609 138.478 64.8532 140.083C76.7455 141.687 88.8476 140.012 99.8676 135.235C110.888 130.459 120.412 122.76 127.423 112.962C134.435 103.163 138.671 91.6326 139.679 79.6006C140.687 67.5686 138.429 55.487 133.146 44.6456C127.863 33.8041 119.754 24.6098 109.684 18.0442C100.641 12.1476 90.3202 8.56998 79.6243 7.59687C77.6102 7.41363 76.0274 5.72863 76.0975 3.70748Z" fill="url(#paint0_linear_921_20145)"/>
<path id="Clothes_2" d="M76.0975 3.70748C76.1677 1.68506 77.866 0.0932067 79.8822 0.265539C91.8952 1.29236 103.493 5.27829 113.643 11.8959C124.819 19.1829 133.819 29.3875 139.683 41.4202C145.546 53.4529 148.052 66.8619 146.933 80.216C145.814 93.5701 141.113 106.368 133.331 117.243C125.549 128.118 114.978 136.662 102.747 141.964C90.5166 147.265 77.0848 149.125 63.8857 147.344C50.6867 145.563 38.2161 140.208 27.8051 131.851C18.3358 124.251 10.8938 114.426 6.11831 103.265C5.32925 101.421 6.29132 99.3253 8.16897 98.6194C10.0577 97.9094 12.1545 98.8747 12.959 100.725C17.2668 110.634 23.914 119.357 32.3445 126.124C41.7249 133.653 52.9609 138.478 64.8532 140.083C76.7455 141.687 88.8476 140.012 99.8676 135.235C110.888 130.459 120.412 122.76 127.423 112.962C134.435 103.163 138.671 91.6326 139.679 79.6006C140.687 67.5686 138.429 55.487 133.146 44.6456C127.863 33.8041 119.754 24.6098 109.684 18.0442C100.641 12.1476 90.3202 8.56998 79.6243 7.59687C77.6102 7.41363 76.0274 5.72863 76.0975 3.70748Z" fill="url(#paint1_linear_921_20145)"/>
</g>
<defs>
<linearGradient id="paint0_linear_921_20145" x1="174.103" y1="175.081" x2="-41.3848" y2="159.287" gradientUnits="userSpaceOnUse">
<stop stop-color="#FF92E1"/>
<stop offset="1" stop-color="#FDC300"/>
</linearGradient>
<linearGradient id="paint1_linear_921_20145" x1="174.103" y1="175.081" x2="-41.3848" y2="159.287" gradientUnits="userSpaceOnUse">
<stop stop-color="#252525" stop-opacity="0"/>
<stop offset="0.799608" stop-color="#252525"/>
<stop offset="1" stop-color="white" stop-opacity="0"/>
<stop offset="1" stop-color="#252525" stop-opacity="0"/>
</linearGradient>
</defs>
</svg>
