<svg width="20" height="20" viewBox="0 0 20 20" fill="none" xmlns="http://www.w3.org/2000/svg">
<path d="M10.9943 10.9066L10.8059 9.92451L10.9943 10.9066ZM5.32308 6.5737C5.08764 7.07329 5.30178 7.66914 5.80136 7.90458C6.30095 8.14002 6.89681 7.92589 7.13224 7.4263L5.32308 6.5737ZM9.00005 12C9.00005 12.5523 9.44777 13 10.0001 13C10.5523 13 11.0001 12.5523 11.0001 12H9.00005ZM10 14C9.44771 14 9 14.4477 9 15C9 15.5523 9.44771 16 10 16V14ZM10.01 16C10.5623 16 11.01 15.5523 11.01 15C11.01 14.4477 10.5623 14 10.01 14V16ZM18 10C18 14.4183 14.4183 18 10 18V20C15.5228 20 20 15.5228 20 10H18ZM10 18C5.58172 18 2 14.4183 2 10H0C0 15.5228 4.47715 20 10 20V18ZM2 10C2 5.58172 5.58172 2 10 2V0C4.47715 0 0 4.47715 0 10H2ZM10 2C14.4183 2 18 5.58172 18 10H20C20 4.47715 15.5228 0 10 0V2ZM13.0001 8C13.0001 8.72954 12.2788 9.64194 10.8059 9.92451L11.1827 11.8887C13.166 11.5082 15.0001 10.0693 15.0001 8H13.0001ZM10.0001 6C10.9092 6 11.6937 6.27763 12.2285 6.67868C12.7629 7.0795 13.0001 7.5569 13.0001 8H15.0001C15.0001 6.78625 14.3418 5.76364 13.4285 5.07868C12.5155 4.39395 11.3001 4 10.0001 4V6ZM7.13224 7.4263C7.47159 6.70623 8.52833 6 10.0001 6V4C7.98852 4 6.08197 4.96338 5.32308 6.5737L7.13224 7.4263ZM10.8059 9.92451C9.90969 10.0964 9.00005 10.8579 9.00005 12H11.0001C11.0001 11.9994 11.0001 11.9999 10.9999 12.0008C10.9997 12.0016 10.9997 12.0015 11.0002 12.0001C11.0014 11.9974 11.0064 11.9871 11.0206 11.972C11.0522 11.9386 11.11 11.9026 11.1827 11.8887L10.8059 9.92451ZM10 16H10.01V14H10V16Z" fill="url(#paint0_linear_2499_1969)"/>
<defs>
<linearGradient id="paint0_linear_2499_1969" x1="-2.29362" y1="-2.29361" x2="24.0785" y2="-0.348516" gradientUnits="userSpaceOnUse">
<stop stop-color="#FF92E1"/>
<stop offset="1" stop-color="#FDC300"/>
</linearGradient>
</defs>
</svg>
