<svg width="24" height="24" viewBox="0 0 24 24" fill="none" xmlns="http://www.w3.org/2000/svg">
<g id="general/question mark circle">
<path id="Icon" d="M8.22766 9C8.77678 7.83481 10.2584 7 12.0001 7C14.2092 7 16.0001 8.34315 16.0001 10C16.0001 11.3994 14.7224 12.5751 12.9943 12.9066C12.4519 13.0106 12.0001 13.4477 12.0001 14M12 17H12.01M21 12C21 16.9706 16.9706 21 12 21C7.02944 21 3 16.9706 3 12C3 7.02944 7.02944 3 12 3C16.9706 3 21 7.02944 21 12Z" stroke="url(#paint0_linear_260_13168)" stroke-width="2" stroke-linecap="round" stroke-linejoin="round"/>
</g>
<defs>
<linearGradient id="paint0_linear_260_13168" x1="-0.293617" y1="-0.293613" x2="26.0785" y2="1.65148" gradientUnits="userSpaceOnUse">
<stop stop-color="#FF92E1"/>
<stop offset="1" stop-color="#FDC300"/>
</linearGradient>
</defs>
</svg>
