<svg width="24" height="24" viewBox="0 0 24 24" fill="none" xmlns="http://www.w3.org/2000/svg">
  <path d="M17 8V20M17 20L13 16M17 20L21 16" stroke="currentColor" stroke-width="2" stroke-linecap="round" stroke-linejoin="round"/>
  <path d="M3 6.99419C3 4.9971 4.0779 3 6.5 3C8.90942 3 10 4.9971 10 6.99419C10 8.99129 8.90942 11 6.5 11C4.0779 11 3 8.99129 3 6.99419ZM8.16123 6.99419C8.16123 5.56604 7.70471 4.46299 6.5 4.46299C5.28261 4.46299 4.82609 5.56604 4.82609 6.99419C4.82609 8.42235 5.28261 9.53701 6.5 9.53701C7.70471 9.53701 8.16123 8.42235 8.16123 6.99419Z" fill="currentColor"/>
  <path d="M3.47698 21.1988L4.28913 19.9681C4.75322 20.3512 5.24309 20.5602 6.00368 20.5602C7.38306 20.5602 8.15654 19.5036 8.15654 18.3309V18.1684C7.74401 18.6909 6.88029 19.1669 5.93923 19.1669C4.39227 19.1669 3 18.3077 3 16.6589C3 15.1495 4.3407 14 6.30018 14C8.90424 14 10 15.8113 10 18.0058C10 20.3396 8.54328 22 6.00368 22C4.95948 22 4.08287 21.6865 3.47698 21.1988ZM8.13075 17.0537C8.0663 16.3106 7.60221 15.4282 6.37753 15.4282C5.39779 15.4282 4.86924 16.0435 4.86924 16.5893C4.86924 17.4136 5.62983 17.7736 6.45488 17.7736C7.09945 17.7736 7.73112 17.5065 8.13075 17.0537Z" fill="currentColor"/>
</svg>
