<svg width="24" height="24" viewBox="0 0 24 24" fill="none" xmlns="http://www.w3.org/2000/svg">
  <path d="M17 8V20M17 20L13 16M17 20L21 16" stroke="currentColor" stroke-width="2" stroke-linecap="round" stroke-linejoin="round"/>
  <path d="M2.47698 10.1988L3.28913 8.96807C3.75322 9.35123 4.24309 9.56023 5.00368 9.56023C6.38306 9.56023 7.15654 8.50363 7.15654 7.33091V7.16836C6.74401 7.69086 5.88029 8.16691 4.93923 8.16691C3.39227 8.16691 2 7.30769 2 5.65893C2 4.14949 3.3407 3 5.30018 3C7.90424 3 9 4.81132 9 7.00581C9 9.33962 7.54328 11 5.00368 11C3.95948 11 3.08287 10.6865 2.47698 10.1988ZM7.13075 6.0537C7.0663 5.3106 6.60221 4.42816 5.37753 4.42816C4.39779 4.42816 3.86924 5.04354 3.86924 5.58926C3.86924 6.41364 4.62983 6.77358 5.45488 6.77358C6.09945 6.77358 6.73112 6.50653 7.13075 6.0537Z" fill="currentColor"/>
  <path d="M2 17.9942C2 15.9971 3.0779 14 5.5 14C7.90942 14 9 15.9971 9 17.9942C9 19.9913 7.90942 22 5.5 22C3.0779 22 2 19.9913 2 17.9942ZM7.16123 17.9942C7.16123 16.566 6.70471 15.463 5.5 15.463C4.28261 15.463 3.82609 16.566 3.82609 17.9942C3.82609 19.4224 4.28261 20.537 5.5 20.537C6.70471 20.537 7.16123 19.4224 7.16123 17.9942Z" fill="currentColor"/>
</svg>
