<svg width="24" height="24" viewBox="0 0 24 24" fill="none" xmlns="http://www.w3.org/2000/svg">
<path d="M15 7.96471C15 9.60207 13.6569 10.9294 12 10.9294C10.3431 10.9294 9 9.60207 9 7.96471C9 6.32734 10.3431 5 12 5C13.6569 5 15 6.32734 15 7.96471Z" fill="white"/>
<path d="M20 9.94118C20 11.0328 19.1046 11.9176 18 11.9176C16.8954 11.9176 16 11.0328 16 9.94118C16 8.8496 16.8954 7.96471 18 7.96471C19.1046 7.96471 20 8.8496 20 9.94118Z" fill="white"/>
<path d="M16 16.8588C16 14.6757 14.2091 12.9059 12 12.9059C9.79086 12.9059 8 14.6757 8 16.8588V19.8235H16V16.8588Z" fill="white"/>
<path d="M8 9.94118C8 11.0328 7.10457 11.9176 6 11.9176C4.89543 11.9176 4 11.0328 4 9.94118C4 8.8496 4.89543 7.96471 6 7.96471C7.10457 7.96471 8 8.8496 8 9.94118Z" fill="white"/>
<path d="M18 19.8235V16.8588C18 15.8171 17.7282 14.8381 17.2507 13.9873C17.4902 13.9265 17.7413 13.8941 18 13.8941C19.6569 13.8941 21 15.2215 21 16.8588V19.8235H18Z" fill="white"/>
<path d="M6.74926 13.9873C6.27185 14.8381 6 15.8171 6 16.8588V19.8235H3V16.8588C3 15.2215 4.34315 13.8941 6 13.8941C6.25871 13.8941 6.50977 13.9265 6.74926 13.9873Z" fill="white"/>
</svg>
