<svg width="40" height="40" viewBox="0 0 40 40" fill="none" xmlns="http://www.w3.org/2000/svg">
<g id="general/user group">
<path id="Icon" d="M28.3333 33.3327H36.6666V29.9993C36.6666 27.2379 34.4281 24.9993 31.6666 24.9993C30.074 24.9993 28.6552 25.744 27.7396 26.9042M28.3333 33.3327H11.6666M28.3333 33.3327V29.9993C28.3333 28.9056 28.1226 27.8611 27.7396 26.9042M11.6666 33.3327H3.33331V29.9993C3.33331 27.2379 5.57189 24.9993 8.33331 24.9993C9.92599 24.9993 11.3447 25.744 12.2604 26.9042M11.6666 33.3327V29.9993C11.6666 28.9056 11.8774 27.8611 12.2604 26.9042M12.2604 26.9042C13.4892 23.8344 16.4913 21.666 20 21.666C23.5086 21.666 26.5108 23.8344 27.7396 26.9042M25 11.666C25 14.4274 22.7614 16.666 20 16.666C17.2386 16.666 15 14.4274 15 11.666C15 8.90459 17.2386 6.66602 20 6.66602C22.7614 6.66602 25 8.90459 25 11.666ZM35 16.666C35 18.507 33.5076 19.9993 31.6666 19.9993C29.8257 19.9993 28.3333 18.507 28.3333 16.666C28.3333 14.8251 29.8257 13.3327 31.6666 13.3327C33.5076 13.3327 35 14.8251 35 16.666ZM11.6666 16.666C11.6666 18.507 10.1743 19.9993 8.33331 19.9993C6.49236 19.9993 4.99998 18.507 4.99998 16.666C4.99998 14.8251 6.49236 13.3327 8.33331 13.3327C10.1743 13.3327 11.6666 14.8251 11.6666 16.666Z" stroke="url(#paint0_linear_28423_355335)" stroke-width="2" stroke-linecap="round" stroke-linejoin="round"/>
</g>
<defs>
<linearGradient id="paint0_linear_28423_355335" x1="-2.76598" y1="1.78659" x2="45.9231" y2="6.27547" gradientUnits="userSpaceOnUse">
<stop stop-color="#FF92E1"/>
<stop offset="1" stop-color="#FDC300"/>
</linearGradient>
</defs>
</svg>
