<svg width="18" height="18" viewBox="0 0 18 18" fill="none" xmlns="http://www.w3.org/2000/svg">
<path d="M1.7048 4.21893C2.29978 3.6937 3.08138 3.375 3.93742 3.375H14.0624C14.9185 3.375 15.7001 3.6937 16.295 4.21893C16.1567 3.10894 15.2099 2.25 14.0624 2.25H3.93742C2.78996 2.25 1.84313 3.10894 1.7048 4.21893Z" fill="white"/>
<path d="M1.7048 6.46893C2.29978 5.9437 3.08138 5.625 3.93742 5.625H14.0624C14.9185 5.625 15.7001 5.9437 16.295 6.46893C16.1567 5.35894 15.2099 4.5 14.0624 4.5H3.93742C2.78996 4.5 1.84313 5.35894 1.7048 6.46893Z" fill="white"/>
<path d="M3.9375 6.75C2.69486 6.75 1.6875 7.75736 1.6875 9V13.5C1.6875 14.7426 2.69486 15.75 3.9375 15.75H14.0625C15.3051 15.75 16.3125 14.7426 16.3125 13.5V9C16.3125 7.75736 15.3051 6.75 14.0625 6.75H11.25C10.9393 6.75 10.6875 7.00184 10.6875 7.3125C10.6875 8.24448 9.93198 9 9 9C8.06802 9 7.3125 8.24448 7.3125 7.3125C7.3125 7.00184 7.06066 6.75 6.75 6.75H3.9375Z" fill="white"/>
</svg>
